<svg width="16" height="16" viewBox="0 0 16 16" fill="none" xmlns="http://www.w3.org/2000/svg">
<rect width="16" height="16" rx="2" fill="white"/>
<path fill-rule="evenodd" clip-rule="evenodd" d="M2.00003 2.52114C1.9934 2.53278 2.99861 4.67311 4.23389 7.27745C5.46916 9.8818 6.55077 12.1625 6.63745 12.3456C6.72413 12.5288 6.80478 12.6683 6.81668 12.6557C6.84791 12.6225 7.54792 11.1441 7.54783 11.1116C7.54776 11.0965 6.63523 9.15278 5.51993 6.79212L3.49212 2.5H2.75212C2.34511 2.5 2.00667 2.5095 2.00003 2.52114ZM12.4804 2.56342C12.4657 2.59831 11.2951 5.07889 9.87898 8.07584C8.46289 11.0728 7.30425 13.5365 7.30425 13.5509C7.30425 13.5661 7.6115 13.5769 8.04386 13.5769H8.78343L11.3917 8.07313C12.8263 5.04606 14 2.55375 14 2.53467C14 2.50817 13.824 2.5 13.2536 2.5C12.5077 2.5 12.5072 2.50006 12.4804 2.56342Z" fill="black"/>
</svg>
