<svg width="22" height="28" viewBox="0 0 22 28" fill="none" xmlns="http://www.w3.org/2000/svg">
<path d="M10.981 5.50903C10.5854 5.50903 10.2059 5.65414 9.92619 5.91242C9.64645 6.17071 9.48928 6.52102 9.48928 6.88629V9.64081C9.48928 10.0061 9.64645 10.3564 9.92619 10.6147C10.2059 10.873 10.5854 11.0181 10.981 11.0181C11.3766 11.0181 11.756 10.873 12.0358 10.6147C12.3155 10.3564 12.4727 10.0061 12.4727 9.64081V6.88629C12.4727 6.52102 12.3155 6.17071 12.0358 5.91242C11.756 5.65414 11.3766 5.50903 10.981 5.50903ZM10.981 0C8.21162 0 5.55567 1.01573 3.59743 2.82373C1.63919 4.63173 0.539063 7.08391 0.539062 9.64081V17.9044C0.539063 20.4613 1.63919 22.9134 3.59743 24.7214C5.55567 26.5294 8.21162 27.5452 10.981 27.5452C13.7504 27.5452 16.4063 26.5294 18.3645 24.7214C20.3228 22.9134 21.4229 20.4613 21.4229 17.9044V9.64081C21.4229 7.08391 20.3228 4.63173 18.3645 2.82373C16.4063 1.01573 13.7504 0 10.981 0ZM18.4395 17.9044C18.4395 19.7307 17.6537 21.4823 16.255 22.7737C14.8562 24.0651 12.9591 24.7906 10.981 24.7906C9.00287 24.7906 7.10576 24.0651 5.70702 22.7737C4.30828 21.4823 3.52247 19.7307 3.52247 17.9044V9.64081C3.52247 7.81445 4.30828 6.06289 5.70702 4.77146C7.10576 3.48003 9.00287 2.75452 10.981 2.75452C12.9591 2.75452 14.8562 3.48003 16.255 4.77146C17.6537 6.06289 18.4395 7.81445 18.4395 9.64081V17.9044Z" fill="white"/>
</svg>
