<svg width="232" height="53" viewBox="0 0 232 53" fill="none" xmlns="http://www.w3.org/2000/svg">
<path d="M53.424 1.24L35.928 52H17.856L0.288 1.24H15.408L26.928 37.888L38.376 1.24H53.424ZM71.9331 1.24V52H57.8211V1.24H71.9331ZM105.674 52L95.5935 33.28H94.0815V52H79.9695V1.24H102.218C106.298 1.24 109.754 1.96 112.586 3.4C115.418 4.792 117.554 6.736 118.994 9.232C120.434 11.68 121.154 14.44 121.154 17.512C121.154 20.968 120.194 24.016 118.273 26.656C116.402 29.248 113.642 31.096 109.994 32.2L121.442 52H105.674ZM94.0815 23.632H101.066C102.986 23.632 104.426 23.176 105.386 22.264C106.346 21.352 106.826 20.032 106.826 18.304C106.826 16.672 106.322 15.4 105.314 14.488C104.354 13.528 102.938 13.048 101.066 13.048H94.0815V23.632ZM159.971 17.944C159.155 16.6 158.027 15.568 156.587 14.848C155.195 14.128 153.539 13.768 151.619 13.768C148.067 13.768 145.259 14.92 143.195 17.224C141.179 19.528 140.171 22.624 140.171 26.512C140.171 30.88 141.251 34.216 143.411 36.52C145.619 38.776 148.811 39.904 152.987 39.904C157.931 39.904 161.459 37.672 163.571 33.208H149.387V23.056H175.739V36.736C174.635 39.424 173.003 41.944 170.843 44.296C168.731 46.648 166.043 48.592 162.779 50.128C159.515 51.616 155.795 52.36 151.619 52.36C146.531 52.36 142.019 51.28 138.083 49.12C134.195 46.912 131.171 43.864 129.011 39.976C126.899 36.04 125.843 31.552 125.843 26.512C125.843 21.52 126.899 17.08 129.011 13.192C131.171 9.256 134.195 6.208 138.083 4.048C141.971 1.84 146.459 0.735999 151.547 0.735999C157.931 0.735999 163.211 2.272 167.387 5.344C171.563 8.416 174.155 12.616 175.163 17.944H159.971ZM214.175 43.72H196.175L193.439 52H178.607L197.111 1.24H213.383L231.815 52H216.911L214.175 43.72ZM210.647 32.92L205.175 16.504L199.775 32.92H210.647Z" fill="#2891CC"/>
</svg>
