<svg width="36" height="45" viewBox="0 0 36 45" fill="none" xmlns="http://www.w3.org/2000/svg">
<path d="M14.4071 7.98494C13.4757 7.98494 12.8047 8.6487 12.8047 9.56509C12.8047 10.4815 13.4807 11.1452 14.4071 11.1452C15.3386 11.1452 16.0096 10.4815 16.0096 9.56509C16.0146 8.65366 15.3386 7.98494 14.4071 7.98494ZM34.1324 12.7601C33.4414 12.0765 32.4949 11.6951 31.4683 11.6951C31.273 11.6951 31.0978 11.7149 30.9325 11.7446V11.6951H30.7522C30.4768 10.1793 29.8208 8.69824 28.8443 7.36576C27.9079 6.09273 26.691 4.99307 25.2989 4.15098L26.5558 2.37765V2.21419C26.5558 2.17456 26.5758 2.10026 26.5909 2.02596C26.6209 1.90707 26.661 1.75352 26.661 1.5851C26.661 0.668714 25.9849 0.00495336 25.0585 0.00495336C24.5677 0.00495336 24.082 0.287299 23.7615 0.767783L22.2942 2.85318C20.7919 2.36774 19.1694 2.11016 17.597 2.11016C16.0296 2.11016 14.4071 2.36774 12.8998 2.85318L11.4376 0.76283C11.1071 0.287299 10.6313 0 10.1356 0C9.20414 0 8.53311 0.663761 8.53311 1.58015C8.53311 1.88726 8.6583 2.21419 8.86862 2.44205L10.0004 4.04201C8.56315 4.88409 7.32125 5.99366 6.38481 7.26669C5.41332 8.59917 4.78235 10.0802 4.54698 11.596H4.27156V11.6455C4.11132 11.6158 3.93605 11.596 3.73574 11.596C2.71918 11.596 1.77272 11.9675 1.07665 12.6511C0.385592 13.3347 0 14.2659 0 15.2764V26.917C0 27.9225 0.375577 28.8538 1.07165 29.5373C1.76271 30.2209 2.71417 30.6023 3.73574 30.6023C3.93104 30.6023 4.10631 30.5825 4.27156 30.5528V35.1843C4.27156 36.6307 5.4684 37.8145 6.93566 37.8145H8.53311V40.7024C8.53311 41.708 8.90869 42.6392 9.60475 43.3228C10.2958 44.0063 11.2473 44.3878 12.2688 44.3878C13.2854 44.3878 14.2319 44.0163 14.9279 43.3327C15.619 42.6491 16.0046 41.7179 16.0046 40.7074V37.8245H19.1995V40.7024C19.1995 41.708 19.5751 42.6392 20.2711 43.3228C20.9622 44.0063 21.9137 44.3878 22.9352 44.3878C23.9568 44.3878 24.8983 44.0163 25.5943 43.3178C26.2854 42.6342 26.671 41.703 26.671 40.6925V37.8096H28.2684C29.7357 37.8096 30.9325 36.6307 30.9325 35.1793V30.6519C31.0928 30.6816 31.268 30.7014 31.4683 30.7014C32.4849 30.7014 33.4314 30.3299 34.1274 29.6463C34.8185 28.9628 35.2041 28.0315 35.2041 27.021V15.3804C35.1991 14.3749 34.8235 13.4486 34.1324 12.7601ZM4.27657 27.026C4.27657 27.3628 4.08127 27.551 3.74075 27.551C3.40022 27.551 3.20492 27.3628 3.20492 27.026V15.3804C3.20492 15.0436 3.40022 14.8554 3.74075 14.8554C4.08127 14.8554 4.27657 15.0436 4.27657 15.3804V27.026ZM10.8417 7.37072C12.7195 6.01843 15.1132 5.27541 17.602 5.27541C20.0909 5.27541 22.4845 6.02338 24.3624 7.38062C25.9849 8.55459 27.0766 10.0654 27.5022 11.7149H7.70183C8.12749 10.0604 9.22918 8.54468 10.8417 7.37072ZM12.8097 40.7916C12.7796 41.069 12.5893 41.2225 12.2839 41.2225C11.9433 41.2225 11.748 41.0343 11.748 40.6974V37.8145H12.8097V40.7916ZM22.9402 41.2225C22.5997 41.2225 22.4044 41.0343 22.4044 40.6974V37.8145H23.4661V40.7916C23.436 41.069 23.2507 41.2225 22.9402 41.2225ZM27.7376 34.6543H7.47649V14.8603H27.7376V34.6543ZM32.0042 27.026C32.0042 27.3628 31.8089 27.551 31.4683 27.551C31.1278 27.551 30.9325 27.3628 30.9325 27.026V15.3804C30.9325 15.0436 31.1278 14.8554 31.4683 14.8554C31.8089 14.8554 32.0042 15.0436 32.0042 15.3804V27.026ZM20.807 7.98494C19.8755 7.98494 19.2045 8.6487 19.2045 9.56509C19.2045 10.4815 19.8805 11.1452 20.807 11.1452C21.7384 11.1452 22.4144 10.4815 22.4144 9.56014C22.4094 8.6388 21.7434 7.98494 20.807 7.98494Z" fill="white"/>
</svg>
