<svg width="50" height="61" viewBox="0 0 50 61" fill="none" xmlns="http://www.w3.org/2000/svg">
<path d="M36.7998 0.993164C36.9425 0.993164 37.0853 0.993164 37.236 0.993164C37.5861 5.25771 35.9353 8.44429 33.9289 10.7518C31.9603 13.0434 29.2645 15.266 24.9044 14.9288C24.6136 10.7252 26.2671 7.77506 28.2708 5.47287C30.1289 3.32728 33.5358 1.41808 36.7998 0.993164Z" fill="white"/>
<path d="M50 44.9094C50 44.9519 50 44.989 50 45.0288C48.7746 48.6881 47.0268 51.824 44.8939 54.7344C42.9468 57.3765 40.5607 60.9321 36.3002 60.9321C32.6188 60.9321 30.1734 58.598 26.4004 58.5343C22.4093 58.4705 20.2144 60.486 16.5652 60.9932C16.1478 60.9932 15.7304 60.9932 15.321 60.9932C12.6413 60.6108 10.4788 58.5183 8.90337 56.633C4.25778 51.0619 0.667888 43.8658 0 34.6568C0 33.754 0 32.8538 0 31.9509C0.282774 25.3602 3.53065 20.0016 7.84768 17.4045C10.126 16.0237 13.258 14.8475 16.7456 15.3732C18.2404 15.6016 19.7673 16.106 21.1057 16.6054C22.3743 17.0859 23.9605 17.9383 25.4632 17.8932C26.4812 17.864 27.4938 17.3408 28.5199 16.9717C31.5254 15.9017 34.4716 14.6748 38.355 15.251C43.0222 15.9468 46.3348 17.9915 48.3815 21.146C44.4334 23.6235 41.3121 27.3571 41.8454 33.7328C42.3193 39.5242 45.7341 42.9125 50 44.9094Z" fill="white"/>
</svg>
