<svg width="38" height="44" viewBox="0 0 38 44" fill="none" xmlns="http://www.w3.org/2000/svg">
<path fill-rule="evenodd" clip-rule="evenodd" d="M18.3206 0.0632837C18.1587 0.0972959 17.9141 0.169858 17.7771 0.224538C17.6401 0.279173 15.6325 1.44794 13.3159 2.82172C10.9992 4.19551 7.36294 6.35045 5.23539 7.61047C1.64011 9.73975 1.34264 9.92518 1.02034 10.2384C0.609766 10.6373 0.354818 11.0451 0.149509 11.6312L0 12.0581V21.9652C0 31.3055 0.00457449 31.889 0.0802122 32.1643C0.266725 32.8434 0.713802 33.5558 1.1968 33.9437C1.56439 34.2388 5.58469 36.612 6.2503 36.9267C7.47785 37.5072 7.98833 37.6445 9.04368 37.678C10.1656 37.7137 10.9187 37.5828 11.702 37.2161C13.1276 36.5486 13.9736 35.2837 14.1943 33.4897C14.229 33.2079 14.2441 30.261 14.2442 23.7691L14.2443 14.4528L14.0903 14.3001L13.9364 14.1473H12.6884C11.8174 14.1473 11.4046 14.1635 11.3217 14.201C11.0576 14.3204 11.0739 13.6969 11.0739 23.668C11.0739 30.2344 11.0596 32.9013 11.0234 33.0719C10.8021 34.1158 9.85618 34.7238 8.72157 34.5515C8.3292 34.4919 7.86088 34.3474 7.54026 34.1868C7.14106 33.987 3.39464 31.746 3.28367 31.6407L3.17044 31.5332L3.1588 22.1872C3.14866 14.0483 3.15572 12.8247 3.21356 12.7137C3.25142 12.6411 3.42181 12.4994 3.61018 12.3839C3.7918 12.2726 5.27539 11.3735 6.90703 10.3858C8.53868 9.39824 11.8703 7.38056 14.3107 5.90218C16.7511 4.4238 18.8009 3.19428 18.8659 3.16993C18.9308 3.14563 19.0335 3.13839 19.0939 3.15389C19.1544 3.16939 22.6788 5.28484 26.9261 7.85489C32.523 11.2416 34.6764 12.567 34.7503 12.6702L34.8522 12.8127V22.1508V31.4889L34.7277 31.6236C34.6329 31.7261 19.811 40.5123 19.2174 40.8178C18.9565 40.952 19.1348 41.0379 16.6901 39.6012C14.7217 38.4444 14.7402 38.4545 14.5785 38.4545C14.5095 38.4545 14.2344 38.581 13.9535 38.7419C13.2729 39.1317 12.8228 39.3491 12.2135 39.5819C11.6821 39.785 11.5775 39.8691 11.6617 40.0252C11.7374 40.1655 11.8637 40.2463 14.6293 41.9239C17.8075 43.8516 17.5835 43.7231 18.0262 43.8734C18.3383 43.9793 18.464 43.9968 18.9321 43.9999C19.2545 44.0019 19.5769 43.9783 19.7247 43.9416C20.0164 43.8693 20.5279 43.6439 20.8932 43.4269C21.0352 43.3426 22.7819 42.3076 24.7747 41.127C26.7676 39.9465 29.1216 38.5516 30.006 38.0274C30.8903 37.5032 32.4087 36.6034 33.3802 36.0278C36.9306 33.9244 36.7907 34.0153 37.1989 33.5433C37.4732 33.2262 37.8039 32.5944 37.9207 32.1643C37.9951 31.8903 38 31.2616 38 21.9652V12.0581L37.8505 11.6312C37.6032 10.9254 37.1798 10.3216 36.6747 9.95452C36.2922 9.67662 20.526 0.343603 20.2484 0.230828C19.6889 0.00348174 18.9225 -0.0631496 18.3206 0.0632837ZM21.7952 13.4299C17.9831 13.8567 15.9252 15.7945 16.0708 18.82C16.1689 20.8567 17.1872 22.0837 19.3669 22.7914C20.3031 23.0954 21.2265 23.2615 23.2575 23.4912C26.2613 23.8311 27.5907 24.1843 28.1671 24.7956C28.4478 25.0933 28.532 25.3901 28.498 25.9624C28.4122 27.4057 27.4642 28.2024 25.4661 28.5104C24.8431 28.6065 22.8567 28.6186 22.1478 28.5307C19.901 28.2521 18.8444 27.4663 18.5193 25.8322C18.3819 25.1411 18.4141 25.1552 16.9676 25.1552H15.8365L15.6987 25.2702C15.5202 25.4192 15.4961 25.5666 15.5555 26.1446C15.7811 28.34 17.2127 30.0113 19.5506 30.8087C21.9101 31.6134 25.2123 31.659 27.5375 30.9191C30.2794 30.0467 31.7809 28.0414 31.6684 25.4023C31.6006 23.8112 31.0662 22.8072 29.8883 22.0576C28.8482 21.3957 27.4318 21.0182 24.3218 20.5742C20.623 20.046 19.6524 19.7645 19.3044 19.119C19.2167 18.9562 19.2041 18.8663 19.2062 18.4157C19.2093 17.7516 19.3031 17.4905 19.6726 17.1162C20.0779 16.7057 20.7085 16.4481 21.6814 16.2955C22.2713 16.203 24.5458 16.2176 25.1944 16.3181C26.8536 16.5751 27.6436 17.1144 28.0368 18.2584C28.1152 18.4867 28.2081 18.663 28.2913 18.7414L28.4222 18.865H29.556C30.8083 18.865 30.8967 18.8485 31.0021 18.596C31.1194 18.3152 30.9386 17.3143 30.6436 16.6115C30.1297 15.387 28.986 14.4289 27.4394 13.9276C26.9139 13.7572 26.1349 13.5865 25.4541 13.4925C24.8289 13.4062 22.3811 13.3643 21.7952 13.4299Z" fill="white"/>
</svg>
