<svg width="49" height="45" viewBox="0 0 49 45" fill="none" xmlns="http://www.w3.org/2000/svg">
<path d="M0 22.033C0 18.7557 4.06502 15.65 10.2973 13.724C8.85911 7.31072 9.49839 2.20834 12.3149 0.574753C12.9642 0.191555 13.7232 0.0100449 14.5522 0.0100449V2.25874C14.0927 2.25874 13.7232 2.3495 13.4136 2.52096C12.0552 3.30745 11.4659 6.30237 11.9255 10.1544C12.0353 11.1023 12.215 12.1005 12.4348 13.119C14.3924 12.635 16.5297 12.2618 18.7771 12.0199C20.1253 10.1544 21.5237 8.46023 22.9319 6.97792C19.6759 3.92256 16.6197 2.2487 14.5422 2.2487V0C17.2888 0 20.8845 1.97643 24.52 5.40495C28.1556 1.99661 31.7511 0.0402671 34.4977 0.0402671V2.28897C32.4303 2.28897 29.364 3.95287 26.108 6.98806C27.5063 8.47036 28.9046 10.1544 30.233 12.0199C32.4902 12.2618 34.6276 12.635 36.5852 13.129C36.8149 12.1207 36.9847 11.1425 37.1045 10.2048C37.574 6.35277 36.9947 3.35785 35.6464 2.56123C35.3467 2.37972 34.9572 2.2991 34.4977 2.2991V0.0504885C35.3368 0.0504885 36.0958 0.231909 36.755 0.615107C39.5616 2.2487 40.1908 7.34094 38.7425 13.7341C44.955 15.6701 49 18.7658 49 22.033C49 25.3102 44.935 28.416 38.7027 30.342C40.1409 36.7552 39.5016 41.8577 36.6851 43.4912C36.0358 43.8744 35.2768 44.0559 34.4379 44.0559C31.6912 44.0559 28.0955 42.0794 24.4601 38.6509C20.8245 42.0593 17.2289 44.0155 14.4823 44.0155C13.6433 44.0155 12.8842 43.8341 12.2251 43.4508C9.4185 41.8172 8.7892 36.725 10.2375 30.3319C4.04505 28.4059 0 25.3001 0 22.033ZM13.0041 15.3071C13.3737 16.6079 13.8331 17.949 14.3524 19.2902C14.762 18.4835 15.1914 17.6768 15.6608 16.8701C16.1203 16.0634 16.6097 15.2769 17.099 14.5105C15.6808 14.7223 14.3125 14.9845 13.0041 15.3071ZM17.5785 26.0463C18.3575 27.4076 19.1565 28.6984 19.9855 29.8983C21.4737 30.0294 22.9819 30.1 24.5 30.1C26.0082 30.1 27.5163 30.0294 28.9944 29.9084C29.8234 28.7084 30.6324 27.4278 31.4115 26.0765C32.1706 24.7556 32.8598 23.4145 33.4891 22.0633C32.8698 20.712 32.1706 19.3608 31.4215 18.0397C30.6425 16.6785 29.8435 15.3877 29.0145 14.1878C27.5263 14.0567 26.0181 13.9862 24.5 13.9862C22.9918 13.9862 21.4837 14.0567 20.0056 14.1778C19.1766 15.3777 18.3676 16.6583 17.5885 18.0096C16.8294 19.3306 16.1403 20.6716 15.511 22.0228C16.1403 23.3741 16.8294 24.7253 17.5785 26.0463ZM14.3524 24.7354C13.8131 26.0866 13.3536 27.4378 12.9741 28.7488C14.2825 29.0714 15.6608 29.3437 17.0891 29.5555C16.5996 28.779 16.1102 27.9824 15.6509 27.1656C15.1914 26.3589 14.762 25.5421 14.3524 24.7354ZM24.48 35.4948C25.4089 34.5268 26.3378 33.4478 27.2567 32.268C26.3578 32.3083 25.4388 32.3385 24.5101 32.3385C23.5711 32.3385 22.6422 32.3183 21.7334 32.268C22.6323 33.4478 23.5612 34.5268 24.48 35.4948ZM31.9109 29.5555C33.3292 29.3437 34.6975 29.0815 36.0059 28.7589C35.6364 27.458 35.1769 26.1169 34.6575 24.7758C34.2481 25.5825 33.8186 26.3892 33.3491 27.1959C32.8797 28.0025 32.4004 28.7891 31.9109 29.5555ZM24.53 8.57125C23.6011 9.53924 22.6722 10.6182 21.7534 11.7979C22.6523 11.7576 23.5711 11.7274 24.5 11.7274C25.4388 11.7274 26.3677 11.7476 27.2766 11.7979C26.3778 10.6182 25.4489 9.53924 24.53 8.57125ZM31.921 14.5105C32.4103 15.2869 32.8997 16.0836 33.3591 16.9004C33.8186 17.7071 34.2481 18.5138 34.6575 19.3204C35.197 17.9692 35.6563 16.6181 36.0358 15.3071C34.7274 14.9945 33.3491 14.7223 31.921 14.5105ZM40.9598 27.1353C44.4955 25.6127 46.7827 23.6162 46.7827 22.033C46.7827 20.4499 44.4955 18.4432 40.9598 16.9306C40.1009 16.5575 39.162 16.2247 38.1932 15.9122C37.6239 17.8886 36.8749 19.9457 35.946 22.0531C36.8649 24.1506 37.6039 26.1976 38.1632 28.1639C39.1521 27.8513 40.0909 27.5084 40.9598 27.1353ZM35.5864 41.545C36.9448 40.7585 37.5341 37.7636 37.0745 33.9117C36.9647 32.9638 36.785 31.9654 36.5652 30.947C34.6076 31.431 32.4703 31.8041 30.2229 32.0461C28.8747 33.9117 27.4763 35.6057 26.0681 37.088C29.3241 40.1434 32.3803 41.8172 34.4579 41.8172C34.9073 41.8072 35.2868 41.7164 35.5864 41.545ZM11.8954 33.8612C11.426 37.7132 12.0053 40.7081 13.3536 41.5047C13.6533 41.6862 14.0428 41.7669 14.5022 41.7669C16.5697 41.7669 19.636 40.103 22.892 37.0678C21.4937 35.5855 20.0954 33.9015 18.767 32.036C16.5098 31.794 14.3724 31.4209 12.4148 30.9269C12.1851 31.9453 12.0053 32.9234 11.8954 33.8612ZM8.05011 27.1353C8.90908 27.5084 9.84795 27.8412 10.8168 28.1538C11.386 26.1774 12.1351 24.1203 13.064 22.0128C12.1451 19.9154 11.4061 17.8684 10.8467 15.9021C9.85793 16.2147 8.91914 16.5575 8.04016 16.9306C4.50449 18.4532 2.21728 20.4499 2.21728 22.033C2.2273 23.6162 4.51443 25.6228 8.05011 27.1353Z" fill="white"/>
</svg>
