<svg width="176" height="64" viewBox="0 0 176 64" fill="none" xmlns="http://www.w3.org/2000/svg">
<path d="M144 0H32C14.3269 0 0 14.3269 0 32C0 49.6731 14.3269 64 32 64H144C161.673 64 176 49.6731 176 32C176 14.3269 161.673 0 144 0Z" fill="#191714"/>
<path fill-rule="evenodd" clip-rule="evenodd" d="M70.1593 42.4214H72.4752L67.4062 28.3118H65.0607L59.9916 42.4214H62.2293L63.5235 38.6762H68.8746L70.1588 42.4214H70.1593ZM66.122 30.8736H66.2873L68.3205 36.838H64.0787L66.1214 30.8741L66.122 30.8736ZM78.6151 31.5971C77.1751 31.5971 75.9294 32.3207 75.2876 33.5331H75.1318V31.7731H73.1176V45.8727H75.2094V40.8078H75.3753C75.9294 41.9325 77.1265 42.5974 78.6346 42.5974C81.3096 42.5974 83.0127 40.4759 83.0127 37.0922C83.0127 33.7091 81.3096 31.5971 78.6151 31.5971V31.5971ZM78.0207 40.71C76.2696 40.71 75.1703 39.3216 75.1703 37.1023C75.1703 34.873 76.2696 33.4845 78.0302 33.4845C79.8014 33.4845 80.8616 34.8433 80.8616 37.0922C80.8616 39.3512 79.8008 40.71 78.0207 40.71V40.71ZM89.4636 31.5971C88.0236 31.5971 86.778 32.3207 86.1362 33.5331H85.9804V31.7731H83.9668V45.8727H86.0586V40.8078H86.2239C86.778 41.9325 87.9751 42.5974 89.4832 42.5974C92.1588 42.5974 93.8613 40.4759 93.8613 37.0922C93.8613 33.7091 92.1588 31.5971 89.4636 31.5971V31.5971ZM88.8699 40.71C87.1188 40.71 86.0195 39.3216 86.0195 37.1023C86.0195 34.873 87.1188 33.4845 88.8799 33.4845C90.6506 33.4845 91.7108 34.8433 91.7108 37.0922C91.7108 39.3512 90.65 40.71 88.8699 40.71V40.71ZM98.2891 38.6276C98.445 41.1503 100.537 42.7639 103.65 42.7639C106.978 42.7639 109.059 41.0721 109.059 38.3728C109.059 36.2513 107.873 35.078 104.993 34.4036L103.446 34.022C101.617 33.5918 100.877 33.0146 100.877 32.0078C100.877 30.7367 102.025 29.9058 103.747 29.9058C105.382 29.9058 106.511 30.7177 106.715 32.0178H108.836C108.709 29.6416 106.628 27.9698 103.777 27.9698C100.712 27.9698 98.6684 29.6416 98.6684 32.1547C98.6684 34.2276 99.8263 35.4596 102.366 36.0558L104.175 36.4961C106.034 36.9358 106.851 37.5811 106.851 38.6567C106.851 39.9082 105.567 40.8179 103.816 40.8179C101.938 40.8179 100.634 39.9669 100.449 38.6276H98.2891V38.6276ZM110.86 29.1918V31.8223H109.118V33.5918H110.86V39.6054C110.86 41.6587 111.785 42.4795 114.11 42.4795C114.518 42.4795 114.898 42.4309 115.228 42.3728V40.6223C114.937 40.6519 114.771 40.6709 114.45 40.6709C113.409 40.6709 112.952 40.182 112.952 39.0673V33.5918H115.326V31.8223H112.952V29.1912H110.86L110.86 29.1918ZM120.512 40.7592C118.693 40.7592 117.671 39.4199 117.671 37.0922C117.671 34.7847 118.693 33.4359 120.512 33.4359C122.322 33.4359 123.353 34.7847 123.353 37.0922C123.353 39.4093 122.322 40.7592 120.512 40.7592ZM120.512 42.6264C123.606 42.6264 125.503 40.5441 125.503 37.0922C125.503 33.6605 123.596 31.5681 120.512 31.5681C117.419 31.5681 115.511 33.6599 115.511 37.0922C115.511 40.5441 117.409 42.627 120.513 42.627L120.512 42.6264ZM126.457 42.4214H128.549V36.134C128.549 34.6383 129.668 33.6309 131.244 33.6309C131.594 33.6309 132.236 33.6996 132.402 33.7583V31.6854C132.178 31.6261 131.78 31.5971 131.477 31.5971C130.097 31.5971 128.929 32.3598 128.627 33.4063H128.472V31.7731H126.457V42.4214H126.457ZM137.112 33.3571C138.658 33.3571 139.67 34.4427 139.719 36.1144H134.368C134.485 34.4522 135.565 33.3571 137.112 33.3571ZM139.71 39.5467C139.32 40.3776 138.454 40.8374 137.189 40.8374C135.516 40.8374 134.436 39.654 134.368 37.7867V37.6694H141.85V36.9358C141.85 33.5918 140.069 31.5681 137.121 31.5681C134.134 31.5681 132.237 33.7287 132.237 37.1313C132.237 40.534 134.095 42.6264 137.131 42.6264C139.554 42.6264 141.247 41.4531 141.724 39.5467H139.709H139.71Z" fill="white"/>
<path fill-rule="evenodd" clip-rule="evenodd" d="M61.9526 17.2984V24.0173H64.3663C66.3586 24.0173 67.5123 22.7835 67.5123 20.6371C67.5123 18.5227 66.3497 17.2984 64.3663 17.2984H61.9526V17.2984ZM62.9903 18.2484H64.2507C65.6362 18.2484 66.4557 19.1331 66.4557 20.6507C66.4557 22.1921 65.6498 23.0673 64.2507 23.0673H62.9903V18.2484ZM71.1639 23.2261C70.2975 23.2261 69.811 22.5879 69.811 21.4798C69.811 20.3811 70.2975 19.7381 71.1639 19.7381C72.0255 19.7381 72.5168 20.3811 72.5168 21.4798C72.5168 22.5832 72.0255 23.2255 71.1639 23.2255V23.2261ZM71.1639 24.115C72.6371 24.115 73.5408 23.123 73.5408 21.4798C73.5408 19.8454 72.6329 18.8487 71.1645 18.8487C69.6907 18.8487 68.7823 19.8454 68.7823 21.4798C68.7823 23.123 69.686 24.115 71.1645 24.115H71.1639ZM81.3482 18.9464H80.3526L79.4537 22.8161H79.3749L78.3366 18.9464H77.3826L76.3449 22.8161H76.2703L75.3672 18.9464H74.3574L75.747 24.0173H76.771L77.8086 20.2833H77.8874L78.9304 24.0173H79.9633L81.3482 18.9464V18.9464ZM82.614 24.0173H83.6101V21.0513C83.6101 20.2596 84.1014 19.766 84.9026 19.766C85.6439 19.766 86.0054 20.1713 86.0054 20.9861V24.0173H87.0015V20.7343C87.0015 19.529 86.3669 18.8487 85.2415 18.8487C84.4812 18.8487 83.8928 19.1888 83.6474 19.7524H83.5734V18.9464H82.6134V24.0173H82.614ZM88.6845 24.0173H89.68V16.9678H88.6845V24.0178V24.0173ZM93.5408 23.2255C92.6744 23.2255 92.1879 22.5879 92.1879 21.4798C92.1879 20.3811 92.6738 19.7381 93.5408 19.7381C94.4024 19.7381 94.8937 20.3811 94.8937 21.4798C94.8937 22.5832 94.4018 23.2255 93.5408 23.2255ZM93.5408 24.115C95.014 24.115 95.9171 23.123 95.9171 21.4798C95.9171 19.8454 95.0092 18.8487 93.5408 18.8487C92.067 18.8487 91.1592 19.8454 91.1592 21.4798C91.1592 23.123 92.0629 24.115 93.5408 24.115V24.115ZM98.9991 23.2581C98.4569 23.2581 98.0629 22.9927 98.0629 22.5364C98.0629 22.0895 98.3781 21.8519 99.0732 21.8057L100.306 21.7263V22.15C100.306 22.7787 99.75 23.2581 98.9991 23.2581ZM98.7443 24.1008C99.4069 24.1008 99.958 23.8122 100.26 23.305H100.338V24.0173H101.297V20.553C101.297 19.4821 100.584 18.8487 99.3186 18.8487C98.1749 18.8487 97.3589 19.4075 97.2569 20.2786H98.2211C98.3319 19.9201 98.7165 19.715 99.2723 19.715C99.9538 19.715 100.306 20.0173 100.306 20.553V20.9909L98.9387 21.0697C97.7387 21.1444 97.0626 21.6706 97.0626 22.5832C97.0626 23.51 97.7713 24.1008 98.7443 24.1008V24.1008ZM104.796 24.1008C105.491 24.1008 106.079 23.7707 106.38 23.2167H106.459V24.0173H107.413V16.9678H106.418V19.7524H106.343C106.071 19.1936 105.486 18.8629 104.796 18.8629C103.522 18.8629 102.702 19.878 102.702 21.4798C102.702 23.0857 103.512 24.1008 104.796 24.1008V24.1008ZM105.079 19.7613C105.912 19.7613 106.436 20.4273 106.436 21.4845C106.436 22.5458 105.917 23.2024 105.079 23.2024C104.235 23.2024 103.73 22.5553 103.73 21.4798C103.73 20.4131 104.24 19.7613 105.079 19.7613V19.7613ZM114.106 23.2255C113.239 23.2255 112.753 22.5879 112.753 21.4798C112.753 20.3811 113.239 19.7381 114.106 19.7381C114.967 19.7381 115.458 20.3811 115.458 21.4798C115.458 22.5832 114.967 23.2255 114.106 23.2255ZM114.106 24.115C115.579 24.115 116.482 23.123 116.482 21.4798C116.482 19.8454 115.574 18.8487 114.106 18.8487C112.632 18.8487 111.724 19.8454 111.724 21.4798C111.724 23.123 112.628 24.115 114.106 24.115V24.115ZM117.915 24.0173H118.911V21.0513C118.911 20.2596 119.402 19.766 120.203 19.766C120.945 19.766 121.306 20.1713 121.306 20.9861V24.0173H122.302V20.7343C122.302 19.529 121.668 18.8487 120.542 18.8487C119.782 18.8487 119.194 19.1888 118.948 19.7524H118.874V18.9464H117.915V24.0173V24.0173ZM127.122 17.718V18.9701H126.293V19.8128H127.122V22.6762C127.122 23.654 127.563 24.0451 128.67 24.0451C128.865 24.0451 129.045 24.0214 129.203 23.9941V23.1604C129.064 23.1746 128.985 23.1841 128.832 23.1841C128.336 23.1841 128.119 22.9512 128.119 22.4202V19.8128H129.249V18.9701H128.119V17.7174H127.122V17.718ZM130.668 24.0173H131.663V21.0561C131.663 20.2875 132.169 19.7707 132.984 19.7707C133.735 19.7707 134.11 20.1808 134.11 20.9909V24.0173H135.106V20.7438C135.106 19.5378 134.458 18.8534 133.322 18.8534C132.562 18.8534 131.979 19.1936 131.733 19.7613H131.655V16.9678H130.668V24.0178V24.0173ZM138.818 19.7008C139.554 19.7008 140.036 20.2181 140.06 21.014H137.512C137.567 20.2223 138.081 19.7008 138.818 19.7008ZM140.055 22.6484C139.87 23.0442 139.457 23.2629 138.855 23.2629C138.058 23.2629 137.544 22.6999 137.512 21.8104V21.7541H141.074V21.4051C141.074 19.8128 140.226 18.8487 138.823 18.8487C137.4 18.8487 136.497 19.878 136.497 21.4981C136.497 23.1189 137.382 24.115 138.827 24.115C139.981 24.115 140.787 23.5562 141.014 22.6484H140.055V22.6484Z" fill="white"/>
<path fill-rule="evenodd" clip-rule="evenodd" d="M47.9574 31.603C47.9271 28.1927 50.7366 26.5334 50.8646 26.4564C49.2735 24.1251 46.8077 23.8069 45.9414 23.7814C43.8702 23.5621 41.8614 25.027 40.8059 25.027C39.7298 25.027 38.1055 23.8027 36.3544 23.8383C34.1014 23.8738 31.9929 25.1847 30.8374 27.2202C28.451 31.3713 30.2305 37.4721 32.5168 40.8273C33.6605 42.4718 34.9962 44.3058 36.7449 44.2407C38.4563 44.1713 39.0951 43.1444 41.1597 43.1444C43.2059 43.1444 43.8057 44.2407 45.5894 44.1992C47.4264 44.1713 48.5819 42.5494 49.6854 40.8901C51.0068 39.0087 51.5378 37.1509 51.5585 37.0561C51.5165 37.0424 47.9935 35.6913 47.9574 31.6036" fill="white"/>
<path fill-rule="evenodd" clip-rule="evenodd" d="M44.5883 21.5739C45.5086 20.4172 46.138 18.8439 45.9631 17.2468C44.631 17.3061 42.9658 18.173 42.0064 19.3043C41.1578 20.301 40.3993 21.9348 40.5954 23.4714C42.0917 23.5834 43.6277 22.7129 44.5883 21.5739Z" fill="white"/>
</svg>
