<svg width="840" height="333" viewBox="0 0 840 333" fill="none" xmlns="http://www.w3.org/2000/svg">
<g filter="url(#filter0_d)">
<rect x="48" y="133" width="744" height="136" rx="16" fill="white"/>
</g>
<rect x="58" y="141" width="229" height="119" fill="#DCD5E6"/>
<path d="M160.435 228V219.234H158.365V228H160.435ZM158.041 216.156C158.041 216.912 158.653 217.506 159.391 217.506C160.147 217.506 160.759 216.912 160.759 216.156C160.759 215.4 160.147 214.788 159.391 214.788C158.653 214.788 158.041 215.4 158.041 216.156ZM164.748 221.61C164.748 218.532 166.872 217.002 169.014 217.002C171.174 217.002 173.298 218.532 173.298 221.61C173.298 224.688 171.174 226.218 169.014 226.218C166.872 226.218 164.748 224.688 164.748 221.61ZM162.534 221.61C162.534 225.804 165.666 228.27 169.014 228.27C172.362 228.27 175.512 225.804 175.512 221.61C175.512 217.434 172.362 214.968 169.014 214.968C165.666 214.968 162.534 217.434 162.534 221.61ZM186.128 218.226C185.84 216.804 184.67 214.968 181.664 214.968C179.288 214.968 177.326 216.732 177.326 218.874C177.326 220.782 178.622 222.06 180.566 222.456L182.366 222.834C183.464 223.068 184.076 223.734 184.076 224.562C184.076 225.552 183.284 226.326 181.754 226.326C179.918 226.326 178.964 225.102 178.838 223.77L176.822 224.346C177.02 226.182 178.514 228.27 181.754 228.27C184.67 228.27 186.272 226.38 186.272 224.4C186.272 222.6 185.066 221.178 182.816 220.728L180.98 220.35C179.99 220.134 179.486 219.522 179.486 218.712C179.486 217.74 180.386 216.876 181.682 216.876C183.392 216.876 184.058 218.046 184.184 218.838L186.128 218.226Z" fill="#2B2B2F"/>
<path d="M398.406 228H400.764L395.796 215.238H393.294L388.326 228H390.612L391.8 224.796H397.2L398.406 228ZM394.5 217.578L396.444 222.798H392.556L394.5 217.578ZM404.328 222.942C404.328 221.79 404.958 220.872 406.146 220.872C407.46 220.872 407.946 221.736 407.946 222.816V228H410.034V222.456C410.034 220.53 409.008 218.982 406.866 218.982C405.894 218.982 404.85 219.396 404.274 220.404V219.234H402.24V228H404.328V222.942ZM413.98 223.59C413.98 221.916 414.988 220.854 416.356 220.854C417.724 220.854 418.66 221.898 418.66 223.572C418.66 225.246 417.706 226.38 416.338 226.38C414.916 226.38 413.98 225.264 413.98 223.59ZM420.676 214.968H418.642V220.26C418.372 219.702 417.598 219 416.068 219C413.602 219 411.892 221.07 411.892 223.59C411.892 226.236 413.584 228.216 416.104 228.216C417.346 228.216 418.264 227.604 418.678 226.866C418.678 227.226 418.732 227.802 418.768 228H420.766C420.748 227.856 420.676 227.19 420.676 226.398V214.968ZM428.534 219.18C428.444 219.162 428.228 219.126 427.976 219.126C426.824 219.126 425.852 219.684 425.438 220.638V219.234H423.404V228H425.492V223.824C425.492 222.186 426.23 221.25 427.85 221.25C428.066 221.25 428.3 221.268 428.534 221.304V219.18ZM434.041 226.398C432.763 226.398 431.593 225.426 431.593 223.608C431.593 221.79 432.763 220.854 434.041 220.854C435.337 220.854 436.489 221.79 436.489 223.608C436.489 225.444 435.337 226.398 434.041 226.398ZM434.041 218.964C431.431 218.964 429.505 220.926 429.505 223.608C429.505 226.308 431.431 228.27 434.041 228.27C436.669 228.27 438.595 226.308 438.595 223.608C438.595 220.926 436.669 218.964 434.041 218.964ZM442.683 228V219.234H440.613V228H442.683ZM440.289 216.156C440.289 216.912 440.901 217.506 441.639 217.506C442.395 217.506 443.007 216.912 443.007 216.156C443.007 215.4 442.395 214.788 441.639 214.788C440.901 214.788 440.289 215.4 440.289 216.156ZM446.78 223.59C446.78 221.916 447.788 220.854 449.156 220.854C450.524 220.854 451.46 221.898 451.46 223.572C451.46 225.246 450.506 226.38 449.138 226.38C447.716 226.38 446.78 225.264 446.78 223.59ZM453.476 214.968H451.442V220.26C451.172 219.702 450.398 219 448.868 219C446.402 219 444.692 221.07 444.692 223.59C444.692 226.236 446.384 228.216 448.904 228.216C450.146 228.216 451.064 227.604 451.478 226.866C451.478 227.226 451.532 227.802 451.568 228H453.566C453.548 227.856 453.476 227.19 453.476 226.398V214.968Z" fill="#2B2B2F"/>
<path d="M650.984 195.238V208H655.7C658.076 208 659.66 206.524 659.66 204.472C659.66 202.96 658.724 201.79 657.374 201.43C658.472 201.034 659.264 200.026 659.264 198.676C659.264 196.678 657.824 195.238 655.376 195.238H650.984ZM653.126 200.638V197.074H655.034C656.348 197.074 657.104 197.776 657.104 198.856C657.104 199.918 656.348 200.638 655.088 200.638H653.126ZM653.126 206.164V202.456H655.394C656.726 202.456 657.464 203.23 657.464 204.328C657.464 205.462 656.618 206.164 655.322 206.164H653.126ZM665.678 206.398C664.4 206.398 663.23 205.426 663.23 203.608C663.23 201.79 664.4 200.854 665.678 200.854C666.974 200.854 668.126 201.79 668.126 203.608C668.126 205.444 666.974 206.398 665.678 206.398ZM665.678 198.964C663.068 198.964 661.142 200.926 661.142 203.608C661.142 206.308 663.068 208.27 665.678 208.27C668.306 208.27 670.232 206.308 670.232 203.608C670.232 200.926 668.306 198.964 665.678 198.964ZM674.843 196.552H672.953V197.866C672.953 198.64 672.539 199.234 671.603 199.234H671.153V201.088H672.773V205.498C672.773 207.136 673.781 208.108 675.401 208.108C676.157 208.108 676.553 207.964 676.679 207.91V206.182C676.589 206.2 676.247 206.254 675.959 206.254C675.185 206.254 674.843 205.93 674.843 205.156V201.088H676.661V199.234H674.843V196.552ZM680.648 202.852C680.684 201.736 681.314 200.872 682.466 200.872C683.78 200.872 684.266 201.736 684.266 202.816V208H686.354V202.456C686.354 200.53 685.31 198.982 683.15 198.982C682.232 198.982 681.242 199.306 680.648 200.08V194.968H678.56V208H680.648V202.852Z" fill="#2B2B2F"/>
<line x1="296.5" y1="132" x2="296.5" y2="269" stroke="#E1DFDF"/>
<line x1="544.5" y1="132" x2="544.5" y2="269" stroke="#E1DFDF"/>
<path d="M178 194.423C177.508 195.513 177.273 195.999 176.639 196.963C175.756 198.308 174.51 199.983 172.966 199.997C171.594 200.01 171.242 199.105 169.38 199.115C167.519 199.125 167.13 200.013 165.758 200C164.214 199.986 163.035 198.474 162.15 197.128C159.68 193.366 159.422 188.952 160.946 186.606C162.029 184.938 163.738 183.963 165.345 183.963C166.981 183.963 168.009 184.86 169.362 184.86C170.674 184.86 171.474 183.962 173.365 183.962C174.795 183.962 176.309 184.74 177.389 186.085C173.853 188.023 174.427 193.072 178 194.423Z" stroke="#2B2B2F" stroke-width="2" stroke-miterlimit="10" stroke-linecap="round" stroke-linejoin="round"/>
<path d="M172.1 180.45C172.75 179.616 173.243 178.439 173.064 177.236C172.002 177.309 170.762 177.984 170.037 178.864C169.379 179.663 168.836 180.847 169.047 181.999C170.205 182.035 171.404 181.343 172.1 180.45Z" fill="#2B2B2F"/>
<path d="M409 187V194" stroke="#2B2B2F" stroke-width="2" stroke-miterlimit="10" stroke-linecap="round" stroke-linejoin="round"/>
<path d="M431 187V194" stroke="#2B2B2F" stroke-width="2" stroke-miterlimit="10" stroke-linecap="round" stroke-linejoin="round"/>
<path d="M415 181L412 178" stroke="#2B2B2F" stroke-width="2" stroke-miterlimit="10" stroke-linecap="round" stroke-linejoin="round"/>
<path d="M425 181L428 178" stroke="#2B2B2F" stroke-width="2" stroke-miterlimit="10" stroke-linecap="round" stroke-linejoin="round"/>
<path d="M416 197V200" stroke="#2B2B2F" stroke-width="2" stroke-miterlimit="10" stroke-linecap="round" stroke-linejoin="round"/>
<path d="M424 197V200" stroke="#2B2B2F" stroke-width="2" stroke-miterlimit="10" stroke-linecap="round" stroke-linejoin="round"/>
<path d="M420 179C416.134 179 413 182.134 413 186V197H427V186C427 182.134 423.866 179 420 179Z" stroke="#2B2B2F" stroke-width="2" stroke-miterlimit="10" stroke-linecap="round" stroke-linejoin="round"/>
<path d="M417 185C417.552 185 418 184.552 418 184C418 183.448 417.552 183 417 183C416.448 183 416 183.448 416 184C416 184.552 416.448 185 417 185Z" fill="#2B2B2F"/>
<path d="M423 185C423.552 185 424 184.552 424 184C424 183.448 423.552 183 423 183C422.448 183 422 183.448 422 184C422 184.552 422.448 185 423 185Z" fill="#2B2B2F"/>
<path d="M413 187H427" stroke="#2B2B2F" stroke-width="2" stroke-miterlimit="10" stroke-linecap="round" stroke-linejoin="round"/>
<path d="M631 0H787V48C787 52.4183 783.418 56 779 56H639C634.582 56 631 52.4183 631 48V0Z" fill="#191714"/>
<path d="M673.213 22H675.061L673.237 18.52C674.353 18.196 675.049 17.296 675.049 16.108C675.049 14.632 673.993 13.492 672.337 13.492H669.013V22H670.681V18.724H671.545L673.213 22ZM670.681 17.296V14.932H672.025C672.865 14.932 673.357 15.4 673.357 16.12C673.357 16.816 672.865 17.296 672.025 17.296H670.681ZM678.881 20.728C678.101 20.728 677.381 20.152 677.381 19.048C677.381 17.932 678.101 17.368 678.881 17.368C679.661 17.368 680.381 17.932 680.381 19.048C680.381 20.164 679.661 20.728 678.881 20.728ZM678.881 15.916C677.117 15.916 675.785 17.224 675.785 19.048C675.785 20.86 677.117 22.18 678.881 22.18C680.645 22.18 681.977 20.86 681.977 19.048C681.977 17.224 680.645 15.916 678.881 15.916ZM687.077 22H688.601C688.577 21.796 688.541 21.388 688.541 20.932V16.096H686.945V19.528C686.945 20.212 686.537 20.692 685.829 20.692C685.085 20.692 684.749 20.164 684.749 19.504V16.096H683.153V19.828C683.153 21.112 683.969 22.156 685.397 22.156C686.021 22.156 686.705 21.916 687.029 21.364C687.029 21.604 687.053 21.88 687.077 22ZM689.801 22.324C689.969 23.452 691.049 24.46 692.669 24.46C694.889 24.46 695.765 22.984 695.765 21.364V16.096H694.229V16.792C694.025 16.396 693.485 15.988 692.549 15.988C690.929 15.988 689.801 17.308 689.801 18.868C689.801 20.524 690.977 21.736 692.549 21.736C693.401 21.736 693.953 21.364 694.193 20.98V21.412C694.193 22.552 693.629 23.056 692.621 23.056C691.865 23.056 691.349 22.588 691.241 21.94L689.801 22.324ZM692.825 20.368C691.997 20.368 691.409 19.792 691.409 18.868C691.409 17.956 692.033 17.38 692.825 17.38C693.593 17.38 694.217 17.956 694.217 18.868C694.217 19.78 693.641 20.368 692.825 20.368ZM698.977 18.532C699.013 17.884 699.409 17.38 700.081 17.38C700.849 17.38 701.173 17.896 701.173 18.556V22H702.769V18.28C702.769 16.984 702.073 15.94 700.573 15.94C700.009 15.94 699.361 16.132 698.977 16.588V13.312H697.381V22H698.977V18.532ZM712.802 22V20.44H709.13V18.472H712.454V16.996H709.13V15.052H712.802V13.492H707.474V22H712.802ZM713.811 20.356C713.883 21.028 714.495 22.18 716.271 22.18C717.819 22.18 718.563 21.196 718.563 20.236C718.563 19.372 717.975 18.664 716.811 18.424L715.971 18.244C715.647 18.184 715.431 18.004 715.431 17.716C715.431 17.38 715.767 17.128 716.187 17.128C716.859 17.128 717.111 17.572 717.159 17.92L718.491 17.62C718.419 16.984 717.855 15.916 716.175 15.916C714.903 15.916 713.967 16.792 713.967 17.848C713.967 18.676 714.483 19.36 715.623 19.612L716.403 19.792C716.859 19.888 717.039 20.104 717.039 20.368C717.039 20.68 716.787 20.956 716.259 20.956C715.563 20.956 715.215 20.524 715.179 20.056L713.811 20.356ZM721.814 14.332H720.374V15.16C720.374 15.688 720.086 16.096 719.462 16.096H719.162V17.512H720.23V20.26C720.23 21.4 720.95 22.084 722.102 22.084C722.57 22.084 722.858 22 723.002 21.94V20.62C722.918 20.644 722.702 20.668 722.51 20.668C722.054 20.668 721.814 20.5 721.814 19.984V17.512H723.002V16.096H721.814V14.332ZM725.954 22V16.096H724.358V22H725.954ZM724.166 14.164C724.166 14.692 724.61 15.136 725.15 15.136C725.702 15.136 726.134 14.692 726.134 14.164C726.134 13.612 725.702 13.168 725.15 13.168C724.61 13.168 724.166 13.612 724.166 14.164ZM729.259 22V18.544C729.259 17.896 729.667 17.38 730.363 17.38C731.083 17.38 731.407 17.86 731.407 18.496V22H732.991V18.544C732.991 17.908 733.399 17.38 734.083 17.38C734.815 17.38 735.127 17.86 735.127 18.496V22H736.675V18.172C736.675 16.588 735.631 15.928 734.539 15.928C733.759 15.928 733.135 16.192 732.667 16.912C732.367 16.276 731.719 15.928 730.915 15.928C730.267 15.928 729.511 16.24 729.187 16.816V16.096H727.663V22H729.259ZM737.931 20.392C737.931 21.316 738.699 22.168 739.959 22.168C740.835 22.168 741.399 21.76 741.699 21.292C741.699 21.52 741.723 21.844 741.759 22H743.223C743.187 21.796 743.151 21.376 743.151 21.064V18.16C743.151 16.972 742.455 15.916 740.583 15.916C738.999 15.916 738.147 16.936 738.051 17.86L739.467 18.16C739.515 17.644 739.899 17.2 740.595 17.2C741.267 17.2 741.591 17.548 741.591 17.968C741.591 18.172 741.483 18.34 741.147 18.388L739.695 18.604C738.711 18.748 737.931 19.336 737.931 20.392ZM740.295 20.98C739.779 20.98 739.527 20.644 739.527 20.296C739.527 19.84 739.851 19.612 740.259 19.552L741.591 19.348V19.612C741.591 20.656 740.967 20.98 740.295 20.98ZM746.693 14.332H745.253V15.16C745.253 15.688 744.965 16.096 744.341 16.096H744.041V17.512H745.109V20.26C745.109 21.4 745.829 22.084 746.981 22.084C747.449 22.084 747.737 22 747.881 21.94V20.62C747.797 20.644 747.581 20.668 747.389 20.668C746.933 20.668 746.693 20.5 746.693 19.984V17.512H747.881V16.096H746.693V14.332ZM750.342 18.376C750.378 17.836 750.834 17.212 751.662 17.212C752.574 17.212 752.958 17.788 752.982 18.376H750.342ZM753.138 19.912C752.946 20.44 752.538 20.812 751.794 20.812C751.002 20.812 750.342 20.248 750.306 19.468H754.53C754.53 19.444 754.554 19.204 754.554 18.976C754.554 17.08 753.462 15.916 751.638 15.916C750.126 15.916 748.734 17.14 748.734 19.024C748.734 21.016 750.162 22.18 751.782 22.18C753.234 22.18 754.17 21.328 754.47 20.308L753.138 19.912Z" fill="white"/>
<path d="M662.237 42.872V41.144C664.157 40.84 665.213 39.48 665.213 38.008C665.213 36.568 664.301 35.368 662.285 34.92L660.829 34.584C660.077 34.424 659.725 34.008 659.725 33.512C659.725 32.856 660.285 32.264 661.309 32.264C662.621 32.264 663.037 33.192 663.133 33.752L665.101 33.192C664.877 32.12 664.077 30.84 662.237 30.504V28.744H660.605V30.456C658.893 30.728 657.581 31.976 657.581 33.672C657.581 35.208 658.653 36.296 660.381 36.68L661.853 37C662.653 37.176 663.053 37.592 663.053 38.136C663.053 38.84 662.445 39.336 661.405 39.336C659.933 39.336 659.261 38.408 659.165 37.4L657.181 37.88C657.325 39.24 658.381 40.856 660.605 41.16V42.872H662.237ZM671.098 41V30.616H669.194C668.986 31.704 667.93 32.552 666.41 32.568V34.056H668.906V41H671.098ZM675.294 35.816C675.294 34.728 675.454 33.8 675.854 33.176C676.174 32.664 676.67 32.328 677.422 32.328C678.19 32.328 678.654 32.664 678.974 33.176C679.39 33.8 679.55 34.728 679.55 35.816C679.55 36.904 679.39 37.832 678.974 38.456C678.654 38.968 678.19 39.304 677.422 39.304C676.67 39.304 676.174 38.968 675.854 38.456C675.454 37.832 675.294 36.904 675.294 35.816ZM673.086 35.816C673.086 37.144 673.294 38.44 673.998 39.512C674.686 40.536 675.806 41.256 677.422 41.256C679.038 41.256 680.158 40.536 680.83 39.512C681.534 38.44 681.758 37.144 681.758 35.816C681.758 34.488 681.534 33.192 680.83 32.12C680.158 31.096 679.038 30.376 677.422 30.376C675.806 30.376 674.686 31.096 673.998 32.12C673.294 33.192 673.086 34.488 673.086 35.816ZM685.247 35.816C685.247 34.728 685.407 33.8 685.807 33.176C686.127 32.664 686.623 32.328 687.375 32.328C688.143 32.328 688.607 32.664 688.927 33.176C689.343 33.8 689.503 34.728 689.503 35.816C689.503 36.904 689.343 37.832 688.927 38.456C688.607 38.968 688.143 39.304 687.375 39.304C686.623 39.304 686.127 38.968 685.807 38.456C685.407 37.832 685.247 36.904 685.247 35.816ZM683.039 35.816C683.039 37.144 683.247 38.44 683.951 39.512C684.639 40.536 685.759 41.256 687.375 41.256C688.991 41.256 690.111 40.536 690.783 39.512C691.487 38.44 691.711 37.144 691.711 35.816C691.711 34.488 691.487 33.192 690.783 32.12C690.111 31.096 688.991 30.376 687.375 30.376C685.759 30.376 684.639 31.096 683.951 32.12C683.247 33.192 683.039 34.488 683.039 35.816ZM695.2 35.816C695.2 34.728 695.36 33.8 695.76 33.176C696.08 32.664 696.576 32.328 697.328 32.328C698.096 32.328 698.56 32.664 698.88 33.176C699.296 33.8 699.456 34.728 699.456 35.816C699.456 36.904 699.296 37.832 698.88 38.456C698.56 38.968 698.096 39.304 697.328 39.304C696.576 39.304 696.08 38.968 695.76 38.456C695.36 37.832 695.2 36.904 695.2 35.816ZM692.992 35.816C692.992 37.144 693.2 38.44 693.904 39.512C694.592 40.536 695.712 41.256 697.328 41.256C698.944 41.256 700.064 40.536 700.736 39.512C701.44 38.44 701.664 37.144 701.664 35.816C701.664 34.488 701.44 33.192 700.736 32.12C700.064 31.096 698.944 30.376 697.328 30.376C695.712 30.376 694.592 31.096 693.904 32.12C693.2 33.192 692.992 34.488 692.992 35.816ZM710.837 37.192V35.304H706.197V37.192H710.837ZM720.471 42.872V41.144C722.391 40.84 723.447 39.48 723.447 38.008C723.447 36.568 722.535 35.368 720.519 34.92L719.063 34.584C718.311 34.424 717.959 34.008 717.959 33.512C717.959 32.856 718.519 32.264 719.543 32.264C720.855 32.264 721.271 33.192 721.367 33.752L723.335 33.192C723.111 32.12 722.311 30.84 720.471 30.504V28.744H718.839V30.456C717.127 30.728 715.815 31.976 715.815 33.672C715.815 35.208 716.887 36.296 718.615 36.68L720.087 37C720.887 37.176 721.287 37.592 721.287 38.136C721.287 38.84 720.679 39.336 719.639 39.336C718.167 39.336 717.495 38.408 717.399 37.4L715.415 37.88C715.559 39.24 716.615 40.856 718.839 41.16V42.872H720.471ZM725.028 40.664C725.572 41 726.548 41.24 727.428 41.24C730.98 41.24 732.852 39.032 732.852 35.288C732.852 31.976 730.964 30.376 728.708 30.376C726.404 30.376 724.724 31.896 724.724 34.024C724.724 36.168 726.372 37.512 728.308 37.512C729.396 37.512 730.276 37.048 730.708 36.392C730.564 38.296 729.3 39.336 727.412 39.336C726.692 39.336 725.94 39.096 725.572 38.888L725.028 40.664ZM730.42 33.96C730.42 34.984 729.604 35.672 728.628 35.672C727.652 35.672 726.852 35 726.852 33.96C726.852 32.936 727.668 32.248 728.628 32.248C729.604 32.248 730.42 32.936 730.42 33.96ZM733.843 39.72C733.843 40.488 734.387 41.048 735.171 41.048C735.347 41.048 735.523 41 735.587 40.952C735.555 41.832 734.787 42.52 734.067 42.68V43.704C735.251 43.56 736.883 42.568 736.883 40.216C736.883 39.176 736.291 38.376 735.299 38.376C734.467 38.376 733.843 38.952 733.843 39.72ZM741.276 36.392C741.5 36.312 741.772 36.232 742.22 36.232C743.212 36.232 743.916 36.792 743.916 37.768C743.916 38.632 743.26 39.336 742.156 39.336C741.068 39.336 740.316 38.568 740.268 37.512L738.14 37.928C738.268 39.672 739.74 41.24 742.156 41.24C744.668 41.24 746.14 39.592 746.14 37.8C746.14 35.896 744.7 34.696 743.132 34.632L745.82 32.392V30.616H738.476V32.52H743.02L740.3 34.856L741.276 36.392ZM749.45 35.816C749.45 34.728 749.61 33.8 750.01 33.176C750.33 32.664 750.826 32.328 751.578 32.328C752.346 32.328 752.81 32.664 753.13 33.176C753.546 33.8 753.706 34.728 753.706 35.816C753.706 36.904 753.546 37.832 753.13 38.456C752.81 38.968 752.346 39.304 751.578 39.304C750.826 39.304 750.33 38.968 750.01 38.456C749.61 37.832 749.45 36.904 749.45 35.816ZM747.242 35.816C747.242 37.144 747.45 38.44 748.154 39.512C748.842 40.536 749.962 41.256 751.578 41.256C753.194 41.256 754.314 40.536 754.986 39.512C755.69 38.44 755.914 37.144 755.914 35.816C755.914 34.488 755.69 33.192 754.986 32.12C754.314 31.096 753.194 30.376 751.578 30.376C749.962 30.376 748.842 31.096 748.154 32.12C747.45 33.192 747.242 34.488 747.242 35.816ZM759.403 35.816C759.403 34.728 759.563 33.8 759.963 33.176C760.283 32.664 760.779 32.328 761.531 32.328C762.299 32.328 762.763 32.664 763.083 33.176C763.499 33.8 763.659 34.728 763.659 35.816C763.659 36.904 763.499 37.832 763.083 38.456C762.763 38.968 762.299 39.304 761.531 39.304C760.779 39.304 760.283 38.968 759.963 38.456C759.563 37.832 759.403 36.904 759.403 35.816ZM757.195 35.816C757.195 37.144 757.403 38.44 758.107 39.512C758.795 40.536 759.915 41.256 761.531 41.256C763.147 41.256 764.267 40.536 764.939 39.512C765.643 38.44 765.867 37.144 765.867 35.816C765.867 34.488 765.643 33.192 764.939 32.12C764.267 31.096 763.147 30.376 761.531 30.376C759.915 30.376 758.795 31.096 758.107 32.12C757.403 33.192 757.195 34.488 757.195 35.816Z" fill="white"/>
<path d="M52.2773 16.0423C52.0377 16.0722 51.9903 16.0871 52.0015 16.1195C52.0349 16.2215 57.0587 26.5994 57.0754 26.6043C57.1005 26.6118 57.3206 26.1739 57.4265 25.9126C57.6076 25.4499 57.6354 25.0294 57.5101 24.6313C57.4766 24.5293 57.3122 24.1809 57.1423 23.86C56.468 22.586 55.9163 21.4714 54.6764 18.8862C53.3445 16.107 53.3612 16.1419 53.1272 16.0448C52.9851 15.9876 52.6953 15.9876 52.2773 16.0423Z" fill="#522D80"/>
<path d="M64.1831 16.0099C64.1692 16.0149 64.1079 16.0249 64.0494 16.0348C63.8878 16.0572 63.7206 16.209 63.5896 16.4528C63.4837 16.6444 63.0546 17.5277 61.394 20.9538C59.8532 24.1361 58.7944 26.2908 57.8637 28.1395C57.5656 28.7341 57.2925 29.284 57.2591 29.3586C57.078 29.7716 57.0334 30.2742 57.1449 30.6848C57.2062 30.9187 57.3789 31.3242 57.5043 31.5432L57.5823 31.675L61.3383 23.8848C63.4057 19.6003 65.0887 16.0896 65.0775 16.0796C65.0441 16.0473 64.2583 15.9876 64.1831 16.0099Z" fill="#522D80"/>
<path d="M71.4501 16.0348C71.4027 16.0522 71.3302 16.112 71.2912 16.1642C71.255 16.2165 70.8872 16.9529 70.4804 17.8014C69.7755 19.2619 69.2544 20.3343 65.9721 27.082C65.2143 28.6421 64.579 29.9632 64.5623 30.018C64.5121 30.1797 64.526 30.2817 64.6291 30.5554C64.7629 30.9112 65.1 31.6974 65.1195 31.6974C65.1279 31.6974 66.6771 28.5052 68.5578 24.6064C70.4414 20.705 71.9906 17.5153 71.999 17.5153C72.0101 17.5153 73.5593 20.7075 75.4401 24.6064C77.3236 28.5077 78.8728 31.69 78.8812 31.68C78.8923 31.6701 78.948 31.5482 79.0066 31.4113C79.0651 31.2745 79.1459 31.1053 79.1877 31.0381C79.3465 30.7793 79.3966 30.5927 79.3939 30.2668C79.3911 30.0205 79.3771 29.9309 79.3186 29.7518C79.2768 29.6298 78.9174 28.8685 78.5162 28.0598C77.0088 25.0044 75.3035 21.5037 73.6011 17.9756C73.1469 17.0301 72.7485 16.2239 72.715 16.1791C72.5952 16.0224 72.5116 16 71.999 16C71.673 16 71.5141 16.0099 71.4501 16.0348Z" fill="#522D80"/>
<path d="M83.7852 21.633V27.2437H84.3703H84.9554V21.633V16.0224H84.3703H83.7852V21.633Z" fill="#522D80"/>
<path d="M121.86 16.107L121.721 16.1344L121.712 21.7525L121.707 27.3682H122.334H122.961V22.2924V17.2167H126.444H129.926L129.921 16.6643L129.913 16.112L129.843 16.0946C129.715 16.0622 122.016 16.0747 121.86 16.107Z" fill="#522D80"/>
<path d="M95.0698 21.7326V27.3682H95.6828H96.2958L96.3014 22.285L96.3097 17.2043L99.7592 17.1968L103.206 17.1918V16.6444V16.0971H99.1379H95.0698V21.7326Z" fill="#522D80"/>
<path d="M107.812 16.1145L106.828 16.1219V17.8138V19.5058H107.427H108.026V18.1746V16.8435H108.096C108.244 16.8435 110.829 16.9704 111.412 17.0052C112.348 17.0624 113.354 17.1644 113.652 17.2316C114.006 17.3088 114.468 17.5178 114.758 17.7243C115.318 18.1249 115.708 18.7369 115.889 19.4883C115.934 19.6874 115.948 19.8292 115.951 20.1402C115.951 20.7399 115.845 21.1504 115.558 21.653C115.363 21.9963 115.151 22.2476 114.836 22.5164C114.1 23.1459 113.253 23.4195 111.495 23.5937C110.991 23.6435 110.804 23.6484 109.539 23.6484L108.138 23.646V24.0416V24.4347L109.358 24.4322C110.679 24.4297 110.698 24.4322 111.016 24.569C111.258 24.676 111.492 24.885 111.919 25.3727C112.128 25.6141 112.841 26.4227 113.501 27.1691C115.023 28.8884 115.368 29.284 116.095 30.1424C116.681 30.8341 116.929 31.0779 117.168 31.2048C117.475 31.3665 117.873 31.4263 118.297 31.3765C118.433 31.3591 118.556 31.3367 118.567 31.3267C118.578 31.3168 117.221 29.7767 115.547 27.9031C113.875 26.0321 112.501 24.4869 112.496 24.472C112.487 24.4546 112.649 24.3899 112.894 24.3103C114.527 23.7753 114.984 23.5838 115.535 23.2006C116.664 22.4168 117.268 21.1255 117.143 19.772C117.046 18.7394 116.678 17.9507 116.009 17.3535C115.477 16.8783 114.78 16.5474 113.878 16.3359C113.108 16.1568 112.994 16.1443 111.579 16.1219C110.339 16.102 109.907 16.102 107.812 16.1145Z" fill="#522D80"/>
<path d="M68.9312 26.7262C68.6386 26.9278 68.6275 27.0522 68.8587 27.4826C68.9451 27.6468 69.299 28.3709 69.6473 29.0974C70.7005 31.2894 70.7952 31.486 70.8119 31.4785C70.8203 31.476 70.8649 31.4735 70.9067 31.4735H70.9875L71.0237 31.2173C71.0934 30.7594 71.0934 30.7694 70.7367 30.0055C70.5612 29.6298 70.2435 28.963 70.029 28.5251C69.8144 28.0872 69.5219 27.4851 69.377 27.189C69.2321 26.8904 69.1011 26.6466 69.0816 26.6466C69.0649 26.6466 68.9953 26.6839 68.9312 26.7262Z" fill="#522D80"/>
<path d="M83.813 29.8314V31.2247H87.8671H91.9212V30.6773V30.13H88.4661H85.0111V29.284V28.4381H84.412H83.813V29.8314Z" fill="#522D80"/>
<path d="M121.763 29.906V31.2745H125.845H129.927V30.7296C129.927 30.2344 129.921 30.1822 129.879 30.1648C129.851 30.1523 128.288 30.1374 126.402 30.1299C124.518 30.1225 122.972 30.1125 122.969 30.11C122.964 30.1076 122.958 29.7542 122.955 29.3263L122.947 28.55L122.356 28.5425L121.763 28.5376V29.906Z" fill="#522D80"/>
<path d="M95.0698 29.906V31.2496H99.1379H103.206V30.6773V30.105H99.7369H96.2679V29.3337V28.5624H95.6689H95.0698V29.906Z" fill="#522D80"/>
<path fill-rule="evenodd" clip-rule="evenodd" d="M77.1397 35.4172C75.9806 35.6088 75.2283 36.4124 75.1558 37.537C75.0722 38.8632 75.9583 39.8485 77.3542 39.9828C77.8781 40.0326 78.3462 39.9604 78.8115 39.7589C79.2712 39.5599 79.5833 39.2911 79.8257 38.8831C80.057 38.4999 80.1517 38.0819 80.1266 37.5619C80.0848 36.5841 79.5331 35.8526 78.5969 35.5291C78.1901 35.3873 77.5911 35.3425 77.1397 35.4172ZM78.0369 35.9397C78.296 35.982 78.6443 36.1313 78.831 36.2756C79.2434 36.594 79.4691 37.1763 79.43 37.8306C79.3827 38.6194 78.9731 39.1692 78.2682 39.3882C78.023 39.4628 77.4518 39.4827 77.1759 39.4255C76.6967 39.326 76.2815 39.0299 76.0725 38.6393C75.9054 38.3258 75.858 38.1043 75.8608 37.6565C75.8636 37.2161 75.9165 37.0096 76.0976 36.6936C76.4487 36.0939 77.2066 35.8003 78.0369 35.9397ZM72.4587 35.3972C71.5587 35.5067 70.8621 35.972 70.5111 36.6985C70.2491 37.2434 70.2324 38.0023 70.4693 38.6044C70.7395 39.3011 71.3052 39.7639 72.0993 39.9355C72.4169 40.0052 72.9881 40.0102 73.3225 39.9455C73.7432 39.8659 74.1639 39.6668 74.4314 39.4155L74.5373 39.3185L74.3813 39.1642C74.2921 39.0821 74.2002 39.0125 74.1751 39.0125C74.1472 39.0125 74.0525 39.0647 73.9605 39.1269C73.7488 39.2737 73.5203 39.3757 73.303 39.423C73.0717 39.4703 72.5395 39.4703 72.3082 39.423C71.7231 39.2986 71.2467 38.8557 71.0767 38.2735C70.9959 37.9948 70.9792 37.5893 71.0349 37.2981C71.1631 36.6363 71.5727 36.1909 72.2358 35.9869C72.4392 35.9247 72.4949 35.9172 72.8488 35.9172C73.2026 35.9172 73.2612 35.9247 73.4562 35.9844C73.5788 36.0217 73.7738 36.1088 73.8909 36.176C74.1166 36.3054 74.1862 36.3228 74.2587 36.2681C74.32 36.2258 74.5066 35.9894 74.5066 35.9571C74.5066 35.9172 74.2113 35.7207 74.0023 35.6212C73.7906 35.5192 73.5286 35.442 73.2807 35.4047C73.1051 35.3823 72.6315 35.3773 72.4587 35.3972ZM95.6492 37.1463C95.8638 36.2133 96.5743 35.5813 97.5857 35.4171C97.8337 35.3773 98.2851 35.3723 98.5247 35.4072C99.3049 35.5191 99.9457 35.9272 100.28 36.5243C100.503 36.9224 100.573 37.211 100.57 37.7186C100.567 38.052 100.556 38.1391 100.492 38.3531C100.358 38.8034 100.146 39.1319 99.8008 39.423C99.4024 39.7589 98.9789 39.9231 98.3603 39.9853C97.5244 40.0699 96.6802 39.7837 96.1758 39.2488C95.9836 39.0448 95.769 38.6666 95.6799 38.378C95.5907 38.0794 95.574 37.4673 95.6492 37.1463ZM99.5807 36.6089C99.3829 36.3178 98.99 36.0566 98.6083 35.962C98.4216 35.9172 97.9201 35.8973 97.7306 35.9272C97.0591 36.0366 96.5492 36.4671 96.3625 37.0841C96.2929 37.318 96.2789 37.9102 96.3374 38.169C96.474 38.7785 96.8808 39.2164 97.4659 39.3856C97.6526 39.4404 97.7222 39.4478 98.1068 39.4454C98.4996 39.4454 98.5554 39.4404 98.7253 39.3807C98.9984 39.2886 99.2073 39.1692 99.3717 39.0099C99.5445 38.8457 99.7284 38.5422 99.7925 38.3158C99.9597 37.7385 99.8733 37.0418 99.5807 36.6089ZM107.633 35.4171C106.939 35.5341 106.36 35.8774 106.009 36.3825C105.747 36.7557 105.624 37.1787 105.624 37.6937C105.621 38.7736 106.209 39.5847 107.204 39.8808C107.667 40.0176 108.277 40.0326 108.764 39.9206C108.962 39.8733 109.288 39.7415 109.453 39.637C109.603 39.5449 109.837 39.3508 109.837 39.321C109.834 39.2762 109.533 39.0124 109.481 39.0124C109.453 39.0124 109.35 39.0697 109.255 39.1368C108.918 39.3782 108.628 39.4603 108.112 39.4603C107.552 39.4603 107.229 39.3483 106.881 39.0398C106.491 38.694 106.326 38.2959 106.326 37.6987C106.326 37.2882 106.374 37.0866 106.541 36.7756C106.856 36.1909 107.497 35.87 108.277 35.9123C108.684 35.9347 108.934 36.0068 109.249 36.1984C109.486 36.3427 109.528 36.3352 109.698 36.1337L109.834 35.9645L109.773 35.9073C109.606 35.7431 109.157 35.5266 108.837 35.4495C108.555 35.3848 107.931 35.3674 107.633 35.4171ZM81.0823 39.9629V37.6938V35.4271L82.2748 35.4346C83.6429 35.447 83.6763 35.4495 84.1974 35.6809C84.7797 35.9396 85.1893 36.4024 85.3788 37.0095C85.4317 37.1812 85.4401 37.2733 85.4401 37.6813C85.4429 38.2337 85.4011 38.4203 85.1921 38.801C84.8745 39.3757 84.3451 39.7315 83.5621 39.9007C83.42 39.9306 83.1386 39.9405 82.233 39.9505L81.0823 39.9629ZM83.8324 36.1014C83.707 36.0466 83.5175 35.9844 83.4089 35.9645C83.2668 35.9371 83.0188 35.9272 82.4977 35.9272H81.7789V37.6962V39.4653L82.5535 39.4528C83.1609 39.4429 83.3615 39.4329 83.4924 39.3981C84.0943 39.2463 84.5178 38.8507 84.6933 38.2785C84.7519 38.0819 84.7769 37.5345 84.7351 37.2957C84.6376 36.7358 84.32 36.3153 83.8324 36.1014ZM86.4042 37.6937V39.9579H87.9646H89.5249V39.7091V39.4603H88.3129H87.1008V38.689V37.9177H88.076H89.0512V37.6689V37.42H88.076H87.1008V36.6736V35.9272H88.3129H89.5249V35.6784V35.4296H87.9646H86.4042V37.6937ZM91.8793 39.9455L91.8709 37.6863L91.8654 35.4295H93.4257H94.986V35.6784V35.9272H93.774H92.5619V36.7109V37.4947L93.6012 37.4996L94.6377 37.5071L94.6461 37.7485L94.6545 37.9923H93.6068H92.5619V38.9751V39.9604L92.222 39.9529L91.8793 39.9455ZM101.59 37.6913V39.9579H101.924H102.258V39.0125V38.067H102.593C102.788 38.067 102.955 38.0794 102.997 38.0968C103.041 38.1143 103.337 38.4551 103.794 39.0174C103.853 39.0901 103.907 39.1572 103.958 39.2192C104.381 39.7393 104.511 39.8987 104.672 39.9431C104.743 39.9628 104.821 39.96 104.933 39.9559C104.961 39.9549 104.992 39.9538 105.025 39.953L105.326 39.9455L104.571 39.0249C104.156 38.5173 103.78 38.072 103.732 38.0346C103.685 37.9948 103.651 37.9625 103.657 37.96C103.659 37.9562 103.716 37.9394 103.791 37.9173L103.791 37.9173L103.866 37.8953C104.579 37.6863 104.989 37.0792 104.852 36.4348C104.749 35.9471 104.401 35.6436 103.788 35.5017C103.573 35.452 103.468 35.4445 102.573 35.437L101.59 35.4246V37.6913ZM103.526 35.9596C103.83 36.0367 104.028 36.171 104.136 36.3751C104.184 36.4646 104.195 36.5343 104.195 36.7234C104.195 36.9274 104.184 36.9797 104.122 37.0966C104.028 37.2758 103.874 37.4101 103.665 37.4972C103.442 37.5918 103.22 37.6191 102.698 37.6191H102.258V36.7781C102.258 36.3154 102.267 35.9272 102.281 35.9173C102.314 35.8824 103.373 35.9197 103.526 35.9596ZM110.757 39.9579V37.6937V35.4296H112.317H113.877V35.6784V35.9272H112.665H111.453V36.6736V37.42H112.429H113.404V37.6689V37.9177H112.429H111.453V38.689V39.4603H112.665H113.877V39.7091V39.9579H112.317H110.757Z" fill="#522D80"/>
<defs>
<filter id="filter0_d" x="0" y="101" width="840" height="232" filterUnits="userSpaceOnUse" color-interpolation-filters="sRGB">
<feFlood flood-opacity="0" result="BackgroundImageFix"/>
<feColorMatrix in="SourceAlpha" type="matrix" values="0 0 0 0 0 0 0 0 0 0 0 0 0 0 0 0 0 0 127 0"/>
<feOffset dy="16"/>
<feGaussianBlur stdDeviation="24"/>
<feColorMatrix type="matrix" values="0 0 0 0 0.034375 0 0 0 0 0.0889167 0 0 0 0 0.229167 0 0 0 0.1 0"/>
<feBlend mode="normal" in2="BackgroundImageFix" result="effect1_dropShadow"/>
<feBlend mode="normal" in="SourceGraphic" in2="effect1_dropShadow" result="shape"/>
</filter>
</defs>
</svg>
