<svg width="72" height="72" viewBox="0 0 72 72" fill="none" xmlns="http://www.w3.org/2000/svg">
<path d="M13.749 51.963C10.659 48.681 9 45 9 39.033C9 28.533 16.371 19.122 27.09 14.469L29.769 18.603C19.764 24.015 17.808 31.038 17.028 35.466C18.639 34.632 20.748 34.341 22.815 34.533C28.227 35.034 32.493 39.477 32.493 45C32.493 47.7848 31.3868 50.4555 29.4176 52.4246C27.4485 54.3937 24.7778 55.5 21.993 55.5C20.453 55.4865 18.931 55.1669 17.5157 54.5597C16.1004 53.9524 14.82 53.0697 13.749 51.963ZM43.749 51.963C40.659 48.681 39 45 39 39.033C39 28.533 46.371 19.122 57.09 14.469L59.769 18.603C49.764 24.015 47.808 31.038 47.028 35.466C48.639 34.632 50.748 34.341 52.815 34.533C58.227 35.034 62.493 39.477 62.493 45C62.493 47.7848 61.3868 50.4555 59.4176 52.4246C57.4485 54.3937 54.7778 55.5 51.993 55.5C50.453 55.4865 48.931 55.1669 47.5157 54.5597C46.1004 53.9524 44.82 53.0697 43.749 51.963Z" fill="#E2E2E2"/>
</svg>
