<?xml version="1.0" encoding="utf-8"?>
<!-- Generator: Adobe Illustrator 23.0.2, SVG Export Plug-In . SVG Version: 6.00 Build 0)  -->
<svg version="1.1" id="Layer_1" xmlns="http://www.w3.org/2000/svg" xmlns:xlink="http://www.w3.org/1999/xlink" x="0px" y="0px"
	 viewBox="0 0 96 96" style="enable-background:new 0 0 96 96;" xml:space="preserve">
<style type="text/css">
	.st0{fill:#FFFFFF;}
	.st1{fill:#FAFAFA;}
	.st2{fill:#FF4C4C;}
</style>
<path class="st0" d="M76.06,29.63c-0.38-0.45-0.94-0.72-1.53-0.72H26.12c-0.62,0-1.2,0.29-1.58,0.78c-0.37,0.49-0.5,1.13-0.34,1.73
	l6.38,23.85c0.24,0.88,1.02,1.48,1.93,1.48c0.03,0,0.07,0,0.1,0l38.05-1.91c0.92-0.05,1.69-0.72,1.86-1.63l3.99-21.93
	C76.6,30.68,76.44,30.08,76.06,29.63z"/>
<g>
	<path class="st1" d="M62.57,48.85c-1.1,0-1.99-0.89-1.99-1.99v-7.98c0-1.1,0.89-1.99,1.99-1.99c1.1,0,1.99,0.89,1.99,1.99v7.98
		C64.56,47.96,63.67,48.85,62.57,48.85z"/>
	<path class="st1" d="M50.61,48.85c-1.1,0-1.99-0.89-1.99-1.99v-7.98c0-1.1,0.89-1.99,1.99-1.99c1.1,0,1.99,0.89,1.99,1.99v7.98
		C52.6,47.96,51.71,48.85,50.61,48.85z"/>
	<path class="st1" d="M38.64,48.85c-1.1,0-1.99-0.89-1.99-1.99v-7.98c0-1.1,0.89-1.99,1.99-1.99c1.1,0,1.99,0.89,1.99,1.99v7.98
		C40.64,47.96,39.74,48.85,38.64,48.85z"/>
</g>
<g>
	<circle class="st2" cx="38.64" cy="74.78" r="5.98"/>
	<circle class="st2" cx="62.57" cy="74.78" r="5.98"/>
	<path class="st2" d="M66.56,64.81h-31.9c-0.91,0-1.69-0.61-1.93-1.48l-10.25-38.4h-7.76c-1.1,0-1.99-0.89-1.99-1.99
		s0.89-1.99,1.99-1.99h9.29c0.91,0,1.69,0.61,1.93,1.48l10.25,38.4h30.37c1.1,0,1.99,0.89,1.99,1.99
		C68.55,63.91,67.66,64.81,66.56,64.81z"/>
</g>
</svg>
