<?xml version="1.0" encoding="utf-8"?>
<!-- Generator: Adobe Illustrator 23.0.2, SVG Export Plug-In . SVG Version: 6.00 Build 0)  -->
<svg version="1.1" id="Layer_1" xmlns="http://www.w3.org/2000/svg" xmlns:xlink="http://www.w3.org/1999/xlink" x="0px" y="0px"
	 viewBox="0 0 1600 816" style="enable-background:new 0 0 1600 816;" xml:space="preserve">
<style type="text/css">
	.st0{fill:#F7F7F7;}
	.st1{fill:#C4C4C4;filter:url(#Adobe_OpacityMaskFilter);}
	.st2{mask:url(#mask0_1_);}
	.st3{opacity:2.000000e-02;fill-rule:evenodd;clip-rule:evenodd;enable-background:new    ;}
	.st4{fill:#5D5D63;}
</style>
<rect class="st0" width="1600" height="816"/>
<defs>
	<filter id="Adobe_OpacityMaskFilter" filterUnits="userSpaceOnUse" x="0" y="-119" width="448.4" height="599">
		<feColorMatrix  type="matrix" values="1 0 0 0 0  0 1 0 0 0  0 0 1 0 0  0 0 0 1 0"/>
	</filter>
</defs>
<mask maskUnits="userSpaceOnUse" x="0" y="-119" width="448.4" height="599" id="mask0_1_">
	<rect class="st1" width="457" height="480"/>
</mask>
<g class="st2">
	<path class="st3" d="M96.6,105.4C53.6,5.5,14.3-85.8,9.2-97.6L0-119h22.9l22.9,0l14.4,33.2C68.1-67.5,90.9-15,110.9,30.9
		c84.7,194.8,86.1,197.6,85.4,199.8c-0.1,0.2-0.1,0.4-0.2,0.8c-0.1,1.4-1.3,4.9-3.3,10.3c-4.7,12.5-17.7,45.3-17.9,45.3
		C174.8,287,139.6,205.3,96.6,105.4z M193,363.6c54.3-125,199.1-457.9,206.1-473.8l3.9-8.8h22.8c21.6,0,22.8,0,22.6,0.6
		c-1.8,4.7-257.7,598.5-257.9,598.4c-0.3-0.3-12-31.1-16.1-42.3c-4.4-12.1-5.4-14.7-5.1-17.2c0.1-0.8,0.3-1.5,0.5-2.5
		C170.1,416.7,180.6,392.2,193,363.6z"/>
</g>
<path class="st4" d="M1245.4,680c0.8,0,1.4-0.6,1.4-1.4s-0.7-1.4-1.4-1.4c-0.8,0-1.4,0.6-1.4,1.4S1244.6,680,1245.4,680z"/>
</svg>
