<svg width="75" height="74" viewBox="0 0 75 74" fill="none" xmlns="http://www.w3.org/2000/svg">
<path d="M35.7501 45.5C35.7463 44.7971 35.5147 44.1144 35.09 43.5543C34.6654 42.9942 34.0706 42.5868 33.3949 42.3933C32.7192 42.1998 31.9989 42.2306 31.3422 42.481C30.6854 42.7315 30.1275 43.1881 29.7522 43.7824L26.0001 50.0061V26C26.0001 25.138 25.6577 24.3114 25.0482 23.7019C24.4387 23.0924 23.6121 22.75 22.7501 22.75C21.8881 22.75 21.0615 23.0924 20.452 23.7019C19.8425 24.3114 19.5001 25.138 19.5001 26V22.75C19.5001 21.888 19.1577 21.0614 18.5482 20.4519C17.9387 19.8424 17.1121 19.5 16.2501 19.5C15.3881 19.5 14.5615 19.8424 13.952 20.4519C13.3425 21.0614 13.0001 21.888 13.0001 22.75C13.0001 21.888 12.6577 21.0614 12.0482 20.4519C11.4387 19.8424 10.6121 19.5 9.7501 19.5C8.88815 19.5 8.0615 19.8424 7.452 20.4519C6.84251 21.0614 6.5001 21.888 6.5001 22.75V27.625C6.5001 26.763 6.15769 25.9364 5.5482 25.3269C4.93871 24.7174 4.11206 24.375 3.2501 24.375C2.38815 24.375 1.5615 24.7174 0.952005 25.3269C0.342512 25.9364 0.000101803 26.763 0.000101803 27.625V56.6849C-0.0125364 59.7283 1.15197 62.6588 3.2501 64.8635V71.5C3.2501 71.931 3.42131 72.3443 3.72605 72.649C4.0308 72.9538 4.44412 73.125 4.8751 73.125H22.7501C23.1811 73.125 23.5944 72.9538 23.8991 72.649C24.2039 72.3443 24.3751 71.931 24.3751 71.5V65C30.1634 60.2257 35.5616 46.5546 35.5714 46.5156C35.6856 46.189 35.746 45.846 35.7501 45.5Z" fill="#FFD764"/>
<path d="M19.5 43.875C19.069 43.875 18.6557 43.7038 18.351 43.3991C18.0462 43.0943 17.875 42.681 17.875 42.25V27.625C17.875 27.194 18.0462 26.7807 18.351 26.476C18.6557 26.1712 19.069 26 19.5 26C19.931 26 20.3443 26.1712 20.649 26.476C20.9538 26.7807 21.125 27.194 21.125 27.625V42.25C21.125 42.681 20.9538 43.0943 20.649 43.3991C20.3443 43.7038 19.931 43.875 19.5 43.875Z" fill="#E2AC4B"/>
<path d="M13 43.875C12.569 43.875 12.1557 43.7038 11.851 43.399C11.5462 43.0943 11.375 42.681 11.375 42.25V24.375C11.375 23.944 11.5462 23.5307 11.851 23.226C12.1557 22.9212 12.569 22.75 13 22.75C13.431 22.75 13.8443 22.9212 14.149 23.226C14.4538 23.5307 14.625 23.944 14.625 24.375V42.25C14.625 42.681 14.4538 43.0943 14.149 43.399C13.8443 43.7038 13.431 43.875 13 43.875Z" fill="#E2AC4B"/>
<path d="M6.5 45.5C6.06902 45.5 5.6557 45.3288 5.35095 45.024C5.04621 44.7193 4.875 44.306 4.875 43.875V29.25C4.875 28.819 5.04621 28.4057 5.35095 28.101C5.6557 27.7962 6.06902 27.625 6.5 27.625C6.93098 27.625 7.3443 27.7962 7.64905 28.101C7.95379 28.4057 8.125 28.819 8.125 29.25V43.875C8.125 44.306 7.95379 44.7193 7.64905 45.024C7.3443 45.3288 6.93098 45.5 6.5 45.5Z" fill="#E2AC4B"/>
<path d="M16.25 58.4999C15.8424 58.5015 15.4492 58.3498 15.1482 58.075C14.8472 57.8002 14.6605 57.4223 14.625 57.0163C14.5259 55.6703 14.7176 54.3188 15.1869 53.0534C15.6563 51.788 16.3924 50.6384 17.3453 49.6827C18.2939 48.7784 19.4236 48.0857 20.6598 47.6504C21.896 47.2151 23.2104 47.047 24.5164 47.1574C24.7327 47.1719 24.9439 47.2296 25.1375 47.3269C25.3312 47.4243 25.5034 47.5595 25.6441 47.7244C25.7847 47.8893 25.8909 48.0808 25.9565 48.2874C26.022 48.494 26.0456 48.7116 26.0258 48.9275C26.0059 49.1434 25.9431 49.3531 25.841 49.5443C25.7389 49.7355 25.5995 49.9043 25.4312 50.0409C25.2628 50.1774 25.0688 50.2789 24.8606 50.3393C24.6525 50.3998 24.4343 50.4179 24.219 50.3928C23.3666 50.3144 22.5073 50.4245 21.7022 50.7154C20.8971 51.0062 20.1659 51.4707 19.5605 52.0759C18.955 52.681 18.4901 53.412 18.1989 54.2169C17.9076 55.0219 17.797 55.8811 17.875 56.7335C17.8944 56.9471 17.8713 57.1624 17.8071 57.367C17.7429 57.5716 17.6389 57.7614 17.501 57.9256C17.3631 58.0898 17.194 58.2251 17.0036 58.3237C16.8131 58.4222 16.6051 58.4821 16.3914 58.4999C16.3443 58.5022 16.2971 58.5022 16.25 58.4999Z" fill="#E2AC4B"/>
<path d="M39 45.5C39.0038 44.7971 39.2354 44.1144 39.6601 43.5543C40.0847 42.9942 40.6795 42.5868 41.3552 42.3933C42.0309 42.1998 42.7512 42.2306 43.4079 42.481C44.0647 42.7315 44.6226 43.1881 44.9979 43.7824L48.75 50.0061V26C48.75 25.138 49.0924 24.3114 49.7019 23.7019C50.3114 23.0924 51.138 22.75 52 22.75C52.862 22.75 53.6886 23.0924 54.2981 23.7019C54.9076 24.3114 55.25 25.138 55.25 26V22.75C55.25 21.888 55.5924 21.0614 56.2019 20.4519C56.8114 19.8424 57.638 19.5 58.5 19.5C59.362 19.5 60.1886 19.8424 60.7981 20.4519C61.4076 21.0614 61.75 21.888 61.75 22.75C61.75 21.888 62.0924 21.0614 62.7019 20.4519C63.3114 19.8424 64.138 19.5 65 19.5C65.862 19.5 66.6886 19.8424 67.2981 20.4519C67.9076 21.0614 68.25 21.888 68.25 22.75V27.625C68.25 26.763 68.5924 25.9364 69.2019 25.3269C69.8114 24.7174 70.638 24.375 71.5 24.375C72.3619 24.375 73.1886 24.7174 73.7981 25.3269C74.4076 25.9364 74.75 26.763 74.75 27.625V56.6849C74.7626 59.7283 73.5981 62.6588 71.5 64.8635V71.5C71.5 71.931 71.3288 72.3443 71.024 72.649C70.7193 72.9538 70.306 73.125 69.875 73.125H52C51.569 73.125 51.1557 72.9538 50.8509 72.649C50.5462 72.3443 50.375 71.931 50.375 71.5V65C44.5851 60.2274 39.1885 46.5546 39.1788 46.5156C39.0645 46.189 39.0041 45.846 39 45.5Z" fill="#FFD764"/>
<path d="M55.25 43.875C55.681 43.875 56.0943 43.7038 56.399 43.3991C56.7038 43.0943 56.875 42.681 56.875 42.25V27.625C56.875 27.194 56.7038 26.7807 56.399 26.476C56.0943 26.1712 55.681 26 55.25 26C54.819 26 54.4057 26.1712 54.101 26.476C53.7962 26.7807 53.625 27.194 53.625 27.625V42.25C53.625 42.681 53.7962 43.0943 54.101 43.3991C54.4057 43.7038 54.819 43.875 55.25 43.875Z" fill="#E2AC4B"/>
<path d="M61.75 43.875C62.181 43.875 62.5943 43.7038 62.899 43.399C63.2038 43.0943 63.375 42.681 63.375 42.25V24.375C63.375 23.944 63.2038 23.5307 62.899 23.226C62.5943 22.9212 62.181 22.75 61.75 22.75C61.319 22.75 60.9057 22.9212 60.601 23.226C60.2962 23.5307 60.125 23.944 60.125 24.375V42.25C60.125 42.681 60.2962 43.0943 60.601 43.399C60.9057 43.7038 61.319 43.875 61.75 43.875Z" fill="#E2AC4B"/>
<path d="M68.25 45.5C68.681 45.5 69.0943 45.3288 69.399 45.024C69.7038 44.7193 69.875 44.306 69.875 43.875V29.25C69.875 28.819 69.7038 28.4057 69.399 28.101C69.0943 27.7962 68.681 27.625 68.25 27.625C67.819 27.625 67.4057 27.7962 67.101 28.101C66.7962 28.4057 66.625 28.819 66.625 29.25V43.875C66.625 44.306 66.7962 44.7193 67.101 45.024C67.4057 45.3288 67.819 45.5 68.25 45.5Z" fill="#E2AC4B"/>
<path d="M58.5013 58.4999C58.9089 58.5015 59.3022 58.3498 59.6031 58.075C59.9041 57.8002 60.0909 57.4223 60.1263 57.0163C60.2254 55.6703 60.0338 54.3188 59.5644 53.0534C59.095 51.788 58.3589 50.6384 57.4061 49.6827C56.4574 48.7784 55.3277 48.0857 54.0915 47.6504C52.8554 47.2151 51.5409 47.047 50.2349 47.1574C50.0187 47.1719 49.8075 47.2296 49.6138 47.3269C49.4201 47.4243 49.2479 47.5595 49.1073 47.7244C48.9666 47.8893 48.8604 48.0808 48.7948 48.2874C48.7293 48.494 48.7057 48.7116 48.7256 48.9275C48.7454 49.1434 48.8082 49.3531 48.9104 49.5443C49.0125 49.7355 49.1518 49.9043 49.3202 50.0409C49.4885 50.1774 49.6825 50.2789 49.8907 50.3393C50.0989 50.3998 50.317 50.4179 50.5323 50.3928C51.3848 50.3144 52.244 50.4245 53.0491 50.7154C53.8542 51.0062 54.5854 51.4707 55.1909 52.0759C55.7963 52.681 56.2612 53.412 56.5525 54.2169C56.8438 55.0219 56.9543 55.8811 56.8763 56.7335C56.8569 56.9471 56.88 57.1624 56.9442 57.367C57.0084 57.5716 57.1124 57.7614 57.2503 57.9256C57.3883 58.0898 57.5573 58.2251 57.7477 58.3237C57.9382 58.4222 58.1462 58.4821 58.3599 58.4999C58.407 58.5022 58.4542 58.5022 58.5013 58.4999Z" fill="#E2AC4B"/>
<path d="M39.0002 1.44486e-08H35.7502C35.5173 -3.10433e-05 35.2871 0.0500082 35.0752 0.146727C34.8633 0.243445 34.6747 0.384583 34.5221 0.560574C34.3696 0.736565 34.2566 0.943298 34.1909 1.16676C34.1253 1.39022 34.1084 1.62519 34.1415 1.85575L35.7665 13.2307C35.8217 13.6181 36.0148 13.9725 36.3103 14.2289C36.6058 14.4853 36.984 14.6265 37.3752 14.6265C37.7665 14.6265 38.1446 14.4853 38.4401 14.2289C38.7357 13.9725 38.9288 13.6181 38.984 13.2307L40.609 1.85575C40.642 1.62519 40.6252 1.39022 40.5595 1.16676C40.4938 0.943298 40.3809 0.736565 40.2283 0.560574C40.0757 0.384583 39.8871 0.243445 39.6752 0.146727C39.4633 0.0500082 39.2331 -3.10433e-05 39.0002 1.44486e-08Z" fill="#B3B3B3"/>
<path d="M23.9159 4.33385C23.8384 4.11443 23.7147 3.91421 23.5532 3.74672C23.3917 3.57923 23.1961 3.44839 22.9796 3.36303C22.7631 3.27768 22.5309 3.23981 22.2985 3.25198C22.0661 3.26416 21.8391 3.32609 21.6327 3.4336L18.75 4.93672C18.5434 5.04422 18.3623 5.19488 18.219 5.37848C18.0757 5.56208 17.9735 5.77434 17.9194 6.00088C17.8653 6.22742 17.8606 6.46293 17.9055 6.69147C17.9504 6.92001 18.0438 7.13623 18.1796 7.32547L24.8827 16.6595C25.0333 16.8693 25.2316 17.0402 25.4614 17.158C25.6911 17.2758 25.9456 17.3372 26.2039 17.3371C26.4636 17.3369 26.7196 17.2743 26.9502 17.1548C27.1809 17.0352 27.3795 16.8621 27.5294 16.6499C27.6794 16.4377 27.7762 16.1927 27.8119 15.9354C27.8476 15.6781 27.8211 15.4159 27.7346 15.171L23.9159 4.33385Z" fill="#B3B3B3"/>
<path d="M56.8309 6.0011C56.7769 5.77454 56.6748 5.56224 56.5315 5.3786C56.3882 5.19496 56.2072 5.04426 56.0006 4.93672L53.1178 3.4336C52.9115 3.32609 52.6844 3.26416 52.452 3.25198C52.2197 3.23981 51.9874 3.27768 51.7709 3.36303C51.5545 3.44839 51.3589 3.57923 51.1973 3.74672C51.0358 3.91421 50.9121 4.11443 50.8347 4.33385L47.0159 15.171C46.8862 15.5397 46.8937 15.9429 47.0372 16.3066C47.1806 16.6703 47.4504 16.97 47.7969 17.1509C48.1435 17.3318 48.5437 17.3817 48.924 17.2914C49.3044 17.2012 49.6395 16.9768 49.8678 16.6595L56.5693 7.32547C56.7053 7.13637 56.799 6.92024 56.8442 6.69174C56.8893 6.46324 56.8848 6.2277 56.8309 6.0011Z" fill="#B3B3B3"/>
</svg>
