<svg width="24" height="24" viewBox="0 0 24 24" fill="none" xmlns="http://www.w3.org/2000/svg">
<path d="M5.704 2.979C6.398 3.492 6.961 4.143 7.471 4.999C7.917 5.746 8.908 7.826 8 9C6.973 10.328 4 10.776 4 12C4 12.921 5.304 13.972 6 15C7.047 16.546 6.571 18.044 6 19C5.704 19.496 5.231 19.92 4.707 20.234" stroke="#FF4C4C" stroke-width="2" stroke-miterlimit="10" stroke-linecap="round" stroke-linejoin="round"/>
<path d="M20.668 5.22694C18.509 6.26194 15.542 6.96094 15 6.99994C13.955 7.07494 13.8 6.21594 13 4.99994C12.4 4.08794 11 2.94694 11 1.99994C11 1.62894 11.036 1.32794 11.131 1.03394" stroke="#FF4C4C" stroke-width="2" stroke-miterlimit="10" stroke-linecap="round" stroke-linejoin="round"/>
<path d="M12 23C18.0751 23 23 18.0751 23 12C23 5.92487 18.0751 1 12 1C5.92487 1 1 5.92487 1 12C1 18.0751 5.92487 23 12 23Z" stroke="white" stroke-width="2" stroke-miterlimit="10" stroke-linecap="round" stroke-linejoin="round"/>
<path d="M19.0143 12.9031C19.0563 15.9871 15.0423 19.8331 13.0003 19.0001C11.2103 18.2701 12.4733 16.8621 12.0143 12.9031C11.8233 11.2571 13.5813 9.90308 15.5143 9.90308C17.4473 9.90308 18.9923 11.2471 19.0143 12.9031Z" stroke="#FF4C4C" stroke-width="2" stroke-miterlimit="10" stroke-linecap="round" stroke-linejoin="round"/>
</svg>
