<svg width="24" height="24" viewBox="0 0 24 24" fill="none" xmlns="http://www.w3.org/2000/svg">
<path d="M15 11C17.7614 11 20 8.76142 20 6C20 3.23858 17.7614 1 15 1C12.2386 1 10 3.23858 10 6C10 8.76142 12.2386 11 15 11Z" stroke="#FF4C4C" stroke-width="2" stroke-miterlimit="10" stroke-linecap="round" stroke-linejoin="round"/>
<path d="M17 16H18.838C19.4676 16 20.0812 16.1981 20.592 16.5662C21.1028 16.9343 21.4848 17.4537 21.684 18.051L22 19L10.532 22.529C9.5488 22.8313 8.48694 22.7432 7.567 22.283L1 19V12H2C3.105 12 5.906 12.438 7 14H10C11.0609 14 12.0783 14.4214 12.8284 15.1716C13.5786 15.9217 14 16.9391 14 18H8" stroke="white" stroke-width="2" stroke-miterlimit="10" stroke-linecap="round" stroke-linejoin="round"/>
<path d="M15 5V7" stroke="#FF4C4C" stroke-width="2" stroke-miterlimit="10" stroke-linecap="round" stroke-linejoin="round"/>
</svg>
