<svg width="24" height="24" viewBox="0 0 24 24" fill="none" xmlns="http://www.w3.org/2000/svg">
<path d="M13 6V2.773C13 2.30277 12.8132 1.8518 12.4807 1.5193C12.1482 1.1868 11.6972 1 11.227 1H2.773C2.30277 1 1.8518 1.1868 1.5193 1.5193C1.1868 1.8518 1 2.30277 1 2.773V10.227C1 10.6972 1.1868 11.1482 1.5193 11.4807C1.8518 11.8132 2.30277 12 2.773 12H3V14L6 12H8" stroke="#522D80 " stroke-width="2" stroke-miterlimit="10" stroke-linecap="round" stroke-linejoin="round"/>
<path d="M21.2859 9H12.7139C12.2438 9.01644 11.7994 9.21862 11.4781 9.56223C11.1568 9.90583 10.9848 10.3628 10.9999 10.833V18.167C10.9848 18.6372 11.1568 19.0942 11.4781 19.4378C11.7994 19.7814 12.2438 19.9836 12.7139 20H17.9999L20.9999 22V20H21.2859C21.7561 19.9836 22.2005 19.7814 22.5218 19.4378C22.8431 19.0942 23.0151 18.6372 22.9999 18.167V10.833C23.0151 10.3628 22.8431 9.90583 22.5218 9.56223C22.2005 9.21862 21.7561 9.01644 21.2859 9V9Z" stroke="#522D80 " stroke-width="2" stroke-miterlimit="10" stroke-linecap="round" stroke-linejoin="round"/>
<path d="M10.2871 5.11304C9.97914 5.08504 9.70614 5.07104 9.28714 5.07104C9.18785 5.54046 9.02784 5.99495 8.81114 6.42304C8.60386 6.83399 8.34254 7.21537 8.03414 7.55704C8.77304 7.98953 9.58755 8.27732 10.4341 8.40504C10.1343 8.79364 9.90024 9.22874 9.74114 9.69304C8.78725 9.42385 7.88678 8.99256 7.07914 8.41804C6.23098 9.00466 5.28823 9.44102 4.29214 9.70804C4.1418 9.25864 3.91404 8.83899 3.61914 8.46804C4.49496 8.30921 5.33629 7.99854 6.10514 7.55004C5.75159 7.16329 5.44912 6.73277 5.20514 6.26904C5.00264 5.88702 4.84075 5.48482 4.72214 5.06904C4.30914 5.06904 4.07014 5.08304 3.72214 5.11104V3.84504C4.05955 3.8813 4.39881 3.89766 4.73814 3.89404H6.28014V3.47404C6.28156 3.32829 6.26748 3.18281 6.23814 3.04004H7.64614C7.61797 3.18062 7.6039 3.32366 7.60414 3.46704V3.89404H9.27114C9.61048 3.89782 9.94974 3.88146 10.2871 3.84504V5.11304ZM6.06314 5.07104C6.24411 5.71029 6.58123 6.29449 7.04414 6.77104C7.47028 6.28435 7.7707 5.70067 7.91914 5.07104H6.06314Z" fill="#522D80 "/>
<path d="M18.3689 17.451L18.0519 16.251H15.9649L15.6399 17.451H13.7329L15.8289 11H18.1449L20.2669 17.451H18.3689ZM17.6919 14.823L17.4149 13.769C17.3482 13.5343 17.2699 13.231 17.1799 12.859C17.0899 12.487 17.0292 12.2203 16.9979 12.059C16.9709 12.208 16.9189 12.459 16.8419 12.797C16.7649 13.135 16.5919 13.815 16.3249 14.823H17.6919Z" fill="#522D80 "/>
</svg>
