<svg width="24" height="24" viewBox="0 0 24 24" fill="none" xmlns="http://www.w3.org/2000/svg">
<path d="M1 5H23" stroke="#522D80" stroke-width="2" stroke-miterlimit="10" stroke-linecap="round" stroke-linejoin="round"/>
<path d="M1 9H23" stroke="#522D80" stroke-width="2" stroke-miterlimit="10" stroke-linecap="round" stroke-linejoin="round"/>
<path d="M9 17H3C1.895 17 1 16.105 1 15V3C1 1.895 1.895 1 3 1H16H21C22.105 1 23 1.895 23 3V13" stroke="#522D80" stroke-width="2" stroke-miterlimit="10" stroke-linecap="round" stroke-linejoin="round"/>
<path d="M5 13H10" stroke="#522D80" stroke-width="2" stroke-miterlimit="10" stroke-linecap="round" stroke-linejoin="round"/>
<path d="M21 16H13V23H21V16Z" stroke="#522D80" stroke-width="2" stroke-miterlimit="10" stroke-linecap="round" stroke-linejoin="round"/>
<path d="M15 16V14C15 12.9 15.9 12 17 12C18.1 12 19 12.9 19 14V16" stroke="#522D80" stroke-width="2" stroke-miterlimit="10" stroke-linecap="round" stroke-linejoin="round"/>
<path d="M17 19V20" stroke="#522D80" stroke-width="2" stroke-miterlimit="10" stroke-linecap="round" stroke-linejoin="round"/>
</svg>
