<svg width="96" height="96" viewBox="0 0 96 96" fill="none" xmlns="http://www.w3.org/2000/svg">
<path d="M49.9082 36.8621C55.393 36.8621 59.8392 32.4158 59.8392 26.931C59.8392 21.4463 55.393 17 49.9082 17C44.4234 17 39.9772 21.4463 39.9772 26.931C39.9772 32.4158 44.4234 36.8621 49.9082 36.8621Z" fill="#000001" fill-opacity="0.1"/>
<path d="M65.3565 71.3713V77.6897L49.9082 81L34.46 77.6897V71.3713" fill="#000001" fill-opacity="0.1"/>
<path d="M34.46 65.0111V53.4138L49.9082 56.7242L65.3565 53.4138V65.0111" fill="#000001" fill-opacity="0.1"/>
<path d="M71.8989 67.0391L59.8713 63.4077C59.6781 63.3753 59.4832 63.3543 59.2876 63.3448C58.6285 63.3431 57.9907 63.5781 57.4903 64.007C56.9899 64.4359 56.6601 65.0302 56.5609 65.6817C56.4617 66.3333 56.5998 66.9988 56.95 67.5572C57.3001 68.1155 57.8391 68.5296 58.4688 68.7241L76.7397 75.3878C76.9868 75.4487 77.24 75.4805 77.4945 75.4827C78.0536 75.4828 78.6037 75.3413 79.0933 75.0713C79.583 74.8013 79.9963 74.4117 80.2946 73.9388C80.593 73.4659 80.7667 72.9251 80.7996 72.367C80.8325 71.8088 80.7234 71.2514 80.4826 70.7467L69.0343 45.6102C68.5956 44.6467 67.889 43.8298 66.9988 43.2569C66.1085 42.684 65.0723 42.3794 64.0136 42.3793H35.8029C34.7442 42.3794 33.708 42.684 32.8178 43.2569C31.9275 43.8298 31.2209 44.6467 30.7822 45.6102L19.3339 70.7467C19.0593 71.309 18.9506 71.9379 19.0207 72.5597C19.0907 73.1815 19.3366 73.7705 19.7294 74.2576C20.1222 74.7447 20.6457 75.1097 21.2386 75.3099C21.8315 75.5101 22.4691 75.5371 23.0768 75.3878L41.3477 68.7241C41.9774 68.5296 42.5164 68.1155 42.8666 67.5572C43.2167 66.9988 43.3548 66.3333 43.2556 65.6817C43.1564 65.0302 42.8266 64.4359 42.3262 64.007C41.8258 63.5781 41.188 63.3431 40.529 63.3448C40.3333 63.3543 40.1384 63.3753 39.9452 63.4077L27.9176 67.0391" fill="#000001" fill-opacity="0.1"/>
<path d="M45.9082 33.8621C51.393 33.8621 55.8392 29.4158 55.8392 23.931C55.8392 18.4463 51.393 14 45.9082 14C40.4234 14 35.9772 18.4463 35.9772 23.931C35.9772 29.4158 40.4234 33.8621 45.9082 33.8621Z" stroke="white" stroke-width="2" stroke-miterlimit="10" stroke-linecap="round" stroke-linejoin="round"/>
<path d="M61.3565 68.3713V74.6897L45.9082 78L30.46 74.6897V68.3713" stroke="#FF4C4C" stroke-width="2" stroke-miterlimit="10" stroke-linecap="round" stroke-linejoin="round"/>
<path d="M30.46 62.0111V50.4138L45.9082 53.7242L61.3565 50.4138V62.0111" stroke="#FF4C4C" stroke-width="2" stroke-miterlimit="10" stroke-linecap="round" stroke-linejoin="round"/>
<path d="M45.9082 78V53.7241" stroke="#FF4C4C" stroke-width="2" stroke-miterlimit="10" stroke-linecap="round" stroke-linejoin="round"/>
<path d="M67.8989 64.0391L55.8713 60.4077C55.6781 60.3753 55.4832 60.3543 55.2876 60.3448C54.6285 60.3431 53.9907 60.5781 53.4903 61.007C52.9899 61.4359 52.6601 62.0302 52.5609 62.6817C52.4617 63.3333 52.5998 63.9988 52.95 64.5572C53.3001 65.1155 53.8391 65.5296 54.4688 65.7241L72.7397 72.3878C72.9868 72.4487 73.24 72.4805 73.4945 72.4827C74.0536 72.4828 74.6037 72.3413 75.0933 72.0713C75.583 71.8013 75.9963 71.4117 76.2946 70.9388C76.593 70.4659 76.7667 69.9251 76.7996 69.367C76.8325 68.8088 76.7234 68.2514 76.4826 67.7467L65.0343 42.6102C64.5956 41.6467 63.889 40.8298 62.9988 40.2569C62.1085 39.684 61.0723 39.3794 60.0136 39.3793H31.8029C30.7442 39.3794 29.708 39.684 28.8178 40.2569C27.9275 40.8298 27.2209 41.6467 26.7822 42.6102L15.3339 67.7467C15.0593 68.309 14.9506 68.9379 15.0207 69.5597C15.0907 70.1815 15.3366 70.7705 15.7294 71.2576C16.1222 71.7447 16.6457 72.1097 17.2386 72.3099C17.8315 72.5101 18.4691 72.5371 19.0768 72.3878L37.3477 65.7241C37.9774 65.5296 38.5164 65.1155 38.8666 64.5572C39.2167 63.9988 39.3548 63.3333 39.2556 62.6817C39.1564 62.0302 38.8266 61.4359 38.3262 61.007C37.8258 60.5781 37.188 60.3431 36.529 60.3448C36.3333 60.3543 36.1384 60.3753 35.9452 60.4077L23.9176 64.0391" stroke="white" stroke-width="2" stroke-miterlimit="10" stroke-linecap="round" stroke-linejoin="round"/>
</svg>
