<svg width="96" height="96" viewBox="0 0 96 96" fill="none" xmlns="http://www.w3.org/2000/svg">
<path d="M25.2667 54.2667H29.3617" stroke="#FF4C4C" stroke-width="2" stroke-miterlimit="10" stroke-linecap="round" stroke-linejoin="round"/>
<path d="M21 54.2667H25.2667" stroke="#000001" stroke-opacity="0.1" stroke-width="2" stroke-miterlimit="10" stroke-linecap="round" stroke-linejoin="round"/>
<path d="M25.2667 45.7333V62.7999" stroke="#000001" stroke-opacity="0.1" stroke-width="2" stroke-miterlimit="10" stroke-linecap="round" stroke-linejoin="round"/>
<path d="M76.4667 45.7333V62.7999" stroke="#000001" stroke-opacity="0.1" stroke-width="2" stroke-miterlimit="10" stroke-linecap="round" stroke-linejoin="round"/>
<path d="M76.4667 54.2667H80.7333" stroke="#000001" stroke-opacity="0.1" stroke-width="2" stroke-miterlimit="10" stroke-linecap="round" stroke-linejoin="round"/>
<path d="M72.3771 54.2667H76.4667" stroke="#000001" stroke-opacity="0.1" stroke-width="2" stroke-miterlimit="10" stroke-linecap="round" stroke-linejoin="round"/>
<path d="M50.8667 30.8C54.4013 30.8 57.2667 27.9346 57.2667 24.4C57.2667 20.8654 54.4013 18 50.8667 18C47.3321 18 44.4667 20.8654 44.4667 24.4C44.4667 27.9346 47.3321 30.8 50.8667 30.8Z" fill="#000001" fill-opacity="0.1"/>
<path d="M35.5739 54.2667H42.3333" stroke="#FF4C4C" stroke-width="2" stroke-miterlimit="10" stroke-linecap="round" stroke-linejoin="round"/>
<path d="M66.1595 54.2667H59.4" stroke="#FF4C4C" stroke-width="2" stroke-miterlimit="10" stroke-linecap="round" stroke-linejoin="round"/>
<path d="M48.7131 59.953L46.5797 79.153C46.4929 79.9356 46.1205 80.6587 45.5338 81.184C44.9472 81.7092 44.1874 81.9998 43.4 81.9999C43.2806 82.0001 43.1613 81.9933 43.0427 81.9797C42.1994 81.8858 41.428 81.461 40.8979 80.7985C40.3678 80.136 40.1226 79.2901 40.216 78.4469L42.2875 59.8346" fill="#000001" fill-opacity="0.1"/>
<path d="M53.0203 59.953L55.1536 79.153C55.2405 79.9356 55.6129 80.6587 56.1995 81.184C56.7862 81.7092 57.5459 81.9998 58.3333 81.9999C58.4527 82.0001 58.572 81.9933 58.6907 81.9797C59.5339 81.8858 60.3054 81.461 60.8354 80.7985C61.3655 80.136 61.6108 79.2901 61.5173 78.4469L59.4459 59.8346" fill="#000001" fill-opacity="0.1"/>
<path d="M59.4 54.2666V45.7333H59.9899L67.4246 56.0117C67.835 56.5781 68.4466 56.9658 69.134 57.0953C69.8213 57.2249 70.5322 57.0864 71.1206 56.7082C71.7308 56.3154 72.1601 55.6963 72.3141 54.987C72.4681 54.2778 72.3342 53.5364 71.9419 52.9258L62.0912 37.6032C61.8016 37.1525 61.4034 36.7817 60.9332 36.5249C60.463 36.2681 59.9358 36.1334 59.4 36.1333H42.3334C41.7976 36.1334 41.2704 36.2681 40.8002 36.5249C40.33 36.7817 39.9318 37.1525 39.6422 37.6032L29.7915 52.9258C29.3992 53.5364 29.2653 54.2778 29.4193 54.987C29.5733 55.6963 30.0026 56.3154 30.6128 56.7082C31.2012 57.0864 31.9121 57.2249 32.5994 57.0953C33.2867 56.9658 33.8984 56.5781 34.3088 56.0117L41.7435 45.7333H42.3334V54.2666" fill="#000001" fill-opacity="0.1"/>
<path d="M42.3334 54.2667H59.4" stroke="#FF4C4C" stroke-width="2" stroke-miterlimit="10" stroke-linecap="round" stroke-linejoin="round"/>
<path d="M20.2667 50.2667H24.3617" stroke="#FF4C4C" stroke-width="2" stroke-miterlimit="10" stroke-linecap="round" stroke-linejoin="round"/>
<path d="M16 50.2667H20.2667" stroke="#FF4C4C" stroke-width="2" stroke-miterlimit="10" stroke-linecap="round" stroke-linejoin="round"/>
<path d="M20.2667 41.7333V58.7999" stroke="#FF4C4C" stroke-width="2" stroke-miterlimit="10" stroke-linecap="round" stroke-linejoin="round"/>
<path d="M71.4667 41.7333V58.7999" stroke="#FF4C4C" stroke-width="2" stroke-miterlimit="10" stroke-linecap="round" stroke-linejoin="round"/>
<path d="M71.4667 50.2667H75.7333" stroke="#FF4C4C" stroke-width="2" stroke-miterlimit="10" stroke-linecap="round" stroke-linejoin="round"/>
<path d="M67.3771 50.2667H71.4667" stroke="#FF4C4C" stroke-width="2" stroke-miterlimit="10" stroke-linecap="round" stroke-linejoin="round"/>
<path d="M45.8667 26.8C49.4013 26.8 52.2667 23.9346 52.2667 20.4C52.2667 16.8654 49.4013 14 45.8667 14C42.3321 14 39.4667 16.8654 39.4667 20.4C39.4667 23.9346 42.3321 26.8 45.8667 26.8Z" stroke="white" stroke-width="2" stroke-miterlimit="10" stroke-linecap="round" stroke-linejoin="round"/>
<path d="M30.5739 50.2667H37.3333" stroke="#FF4C4C" stroke-width="2" stroke-miterlimit="10" stroke-linecap="round" stroke-linejoin="round"/>
<path d="M61.1595 50.2667H54.4" stroke="#FF4C4C" stroke-width="2" stroke-miterlimit="10" stroke-linecap="round" stroke-linejoin="round"/>
<path d="M43.7131 55.953L41.5797 75.153C41.4929 75.9356 41.1205 76.6587 40.5338 77.184C39.9472 77.7092 39.1874 77.9998 38.4 77.9999C38.2806 78.0001 38.1613 77.9933 38.0427 77.9797C37.1994 77.8858 36.428 77.461 35.8979 76.7985C35.3678 76.136 35.1226 75.2901 35.216 74.4469L37.2875 55.8346" stroke="white" stroke-width="2" stroke-miterlimit="10" stroke-linecap="round" stroke-linejoin="round"/>
<path d="M48.0203 55.953L50.1536 75.153C50.2405 75.9356 50.6129 76.6587 51.1995 77.184C51.7862 77.7092 52.5459 77.9998 53.3333 77.9999C53.4527 78.0001 53.572 77.9933 53.6907 77.9797C54.5339 77.8858 55.3054 77.461 55.8354 76.7985C56.3655 76.136 56.6108 75.2901 56.5173 74.4469L54.4459 55.8346" stroke="white" stroke-width="2" stroke-miterlimit="10" stroke-linecap="round" stroke-linejoin="round"/>
<path d="M54.4 50.2666V41.7333H54.9899L62.4246 52.0117C62.835 52.5781 63.4466 52.9658 64.134 53.0953C64.8213 53.2249 65.5322 53.0864 66.1206 52.7082V52.7082C66.7308 52.3154 67.1601 51.6963 67.3141 50.987C67.4681 50.2778 67.3342 49.5364 66.9419 48.9258L57.0912 33.6032C56.8016 33.1525 56.4034 32.7817 55.9332 32.5249C55.463 32.2681 54.9358 32.1334 54.4 32.1333H37.3334C36.7976 32.1334 36.2704 32.2681 35.8002 32.5249C35.33 32.7817 34.9318 33.1525 34.6422 33.6032L24.7915 48.9258C24.3992 49.5364 24.2653 50.2778 24.4193 50.987C24.5733 51.6963 25.0026 52.3154 25.6128 52.7082V52.7082C26.2012 53.0864 26.9121 53.2249 27.5994 53.0953C28.2867 52.9658 28.8984 52.5781 29.3088 52.0117L36.7435 41.7333H37.3334V50.2666" stroke="white" stroke-width="2" stroke-miterlimit="10" stroke-linecap="round" stroke-linejoin="round"/>
<path d="M37.3334 50.2667H54.4" stroke="#FF4C4C" stroke-width="2" stroke-miterlimit="10" stroke-linecap="round" stroke-linejoin="round"/>
</svg>
