<svg width="96" height="96" viewBox="0 0 96 96" fill="none" xmlns="http://www.w3.org/2000/svg">
<path d="M64.03 41.2368L73.2765 20.3457C73.8803 18.9824 75.0009 17.9147 76.3918 17.3775C77.7827 16.8404 79.33 16.8777 80.6934 17.4813C80.8142 17.5344 80.9349 17.5936 81.0557 17.6552C81.7084 18.0015 82.2865 18.4731 82.7568 19.043C83.2271 19.6129 83.5805 20.2699 83.7967 20.9765C84.013 21.683 84.0878 22.4253 84.017 23.1608C83.9461 23.8963 83.731 24.6106 83.3839 25.2629C83.3211 25.3837 83.2547 25.4972 83.1835 25.6107L71.68 43.9901" fill="#000001" fill-opacity="0.1"/>
<path d="M81.6245 64.0939L76.8883 75.1444C76.1437 76.8823 74.9054 78.3634 73.3271 79.4042C71.7487 80.4451 69.8997 80.9999 68.009 81H32.4458C30.5551 80.9999 28.7061 80.4451 27.1277 79.4042C25.5494 78.3634 24.3111 76.8823 23.5665 75.1444L18.8303 64.0939" fill="#000001" fill-opacity="0.1"/>
<path d="M49.0198 31.4893V33.9044C46.4576 33.9044 44.0004 32.8866 42.1887 31.0749C40.3769 29.2632 39.3591 26.8059 39.3591 24.2438V21.8286C41.9213 21.8286 44.3785 22.8464 46.1902 24.6581C48.002 26.4699 49.0198 28.9271 49.0198 31.4893Z" fill="#000001" fill-opacity="0.1"/>
<path d="M45.3971 58.056C45.3971 53.5722 47.1783 49.2721 50.3488 46.1016C53.5193 42.9311 57.8194 41.1499 62.3032 41.1499C66.787 41.1499 71.0871 42.9311 74.2576 46.1016C77.4282 49.2721 79.2093 53.5722 79.2093 58.056" fill="#000001" fill-opacity="0.1"/>
<path d="M55.0577 58.056C55.0577 56.1344 55.8211 54.2915 57.1799 52.9327C58.5387 51.5739 60.3816 50.8105 62.3032 50.8105C64.2248 50.8105 66.0678 51.5739 67.4265 52.9327C68.7853 54.2915 69.5487 56.1344 69.5487 58.056" fill="#000001" fill-opacity="0.1"/>
<path d="M21.2455 58.0559C21.245 54.6973 22.2449 51.4147 24.1177 48.6266C25.9904 45.8386 28.6512 43.6716 31.7605 42.4019C34.8699 41.1322 38.287 40.8175 41.576 41.4978C44.865 42.1781 47.8769 43.8226 50.2274 46.2216" fill="#000001" fill-opacity="0.1"/>
<path d="M30.9061 58.056C30.9061 56.1344 31.6695 54.2915 33.0283 52.9327C34.3871 51.5739 36.23 50.8105 38.1516 50.8105" fill="#000001" fill-opacity="0.1"/>
<path d="M60.03 38.2368L69.2765 17.3457C69.8803 15.9824 71.0009 14.9147 72.3918 14.3775C73.7827 13.8404 75.33 13.8777 76.6934 14.4813C76.8142 14.5344 76.9349 14.5936 77.0557 14.6552C77.7084 15.0015 78.2865 15.4731 78.7568 16.043C79.2271 16.6129 79.5805 17.2699 79.7967 17.9765C80.013 18.683 80.0878 19.4253 80.017 20.1608C79.9461 20.8963 79.731 21.6106 79.3839 22.2629C79.3211 22.3837 79.2547 22.4972 79.1835 22.6107L67.68 40.9901" stroke="white" stroke-width="2" stroke-miterlimit="10" stroke-linecap="round" stroke-linejoin="round"/>
<path d="M10 61.0939H82.4548" stroke="white" stroke-width="2" stroke-miterlimit="10" stroke-linecap="round" stroke-linejoin="round"/>
<path d="M77.6245 61.0939L72.8883 72.1444C72.1437 73.8823 70.9054 75.3634 69.3271 76.4042C67.7487 77.4451 65.8997 77.9999 64.009 78H28.4458C26.5551 77.9999 24.7061 77.4451 23.1277 76.4042C21.5494 75.3634 20.3111 73.8823 19.5665 72.1444L14.8303 61.0939" stroke="white" stroke-width="2" stroke-miterlimit="10" stroke-linecap="round" stroke-linejoin="round"/>
<path d="M45.0198 28.4893V30.9044C42.4576 30.9044 40.0004 29.8866 38.1887 28.0749C36.3769 26.2632 35.3591 23.8059 35.3591 21.2438V18.8286C37.9213 18.8286 40.3785 19.8464 42.1902 21.6581C44.002 23.4699 45.0198 25.9271 45.0198 28.4893Z" stroke="white" stroke-width="2" stroke-miterlimit="10" stroke-linecap="round" stroke-linejoin="round"/>
<path d="M41.3971 55.056C41.3971 50.5722 43.1783 46.2721 46.3488 43.1016C49.5193 39.9311 53.8194 38.1499 58.3032 38.1499C62.787 38.1499 67.0871 39.9311 70.2576 43.1016C73.4282 46.2721 75.2093 50.5722 75.2093 55.056" stroke="#FF4C4C" stroke-width="2" stroke-miterlimit="10" stroke-linecap="round" stroke-linejoin="round"/>
<path d="M51.0577 55.056C51.0577 53.1344 51.8211 51.2915 53.1799 49.9327C54.5387 48.5739 56.3816 47.8105 58.3032 47.8105C60.2248 47.8105 62.0678 48.5739 63.4265 49.9327C64.7853 51.2915 65.5487 53.1344 65.5487 55.056" stroke="#FF4C4C" stroke-width="2" stroke-miterlimit="10" stroke-linecap="round" stroke-linejoin="round"/>
<path d="M17.2455 55.0559C17.245 51.6973 18.2449 48.4147 20.1177 45.6266C21.9904 42.8386 24.6512 40.6716 27.7605 39.4019C30.8699 38.1322 34.287 37.8175 37.576 38.4978C40.865 39.1781 43.8769 40.8226 46.2274 43.2216" stroke="#FF4C4C" stroke-width="2" stroke-miterlimit="10" stroke-linecap="round" stroke-linejoin="round"/>
<path d="M26.9061 55.056C26.9061 53.1344 27.6695 51.2915 29.0283 49.9327C30.3871 48.5739 32.23 47.8105 34.1516 47.8105" stroke="#FF4C4C" stroke-width="2" stroke-miterlimit="10" stroke-linecap="round" stroke-linejoin="round"/>
</svg>
