<svg width="96" height="96" viewBox="0 0 96 96" fill="none" xmlns="http://www.w3.org/2000/svg">
<path d="M76.8889 63.0145V24.058H39.8563V68.5797" stroke="#000001" stroke-opacity="0.1" stroke-width="2" stroke-miterlimit="10" stroke-linecap="round" stroke-linejoin="round"/>
<path d="M32.06 76C36.3658 76 39.8563 72.6778 39.8563 68.5797C39.8563 64.4816 36.3658 61.1594 32.06 61.1594C27.7542 61.1594 24.2637 64.4816 24.2637 68.5797C24.2637 72.6778 27.7542 76 32.06 76Z" fill="#000001" fill-opacity="0.1"/>
<path d="M69.0926 70.4348C73.3984 70.4348 76.8889 67.1126 76.8889 63.0145C76.8889 58.9164 73.3984 55.5942 69.0926 55.5942C64.7868 55.5942 61.2963 58.9164 61.2963 63.0145C61.2963 67.1126 64.7868 70.4348 69.0926 70.4348Z" fill="#000001" fill-opacity="0.1"/>
<path d="M35.5927 32.058H72.6252" stroke="white" stroke-width="2" stroke-miterlimit="10" stroke-linecap="round" stroke-linejoin="round"/>
<path d="M72.6252 58.9565V20H35.5927V64.5217" stroke="white" stroke-width="2" stroke-miterlimit="10" stroke-linecap="round" stroke-linejoin="round"/>
<path d="M27.7963 71.942C32.1021 71.942 35.5927 68.6198 35.5927 64.5217C35.5927 60.4236 32.1021 57.1014 27.7963 57.1014C23.4905 57.1014 20 60.4236 20 64.5217C20 68.6198 23.4905 71.942 27.7963 71.942Z" stroke="#FF4C4C" stroke-width="2" stroke-miterlimit="10" stroke-linecap="round" stroke-linejoin="round"/>
<path d="M64.8289 66.3768C69.1347 66.3768 72.6253 63.0547 72.6253 58.9565C72.6253 54.8584 69.1347 51.5363 64.8289 51.5363C60.5231 51.5363 57.0326 54.8584 57.0326 58.9565C57.0326 63.0547 60.5231 66.3768 64.8289 66.3768Z" stroke="#FF4C4C" stroke-width="2" stroke-miterlimit="10" stroke-linecap="round" stroke-linejoin="round"/>
</svg>
