<svg width="96" height="96" viewBox="0 0 96 96" fill="none" xmlns="http://www.w3.org/2000/svg">
<path d="M59 40H45C45 36.686 47.686 34 51 34H53C56.314 34 59 36.686 59 40Z" fill="#000001" fill-opacity="0.1"/>
<path d="M52 31C54.2091 31 56 29.2091 56 27C56 24.7909 54.2091 23 52 23C49.7909 23 48 24.7909 48 27C48 29.2091 49.7909 31 52 31Z" fill="#000001" fill-opacity="0.1"/>
<path d="M36 49H22C22 45.686 24.686 43 28 43H30C33.314 43 36 45.686 36 49Z" fill="#000001" fill-opacity="0.1"/>
<path d="M29 40C31.2091 40 33 38.2091 33 36C33 33.7909 31.2091 32 29 32C26.7909 32 25 33.7909 25 36C25 38.2091 26.7909 40 29 40Z" fill="#000001" fill-opacity="0.1"/>
<path d="M83 49H69C69 45.686 71.686 43 75 43H77C80.314 43 83 45.686 83 49Z" fill="#000001" fill-opacity="0.1"/>
<path d="M76 40C78.2091 40 80 38.2091 80 36C80 33.7909 78.2091 32 76 32C73.7909 32 72 33.7909 72 36C72 38.2091 73.7909 40 76 40Z" fill="#000001" fill-opacity="0.1"/>
<path d="M52 66C56.9706 66 61 61.9706 61 57C61 52.0294 56.9706 48 52 48C47.0294 48 43 52.0294 43 57C43 61.9706 47.0294 66 52 66Z" fill="#000001" fill-opacity="0.1"/>
<path d="M55 71H49C42.373 71 37 76.373 37 83H67C67 76.373 61.627 71 55 71Z" fill="#000001" fill-opacity="0.1"/>
<path d="M54 35H40C40 31.686 42.686 29 46 29H48C51.314 29 54 31.686 54 35Z" stroke="#FF4C4C" stroke-width="2" stroke-miterlimit="10" stroke-linecap="round" stroke-linejoin="round"/>
<path d="M47 26C49.2091 26 51 24.2091 51 22C51 19.7909 49.2091 18 47 18C44.7909 18 43 19.7909 43 22C43 24.2091 44.7909 26 47 26Z" stroke="#FF4C4C" stroke-width="2" stroke-miterlimit="10" stroke-linecap="round" stroke-linejoin="round"/>
<path d="M31 44H17C17 40.686 19.686 38 23 38H25C28.314 38 31 40.686 31 44Z" stroke="#FF4C4C" stroke-width="2" stroke-miterlimit="10" stroke-linecap="round" stroke-linejoin="round"/>
<path d="M24 35C26.2091 35 28 33.2091 28 31C28 28.7909 26.2091 27 24 27C21.7909 27 20 28.7909 20 31C20 33.2091 21.7909 35 24 35Z" stroke="#FF4C4C" stroke-width="2" stroke-miterlimit="10" stroke-linecap="round" stroke-linejoin="round"/>
<path d="M78 44H64C64 40.686 66.686 38 70 38H72C75.314 38 78 40.686 78 44Z" stroke="#FF4C4C" stroke-width="2" stroke-miterlimit="10" stroke-linecap="round" stroke-linejoin="round"/>
<path d="M71 35C73.2091 35 75 33.2091 75 31C75 28.7909 73.2091 27 71 27C68.7909 27 67 28.7909 67 31C67 33.2091 68.7909 35 71 35Z" stroke="#FF4C4C" stroke-width="2" stroke-miterlimit="10" stroke-linecap="round" stroke-linejoin="round"/>
<path d="M47 61C51.9706 61 56 56.9706 56 52C56 47.0294 51.9706 43 47 43C42.0294 43 38 47.0294 38 52C38 56.9706 42.0294 61 47 61Z" stroke="#5D5D63" stroke-width="2" stroke-miterlimit="10" stroke-linecap="round" stroke-linejoin="round"/>
<path d="M50 66H44C37.373 66 32 71.373 32 78H62C62 71.373 56.627 66 50 66Z" stroke="#5D5D63" stroke-width="2" stroke-miterlimit="10" stroke-linecap="round" stroke-linejoin="round"/>
</svg>
