<svg width="176" height="64" viewBox="0 0 176 64" fill="none" xmlns="http://www.w3.org/2000/svg">
<rect width="176" height="64" rx="32" fill="#191714"/>
<path d="M32.7586 38.5021V36.8312H26.6419V25.625H24.8525V38.5021H32.7586Z" fill="white"/>
<path d="M34.1253 36.1592C34.1253 37.5395 35.2756 38.7746 37.065 38.7746C38.6353 38.7746 39.5117 37.9391 39.8951 37.3216C39.8951 37.9573 39.9499 38.2842 39.9864 38.5021H41.6663C41.6297 38.2842 41.5567 37.8301 41.5567 37.0673V32.6902C41.5567 30.9829 40.5342 29.4936 37.9049 29.4936C36.006 29.4936 34.4905 30.656 34.3079 32.3269L35.9512 32.7083C36.0608 31.6913 36.7363 30.9466 37.9414 30.9466C39.2743 30.9466 39.8404 31.6549 39.8404 32.5086C39.8404 32.8173 39.6943 33.0898 39.1648 33.1624L36.7911 33.5075C35.2756 33.7254 34.1253 34.5972 34.1253 36.1592ZM37.3024 37.3397C36.4259 37.3397 35.8782 36.7222 35.8782 36.0684C35.8782 35.2874 36.4259 34.8697 37.1563 34.7607L39.8404 34.3611V34.7607C39.8404 36.6677 38.7083 37.3397 37.3024 37.3397Z" fill="white"/>
<path d="M49.8403 37.4487C49.8403 37.812 49.8768 38.3023 49.9133 38.5021H51.5566C51.5201 38.1934 51.4653 37.5758 51.4653 36.8857V29.766H49.749V35.0331C49.749 36.359 49.0551 37.2671 47.6675 37.2671C46.225 37.2671 45.6772 36.2137 45.6772 35.015V29.766H43.9609V35.2692C43.9609 37.2489 45.2025 38.7746 47.2475 38.7746C48.27 38.7746 49.3656 38.3568 49.8403 37.4487Z" fill="white"/>
<path d="M56.1105 33.453C56.1105 32.1271 56.8044 31.0556 58.1555 31.0556C59.6893 31.0556 60.2005 32.0363 60.2005 33.2532V38.5021H61.9169V32.9626C61.9169 31.0192 60.8761 29.5118 58.7763 29.5118C57.7538 29.5118 56.7131 29.9295 56.074 31.0192V29.766H54.3942V38.5021H56.1105V33.453Z" fill="white"/>
<path d="M68.3353 31.0737C69.8326 31.0737 70.4716 32.0727 70.6907 32.9263L72.2427 32.2724C71.8776 30.9466 70.6725 29.4936 68.3353 29.4936C65.8338 29.4936 63.9167 31.4007 63.9167 34.125C63.9167 36.7767 65.7973 38.7746 68.3536 38.7746C70.636 38.7746 71.8958 37.3034 72.3158 36.0502L70.8003 35.3964C70.5994 36.0865 69.9969 37.1944 68.3536 37.1944C66.9294 37.1944 65.6695 36.1229 65.6695 34.125C65.6695 32.0908 66.9476 31.0737 68.3353 31.0737Z" fill="white"/>
<path d="M76.0456 33.3622C76.0821 32.0727 76.776 31.0556 78.0906 31.0556C79.6244 31.0556 80.1356 32.0363 80.1356 33.2532V38.5021H81.8519V32.9626C81.8519 31.0192 80.8112 29.5118 78.7114 29.5118C77.7072 29.5118 76.6847 29.8569 76.0456 30.7831V25.3526H74.3293V38.5021H76.0456V33.3622Z" fill="white"/>
<path d="M94.095 29.766L91.8126 36.3408L89.8407 29.766H87.96L90.8449 38.5021H92.6525L94.9349 31.8547L97.2721 38.5021H99.0432L101.892 29.766H100.084L98.1485 36.3408L95.8661 29.766H94.095Z" fill="white"/>
<path d="M104.561 33.235C104.634 32.109 105.511 31.0011 106.953 31.0011C108.505 31.0011 109.327 31.9818 109.363 33.235H104.561ZM109.619 35.5053C109.29 36.4861 108.578 37.2671 107.154 37.2671C105.675 37.2671 104.543 36.1773 104.506 34.6154H111.116C111.134 34.5064 111.153 34.2885 111.153 34.0705C111.153 31.3462 109.637 29.4936 106.935 29.4936C104.725 29.4936 102.735 31.3643 102.735 34.1068C102.735 37.0673 104.798 38.7746 107.154 38.7746C109.199 38.7746 110.605 37.5577 111.098 36.0139L109.619 35.5053Z" fill="white"/>
<path d="M115.042 38.5021V37.2308C115.589 38.1752 116.594 38.7382 117.89 38.7382C120.501 38.7382 121.98 36.6859 121.98 34.0887C121.98 31.546 120.611 29.5118 117.945 29.5118C116.484 29.5118 115.462 30.2201 115.042 31.0011V25.3526H113.344V38.5021H115.042ZM120.227 34.0887C120.227 35.9776 119.205 37.2126 117.634 37.2126C116.119 37.2126 115.023 35.9776 115.023 34.0887C115.023 32.1998 116.119 31.0192 117.634 31.0192C119.223 31.0192 120.227 32.1998 120.227 34.0887Z" fill="white"/>
<path d="M123.345 36.2318C123.491 37.2308 124.514 38.7746 126.924 38.7746C129.097 38.7746 130.138 37.3034 130.138 36.0684C130.138 34.7788 129.298 33.8162 127.709 33.4712L126.285 33.1624C125.609 33.0171 125.281 32.6357 125.281 32.109C125.281 31.5096 125.865 30.9466 126.741 30.9466C128.129 30.9466 128.494 31.9455 128.567 32.3996L130.083 31.8366C129.9 31.0556 129.152 29.4936 126.741 29.4936C125.025 29.4936 123.619 30.765 123.619 32.2543C123.619 33.4893 124.441 34.4156 125.81 34.7062L127.307 35.0331C128.038 35.1966 128.44 35.6143 128.44 36.1592C128.44 36.7767 127.91 37.3216 126.942 37.3216C125.701 37.3216 125.007 36.5951 124.897 35.687L123.345 36.2318Z" fill="white"/>
<path d="M134.121 38.5021V29.766H132.423V38.5021H134.121ZM132.039 26.4605C132.039 27.1325 132.587 27.6774 133.263 27.6774C133.956 27.6774 134.504 27.1325 134.504 26.4605C134.504 25.7703 133.956 25.2255 133.263 25.2255C132.587 25.2255 132.039 25.7703 132.039 26.4605Z" fill="white"/>
<path d="M139.342 27.0054H137.771V28.422C137.771 29.1849 137.37 29.766 136.42 29.766H135.945V31.3098H137.625V36.1047C137.625 37.6848 138.575 38.5929 140.072 38.5929C140.656 38.5929 141.094 38.484 141.24 38.4295V36.9765C141.094 37.0128 140.784 37.0491 140.565 37.0491C139.67 37.0491 139.342 36.6496 139.342 35.8504V31.3098H141.24V29.766H139.342V27.0054Z" fill="white"/>
<path d="M144.556 33.235C144.629 32.109 145.506 31.0011 146.948 31.0011C148.5 31.0011 149.322 31.9818 149.358 33.235H144.556ZM149.614 35.5053C149.285 36.4861 148.573 37.2671 147.149 37.2671C145.67 37.2671 144.538 36.1773 144.501 34.6154H151.111C151.129 34.5064 151.148 34.2885 151.148 34.0705C151.148 31.3462 149.632 29.4936 146.93 29.4936C144.72 29.4936 142.73 31.3643 142.73 34.1068C142.73 37.0673 144.793 38.7746 147.149 38.7746C149.194 38.7746 150.6 37.5577 151.093 36.0139L149.614 35.5053Z" fill="white"/>
</svg>
