<svg width="24" height="24" viewBox="0 0 24 24" fill="none" xmlns="http://www.w3.org/2000/svg">
<path d="M23.2 14V14.1V13.9C23.1 13.9 23.1 14 23.2 14C23.3 13.3 23.4 12.6 23.4 11.9C23.4 10.4 23.1 8.9 22.5 7.5C21.9 6.2 21.1 5 20 3.9C19 2.9 17.7 2 16.4 1.5C15 0.9 13.5 0.6 12 0.6C11.3 0.6 10.6 0.7 9.9 0.8C9.9 0.8 10 0.8 10 0.9H9.8H9.9C8.9 0.3 7.8 0 6.7 0C4.9 0 3.2 0.7 2 2C0.7 3.3 0 5 0 6.7C0 7.9 0.3 9 0.8 10V9.9V10.1C0.8 10.1 0.8 10 0.7 10C0.6 10.6 0.5 11.3 0.5 12C0.5 13.5 0.8 15 1.4 16.4C2.1 17.7 3 18.9 4 20C5 21 6.3 21.9 7.6 22.4C9 23 10.5 23.3 12 23.3C12.7 23.3 13.3 23.2 14 23.1C14 23.1 13.9 23.1 13.9 23H14.1H14C15 23.6 16.1 23.9 17.3 23.9C19.1 23.9 20.8 23.2 22 21.9C23.3 20.6 24 18.9 24 17.2C24 16.1 23.7 15 23.2 14ZM12.1 18.9C8.1 18.9 6.3 16.9 6.3 15.4C6.3 14.6 6.9 14.1 7.6 14.1C9.3 14.1 8.9 16.6 12.1 16.6C13.7 16.6 14.7 15.7 14.7 14.8C14.7 14.3 14.4 13.6 13.3 13.4L9.7 12.5C6.8 11.8 6.3 10.2 6.3 8.8C6.3 5.8 9.2 4.6 11.9 4.6C14.4 4.6 17.3 6 17.3 7.8C17.3 8.6 16.6 9 15.8 9C14.3 9 14.6 7 11.6 7C10.1 7 9.3 7.7 9.3 8.6C9.3 9.6 10.5 9.9 11.5 10.1L14.2 10.7C17.1 11.3 17.8 13 17.8 14.6C17.8 17 15.9 18.9 12.1 18.9Z" fill="white"/>
</svg>
