<?xml version="1.0" encoding="utf-8"?>
<!-- Generator: Adobe Illustrator 23.0.2, SVG Export Plug-In . SVG Version: 6.00 Build 0)  -->
<svg version="1.1" id="Layer_1" xmlns="http://www.w3.org/2000/svg" xmlns:xlink="http://www.w3.org/1999/xlink" x="0px" y="0px"
	 viewBox="0 0 24 24" style="enable-background:new 0 0 24 24;" xml:space="preserve">
<style type="text/css">
	.st0{fill:#FFFFFF;}
</style>
<g>
	<path class="st0" d="M20.62,4H3.38C1.77,4,0.47,5.19,0.47,6.66v10.08c0,1.46,1.31,2.66,2.92,2.66h17.24c1.61,0,2.92-1.19,2.92-2.66
		V6.66C23.53,5.19,22.23,4,20.62,4z M20.16,5.71L12,11.46L3.84,5.71H20.16z M20.62,17.68H3.38c-0.57,0-1.03-0.42-1.03-0.94V6.83
		l9.08,6.39c0.17,0.12,0.37,0.18,0.57,0.18s0.41-0.06,0.57-0.18l9.08-6.39v9.91C21.65,17.25,21.19,17.68,20.62,17.68z"/>
</g>
</svg>
