<svg width="457" height="480" viewBox="0 0 457 480" fill="none" xmlns="http://www.w3.org/2000/svg">
<mask id="mask0" mask-type="alpha" maskUnits="userSpaceOnUse" x="0" y="0" width="457" height="480">
<rect width="457" height="480" fill="#C4C4C4"/>
</mask>
<g mask="url(#mask0)">
<path opacity="0.02" fill-rule="evenodd" clip-rule="evenodd" d="M96.5736 105.387C53.5759 5.54115 14.2692 -85.8195 9.20836 -97.6153L0 -119H22.8687L45.7754 -118.962L60.1968 -85.7814C68.1114 -67.5169 90.9421 -15.0064 110.919 30.9212C195.655 225.7 197.007 228.501 196.332 230.672C196.267 230.88 196.183 231.083 196.153 231.45C196.039 232.82 194.898 236.359 192.881 241.724C188.163 254.205 175.187 287.005 174.959 287.005C174.845 287.005 139.571 205.271 96.5736 105.387ZM192.995 363.602C247.294 238.566 392.116 -94.3429 399.08 -110.172L402.999 -119H425.791C447.366 -119 448.622 -118.962 448.394 -118.353C446.605 -113.635 190.674 480.19 190.522 480C190.217 479.696 178.536 448.874 174.464 437.687C170.051 425.616 169.072 422.997 169.321 420.5C169.397 419.746 169.584 419.003 169.822 418.015C170.126 416.721 180.552 392.216 192.995 363.602Z" fill="black"/>
</g>
</svg>
