<svg width="24" height="24" viewBox="0 0 24 24" fill="none" xmlns="http://www.w3.org/2000/svg">
<path d="M14.3085 15.1909L12.1675 17.2999C11.0511 16.6262 10.0139 15.8292 9.07547 14.9239C8.1719 13.9849 7.37535 12.9486 6.70047 11.8339L8.81047 9.69288C8.93709 9.56342 9.0226 9.39941 9.05623 9.22147C9.08986 9.04353 9.07011 8.85962 8.99947 8.69288L6.80047 3.55988C6.71356 3.35768 6.55689 3.19343 6.35903 3.09707C6.16116 3.0007 5.93525 2.97863 5.72247 3.03488L1.68847 4.09988C1.4865 4.15222 1.30836 4.27172 1.18332 4.43874C1.05828 4.60576 0.993799 4.81035 1.00047 5.01888C1.25738 9.7103 3.20814 14.1491 6.49047 17.5109C9.85345 20.7937 14.2938 22.7442 18.9865 22.9999C19.1947 23.0065 19.3991 22.9419 19.5657 22.8168C19.7324 22.6918 19.8515 22.5137 19.9035 22.3119L20.9695 18.2759C21.026 18.0632 21.0042 17.8373 20.908 17.6394C20.8118 17.4415 20.6476 17.2848 20.4455 17.1979L15.3165 14.9999C15.1486 14.9276 14.9629 14.9072 14.7833 14.9412C14.6037 14.9753 14.4383 15.0622 14.3085 15.1909V15.1909Z" stroke="white" stroke-width="2" stroke-miterlimit="10" stroke-linecap="round" stroke-linejoin="round"/>
<path d="M14 1C16.3869 1 18.6761 1.94821 20.364 3.63604C22.0518 5.32387 23 7.61305 23 10" stroke="white" stroke-width="2" stroke-miterlimit="10" stroke-linecap="round" stroke-linejoin="round"/>
<path d="M14 5C15.3261 5 16.5979 5.52678 17.5355 6.46447C18.4732 7.40215 19 8.67392 19 10" stroke="white" stroke-width="2" stroke-miterlimit="10" stroke-linecap="round" stroke-linejoin="round"/>
</svg>
