<svg width="176" height="64" viewBox="0 0 176 64" fill="none" xmlns="http://www.w3.org/2000/svg">
<path d="M144 0H32C14.3269 0 0 14.3269 0 32C0 49.6731 14.3269 64 32 64H144C161.673 64 176 49.6731 176 32C176 14.3269 161.673 0 144 0Z" fill="#191714"/>
<path fill-rule="evenodd" clip-rule="evenodd" d="M92.3885 25.0607C94.2232 25.0607 95.7106 23.5632 95.7106 21.7155C95.7106 19.8678 94.2232 18.3704 92.3885 18.3704C90.5538 18.3704 89.067 19.8678 89.067 21.7155C89.067 23.5632 90.5544 25.0607 92.3885 25.0607V25.0607ZM92.3885 24.0385C93.6626 24.0385 94.6955 22.9985 94.6955 21.7155C94.6955 20.4326 93.6626 19.3926 92.3885 19.3926C91.1144 19.3926 90.0821 20.4326 90.0821 21.7155C90.0821 22.9985 91.1144 24.0385 92.3885 24.0385Z" fill="white"/>
<path fill-rule="evenodd" clip-rule="evenodd" d="M69.2312 21.8015V23.8412H71.9838V24.5831H68.187V18.3704H71.9838V19.1123H69.2312V21.0595H71.6988V21.8015H69.2312V21.8015Z" fill="white"/>
<path fill-rule="evenodd" clip-rule="evenodd" d="M76.065 19.1123V24.5831H75.0209V19.1123H73.4073V18.3704H77.6781V19.1123H76.0645H76.065Z" fill="white"/>
<path fill-rule="evenodd" clip-rule="evenodd" d="M85.0807 19.1123V24.5831H84.0371V19.1123H82.4235V18.3704H86.6943V19.1123H85.0807V19.1123Z" fill="white"/>
<path fill-rule="evenodd" clip-rule="evenodd" d="M80.5254 18.3704H81.4748V24.5831H80.5254V18.3704Z" fill="white"/>
<path fill-rule="evenodd" clip-rule="evenodd" d="M97.2882 18.3704H96.66V24.5831H97.7231V19.7333L100.816 24.5825H101.88V18.3704H100.816V22.9161L97.9163 18.3704H97.2882Z" fill="white"/>
<path fill-rule="evenodd" clip-rule="evenodd" d="M64.391 21.2379H67.2384L67.2099 22.1938H64.391V21.2379Z" fill="white"/>
<path fill-rule="evenodd" clip-rule="evenodd" d="M67.6714 21.4193V21.4518C67.9914 23.7523 66.3938 25.0773 64.4791 25.0607C62.5959 25.0578 61.0694 23.5627 61.0694 21.715C61.0694 19.8673 62.5953 18.3704 64.4791 18.3704C65.4634 18.3704 66.2913 18.7081 66.8572 19.2936L66.1917 19.9467C65.7775 19.5301 65.1879 19.3019 64.5082 19.3019C63.1494 19.3019 62.0477 20.3828 62.0477 21.7155C62.0477 23.0489 63.1494 24.1292 64.5082 24.1292C65.867 24.1292 66.8311 23.3588 66.83 21.7155C66.8317 21.6142 66.83 21.5153 66.8228 21.4193H67.6714Z" fill="white"/>
<path fill-rule="evenodd" clip-rule="evenodd" d="M120.249 30.0308H125.67C125.67 30.0308 128.79 30.5552 128.79 34.093C128.79 37.6308 125.67 38.1552 125.67 38.1552H120.249V30.0308ZM121.197 31.9425H124.785C124.785 31.9425 126.418 31.9425 126.418 34.0936C126.418 36.2435 124.785 36.2435 124.785 36.2435H121.197V31.9425Z" fill="white"/>
<path fill-rule="evenodd" clip-rule="evenodd" d="M119.912 29.84H121.81V43.2213H119.912V29.84Z" fill="white"/>
<path fill-rule="evenodd" clip-rule="evenodd" d="M129.877 29.84H131.775V43.2213H129.877V29.84Z" fill="white"/>
<path fill-rule="evenodd" clip-rule="evenodd" d="M138.896 42.7259V43.6989H140.791V37.7629V37.7511C140.791 36.9624 140.23 34.6187 136.935 34.6187C134.284 34.6187 133.401 36.496 133.401 36.496L134.98 37.4578C134.98 37.4578 135.361 36.496 137.086 36.496C138.342 36.496 138.761 37.4738 138.896 38.0059V38.4077C138.345 38.1321 137.154 37.6978 135.453 37.9585C133.052 38.3265 133.2 40.6429 133.2 40.8344C133.2 41.0264 133.202 43.8666 136.222 43.6723C137.54 43.5875 138.374 43.1698 138.896 42.7253V42.7259ZM138.761 39.7961C138.761 39.7961 135.11 38.7816 134.983 40.896C134.856 43.0103 138.485 41.9952 138.81 40.4966C138.81 40.0201 138.761 39.7961 138.761 39.7961Z" fill="white"/>
<path fill-rule="evenodd" clip-rule="evenodd" d="M144.134 42.7763L142.385 47.0441H144.261L149.333 34.6655H147.458L145.072 40.4883L142.666 34.6187H140.792L144.134 42.7763V42.7763Z" fill="white"/>
<path fill-rule="evenodd" clip-rule="evenodd" d="M115.166 38.0326C115.166 38.0326 114.355 34.6193 111.254 34.6193C108.153 34.6193 107.099 37.504 107.099 39.2077C107.099 40.976 108.426 43.699 111.441 43.699C113.894 43.699 115.092 41.6978 115.092 41.6978L113.607 40.6596C113.607 40.6596 112.83 41.9277 111.453 41.9206C109.694 41.9111 109.316 40.5298 109.316 40.5298L115.166 38.032V38.0326ZM112.941 37.3244C112.941 37.3244 112.205 36.1677 111.076 36.381C108.688 36.8326 108.988 38.9908 108.988 38.9908L112.941 37.3244V37.3244Z" fill="white"/>
<path fill-rule="evenodd" clip-rule="evenodd" d="M104.252 29.84H106.15V43.2213H104.252V29.84Z" fill="white"/>
<path fill-rule="evenodd" clip-rule="evenodd" d="M100.986 34.9138V35.7612C100.986 35.7612 100.186 34.5719 98.5194 34.6205C96.4394 34.6809 94.2865 36.3402 94.2865 39.2409C94.2865 42.1422 96.5733 43.8436 98.4975 43.8436C100.272 43.8436 100.986 42.6892 100.986 42.6892V43.6196C100.986 44.2833 100.746 46.2222 98.6806 46.2222C96.8673 46.2222 96.3517 44.547 96.3517 44.547L94.6599 45.2812C94.6599 45.2812 95.6199 48 98.5929 48C101.565 48 102.828 45.6889 102.828 43.4993V34.9304L100.986 34.9138ZM98.6545 42.102C99.998 42.102 101.087 40.832 101.087 39.2658C101.087 37.699 99.998 36.4285 98.6545 36.4285C97.3117 36.4285 96.2225 37.699 96.2225 39.2658C96.2225 40.832 97.3117 42.1025 98.6545 42.1025V42.102Z" fill="white"/>
<path fill-rule="evenodd" clip-rule="evenodd" d="M89.3042 43.6989C91.7942 43.6989 93.8126 41.6664 93.8126 39.1591C93.8126 36.6512 91.7942 34.6187 89.3042 34.6187C86.8147 34.6187 84.7963 36.6512 84.7963 39.1591C84.7963 41.6658 86.8147 43.6983 89.3042 43.6983V43.6989ZM89.2745 41.9188C90.6742 41.9188 91.809 40.6832 91.809 39.1591C91.809 37.6349 90.6742 36.3994 89.2745 36.3994C87.8754 36.3994 86.7406 37.6349 86.7406 39.1591C86.7406 40.6832 87.8754 41.9188 89.2745 41.9188V41.9188Z" fill="white"/>
<path fill-rule="evenodd" clip-rule="evenodd" d="M79.3392 43.6989C81.8287 43.6989 83.8471 41.6664 83.8471 39.1591C83.8471 36.6512 81.8287 34.6187 79.3392 34.6187C76.8492 34.6187 74.8308 36.6512 74.8308 39.1591C74.8308 41.6658 76.8492 43.6983 79.3392 43.6983V43.6989ZM79.3096 41.9188C80.7093 41.9188 81.8435 40.6832 81.8435 39.1591C81.8435 37.6349 80.7093 36.3994 79.3096 36.3994C77.9099 36.3994 76.7757 37.6349 76.7757 39.1591C76.7757 40.6832 77.9099 41.9188 79.3096 41.9188V41.9188Z" fill="white"/>
<path fill-rule="evenodd" clip-rule="evenodd" d="M72.4034 37.6771C71.9833 40.2732 70.1344 41.5005 67.6567 41.5005C64.8253 41.5005 62.5302 39.2546 62.5302 36.483C62.5302 33.7114 64.8253 31.4649 67.6561 31.4649C69.0855 31.4649 70.3228 31.9473 71.188 32.8273L72.5913 31.4347C71.4203 30.2406 69.7178 29.5532 67.6958 29.5532C63.7948 29.5532 60.6321 32.6554 60.6321 36.4824C60.6321 40.3094 63.7948 43.4063 67.6958 43.4122C71.6621 43.4471 74.9705 40.7034 74.3092 35.9378C74.3092 35.8803 74.3086 35.8228 74.3074 35.766H67.7504V37.6777H72.4034V37.6771Z" fill="white"/>
<path fill-rule="evenodd" clip-rule="evenodd" d="M50.2219 30.8101C51.6489 31.6367 51.6524 32.9748 50.2219 33.8032L30.0838 45.4726C28.6575 46.2992 27.5007 45.6326 27.5007 43.9822V20.6311C27.5007 18.9819 28.6539 18.3129 30.0844 19.1413L50.2219 30.8095V30.8101Z" fill="white" stroke="#191714"/>
<path fill-rule="evenodd" clip-rule="evenodd" d="M27.7392 19.5141C28.1481 18.7283 29.0429 18.5375 30.0835 19.1408L44.8142 27.6765L40.6281 32.0972L27.7392 19.5141Z" fill="white" stroke="#191714"/>
<path fill-rule="evenodd" clip-rule="evenodd" d="M45.17 36.7307L30.0838 45.472C28.9958 46.1025 28.0654 45.8649 27.6844 44.9849L40.6307 32.0942L45.17 36.7307V36.7307Z" fill="white" stroke="#191714"/>
</svg>
