<svg width="88" height="82" viewBox="0 0 88 82" fill="none" xmlns="http://www.w3.org/2000/svg">
<path d="M82.7261 11.2671H73.8938V16.7023H82.0467V76.4902H5.95305V16.7023H14.1059V11.2671H5.27364C4.63836 11.2777 4.01139 11.4134 3.42855 11.6663C2.84571 11.9193 2.31841 12.2846 1.87677 12.7414C1.43513 13.1982 1.0878 13.7375 0.854627 14.3285C0.62145 14.9195 0.506991 15.5507 0.517788 16.186V77.0065C0.506991 77.6418 0.62145 78.273 0.854627 78.864C1.0878 79.4551 1.43513 79.9944 1.87677 80.4511C2.31841 80.9079 2.84571 81.2732 3.42855 81.5262C4.01139 81.7792 4.63836 81.9148 5.27364 81.9254H82.7261C83.3614 81.9148 83.9884 81.7792 84.5712 81.5262C85.154 81.2732 85.6814 80.9079 86.123 80.4511C86.5646 79.9944 86.9119 79.4551 87.1451 78.864C87.3783 78.273 87.4928 77.6418 87.482 77.0065V16.186C87.4928 15.5507 87.3783 14.9195 87.1451 14.3285C86.9119 13.7375 86.5646 13.1982 86.123 12.7414C85.6814 12.2846 85.154 11.9193 84.5712 11.6663C83.9884 11.4134 83.3614 11.2777 82.7261 11.2671Z" fill="white"/>
<path d="M16.8232 33.0082H22.2585V38.4434H16.8232V33.0082Z" fill="white"/>
<path d="M33.1289 33.0082H38.5642V38.4434H33.1289V33.0082Z" fill="white"/>
<path d="M49.4351 33.0082H54.8703V38.4434H49.4351V33.0082Z" fill="white"/>
<path d="M65.7407 33.0082H71.176V38.4434H65.7407V33.0082Z" fill="white"/>
<path d="M16.8232 46.5966H22.2585V52.0318H16.8232V46.5966Z" fill="white"/>
<path d="M33.1289 46.5966H38.5642V52.0318H33.1289V46.5966Z" fill="white"/>
<path d="M49.4351 46.5966H54.8703V52.0318H49.4351V46.5966Z" fill="white"/>
<path d="M65.7407 46.5966H71.176V52.0318H65.7407V46.5966Z" fill="white"/>
<path d="M16.8232 60.1838H22.2585V65.619H16.8232V60.1838Z" fill="white"/>
<path d="M33.1289 60.1838H38.5642V65.619H33.1289V60.1838Z" fill="white"/>
<path d="M49.4351 60.1838H54.8703V65.619H49.4351V60.1838Z" fill="white"/>
<path d="M65.7407 60.1838H71.176V65.619H65.7407V60.1838Z" fill="white"/>
<path d="M22.2586 22.137C22.9794 22.137 23.6706 21.8507 24.1803 21.3411C24.69 20.8314 24.9763 20.1402 24.9763 19.4194V3.11363C24.9763 2.39287 24.69 1.70163 24.1803 1.19197C23.6706 0.682317 22.9794 0.395996 22.2586 0.395996C21.5379 0.395996 20.8466 0.682317 20.337 1.19197C19.8273 1.70163 19.541 2.39287 19.541 3.11363V19.4194C19.541 20.1402 19.8273 20.8314 20.337 21.3411C20.8466 21.8507 21.5379 22.137 22.2586 22.137Z" fill="#FF4C4C"/>
<path d="M65.7406 22.137C66.4613 22.137 67.1526 21.8507 67.6622 21.3411C68.1719 20.8314 68.4582 20.1402 68.4582 19.4194V3.11363C68.4582 2.39287 68.1719 1.70163 67.6622 1.19197C67.1526 0.682317 66.4613 0.395996 65.7406 0.395996C65.0198 0.395996 64.3286 0.682317 63.8189 1.19197C63.3093 1.70163 63.0229 2.39287 63.0229 3.11363V19.4194C63.0229 20.1402 63.3093 20.8314 63.8189 21.3411C64.3286 21.8507 65.0198 22.137 65.7406 22.137Z" fill="#FF4C4C"/>
<path d="M30.4116 11.2671H57.5879V16.7023H30.4116V11.2671Z" fill="white"/>
</svg>
