<svg width="31" height="32" viewBox="0 0 31 32" fill="none" xmlns="http://www.w3.org/2000/svg">
<path d="M15.4195 1.98701C16.6364 1.98701 17.8035 2.47522 18.664 3.34424C19.5246 4.21326 20.008 5.39191 20.008 6.62089H21.5375C21.5375 4.98225 20.8929 3.41072 19.7456 2.25203C18.5982 1.09333 17.0421 0.442383 15.4195 0.442383C13.7969 0.442383 12.2408 1.09333 11.0934 2.25203C9.94608 3.41072 9.30151 4.98225 9.30151 6.62089H10.831C10.831 5.39191 11.3144 4.21326 12.1749 3.34424C13.0355 2.47522 14.2026 1.98701 15.4195 1.98701Z" fill="#522D80"/>
<path d="M27.6555 14.3446H3.18351C2.77786 14.3446 2.38883 14.1818 2.10199 13.8922C1.81515 13.6025 1.65401 13.2096 1.65401 12.7999H0.124512V28.2463C0.124512 29.0657 0.446798 29.8514 1.02047 30.4308C1.59415 31.0101 2.37221 31.3356 3.18351 31.3356H27.6555C28.4668 31.3356 29.2449 31.0101 29.8185 30.4308C30.3922 29.8514 30.7145 29.0657 30.7145 28.2463V12.7999H29.185C29.185 13.2096 29.0239 13.6025 28.737 13.8922C28.4502 14.1818 28.0612 14.3446 27.6555 14.3446ZM29.185 28.2463C29.185 28.656 29.0239 29.0489 28.737 29.3386C28.4502 29.6282 28.0612 29.791 27.6555 29.791H3.18351C2.77786 29.791 2.38883 29.6282 2.10199 29.3386C1.81515 29.0489 1.65401 28.656 1.65401 28.2463V15.4722C2.11873 15.7444 2.64626 15.8882 3.18351 15.8892H27.6555C28.1928 15.8882 28.7203 15.7444 29.185 15.4722V28.2463Z" fill="#522D80"/>
<path d="M27.6555 6.62073H3.18351C2.37221 6.62073 1.59415 6.9462 1.02047 7.52556C0.446798 8.10491 0.124512 8.89068 0.124512 9.71001V11.2547H1.65401V9.71001C1.65401 9.30035 1.81515 8.90746 2.10199 8.61778C2.38883 8.32811 2.77786 8.16537 3.18351 8.16537H27.6555C28.0612 8.16537 28.4502 8.32811 28.737 8.61778C29.0239 8.90746 29.185 9.30035 29.185 9.71001V11.2547H30.7145V9.71001C30.7145 8.89068 30.3922 8.10491 29.8185 7.52556C29.2449 6.9462 28.4668 6.62073 27.6555 6.62073Z" fill="#522D80"/>
<path d="M1.65403 11.2551H0.124512V12.7998H1.65403V11.2551Z" fill="#522D80"/>
<path d="M30.7146 11.2551H29.1851V12.7998H30.7146V11.2551Z" fill="#522D80"/>
<path d="M13.89 17.4334C13.4676 17.4334 13.1252 17.7792 13.1252 18.2057C13.1252 18.6323 13.4676 18.978 13.89 18.978H16.949C17.3713 18.978 17.7137 18.6323 17.7137 18.2057C17.7137 17.7792 17.3713 17.4334 16.949 17.4334H13.89Z" fill="#FF4C4C"/>
</svg>
