<svg width="100" height="100" viewBox="0 0 100 100" fill="none" xmlns="http://www.w3.org/2000/svg">
<path d="M97.8945 19.9313C97.6064 19.5773 97.2096 19.3281 96.7655 19.2226L62.9812 10.9632C62.4478 10.8363 61.8859 10.9259 61.4184 11.2122L9.86808 43.3512C9.40143 43.6421 9.06947 44.1066 8.94521 44.6423C8.82096 45.178 8.91458 45.7411 9.20549 46.2078L35.5338 88.4378C35.8248 88.9044 36.2892 89.2363 36.8249 89.3606C37.3606 89.4848 37.9237 89.3912 38.3904 89.1003L89.9407 56.9613C90.4036 56.6675 90.7313 56.2023 90.8522 55.6675L98.3081 21.697C98.3774 21.3906 98.3762 21.0724 98.3046 20.7665C98.2329 20.4606 98.0927 20.1751 97.8945 19.9313ZM93.8252 22.7738L87.0043 53.905L37.9559 84.4842L13.8217 45.7734L62.87 15.1941L93.8252 22.7738ZM79.5561 31.6699C77.1456 27.8036 71.996 26.6092 68.1297 29.0196C64.2634 31.4301 63.0689 36.5797 65.4794 40.446C67.8898 44.3124 73.0395 45.5068 76.9058 43.0963C80.7721 40.6859 81.9664 35.5363 79.5561 31.6699ZM76.0369 33.8639C77.2617 35.8284 76.6761 38.3524 74.7118 39.5771C72.7474 40.8018 70.2233 40.2164 68.9986 38.252C67.7739 36.2876 68.3592 33.7635 70.3237 32.5388C72.2881 31.3141 74.8122 31.8996 76.0369 33.8639Z" fill="white"/>
<path d="M79.5565 31.6699C77.146 27.8036 71.9964 26.6092 68.1301 29.0196C64.2638 31.4301 63.0693 36.5797 65.4798 40.446C67.8902 44.3124 73.0399 45.5068 76.9062 43.0963C80.7725 40.6859 81.9669 35.5363 79.5565 31.6699ZM76.0373 33.8639C77.2621 35.8284 76.6766 38.3524 74.7122 39.5771C72.7478 40.8018 70.2237 40.2163 68.999 38.252C67.7743 36.2876 68.3597 33.7635 70.3241 32.5388C72.2885 31.3141 74.8126 31.8995 76.0373 33.8639Z" fill="#FF4C4C"/>
</svg>
