<svg width="31" height="36" viewBox="0 0 31 36" fill="none" xmlns="http://www.w3.org/2000/svg">
<path d="M4.92488 5.30551C7.71448 2.51591 11.498 0.94873 15.4431 0.94873C19.3882 0.94873 23.1717 2.51591 25.9613 5.30551C28.7509 8.09512 30.3181 11.8786 30.3181 15.8237C30.3181 19.7688 28.7509 23.5523 25.9613 26.3419L23.9335 28.3475C22.4387 29.8133 20.4998 31.6993 18.1149 34.0055C17.3981 34.6986 16.4401 35.086 15.4431 35.086C14.446 35.086 13.488 34.6986 12.7712 34.0055L6.80746 28.204C6.0575 27.4677 5.43054 26.8476 4.92488 26.3419C3.54354 24.9607 2.4478 23.3209 1.70022 21.5162C0.952646 19.7115 0.567871 17.7772 0.567871 15.8237C0.567871 13.8703 0.952646 11.936 1.70022 10.1313C2.4478 8.32655 3.54354 6.68675 4.92488 5.30551ZM24.1488 7.11635C21.8394 4.80746 18.7075 3.51052 15.4419 3.51084C12.1763 3.51116 9.0446 4.80872 6.73571 7.11806C4.42682 9.4274 3.12988 12.5594 3.1302 15.8249C3.13053 19.0905 4.42808 22.2222 6.73742 24.5311L9.276 27.0389C11.0296 28.7523 12.788 30.4606 14.5513 32.1639C14.7903 32.3951 15.1097 32.5244 15.4422 32.5244C15.7747 32.5244 16.0942 32.3951 16.3331 32.1639L22.1312 26.5264C22.9341 25.7389 23.6055 25.0743 24.147 24.5311C26.4559 22.2222 27.7529 19.0907 27.7529 15.8254C27.7529 12.5602 26.4559 9.42869 24.147 7.11976L24.1488 7.11635ZM15.4431 11.1668C16.1166 11.1668 16.7834 11.2995 17.4056 11.5572C18.0279 11.8149 18.5932 12.1927 19.0694 12.6689C19.5456 13.1451 19.9234 13.7105 20.1811 14.3327C20.4388 14.9549 20.5715 15.6218 20.5715 16.2952C20.5715 16.9687 20.4388 17.6356 20.1811 18.2578C19.9234 18.88 19.5456 19.4453 19.0694 19.9216C18.5932 20.3978 18.0279 20.7755 17.4056 21.0333C16.7834 21.291 16.1166 21.4236 15.4431 21.4236C14.0994 21.3991 12.819 20.8481 11.8774 19.8892C10.9358 18.9302 10.4083 17.64 10.4083 16.2961C10.4083 14.9521 10.9358 13.6619 11.8774 12.703C12.819 11.744 14.0994 11.193 15.4431 11.1685V11.1668ZM15.4431 13.7293C15.1061 13.7293 14.7725 13.7957 14.4611 13.9246C14.1498 14.0536 13.867 14.2426 13.6287 14.4808C13.3904 14.7191 13.2014 15.002 13.0725 15.3133C12.9435 15.6246 12.8772 15.9583 12.8772 16.2952C12.8772 16.6322 12.9435 16.9658 13.0725 17.2772C13.2014 17.5885 13.3904 17.8713 13.6287 18.1096C13.867 18.3479 14.1498 18.5369 14.4611 18.6658C14.7725 18.7948 15.1061 18.8611 15.4431 18.8611C16.1234 18.8611 16.7758 18.5909 17.2569 18.1098C17.7379 17.6288 18.0081 16.9764 18.0081 16.2961C18.0081 15.6158 17.7379 14.9633 17.2569 14.4823C16.7758 14.0013 16.1234 13.731 15.4431 13.731V13.7293Z" fill="#522D80" stroke="#F7F7F7" stroke-width="0.5"/>
<path d="M15.4431 11.1668C16.1166 11.1668 16.7834 11.2995 17.4056 11.5572C18.0279 11.8149 18.5932 12.1927 19.0694 12.6689C19.5456 13.1451 19.9234 13.7105 20.1811 14.3327C20.4388 14.9549 20.5715 15.6218 20.5715 16.2953C20.5715 16.9687 20.4388 17.6356 20.1811 18.2578C19.9234 18.88 19.5456 19.4454 19.0694 19.9216C18.5932 20.3978 18.0279 20.7756 17.4056 21.0333C16.7834 21.291 16.1166 21.4237 15.4431 21.4237C14.0994 21.3991 12.819 20.8481 11.8774 19.8892C10.9358 18.9303 10.4083 17.64 10.4083 16.2961C10.4083 14.9522 10.9358 13.6619 11.8774 12.703C12.819 11.7441 14.0994 11.1931 15.4431 11.1685V11.1668ZM15.4431 13.7293C15.1061 13.7293 14.7725 13.7957 14.4611 13.9247C14.1498 14.0536 13.867 14.2426 13.6287 14.4809C13.3904 14.7191 13.2014 15.002 13.0725 15.3133C12.9435 15.6246 12.8772 15.9583 12.8772 16.2953C12.8772 16.6322 12.9435 16.9659 13.0725 17.2772C13.2014 17.5885 13.3904 17.8714 13.6287 18.1096C13.867 18.3479 14.1498 18.5369 14.4611 18.6658C14.7725 18.7948 15.1061 18.8612 15.4431 18.8612C16.1234 18.8612 16.7758 18.5909 17.2569 18.1099C17.7379 17.6288 18.0081 16.9764 18.0081 16.2961C18.0081 15.6158 17.7379 14.9634 17.2569 14.4823C16.7758 14.0013 16.1234 13.731 15.4431 13.731V13.7293Z" fill="#FF4C4C"/>
<path d="M4.92488 5.30554C3.54354 6.68678 2.4478 8.32657 1.70022 10.1313C0.952646 11.936 0.567871 13.8703 0.567871 15.8238C0.567871 17.7772 0.952646 19.7115 1.70022 21.5162C2.4478 23.3209 3.54354 24.9607 4.92488 26.342C5.43054 26.8476 6.0575 27.4677 6.80746 28.204L12.7712 34.0055C13.488 34.6986 14.446 35.086 15.4431 35.086C16.4401 35.086 17.3981 34.6986 18.1149 34.0055C20.4997 31.6993 22.4387 29.8133 23.9335 28.3475L25.9613 26.342C28.7509 23.5524 30.3181 19.7688 30.3181 15.8238C30.3181 11.8787 28.7509 8.09514 25.9613 5.30554M24.1488 7.11638L24.147 7.11979C26.4559 9.42872 27.7529 12.5602 27.7529 15.8255C27.7529 19.0907 26.4559 22.2222 24.147 24.5311C23.6055 25.0744 22.9341 25.7389 22.1312 26.5265M3.1302 15.825C3.13053 19.0905 4.42808 22.2222 6.73742 24.5311L9.276 27.039C11.0296 28.7523 12.788 30.4607 14.5513 32.164M15.4431 11.1668C16.1166 11.1668 16.7834 11.2995 17.4056 11.5572C18.0279 11.8149 18.5932 12.1927 19.0694 12.6689C19.5456 13.1451 19.9234 13.7105 20.1811 14.3327C20.4388 14.9549 20.5715 15.6218 20.5715 16.2953C20.5715 16.9687 20.4388 17.6356 20.1811 18.2578C19.9234 18.88 19.5456 19.4454 19.0694 19.9216C18.5932 20.3978 18.0279 20.7756 17.4056 21.0333C16.7834 21.291 16.1166 21.4237 15.4431 21.4237C14.0994 21.3991 12.819 20.8481 11.8774 19.8892C10.9358 18.9303 10.4083 17.64 10.4083 16.2961C10.4083 14.9522 10.9358 13.6619 11.8774 12.703C12.819 11.7441 14.0994 11.1931 15.4431 11.1685V11.1668ZM15.4431 13.7293C15.1061 13.7293 14.7725 13.7957 14.4611 13.9247C14.1498 14.0536 13.867 14.2426 13.6287 14.4809C13.3904 14.7191 13.2014 15.002 13.0725 15.3133C12.9435 15.6246 12.8772 15.9583 12.8772 16.2953C12.8772 16.6322 12.9435 16.9659 13.0725 17.2772C13.2014 17.5885 13.3904 17.8714 13.6287 18.1096C13.867 18.3479 14.1498 18.5369 14.4611 18.6658C14.7725 18.7948 15.1061 18.8612 15.4431 18.8612C16.1234 18.8612 16.7758 18.5909 17.2569 18.1099C17.7379 17.6288 18.0081 16.9764 18.0081 16.2961C18.0081 15.6158 17.7379 14.9634 17.2569 14.4823C16.7758 14.0013 16.1234 13.731 15.4431 13.731V13.7293Z" stroke="#F7F7F7" stroke-width="0.5"/>
</svg>
