<svg width="115" height="98" viewBox="0 0 115 98" fill="none" xmlns="http://www.w3.org/2000/svg">
<path d="M114.657 6.83386C114.654 5.25851 113.993 3.74852 112.82 2.63458C111.646 1.52064 110.055 0.89354 108.395 0.890625H6.60997C4.97036 0.920605 3.40856 1.55982 2.26019 2.67093C1.11181 3.78203 0.468506 5.27634 0.468506 6.83276C0.468506 8.38918 1.11181 9.88349 2.26019 10.9946C3.40856 12.1057 4.97036 12.7449 6.60997 12.7749V73.0563C6.60997 74.577 7.24647 76.0354 8.37944 77.1106C9.51241 78.1859 11.049 78.79 12.6513 78.79H56.1025V85.0221C54.5268 85.3485 53.1339 86.216 52.1912 87.458C51.2486 88.6999 50.8228 90.2287 50.9958 91.7505C51.1687 93.2723 51.9281 94.6798 53.1281 95.7024C54.3281 96.7251 55.8839 97.2908 57.4967 97.2908C59.1094 97.2908 60.6653 96.7251 61.8652 95.7024C63.0652 94.6798 63.8246 93.2723 63.9976 91.7505C64.1705 90.2287 63.7447 88.6999 62.8021 87.458C61.8595 86.216 60.4665 85.3485 58.8908 85.0221V78.79H102.363C103.965 78.79 105.502 78.1859 106.635 77.1106C107.768 76.0354 108.404 74.577 108.404 73.0563V12.7749C110.062 12.7697 111.65 12.1418 112.822 11.0286C113.994 9.9154 114.653 8.4073 114.657 6.83386ZM61.2469 91.0756C61.2479 91.7798 61.0287 92.4684 60.6172 93.0543C60.2056 93.6402 59.6202 94.0971 58.9351 94.3672C58.2499 94.6373 57.4957 94.7084 56.7679 94.5715C56.0401 94.4347 55.3714 94.096 54.8465 93.5984C54.3215 93.1008 53.9639 92.4666 53.8188 91.7761C53.6737 91.0855 53.7477 90.3696 54.0314 89.719C54.3151 89.0683 54.7958 88.5122 55.4126 88.1209C56.0295 87.7296 56.7547 87.5207 57.4967 87.5207C58.4891 87.5201 59.4412 87.8931 60.1443 88.5579C60.8473 89.2227 61.2439 90.1249 61.2469 91.0668V91.0756ZM102.375 76.1525H12.6304C11.7676 76.1525 10.9402 75.8272 10.3302 75.2482C9.7201 74.6692 9.37737 73.8839 9.37737 73.0651V12.7749H105.616V73.0563C105.616 73.8751 105.273 74.6604 104.663 75.2394C104.053 75.8184 103.226 76.1437 102.363 76.1437L102.375 76.1525ZM108.416 10.1374H6.60997C5.68774 10.1374 4.80329 9.78967 4.15118 9.17077C3.49907 8.55186 3.13271 7.71244 3.13271 6.83717C3.13271 5.9619 3.49907 5.12248 4.15118 4.50357C4.80329 3.88466 5.68774 3.53696 6.60997 3.53696H108.407C108.87 3.52558 109.331 3.60241 109.763 3.76292C110.195 3.92343 110.589 4.16438 110.921 4.47155C111.253 4.77872 111.517 5.14589 111.697 5.55142C111.877 5.95695 111.97 6.39263 111.97 6.83276C111.97 7.27289 111.877 7.70856 111.697 8.11409C111.517 8.51962 111.253 8.8868 110.921 9.19397C110.589 9.50114 110.195 9.74208 109.763 9.90259C109.331 10.0631 108.87 10.1399 108.407 10.1286L108.416 10.1374Z" fill="white"/>
<path d="M89.6598 68.7476H86.7668V31.0433C86.7668 30.633 86.5951 30.2396 86.2895 29.9495C85.9838 29.6594 85.5693 29.4964 85.137 29.4964H77.3954C76.9631 29.4964 76.5486 29.6594 76.2429 29.9495C75.9373 30.2396 75.7656 30.633 75.7656 31.0433V68.7476H71.9844V34.9104C71.9844 34.5002 71.8127 34.1067 71.507 33.8166C71.2014 33.5265 70.7868 33.3636 70.3546 33.3636H62.6129C62.1806 33.3636 61.7661 33.5265 61.4604 33.8166C61.1548 34.1067 60.9831 34.5002 60.9831 34.9104V68.7476H57.2019V38.7775C57.2019 38.3673 57.0302 37.9738 56.7245 37.6837C56.4189 37.3936 56.0043 37.2307 55.5721 37.2307H47.8304C47.3982 37.2307 46.9836 37.3936 46.678 37.6837C46.3723 37.9738 46.2006 38.3673 46.2006 38.7775V68.7476H42.4194V43.0313C42.4194 42.6211 42.2477 42.2276 41.9421 41.9375C41.6364 41.6475 41.2219 41.4845 40.7896 41.4845H33.048C32.6157 41.4845 32.2011 41.6475 31.8955 41.9375C31.5898 42.2276 31.4181 42.6211 31.4181 43.0313V68.7476H25.3063V23.8891C25.3063 23.5815 25.1775 23.2864 24.9483 23.0688C24.719 22.8512 24.4081 22.729 24.0839 22.729C23.7597 22.729 23.4488 22.8512 23.2196 23.0688C22.9904 23.2864 22.8616 23.5815 22.8616 23.8891V71.0679H89.6598C89.984 71.0679 90.2949 70.9456 90.5241 70.7281C90.7534 70.5105 90.8822 70.2154 90.8822 69.9077C90.8822 69.6001 90.7534 69.305 90.5241 69.0874C90.2949 68.8698 89.984 68.7476 89.6598 68.7476ZM78.2144 31.8167H84.3262V68.7476H78.2144V31.8167ZM63.4319 35.6838H69.5437V68.7476H63.4319V35.6838ZM48.6494 39.5509H54.7612V68.7476H48.6494V39.5509ZM33.8669 43.8048H39.9788V68.7476H33.8669V43.8048Z" fill="white"/>
<path d="M33.1469 35.0791H42.3468C42.5633 35.0787 42.7776 35.0345 42.9781 34.949L76.4994 20.6144H90.1773C90.5122 20.6144 90.8333 20.475 91.0701 20.2268C91.3069 19.9787 91.4399 19.6421 91.4399 19.2912C91.4399 18.9403 91.3069 18.6037 91.0701 18.3556C90.8333 18.1074 90.5122 17.968 90.1773 17.968H76.3395C76.1228 17.9681 75.9083 18.0131 75.7082 18.1003L42.1827 32.4327H33.1469C32.812 32.4327 32.4909 32.5721 32.2541 32.8203C32.0173 33.0684 31.8843 33.405 31.8843 33.7559C31.8843 34.1068 32.0173 34.4434 32.2541 34.6915C32.4909 34.9397 32.812 35.0791 33.1469 35.0791Z" fill="#FF4C4C"/>
</svg>
