<svg width="65" height="94" viewBox="0 0 65 94" fill="none" xmlns="http://www.w3.org/2000/svg">
<path d="M43.1234 23.4519C42.4185 22.9483 41.5123 23.1498 41.0088 23.7541L29.4286 39.9705L24.1923 32.7184C23.6889 32.0134 22.7826 31.9127 22.0777 32.4163C21.3728 32.9199 21.2721 33.8264 21.7756 34.5314L28.2202 43.4958C28.5223 43.8987 28.9251 44.1001 29.4286 44.1001C29.9321 44.1001 30.3349 43.8987 30.637 43.4958L43.5262 25.5671C44.0297 24.8621 43.8283 23.9556 43.1234 23.4519Z" fill="#FF4C4C"/>
<path d="M32.651 11.4476C20.8695 11.4476 11.3032 21.0163 11.3032 32.8009C11.3032 44.5854 20.8695 54.1541 32.651 54.1541C44.4326 54.1541 53.9988 44.5854 53.9988 32.8009C53.9988 21.0163 44.4326 11.4476 32.651 11.4476ZM32.651 51.1324C22.5813 51.1324 14.3241 42.8731 14.3241 32.8009C14.3241 22.7286 22.5813 14.4693 32.651 14.4693C42.7207 14.4693 50.9779 22.7286 50.9779 32.8009C50.9779 42.8731 42.7207 51.1324 32.651 51.1324Z" fill="white"/>
<path d="M60.1414 49.5209C60.6448 49.2187 60.8462 48.7151 60.8462 48.2115V40.3551L64.7734 33.506C65.0755 33.0024 65.0755 32.4988 64.7734 31.9952L60.8462 25.2467V17.3903C60.8462 16.8867 60.5441 16.3831 60.0407 16.081L53.1933 12.1528L49.2661 5.30361C48.964 4.8 48.4605 4.49783 47.957 4.49783H40.1026L33.2552 0.569644C32.7517 0.267475 32.2483 0.267475 31.7448 0.569644L24.8974 4.49783H17.043C16.5395 4.49783 16.036 4.8 15.7339 5.30361L11.8067 12.1528L4.95933 16.081C4.45585 16.3831 4.15376 16.8867 4.15376 17.3903V25.2467L0.226569 32.0959C-0.0755228 32.5995 -0.0755228 33.1031 0.226569 33.6067L4.15376 40.4559V48.2115C4.15376 48.7151 4.45585 49.2187 4.95933 49.5209L11.8067 53.4491L14.2235 57.6795L3.14679 86.0833C2.94539 86.6876 3.04609 87.292 3.54957 87.6948C3.95236 88.0977 4.65724 88.1985 5.26142 87.997L14.3242 83.8674L18.1507 93.0332C18.3521 93.6375 18.9562 93.9397 19.5604 93.9397C20.1646 93.9397 20.7688 93.5368 20.9702 92.9324L31.9462 64.9315C32.1476 65.0322 32.349 65.0322 32.5503 65.0322C32.7517 65.0322 32.9531 64.9315 33.1545 64.9315L44.1305 92.9324C44.3319 93.5368 44.9361 93.8389 45.5403 93.9397C46.1445 93.9397 46.6479 93.5368 46.95 93.0332L50.7765 83.8674L59.8393 87.997C60.4434 88.2992 61.0476 88.0977 61.5511 87.6948C61.9539 87.292 62.1553 86.5869 61.9539 86.0833L50.8772 57.6795L53.294 53.4491L60.1414 49.5209ZM19.6611 88.5006L16.6402 81.3493C16.4388 80.9464 16.1367 80.6442 15.8346 80.5435C15.6332 80.4428 15.4318 80.4428 15.3311 80.4428C15.1297 80.4428 14.9284 80.4428 14.727 80.5435L7.67816 83.7667L16.6402 60.8019C16.7409 60.8019 16.8416 60.9026 16.9423 60.9026H17.043C17.1437 60.9026 17.3451 61.0033 17.4458 61.0033C18.6541 61.0033 19.6611 61.0033 20.5674 61.0033C24.1925 60.9026 25.4009 60.9026 28.8246 63.0178C28.8246 63.0178 28.8246 63.0178 28.9252 63.0178C29.1266 63.1185 29.328 63.2192 29.5294 63.4207C29.5294 63.4207 29.6301 63.4207 29.6301 63.5214L19.6611 88.5006ZM50.7765 80.5435C50.3737 80.3421 49.971 80.3421 49.5682 80.5435C49.1654 80.6442 48.8633 80.9464 48.7626 81.3493L45.7417 88.5006L35.974 63.4207C40.0019 60.8019 41.1096 60.9026 45.0368 60.9026C45.9431 60.9026 46.8493 60.9026 48.0577 60.9026C48.3598 60.9026 48.6619 60.8019 48.964 60.7011L57.8253 83.7667L50.7765 80.5435ZM50.8772 51.5354L47.8563 56.773L47.1514 57.9816C46.3459 57.9816 45.641 57.9816 44.9361 57.9816C44.8354 57.9816 44.7347 57.9816 44.634 57.9816C40.304 57.8809 38.6929 58.0824 34.1615 61.0033C33.8594 61.2048 33.5573 61.4062 33.1545 61.6077L32.651 61.9098L32.1476 61.6077C31.8455 61.4062 31.5434 61.2048 31.2413 61.0033C31.1406 60.9026 30.9392 60.8019 30.8385 60.8019C30.7378 60.7011 30.5364 60.6004 30.4357 60.4997C30.2343 60.399 30.1336 60.2983 30.0329 60.1975C29.9322 60.0968 29.8315 60.0968 29.7308 59.9961C29.6301 59.8954 29.4287 59.7946 29.328 59.7946C29.2273 59.6939 29.1266 59.6939 29.0259 59.5932C28.9253 59.4925 28.7239 59.4925 28.6232 59.3917C28.5225 59.3917 28.4218 59.291 28.3211 59.291C28.2204 59.1903 28.019 59.1903 27.9183 59.0896C27.8176 59.0896 27.7169 58.9889 27.7169 58.9889C27.6162 58.8881 27.4148 58.8881 27.3141 58.7874C27.2134 58.7874 27.2134 58.6867 27.1127 58.6867C26.9113 58.586 26.7099 58.4852 26.4078 58.4852C26.3071 58.4852 26.2064 58.3845 26.1057 58.3845C26.005 58.3845 25.9043 58.2838 25.8036 58.2838C25.6022 58.2838 25.5015 58.2838 25.4009 58.2838C25.3002 58.2838 25.1995 58.2838 25.0988 58.1831C24.9981 58.1831 24.8974 58.1831 24.7967 58.0824C24.696 58.0824 24.5953 58.0824 24.4946 58.0824C24.3939 58.0824 24.2932 58.0824 24.1925 58.0824C24.0918 58.0824 23.9911 58.0824 23.8904 58.0824C23.7897 58.0824 23.689 58.0824 23.4876 58.0824C23.3869 58.0824 23.2862 58.0824 23.2862 58.0824C23.1855 58.0824 22.9841 58.0824 22.7827 58.0824C22.682 58.0824 22.682 58.0824 22.5813 58.0824C22.3799 58.0824 22.0778 58.0824 21.8765 58.0824C21.373 58.0824 20.7688 58.0824 20.1646 58.0824C19.5604 58.0824 18.7548 58.0824 17.9493 58.0824L17.2444 56.8737L14.2235 51.6361C14.1228 51.4347 13.9214 51.2332 13.72 51.1325L7.47676 47.305V39.9523C7.47676 39.6501 7.37606 39.4486 7.27537 39.1465L3.54957 32.7002L7.27537 26.254C7.37606 26.0525 7.47676 25.7503 7.47676 25.4482V18.0954L13.9214 14.3687C14.1228 14.2679 14.3242 14.0665 14.4249 13.865L18.1507 7.41879H25.5015C25.8036 7.41879 26.005 7.31807 26.3071 7.21735L32.651 3.69205L39.0957 7.41879C39.2971 7.51952 39.5991 7.62024 39.9012 7.62024H47.2521L50.9779 14.0665C51.0786 14.2679 51.28 14.4694 51.4814 14.5701L57.926 18.2969V25.6496C57.926 25.9518 58.0267 26.1532 58.1274 26.4554L61.8532 32.9017L58.0267 39.1465C57.926 39.3479 57.8253 39.6501 57.8253 39.9523V47.305L51.3807 51.0318C51.1793 51.1325 51.0786 51.3339 50.8772 51.5354Z" fill="white"/>
</svg>
