<svg width="37" height="37" viewBox="0 0 37 37" fill="none" xmlns="http://www.w3.org/2000/svg">
<path fill-rule="evenodd" clip-rule="evenodd" d="M9.00165 0.995065C8.80624 1.01971 8.64434 1.20468 8.64591 1.40163V3.52337H4.92334C4.71048 3.52337 4.51683 3.71707 4.51679 3.92993V31.8937H1.53106C1.3182 31.8937 1.12455 32.0874 1.12451 32.3003V35.5528C1.12451 35.7656 1.3182 35.9593 1.53106 35.9593H36.038C36.2508 35.9593 36.4445 35.7656 36.4445 35.5528V32.3003C36.4445 32.0874 36.2508 31.8937 36.038 31.8937H33.065V3.92993C33.065 3.71707 32.8713 3.52339 32.6584 3.52337H28.9358V1.40163C28.9358 1.18876 28.7421 0.995085 28.5293 0.995065H9.05246C9.03537 0.993833 9.0187 0.993833 9.00165 0.995065ZM9.45901 1.80819H28.1227V3.52337H9.45901V1.80819ZM5.32989 4.3365C15.4433 4.34459 22.9283 4.3365 32.2519 4.3365V31.8937H25.8612V22.0092C25.8612 21.7963 25.6676 21.6026 25.4547 21.6026C20.9962 21.5932 16.5688 21.6026 12.1143 21.6026C11.9015 21.6026 11.7078 21.7963 11.7078 22.0092V31.8937H5.32989V4.3365ZM12.5209 22.4157H18.378V31.8937H12.5209V22.4157ZM19.1911 22.4157H25.0481V31.8937H19.1911V22.4157ZM1.93765 32.7068C14.4921 32.7068 24.3086 32.7068 35.6314 32.7068V35.1462H1.93765V32.7068Z" fill="#522D80" stroke="#522D80" stroke-width="0.5"/>
<path fill-rule="evenodd" clip-rule="evenodd" d="M22.7068 7.20972C22.5979 7.20973 22.4935 7.25299 22.4164 7.33001C22.3394 7.40703 22.2962 7.51149 22.2961 7.62041V9.76427C22.2962 9.87319 22.3394 9.97763 22.4164 10.0546C22.4935 10.1317 22.5979 10.175 22.7068 10.175H25.2203C25.3292 10.175 25.4337 10.1317 25.5107 10.0546C25.5877 9.97763 25.631 9.87319 25.631 9.76427V7.62041C25.631 7.51149 25.5877 7.40703 25.5107 7.33001C25.4337 7.25299 25.3292 7.20973 25.2203 7.20972H22.7068ZM23.1175 8.03111H24.8096V9.35357H23.1175V8.03111Z" fill="#FF4C4C" stroke="#FF4C4C" stroke-width="0.5"/>
<path fill-rule="evenodd" clip-rule="evenodd" d="M13.1746 7.20972C13.0657 7.20973 12.9612 7.25299 12.8842 7.33001C12.8072 7.40703 12.7639 7.51149 12.7639 7.62041V9.76427C12.7639 9.87319 12.8072 9.97763 12.8842 10.0546C12.9612 10.1317 13.0657 10.175 13.1746 10.175H15.6881C15.797 10.175 15.9015 10.1317 15.9785 10.0546C16.0555 9.97763 16.0988 9.87319 16.0988 9.76427V7.62041C16.0988 7.51149 16.0555 7.40703 15.9785 7.33001C15.9015 7.25299 15.797 7.20973 15.6881 7.20972H13.1746ZM13.5853 8.03111H15.2774V9.35357H13.5853V8.03111Z" fill="#FF4C4C" stroke="#FF4C4C" stroke-width="0.5"/>
<path fill-rule="evenodd" clip-rule="evenodd" d="M22.7068 14.6741C22.5979 14.6741 22.4935 14.7174 22.4164 14.7944C22.3394 14.8714 22.2962 14.9758 22.2961 15.0848V17.2286C22.2962 17.3375 22.3394 17.442 22.4164 17.519C22.4935 17.596 22.5979 17.6393 22.7068 17.6393H25.2203C25.3292 17.6393 25.4337 17.596 25.5107 17.519C25.5877 17.442 25.631 17.3375 25.631 17.2286V15.0848C25.631 14.9758 25.5877 14.8714 25.5107 14.7944C25.4337 14.7174 25.3292 14.6741 25.2203 14.6741H22.7068ZM23.1175 15.4955H24.8096V16.8179H23.1175V15.4955Z" fill="#FF4C4C" stroke="#FF4C4C" stroke-width="0.5"/>
<path fill-rule="evenodd" clip-rule="evenodd" d="M13.1746 14.6741C13.0657 14.6741 12.9612 14.7174 12.8842 14.7944C12.8072 14.8714 12.7639 14.9758 12.7639 15.0848V17.2286C12.7639 17.3375 12.8072 17.442 12.8842 17.519C12.9612 17.596 13.0657 17.6393 13.1746 17.6393H15.6881C15.797 17.6393 15.9015 17.596 15.9785 17.519C16.0555 17.442 16.0988 17.3375 16.0988 17.2286V15.0848C16.0988 14.9758 16.0555 14.8714 15.9785 14.7944C15.9015 14.7174 15.797 14.6741 15.6881 14.6741H13.1746ZM13.5853 15.4955H15.2774V16.8179H13.5853V15.4955Z" fill="#FF4C4C" stroke="#FF4C4C" stroke-width="0.5"/>
</svg>
