<svg width="25" height="24" viewBox="0 0 25 24" fill="none" xmlns="http://www.w3.org/2000/svg">
<path d="M10.4389 1.76621C11.0376 -0.0764136 13.6444 -0.0764093 14.2431 1.76621L15.7128 6.28944C15.9805 7.11349 16.7484 7.67141 17.6149 7.67141H22.3709C24.3083 7.67141 25.1139 10.1506 23.5465 11.2894L19.6988 14.085C18.9978 14.5942 18.7045 15.497 18.9722 16.321L20.4419 20.8443C21.0406 22.6869 18.9317 24.2191 17.3642 23.0803L13.5165 20.2848C12.8156 19.7755 11.8664 19.7755 11.1654 20.2848L7.31771 23.0803C5.75028 24.2191 3.64132 22.6869 4.24003 20.8443L5.70971 16.321C5.97746 15.497 5.68414 14.5942 4.98317 14.085L1.13548 11.2894C-0.43195 10.1506 0.373605 7.67141 2.31105 7.67141H7.06706C7.93351 7.67141 8.70142 7.11349 8.96917 6.28944L10.4389 1.76621Z" fill="white"/>
</svg>
