<svg width="13" height="24" viewBox="0 0 13 24" fill="none" xmlns="http://www.w3.org/2000/svg">
<path d="M11.0795 2.1987C11.6782 0.356081 14.285 0.356086 14.8837 2.19871L16.3534 6.72194C16.6211 7.54598 17.3891 8.1039 18.2555 8.1039H23.0115C24.949 8.1039 25.7545 10.5831 24.1871 11.7219L20.3394 14.5174C19.6384 15.0267 19.3451 15.9295 19.6129 16.7535L21.0825 21.2768C21.6812 23.1194 19.5723 24.6516 18.0049 23.5128L14.1572 20.7173C13.4562 20.208 12.507 20.208 11.806 20.7173L7.95833 23.5128C6.3909 24.6516 4.28195 23.1194 4.88065 21.2767L6.35034 16.7535C6.61809 15.9295 6.32477 15.0267 5.6238 14.5174L1.7761 11.7219C0.208675 10.5831 1.01423 8.1039 2.95168 8.1039H7.70769C8.57414 8.1039 9.34205 7.54598 9.6098 6.72194L11.0795 2.1987Z" fill="white"/>
</svg>
