<svg width="25" height="24" viewBox="0 0 25 24" fill="none" xmlns="http://www.w3.org/2000/svg">
<path d="M10.4203 1.79599C11.019 -0.0466285 13.6258 -0.0466242 14.2245 1.796L15.6942 6.31923C15.962 7.14327 16.7299 7.70119 17.5963 7.70119H22.3523C24.2898 7.70119 25.0953 10.1804 23.5279 11.3192L19.6802 14.1147C18.9792 14.624 18.6859 15.5268 18.9537 16.3508L20.4234 20.874C21.0221 22.7167 18.9131 24.2489 17.3457 23.1101L13.498 20.3146C12.797 19.8053 11.8478 19.8053 11.1468 20.3146L7.29915 23.1101C5.73172 24.2489 3.62277 22.7167 4.22147 20.874L5.69116 16.3508C5.95891 15.5268 5.66559 14.624 4.96462 14.1147L1.11692 11.3192C-0.450505 10.1804 0.355051 7.70119 2.2925 7.70119H7.04851C7.91496 7.70119 8.68287 7.14327 8.95062 6.31923L10.4203 1.79599Z" fill="#C4C4C4" fill-opacity="0.54"/>
</svg>
