<svg width="19" height="37" viewBox="0 0 19 37" fill="none" xmlns="http://www.w3.org/2000/svg">
<path d="M17.0142 2.20945C17.6129 0.366829 20.2197 0.366827 20.8184 2.20945L23.8164 11.4364C24.0841 12.2604 24.8521 12.8183 25.7185 12.8183H35.4203C37.3577 12.8183 38.1633 15.2976 36.5958 16.4364L28.747 22.1389C28.046 22.6482 27.7527 23.5509 28.0204 24.375L31.0184 33.6019C31.6171 35.4445 29.5082 36.9768 27.9407 35.838L20.0918 30.1354C19.3909 29.6261 18.4417 29.6261 17.7407 30.1354L9.89182 35.838C8.32439 36.9768 6.21543 35.4445 6.81414 33.6019L9.81215 24.375C10.0799 23.5509 9.78658 22.6482 9.0856 22.1389L1.23672 16.4364C-0.330709 15.2976 0.474841 12.8183 2.41229 12.8183H12.114C12.9805 12.8183 13.7484 12.2604 14.0162 11.4364L17.0142 2.20945Z" fill="#522D80"/>
</svg>
