<svg width="38" height="37" viewBox="0 0 38 37" fill="none" xmlns="http://www.w3.org/2000/svg">
<path d="M16.665 2.20957C17.2637 0.366951 19.8706 0.366949 20.4693 2.20957L23.4673 11.4365C23.735 12.2605 24.5029 12.8185 25.3694 12.8185H35.0711C37.0086 12.8185 37.8141 15.2977 36.2467 16.4365L28.3978 22.139C27.6969 22.6483 27.4035 23.5511 27.6713 24.3751L30.6693 33.602C31.268 35.4446 29.159 36.9769 27.5916 35.8381L19.7427 30.1355C19.0418 29.6263 18.0926 29.6263 17.3916 30.1355L9.5427 35.8381C7.97527 36.9769 5.86631 35.4446 6.46502 33.602L9.46302 24.3751C9.73077 23.5511 9.43746 22.6483 8.73648 22.139L0.887597 16.4365C-0.67983 15.2977 0.12572 12.8185 2.06317 12.8185H11.7649C12.6314 12.8185 13.3993 12.2605 13.667 11.4365L16.665 2.20957Z" fill="#522D80"/>
</svg>
