<?xml version="1.0" encoding="utf-8"?>
<!-- Generator: Adobe Illustrator 24.3.0, SVG Export Plug-In . SVG Version: 6.00 Build 0)  -->
<svg version="1.1" id="Layer_1" xmlns="http://www.w3.org/2000/svg" xmlns:xlink="http://www.w3.org/1999/xlink" x="0px" y="0px"
	 viewBox="0 0 177.8 124" style="enable-background:new 0 0 177.8 124;" xml:space="preserve">
<style type="text/css">
	.st0{fill:#FFFFFF;}
	.st1{fill:#FF4C4C;}
</style>
<g>
	<path class="st0" d="M26.2,70h22c0.4,0,0.7-0.1,1.1-0.3c0.3-0.2,0.6-0.5,0.7-0.8L57.5,54h26.8c0.3,0,0.7-0.1,1-0.3
		c0.3-0.2,0.5-0.4,0.7-0.7l10-16c0.3-0.4,0.4-1,0.3-1.5c-0.1-0.5-0.4-1-0.9-1.2c-0.4-0.3-1-0.4-1.5-0.3s-1,0.4-1.2,0.9L83.1,50H56.2
		c-0.4,0-0.7,0.1-1.1,0.3c-0.3,0.2-0.6,0.5-0.7,0.8L47,66H26.2c-0.5,0-1,0.2-1.4,0.6c-0.4,0.4-0.6,0.9-0.6,1.4c0,0.5,0.2,1,0.6,1.4
		C25.2,69.8,25.7,70,26.2,70z"/>
	<path class="st1" d="M136.9,23.3c-0.1-0.3-0.3-0.7-0.6-0.9c-0.3-0.2-0.6-0.4-1-0.4l-10-1.5l-4.5-9.6c-0.2-0.3-0.4-0.6-0.7-0.8
		c-0.3-0.2-0.7-0.3-1.1-0.3c-0.4,0-0.8,0.1-1.1,0.3c-0.3,0.2-0.6,0.5-0.7,0.8l-4.5,9.6l-10,1.5c-0.4,0.1-0.7,0.2-1,0.4
		c-0.3,0.2-0.5,0.5-0.6,0.9c-0.1,0.3-0.1,0.7-0.1,1.1c0.1,0.4,0.3,0.7,0.5,1l7.3,7.5l-1.7,10.6c-0.1,0.4,0,0.7,0.1,1.1
		c0.1,0.3,0.4,0.6,0.7,0.9c0.3,0.2,0.7,0.3,1,0.4c0.4,0,0.7-0.1,1.1-0.2l8.9-4.9l8.9,4.9c0.3,0.2,0.7,0.3,1.1,0.2
		c0.4,0,0.7-0.1,1-0.4c0.3-0.2,0.5-0.5,0.7-0.9c0.1-0.3,0.2-0.7,0.1-1.1l-1.7-10.6l7.3-7.5c0.3-0.3,0.4-0.6,0.5-1
		C137,24,137,23.6,136.9,23.3z M125.6,30.7c-0.2,0.2-0.4,0.5-0.5,0.8s-0.1,0.6-0.1,0.9l1.2,7.5l-6.3-3.5c-0.3-0.2-0.6-0.2-1-0.2
		c-0.3,0-0.7,0.1-1,0.2l-6.3,3.5l1.2-7.5c0.1-0.3,0-0.6-0.1-0.9c-0.1-0.3-0.3-0.6-0.5-0.8l-5.3-5.4l7.2-1.1c0.3,0,0.6-0.2,0.9-0.4
		c0.3-0.2,0.5-0.5,0.6-0.8l3.1-6.7l3.1,6.7c0.1,0.3,0.4,0.6,0.6,0.8s0.6,0.3,0.9,0.4l7.2,1.1L125.6,30.7z"/>
	<path class="st0" d="M130.2,52h-36c-0.5,0-1,0.2-1.4,0.6c-0.4,0.4-0.6,0.9-0.6,1.4v14h-34c-0.5,0-1,0.2-1.4,0.6
		c-0.4,0.4-0.6,0.9-0.6,1.4v14h-34c-0.5,0-1,0.2-1.4,0.6c-0.4,0.4-0.6,0.9-0.6,1.4v28c0,0.5,0.2,1,0.6,1.4c0.4,0.4,0.9,0.6,1.4,0.6
		h108c0.5,0,1-0.2,1.4-0.6s0.6-0.9,0.6-1.4V54c0-0.5-0.2-1-0.6-1.4C131.2,52.2,130.7,52,130.2,52z M60.2,72h32v40h-32V72z M24.2,88
		h32v24h-32V88z M128.2,112h-32V56h32V112z"/>
</g>
</svg>
