<svg width="35" height="37" viewBox="0 0 35 37" fill="none" xmlns="http://www.w3.org/2000/svg">
<path d="M16.8064 1.88989C16.9929 1.72788 17.2316 1.63867 17.4786 1.63867C17.7257 1.63867 17.9644 1.72788 18.1509 1.88989L21.4787 4.78039C21.5823 4.87051 21.703 4.93888 21.8336 4.98143C21.9642 5.02398 22.102 5.03985 22.2389 5.0281L26.6327 4.64544C26.8787 4.62431 27.1241 4.69269 27.3237 4.838C27.5233 4.98332 27.6638 5.1958 27.7192 5.43639L28.7135 9.73114C28.7442 9.86535 28.8016 9.99201 28.8823 10.1035C28.963 10.2151 29.0654 10.3092 29.1833 10.3803L32.9621 12.6524C33.1736 12.7797 33.332 12.9791 33.4082 13.2138C33.4845 13.4486 33.4735 13.7029 33.3772 13.9302L31.6552 17.9892C31.6017 18.1157 31.5741 18.2516 31.5741 18.389C31.5741 18.5263 31.6017 18.6623 31.6552 18.7887L33.3772 22.8477C33.474 23.0752 33.4852 23.33 33.4089 23.5651C33.3326 23.8003 33.174 23.9999 32.9621 24.1273L29.1833 26.3994C29.0656 26.4703 28.9633 26.5641 28.8826 26.6754C28.8019 26.7866 28.7444 26.9129 28.7135 27.0468L27.7192 31.3416C27.6638 31.5822 27.5233 31.7946 27.3237 31.94C27.1241 32.0853 26.8787 32.1536 26.6327 32.1325L22.2389 31.7499C22.1022 31.7379 21.9644 31.7535 21.8338 31.7957C21.7032 31.838 21.5825 31.906 21.4787 31.9959L18.1491 34.8881C17.9627 35.0501 17.7239 35.1393 17.4769 35.1393C17.2299 35.1393 16.9912 35.0501 16.8047 34.8881L13.4769 31.9959C13.3731 31.906 13.2523 31.838 13.1217 31.7957C12.9911 31.7535 12.8534 31.7379 12.7166 31.7499L8.32281 32.1325C8.07681 32.1536 7.83146 32.0853 7.63185 31.94C7.43223 31.7946 7.29178 31.5822 7.23631 31.3416L6.24206 27.0468C6.21137 26.9126 6.15395 26.786 6.07323 26.6744C5.99252 26.5629 5.89016 26.4688 5.77227 26.3976L1.99344 24.1256C1.78198 23.9982 1.62357 23.7989 1.54731 23.5641C1.47105 23.3294 1.48206 23.075 1.57831 22.8477L3.30031 18.7887C3.35388 18.6623 3.38148 18.5263 3.38148 18.389C3.38148 18.2516 3.35388 18.1157 3.30031 17.9892L1.57831 13.9302C1.48158 13.7027 1.47033 13.448 1.54661 13.2128C1.62289 12.9777 1.78158 12.7781 1.99344 12.6507L5.77227 10.3786C5.88998 10.3077 5.99223 10.2138 6.07294 10.1026C6.15364 9.99137 6.21116 9.86505 6.24206 9.73114L7.23631 5.43639C7.29178 5.1958 7.43223 4.98332 7.63185 4.838C7.83146 4.69269 8.07681 4.62431 8.32281 4.64544L12.7166 5.0281C12.8535 5.03985 12.9913 5.02398 13.1219 4.98143C13.2525 4.93888 13.3732 4.87051 13.4769 4.78039L16.8064 1.88989V1.88989Z" stroke="#522D80" stroke-width="1.8"/>
<path d="M12.3528 20.0973L15.7694 23.514L24.3111 14.9723" stroke="#FF4C4C" stroke-width="1.8" stroke-linecap="round" stroke-linejoin="round"/>
</svg>
