<svg width="93" height="92" viewBox="0 0 93 92" fill="none" xmlns="http://www.w3.org/2000/svg">
<path fill-rule="evenodd" clip-rule="evenodd" d="M93 43.3292V51.7488C93 52.6779 92.1784 53.4297 91.1682 53.4297H53.5841C52.5716 53.4297 51.7523 52.6779 51.7523 51.7488V43.3292C51.7523 20.5417 93 20.358 93 43.3292ZM81.2641 63.2248C82.968 64.7861 80.3773 67.1612 78.6758 65.5999L74.0625 61.3666L73.9554 73.289C73.9554 74.216 73.1361 74.97 72.1236 74.97H45.072C42.6629 74.97 42.6629 71.6081 45.072 71.6081H70.315L70.4128 61.4371L65.8763 65.5999C64.1748 67.1612 61.5841 64.7861 63.2856 63.2248L70.9807 56.1637C71.6953 55.5079 72.8568 55.5079 73.5714 56.1637L81.2641 63.2248ZM41.6178 81.8389V90.2607C41.6178 91.1876 40.7962 91.9395 39.786 91.9395H2.20195C1.19177 91.9395 0.370117 91.1876 0.370117 90.2607V81.8389C0.370117 59.0535 41.6178 58.8698 41.6178 81.8389ZM20.9928 38.7008C28.12 38.7008 33.8994 44.0042 33.8994 50.5421C33.8994 57.08 28.1176 62.3876 20.9928 62.3876C13.875 62.3876 8.0885 57.0757 8.0885 50.5421C8.0885 44.0042 13.868 38.7008 20.9928 38.7008ZM20.9928 42.0627C15.8883 42.0627 11.7498 45.8581 11.7498 50.5421C11.7498 55.2303 15.886 59.0257 20.9928 59.0257C26.1043 59.0257 30.2381 55.2324 30.2381 50.5421C30.2381 45.8581 26.0973 42.0627 20.9928 42.0627ZM24.0443 68.1566V75.0341C24.0443 75.2156 23.9791 75.3843 23.8721 75.5232L21.7772 78.4536C21.4025 78.9747 20.5692 78.9491 20.227 78.4258L18.0996 75.4954C17.9855 75.3395 17.9366 75.1601 17.9483 74.9849V68.1566C10.1554 68.6499 4.03379 74.6603 4.03379 81.8389V88.5797H37.9565V81.8389C37.9565 74.6646 31.8349 68.6499 24.0443 68.1566ZM72.3773 0.193237C79.5021 0.193237 85.2816 5.49446 85.2816 12.0345C85.2816 18.5702 79.4998 23.8779 72.3773 23.8779C65.2571 23.8779 59.4707 18.5681 59.4707 12.0345C59.4707 5.49446 65.2501 0.193237 72.3773 0.193237ZM72.3773 3.55296C67.2728 3.55296 63.132 7.35053 63.132 12.0345C63.132 16.7185 67.2682 20.516 72.3773 20.516C77.4864 20.516 81.6179 16.7227 81.6179 12.0345C81.6179 7.35053 77.4818 3.55296 72.3773 3.55296ZM75.4242 29.6469V36.5222C75.4242 36.7059 75.3613 36.8746 75.2542 37.0113L73.1571 39.9417C72.7846 40.465 71.9513 40.4394 71.6092 39.9161L69.4817 36.9857C69.3677 36.8298 69.3211 36.6504 69.3305 36.4752V29.6469C61.5353 30.1402 55.416 36.1506 55.416 43.3292V50.07H89.3363V43.3292C89.3363 36.1527 83.217 30.1402 75.4242 29.6469Z" fill="white"/>
<path fill-rule="evenodd" clip-rule="evenodd" d="M81.2641 63.2248C82.9679 64.7861 80.3773 67.1612 78.6758 65.5999L74.0624 61.3666L73.9554 73.289C73.9554 74.216 73.136 74.97 72.1235 74.97H45.072C42.6629 74.97 42.6629 71.6081 45.072 71.6081H70.315L70.4127 61.4371L65.8762 65.5999C64.1747 67.1612 61.5841 64.7861 63.2856 63.2248L70.9807 56.1637C71.6952 55.5079 72.8567 55.5079 73.5713 56.1637L81.2641 63.2248Z" fill="#FF4C4C"/>
</svg>
