<svg width="177" height="48" viewBox="0 0 177 48" fill="none" xmlns="http://www.w3.org/2000/svg">
<g clip-path="url(#clip0)">
<path fill-rule="evenodd" clip-rule="evenodd" d="M51.9834 35.4944V13.7483H54.7793L68.0686 31.2487V13.7483H70.7265V35.4944H67.9306L54.6413 17.8214V35.4944H51.9834ZM92.3691 34.6315C90.6087 35.2873 88.7102 35.6325 86.7082 35.6325C78.8381 35.6325 74.9031 31.87 74.9031 24.3107C74.9031 17.1655 78.7001 13.5757 86.294 13.5757C88.4686 13.5757 90.5051 13.8863 92.3691 14.4731V16.8894C90.5051 16.1645 88.5721 15.8193 86.6046 15.8193C80.6676 15.8193 77.6991 18.6498 77.6991 24.2416C77.6991 30.2822 80.6331 33.2853 86.4666 33.2853C87.3985 33.2853 88.4341 33.1472 89.5731 32.9056V25.6223H92.3691V34.6315ZM96.8564 27.1066V13.7483H99.6523V27.1066C99.6523 31.2832 101.723 33.3888 105.9 33.3888C110.042 33.3888 112.148 31.2832 112.148 27.1066V13.7483H114.944V27.1066C114.944 32.802 111.941 35.667 105.9 35.667C99.8594 35.667 96.8564 32.802 96.8564 27.1066ZM122.745 13.7483V33.2162H134.135V35.4944H119.949V13.7483H122.745ZM138.174 35.4944H135.24L146.044 10.8833L156.848 35.4944H153.741L150.946 28.6599H143.766L144.525 26.3817H150.014L145.94 16.5442L138.174 35.4944ZM159.851 35.4944V13.7483H169.136C173.278 13.7483 175.35 15.4742 175.35 18.9604C175.35 21.7909 173.313 23.8965 169.274 25.2427L176.73 35.4944H173.037L166.133 25.7259V23.8965C170.275 23.2406 172.381 21.6528 172.381 19.0985C172.381 17.0965 171.242 16.0955 168.929 16.0955H162.716V35.4944H159.851Z" fill="#B52E31"/>
<path fill-rule="evenodd" clip-rule="evenodd" d="M0 7.94932L22.2639 0.0102539L45.1146 7.81125L41.4212 37.2548L22.2639 47.8518L3.41725 37.3929L0 7.94932Z" fill="#E23237"/>
<path fill-rule="evenodd" clip-rule="evenodd" d="M45.1144 7.81125L22.2637 0.0102539V47.8518L41.421 37.2548L45.1144 7.81125Z" fill="#B52E31"/>
<path fill-rule="evenodd" clip-rule="evenodd" d="M22.2985 5.60205L8.42236 36.4608L13.6 36.3573L16.3959 29.3847H28.7878L31.8253 36.4263L36.7614 36.5298L22.2985 5.60205ZM22.333 15.5086L27.0274 25.3116H18.2254L22.333 15.5086Z" fill="white"/>
</g>
<defs>
<clipPath id="clip0">
<rect width="176.73" height="48" fill="white"/>
</clipPath>
</defs>
</svg>
