<svg width="148" height="32" viewBox="0 0 148 32" fill="none" xmlns="http://www.w3.org/2000/svg">
<g clip-path="url(#clip0)">
<path d="M0.0737305 20.0777C0.0737305 18.4109 0.35279 16.8556 0.910908 15.4119C1.46903 13.9684 2.25028 12.7107 3.25495 11.6391C4.25962 10.5675 5.46147 9.72663 6.86052 9.11662C8.25956 8.50632 9.79237 8.20103 11.4592 8.20103C12.7245 8.20103 13.8742 8.38726 14.9085 8.75914C15.9429 9.13132 16.9438 9.74162 17.911 10.5897V8.64758H23.5816V31.5082H17.911V29.5657C16.9438 30.4142 15.9429 31.0245 14.9085 31.3964C13.8742 31.7685 12.7245 31.9545 11.4592 31.9545C9.79237 31.9545 8.25927 31.6495 6.86052 31.0392C5.46147 30.4292 4.25962 29.5882 3.25495 28.5167C2.25028 27.4448 1.46903 26.1873 0.910908 24.7436C0.35279 23.3002 0.0737305 21.7449 0.0737305 20.0777ZM12.1961 26.6189C12.6426 26.6189 13.1114 26.5708 13.6026 26.4739C14.0936 26.377 14.5885 26.2133 15.0873 25.9827C15.5857 25.752 16.0732 25.4433 16.5495 25.0561C17.0257 24.6692 17.4795 24.193 17.911 23.6274V16.5281C17.4795 15.9628 17.0257 15.4903 16.5495 15.1106C16.0729 14.7312 15.5857 14.4222 15.087 14.1841C14.5883 13.9459 14.0936 13.7785 13.6023 13.6819C13.1114 13.585 12.6423 13.5369 12.1961 13.5366C11.318 13.5366 10.4955 13.7003 9.72923 14.0278C8.9624 14.3553 8.29646 14.8131 7.73113 15.4009C7.16552 15.9887 6.72272 16.6809 6.40272 17.4771C6.08273 18.2734 5.92273 19.1402 5.92273 20.0777C5.92273 21.0155 6.08273 21.8824 6.40272 22.6786C6.72272 23.4749 7.16552 24.1671 7.73113 24.7549C8.29675 25.343 8.96268 25.8005 9.72894 26.128C10.4958 26.4552 11.318 26.6189 12.1961 26.6189ZM37.7565 13.8445C35.0697 13.8641 32.7355 15.7365 32.7355 18.5152V31.5082H27.0649V18.6715C27.0966 13.3186 31.7322 8.2731 37.6752 8.20103H37.8338C43.7767 8.2731 48.4124 13.3186 48.4441 18.6715V31.5082H42.7735V18.5152C42.7735 15.7365 40.4396 13.8641 37.7525 13.8445H37.7565ZM51.1283 20.0777C51.1283 18.4109 51.4073 16.8556 51.9655 15.4119C52.5236 13.9684 53.3051 12.7107 54.3095 11.6391C55.3142 10.5675 56.516 9.72663 57.9151 9.11662C59.3141 8.50632 60.8469 8.20103 62.5141 8.20103C63.7791 8.20103 64.9325 8.38726 65.9743 8.75914C67.0162 9.13132 68.0134 9.73412 68.9659 10.5675V1.79392H74.6364V31.5082H68.9659V29.5882C68.0134 30.4364 67.0162 31.0429 65.9743 31.4076C64.9325 31.7723 63.7791 31.9545 62.5141 31.9545C60.8469 31.9545 59.3141 31.6495 57.9151 31.0392C56.516 30.4292 55.3142 29.5882 54.3095 28.5167C53.3051 27.4451 52.5236 26.1873 51.9657 24.7436C51.4073 23.3002 51.1283 21.7449 51.1283 20.0777ZM63.2506 26.6189C63.6972 26.6189 64.1659 26.5708 64.6572 26.4739C65.1481 26.377 65.6431 26.2133 66.1418 25.9827C66.6403 25.752 67.1278 25.4433 67.604 25.0561C68.0803 24.6692 68.534 24.193 68.9659 23.6274V16.5281C68.534 15.9628 68.0803 15.4903 67.604 15.1106C67.1278 14.7312 66.6403 14.4222 66.1418 14.1841C65.6431 13.9459 65.1481 13.7785 64.6572 13.6819C64.1659 13.585 63.6972 13.5369 63.2506 13.5366C62.3725 13.5366 61.5503 13.7003 60.7838 14.0278C60.0172 14.3553 59.351 14.8131 58.786 15.4009C58.2201 15.9887 57.7773 16.6809 57.4573 17.4771C57.1373 18.2734 56.9773 19.1402 56.9776 20.0777C56.9776 21.0155 57.1373 21.8824 57.4573 22.6786C57.7773 23.4749 58.2201 24.1671 58.7857 24.7549C59.3513 25.343 60.0172 25.8005 60.7838 26.128C61.5503 26.4552 62.3725 26.6189 63.2506 26.6189ZM101.191 26.6189C102.039 26.6189 102.839 26.4589 103.591 26.1389C104.331 25.827 104.999 25.3674 105.555 24.7883C106.114 24.208 106.553 23.5196 106.873 22.7233C107.193 21.9271 107.353 21.0455 107.353 20.0777C107.353 19.1253 107.189 18.2509 106.861 17.4547C106.534 16.6584 106.087 15.97 105.522 15.3897C104.962 14.8128 104.294 14.3502 103.557 14.0278C102.813 13.7003 102.024 13.5369 101.191 13.5366C100.343 13.5366 99.5427 13.7003 98.7909 14.0278C98.052 14.3465 97.3841 14.8095 96.8265 15.3897C96.2684 15.97 95.8256 16.6584 95.4981 17.4547C95.1706 18.2509 95.0069 19.1253 95.0069 20.078C95.0069 21.0452 95.1669 21.9271 95.4868 22.7233C95.8068 23.5196 96.2459 24.208 96.8043 24.7883C97.3604 25.3674 98.0289 25.827 98.7687 26.1389C99.5202 26.4589 100.328 26.6189 101.191 26.6189ZM101.191 31.9545C99.539 31.9545 97.9837 31.657 96.525 31.0617C95.0662 30.4663 93.7903 29.6367 92.6965 28.5723C91.6025 27.5083 90.7391 26.2505 90.1066 24.7996C89.4741 23.3483 89.1581 21.7746 89.1581 20.0777C89.1581 18.4259 89.4741 16.8778 90.1066 15.4344C90.7394 13.9906 91.5988 12.7331 92.6853 11.6616C93.7716 10.5897 95.0478 9.74536 96.5137 9.12757C97.9799 8.51007 99.539 8.20103 101.191 8.20103C102.843 8.20103 104.398 8.51007 105.857 9.12757C107.315 9.74536 108.588 10.5897 109.674 11.6616C110.761 12.7331 111.62 13.9909 112.253 15.4344C112.885 16.8781 113.201 18.4259 113.201 20.0777C113.201 21.7746 112.885 23.3483 112.253 24.7996C111.62 26.2505 110.757 27.5083 109.663 28.5723C108.569 29.6367 107.297 30.4663 105.845 31.0617C104.395 31.657 102.843 31.9545 101.191 31.9545ZM118.578 6.85762C118.118 6.85762 117.684 6.76797 117.274 6.58837C116.873 6.41398 116.508 6.16558 116.198 5.85613C115.889 5.54633 115.64 5.18106 115.466 4.77939C115.286 4.36863 115.194 3.92474 115.197 3.47634C115.197 3.01711 115.286 2.5792 115.466 2.16292C115.638 1.75705 115.887 1.38794 116.198 1.07551C116.508 0.766067 116.873 0.517666 117.275 0.343273C117.686 0.163474 118.129 0.0717501 118.578 0.0740156C119.037 0.0740156 119.475 0.163672 119.891 0.343273C120.297 0.515752 120.666 0.764302 120.979 1.07551C121.29 1.38795 121.538 1.75706 121.711 2.16292C121.891 2.5792 121.98 3.01711 121.98 3.47663C121.98 3.93587 121.891 4.37031 121.711 4.77967C121.536 5.18124 121.288 5.54641 120.979 5.85613C120.666 6.16738 120.297 6.41593 119.891 6.58837C119.477 6.76755 119.029 6.85922 118.578 6.85762ZM115.742 8.64758H121.413V31.5082H115.742V8.64758ZM124.02 20.0777C124.02 18.4109 124.299 16.8556 124.857 15.4119C125.415 13.9684 126.196 12.7107 127.201 11.6391C128.206 10.5675 129.408 9.72663 130.807 9.11662C132.205 8.50632 133.738 8.20103 135.405 8.20103C136.67 8.20103 137.824 8.38726 138.866 8.75914C139.907 9.13132 140.905 9.73412 141.857 10.5675V1.79392H147.528V31.5082H141.857V29.5882C140.905 30.4364 139.907 31.0429 138.866 31.4076C137.824 31.7723 136.67 31.9545 135.405 31.9545C133.738 31.9545 132.205 31.6495 130.807 31.0392C129.408 30.4292 128.206 29.5882 127.201 28.5167C126.196 27.4451 125.415 26.1873 124.857 24.7436C124.299 23.3002 124.02 21.7449 124.02 20.0777ZM136.142 26.6189C136.588 26.6189 137.057 26.5708 137.548 26.4739C138.04 26.377 138.534 26.2133 139.033 25.9827C139.532 25.752 140.019 25.4433 140.495 25.0561C140.971 24.6692 141.426 24.193 141.857 23.6274V16.5281C141.426 15.9628 140.971 15.4903 140.495 15.1106C140.019 14.7312 139.532 14.4222 139.033 14.1841C138.534 13.9459 138.04 13.7785 137.548 13.6819C137.057 13.585 136.588 13.5369 136.142 13.5366C135.264 13.5366 134.442 13.7003 133.675 14.0278C132.908 14.3553 132.242 14.8131 131.677 15.4009C131.112 15.9887 130.669 16.6809 130.349 17.4771C130.029 18.2734 129.869 19.1402 129.869 20.0777C129.869 21.0155 130.029 21.8824 130.349 22.6786C130.669 23.4749 131.112 24.1671 131.677 24.7549C132.243 25.343 132.909 25.8005 133.675 26.128C134.442 26.4552 135.264 26.6189 136.142 26.6189ZM88.6176 13.7759C84.8175 13.7759 83.1417 15.7365 83.1417 18.5152V31.5082H77.4711V18.6715C77.5028 13.3186 80.5949 8.05631 88.6176 8.05631" fill="#77C159"/>
</g>
<defs>
<clipPath id="clip0">
<rect width="147.601" height="32" fill="white"/>
</clipPath>
</defs>
</svg>
