<svg width="96" height="96" viewBox="0 0 96 96" fill="none" xmlns="http://www.w3.org/2000/svg">
<path d="M55.071 35.9289C53.1956 34.0535 50.6521 33 48 33C45.3478 33 42.8043 34.0535 40.929 35.9289" stroke="white" stroke-width="2" stroke-miterlimit="10" stroke-linecap="round" stroke-linejoin="round"/>
<path d="M62.142 28.858C58.3913 25.1073 53.3043 23.0002 48 23.0002C42.6958 23.0002 37.6087 25.1073 33.858 28.858" stroke="white" stroke-width="2" stroke-miterlimit="10" stroke-linecap="round" stroke-linejoin="round"/>
<path d="M20 35C24.2435 35 28.3131 36.6857 31.3137 39.6863C34.3143 42.6869 36 46.7565 36 51V53L40 62L36 64V67C36 68.5913 35.3679 70.1174 34.2426 71.2426C33.1174 72.3679 31.5913 73 30 73H24V79" stroke="white" stroke-width="2" stroke-miterlimit="10" stroke-linecap="round" stroke-linejoin="round"/>
<path d="M76 35C71.7565 35 67.6869 36.6857 64.6863 39.6863C61.6857 42.6869 60 46.7565 60 51V53L56 62L60 64V67C60 68.5913 60.6321 70.1174 61.7574 71.2426C62.8826 72.3679 64.4087 73 66 73H72V79" stroke="white" stroke-width="2" stroke-miterlimit="10" stroke-linecap="round" stroke-linejoin="round"/>
<path d="M48 45C48.5523 45 49 44.5523 49 44C49 43.4477 48.5523 43 48 43C47.4477 43 47 43.4477 47 44C47 44.5523 47.4477 45 48 45Z" stroke="white" stroke-width="2" stroke-miterlimit="10" stroke-linecap="round" stroke-linejoin="round"/>
</svg>
