<svg width="25" height="24" viewBox="0 0 25 24" fill="none" xmlns="http://www.w3.org/2000/svg">
<g clip-path="url(#clip0)">
<path d="M7.5 12H5.5V13H7.5V12Z" stroke="#2B2B2F" stroke-width="2" stroke-miterlimit="10" stroke-linecap="round" stroke-linejoin="round"/>
<path d="M13.5 12H11.5V13H13.5V12Z" stroke="#2B2B2F" stroke-width="2" stroke-miterlimit="10" stroke-linecap="round" stroke-linejoin="round"/>
<path d="M7.5 17H5.5V18H7.5V17Z" stroke="#2B2B2F" stroke-width="2" stroke-miterlimit="10" stroke-linecap="round" stroke-linejoin="round"/>
<path d="M13.5 17H11.5V18H13.5V17Z" stroke="#2B2B2F" stroke-width="2" stroke-miterlimit="10" stroke-linecap="round" stroke-linejoin="round"/>
<path d="M19.5 12H17.5V13H19.5V12Z" stroke="#2B2B2F" stroke-width="2" stroke-miterlimit="10" stroke-linecap="round" stroke-linejoin="round"/>
<path d="M7.5 12H5.5V13H7.5V12Z" fill="#2B2B2F"/>
<path d="M13.5 12H11.5V13H13.5V12Z" fill="#2B2B2F"/>
<path d="M7.5 17H5.5V18H7.5V17Z" fill="#2B2B2F"/>
<path d="M13.5 17H11.5V18H13.5V17Z" fill="#2B2B2F"/>
<path d="M19.5 12H17.5V13H19.5V12Z" fill="#2B2B2F"/>
<path d="M21.5 3H3.5C2.39543 3 1.5 3.89543 1.5 5V20C1.5 21.1046 2.39543 22 3.5 22H21.5C22.6046 22 23.5 21.1046 23.5 20V5C23.5 3.89543 22.6046 3 21.5 3Z" stroke="#2B2B2F" stroke-width="2" stroke-miterlimit="10" stroke-linecap="round" stroke-linejoin="round"/>
<path d="M6.5 1V4" stroke="#2B2B2F" stroke-width="2" stroke-miterlimit="10" stroke-linecap="round" stroke-linejoin="round"/>
<path d="M18.5 1V4" stroke="#2B2B2F" stroke-width="2" stroke-miterlimit="10" stroke-linecap="round" stroke-linejoin="round"/>
<path d="M1.5 8H23.5" stroke="#2B2B2F" stroke-width="2" stroke-miterlimit="10" stroke-linecap="round" stroke-linejoin="round"/>
</g>
<defs>
<clipPath id="clip0">
<path d="M0.5 0H24.5V24H0.5V0Z" fill="white"/>
</clipPath>
</defs>
</svg>
