<svg width="96" height="96" viewBox="0 0 96 96" fill="none" xmlns="http://www.w3.org/2000/svg">
<path d="M29 62V34C29 32.6739 29.5268 31.4021 30.4645 30.4645C31.4021 29.5268 32.6739 29 34 29H74C75.3261 29 76.5979 29.5268 77.5355 30.4645C78.4732 31.4021 79 32.6739 79 34V62" fill="#000001" fill-opacity="0.1"/>
<path d="M62 68V72H46V68H24C24 73 27 77 32 77H76C81 77 84 73 84 68H62Z" fill="#000001" fill-opacity="0.1"/>
<path d="M23 57V29C23 27.6739 23.5268 26.4021 24.4645 25.4645C25.4021 24.5268 26.6739 24 28 24H68C69.3261 24 70.5979 24.5268 71.5355 25.4645C72.4732 26.4021 73 27.6739 73 29V57" stroke="white" stroke-width="2" stroke-miterlimit="10" stroke-linecap="round" stroke-linejoin="round"/>
<path d="M56 63V67H40V63H18C18 68 21 72 26 72H70C75 72 78 68 78 63H56Z" stroke="white" stroke-width="2" stroke-miterlimit="10" stroke-linecap="round" stroke-linejoin="round"/>
<path d="M49 47V51L42 49V44.667" stroke="#FF4C4C" stroke-width="2" stroke-miterlimit="10" stroke-linecap="round" stroke-linejoin="round"/>
<path d="M55 49L40 44V38L55 33V49Z" stroke="#FF4C4C" stroke-width="2" stroke-miterlimit="10" stroke-linecap="round" stroke-linejoin="round"/>
<path d="M60 41H62" stroke="#FF4C4C" stroke-width="2" stroke-miterlimit="10" stroke-linecap="round" stroke-linejoin="round"/>
<path d="M58.7998 36.5L60.4998 35.5" stroke="#FF4C4C" stroke-width="2" stroke-miterlimit="10" stroke-linecap="round" stroke-linejoin="round"/>
<path d="M58.7998 45.5L60.4998 46.5" stroke="#FF4C4C" stroke-width="2" stroke-miterlimit="10" stroke-linecap="round" stroke-linejoin="round"/>
</svg>
