<svg width="96" height="96" viewBox="0 0 96 96" fill="none" xmlns="http://www.w3.org/2000/svg">
<path d="M35.5927 32.058H72.6251" stroke="white" stroke-width="2" stroke-miterlimit="10" stroke-linecap="round" stroke-linejoin="round"/>
<path d="M72.6251 58.9565V20H35.5927V64.5217" stroke="white" stroke-width="2" stroke-miterlimit="10" stroke-linecap="round" stroke-linejoin="round"/>
<path d="M27.7963 71.942C32.1021 71.942 35.5927 68.6198 35.5927 64.5217C35.5927 60.4236 32.1021 57.1014 27.7963 57.1014C23.4905 57.1014 20 60.4236 20 64.5217C20 68.6198 23.4905 71.942 27.7963 71.942Z" stroke="white" stroke-width="2" stroke-miterlimit="10" stroke-linecap="round" stroke-linejoin="round"/>
<path d="M64.8289 66.3768C69.1347 66.3768 72.6253 63.0547 72.6253 58.9565C72.6253 54.8584 69.1347 51.5363 64.8289 51.5363C60.5231 51.5363 57.0326 54.8584 57.0326 58.9565C57.0326 63.0547 60.5231 66.3768 64.8289 66.3768Z" stroke="white" stroke-width="2" stroke-miterlimit="10" stroke-linecap="round" stroke-linejoin="round"/>
</svg>
