<svg width="96" height="96" viewBox="0 0 96 96" fill="none" xmlns="http://www.w3.org/2000/svg">
<path d="M20.5084 40.0339V74.7458H51.9661" stroke="white" stroke-width="2" stroke-miterlimit="10" stroke-linecap="round" stroke-linejoin="round"/>
<path d="M74.7458 31.3559C74.7458 37.2136 71.2746 40.0339 67.1525 40.0339C63.0305 40.0339 59.5593 37.6475 59.5593 33.5254C59.5593 37.6475 55.8712 40.0339 51.7492 40.0339C47.6271 40.0339 44.3729 37.6475 44.3729 33.5254C44.3729 37.6475 41.1186 40.0339 36.9966 40.0339C32.8746 40.0339 29.1864 37.6475 29.1864 33.5254C29.1864 37.6475 25.7153 40.0339 21.5932 40.0339C17.4712 40.0339 14 37.2136 14 31.3559L27.0169 14H61.7288L74.7458 31.3559Z" stroke="white" stroke-width="2" stroke-miterlimit="10" stroke-linecap="round" stroke-linejoin="round"/>
<path d="M76.9153 58.5494C76.9153 65.9929 64.9831 78 64.9831 78C64.9831 78 53.0509 65.9929 53.0509 58.5494C53.0509 50.8651 59.2556 46.5424 64.9831 46.5424C70.7106 46.5424 76.9153 50.8651 76.9153 58.5494Z" stroke="white" stroke-width="2" stroke-miterlimit="10" stroke-linecap="round" stroke-linejoin="round"/>
<path d="M64.983 61.7288C66.7803 61.7288 68.2372 60.2718 68.2372 58.4746C68.2372 56.6773 66.7803 55.2203 64.983 55.2203C63.1857 55.2203 61.7288 56.6773 61.7288 58.4746C61.7288 60.2718 63.1857 61.7288 64.983 61.7288Z" stroke="white" stroke-width="2" stroke-miterlimit="10" stroke-linecap="round" stroke-linejoin="round"/>
</svg>
