<svg width="96" height="96" viewBox="0 0 96 96" fill="none" xmlns="http://www.w3.org/2000/svg">
<path d="M44 22H48" stroke="white" stroke-width="2" stroke-miterlimit="10" stroke-linecap="round" stroke-linejoin="round"/>
<path d="M62 75H30C28.6739 75 27.4021 74.4732 26.4645 73.5355C25.5268 72.5979 25 71.3261 25 70V20C25 18.6739 25.5268 17.4021 26.4645 16.4645C27.4021 15.5268 28.6739 15 30 15H62C63.3261 15 64.5979 15.5268 65.5355 16.4645C66.4732 17.4021 67 18.6739 67 20V70C67 71.3261 66.4732 72.5979 65.5355 73.5355C64.5979 74.4732 63.3261 75 62 75Z" stroke="white" stroke-width="2" stroke-miterlimit="10" stroke-linecap="round" stroke-linejoin="round"/>
<path d="M46 68C48.2091 68 50 66.2091 50 64C50 61.7909 48.2091 60 46 60C43.7909 60 42 61.7909 42 64C42 66.2091 43.7909 68 46 68Z" stroke="white" stroke-width="2" stroke-miterlimit="10" stroke-linecap="round" stroke-linejoin="round"/>
<path d="M42 37L38 41L42 45" stroke="white" stroke-width="2" stroke-miterlimit="10" stroke-linecap="round" stroke-linejoin="round"/>
<path d="M50 37L54 41L50 45" stroke="white" stroke-width="2" stroke-miterlimit="10" stroke-linecap="round" stroke-linejoin="round"/>
</svg>
