<svg width="96" height="96" viewBox="0 0 96 96" fill="none" xmlns="http://www.w3.org/2000/svg">
<path d="M60.071 39.9289C58.1956 38.0535 55.6521 37 53 37C50.3478 37 47.8043 38.0535 45.929 39.9289" stroke="#000001" stroke-opacity="0.1" stroke-width="2" stroke-miterlimit="10" stroke-linecap="round" stroke-linejoin="round"/>
<path d="M67.142 32.858C63.3913 29.1073 58.3043 27.0002 53 27.0002C47.6958 27.0002 42.6087 29.1073 38.858 32.858" stroke="#000001" stroke-opacity="0.1" stroke-width="2" stroke-miterlimit="10" stroke-linecap="round" stroke-linejoin="round"/>
<path d="M25 39C29.2435 39 33.3131 40.6857 36.3137 43.6863C39.3143 46.6869 41 50.7565 41 55V57L45 66L41 68V71C41 72.5913 40.3679 74.1174 39.2426 75.2426C38.1174 76.3679 36.5913 77 35 77H29V83" stroke="#000001" stroke-opacity="0.1" stroke-width="2" stroke-miterlimit="10" stroke-linecap="round" stroke-linejoin="round"/>
<path d="M81 39C76.7565 39 72.6869 40.6857 69.6863 43.6863C66.6857 46.6869 65 50.7565 65 55V57L61 66L65 68V71C65 72.5913 65.6321 74.1174 66.7574 75.2426C67.8826 76.3679 69.4087 77 71 77H77V83" stroke="#000001" stroke-opacity="0.1" stroke-width="2" stroke-miterlimit="10" stroke-linecap="round" stroke-linejoin="round"/>
<path d="M53 49C53.5523 49 54 48.5523 54 48C54 47.4477 53.5523 47 53 47C52.4477 47 52 47.4477 52 48C52 48.5523 52.4477 49 53 49Z" stroke="#000001" stroke-opacity="0.1" stroke-width="2" stroke-miterlimit="10" stroke-linecap="round" stroke-linejoin="round"/>
<path d="M55.071 35.9289C53.1956 34.0535 50.6521 33 48 33C45.3478 33 42.8043 34.0535 40.929 35.9289" stroke="#FF4C4C" stroke-width="2" stroke-miterlimit="10" stroke-linecap="round" stroke-linejoin="round"/>
<path d="M62.142 28.858C58.3913 25.1073 53.3043 23.0002 48 23.0002C42.6958 23.0002 37.6087 25.1073 33.858 28.858" stroke="#FF4C4C" stroke-width="2" stroke-miterlimit="10" stroke-linecap="round" stroke-linejoin="round"/>
<path d="M20 35C24.2435 35 28.3131 36.6857 31.3137 39.6863C34.3143 42.6869 36 46.7565 36 51V53L40 62L36 64V67C36 68.5913 35.3679 70.1174 34.2426 71.2426C33.1174 72.3679 31.5913 73 30 73H24V79" stroke="white" stroke-width="2" stroke-miterlimit="10" stroke-linecap="round" stroke-linejoin="round"/>
<path d="M76 35C71.7565 35 67.6869 36.6857 64.6863 39.6863C61.6857 42.6869 60 46.7565 60 51V53L56 62L60 64V67C60 68.5913 60.6321 70.1174 61.7574 71.2426C62.8826 72.3679 64.4087 73 66 73H72V79" stroke="white" stroke-width="2" stroke-miterlimit="10" stroke-linecap="round" stroke-linejoin="round"/>
<path d="M48 45C48.5523 45 49 44.5523 49 44C49 43.4477 48.5523 43 48 43C47.4477 43 47 43.4477 47 44C47 44.5523 47.4477 45 48 45Z" stroke="#FF4C4C" stroke-width="2" stroke-miterlimit="10" stroke-linecap="round" stroke-linejoin="round"/>
</svg>
