<svg width="96" height="96" viewBox="0 0 96 96" fill="none" xmlns="http://www.w3.org/2000/svg">
<path d="M35 79.1868C29.8015 75.7479 25.8494 70.7256 23.7292 64.8643C21.6091 59.003 21.4338 52.6146 23.2294 46.6459C25.0249 40.6771 28.6958 35.4457 33.6978 31.7269C38.6999 28.0082 44.767 26 51 26C57.233 26 63.3001 28.0082 68.3022 31.7269C73.3042 35.4457 76.9751 40.6771 78.7706 46.6459C80.5662 52.6146 80.3909 59.003 78.2708 64.8643C76.1506 70.7256 72.1985 75.7479 67 79.1868" fill="#000001" fill-opacity="0.1"/>
<path d="M41 69.9657C37.7891 67.8203 35.3533 64.6992 34.0523 61.0633C32.7513 57.4274 32.6541 53.4694 33.775 49.7741C34.896 46.0787 37.1756 42.8417 40.2773 40.5413C43.3791 38.2409 47.1383 36.999 51 36.999C54.8617 36.999 58.6209 38.2409 61.7227 40.5413C64.8244 42.8417 67.104 46.0787 68.225 49.7741C69.3459 53.4694 69.2487 57.4274 67.9477 61.0633C66.6467 64.6992 64.2109 67.8203 61 69.9657" fill="#000001" fill-opacity="0.1"/>
<path d="M51 61.9968C54.866 61.9968 58 58.8628 58 54.9968C58 51.1308 54.866 47.9968 51 47.9968C47.134 47.9968 44 51.1308 44 54.9968C44 58.8628 47.134 61.9968 51 61.9968Z" fill="#000001" fill-opacity="0.1"/>
<path d="M32 74.1868C26.8015 70.7479 22.8494 65.7256 20.7292 59.8643C18.6091 54.003 18.4338 47.6146 20.2294 41.6459C22.0249 35.6771 25.6958 30.4457 30.6978 26.7269C35.6999 23.0082 41.767 21 48 21C54.233 21 60.3001 23.0082 65.3022 26.7269C70.3042 30.4457 73.9751 35.6771 75.7706 41.6459C77.5662 47.6146 77.3909 54.003 75.2708 59.8643C73.1506 65.7256 69.1985 70.7479 64 74.1868" stroke="#5D5D63" stroke-width="2" stroke-miterlimit="10" stroke-linecap="round" stroke-linejoin="round"/>
<path d="M38 64.9657C34.7891 62.8203 32.3533 59.6992 31.0523 56.0633C29.7513 52.4274 29.6541 48.4694 30.775 44.7741C31.896 41.0787 34.1756 37.8417 37.2773 35.5413C40.3791 33.2409 44.1383 31.999 48 31.999C51.8617 31.999 55.6209 33.2409 58.7227 35.5413C61.8244 37.8417 64.104 41.0787 65.225 44.7741C66.3459 48.4694 66.2487 52.4274 64.9477 56.0633C63.6467 59.6992 61.2109 62.8203 58 64.9657" stroke="#FF4C4C" stroke-width="2" stroke-miterlimit="10" stroke-linecap="round" stroke-linejoin="round"/>
<path d="M48 56.9968C51.866 56.9968 55 53.8628 55 49.9968C55 46.1308 51.866 42.9968 48 42.9968C44.134 42.9968 41 46.1308 41 49.9968C41 53.8628 44.134 56.9968 48 56.9968Z" stroke="#5D5D63" stroke-width="2" stroke-miterlimit="10" stroke-linecap="round" stroke-linejoin="round"/>
</svg>
