<svg width="96" height="96" viewBox="0 0 96 96" fill="none" xmlns="http://www.w3.org/2000/svg">
<path d="M45.9082 33.8621C51.393 33.8621 55.8392 29.4158 55.8392 23.931C55.8392 18.4463 51.393 14 45.9082 14C40.4234 14 35.9772 18.4463 35.9772 23.931C35.9772 29.4158 40.4234 33.8621 45.9082 33.8621Z" stroke="white" stroke-width="2" stroke-miterlimit="10" stroke-linecap="round" stroke-linejoin="round"/>
<path d="M61.3565 68.3713V74.6897L45.9082 78L30.46 74.6897V68.3713" stroke="white" stroke-width="2" stroke-miterlimit="10" stroke-linecap="round" stroke-linejoin="round"/>
<path d="M30.46 62.0111V50.4138L45.9082 53.7242L61.3565 50.4138V62.0111" stroke="white" stroke-width="2" stroke-miterlimit="10" stroke-linecap="round" stroke-linejoin="round"/>
<path d="M45.9082 78V53.7241" stroke="white" stroke-width="2" stroke-miterlimit="10" stroke-linecap="round" stroke-linejoin="round"/>
<path d="M67.8989 64.0391L55.8713 60.4077C55.6781 60.3753 55.4832 60.3543 55.2876 60.3448C54.6285 60.3431 53.9907 60.5781 53.4903 61.007C52.9899 61.4359 52.6601 62.0302 52.5609 62.6817C52.4617 63.3333 52.5998 63.9988 52.95 64.5572C53.3001 65.1155 53.8391 65.5296 54.4688 65.7241L72.7397 72.3878C72.9868 72.4487 73.24 72.4805 73.4945 72.4827C74.0536 72.4828 74.6037 72.3413 75.0933 72.0713C75.583 71.8013 75.9963 71.4117 76.2946 70.9388C76.593 70.4659 76.7667 69.9251 76.7996 69.367C76.8325 68.8088 76.7234 68.2514 76.4826 67.7467L65.0343 42.6102C64.5956 41.6467 63.889 40.8298 62.9988 40.2569C62.1085 39.684 61.0723 39.3794 60.0136 39.3793H31.8029C30.7442 39.3794 29.708 39.684 28.8178 40.2569C27.9275 40.8298 27.2209 41.6467 26.7822 42.6102L15.3339 67.7467C15.0593 68.309 14.9506 68.9379 15.0207 69.5597C15.0907 70.1815 15.3366 70.7705 15.7294 71.2576C16.1222 71.7447 16.6457 72.1097 17.2386 72.3099C17.8315 72.5101 18.4691 72.5371 19.0768 72.3878L37.3477 65.7241C37.9774 65.5296 38.5164 65.1155 38.8666 64.5572C39.2167 63.9988 39.3548 63.3333 39.2556 62.6817C39.1564 62.0302 38.8266 61.4359 38.3262 61.007C37.8258 60.5781 37.188 60.3431 36.529 60.3448C36.3333 60.3543 36.1384 60.3753 35.9452 60.4077L23.9176 64.0391" stroke="white" stroke-width="2" stroke-miterlimit="10" stroke-linecap="round" stroke-linejoin="round"/>
</svg>
