<svg width="96" height="96" viewBox="0 0 96 96" fill="none" xmlns="http://www.w3.org/2000/svg">
<path d="M57.6207 31.2414L27.8275 18L20.1034 25.7241L45.4827 43.3793" fill="#000001" fill-opacity="0.1"/>
<path d="M32.3561 59.6056L21.3823 58.7614C19.3398 58.6048 18.2033 61.0732 19.6521 62.522L26.6149 69.4848" fill="#000001" fill-opacity="0.1"/>
<path d="M69.7587 43.3793L83.0001 73.1724L75.2759 80.8965L57.6207 55.5172" fill="#000001" fill-opacity="0.1"/>
<path d="M41.3944 68.6439L42.2386 79.6177C42.3953 81.6602 39.9268 82.7968 38.478 81.3479L31.5153 74.3852" fill="#000001" fill-opacity="0.1"/>
<path d="M48.7931 64.3449L26.4704 77.317C25.6704 77.7738 24.664 77.6392 24.0119 76.9882C23.3608 76.3372 23.2251 75.3297 23.6831 74.5297L36.6552 52.2069L65.2996 23.5625C68.6122 20.2499 77.4376 19.1487 79.6445 21.3556C81.8514 23.5625 80.7512 32.3868 77.4376 35.7004L48.7931 64.3449Z" fill="#000001" fill-opacity="0.1"/>
<path d="M52.6207 27.2414L22.8275 14L15.1034 21.7241L40.4827 39.3793" stroke="#FF4C4C" stroke-width="2" stroke-miterlimit="10" stroke-linecap="round" stroke-linejoin="round"/>
<path d="M27.3561 55.6055L16.3823 54.7614C14.3398 54.6047 13.2033 57.0731 14.6521 58.5219L21.6149 65.4847" stroke="#FF4C4C" stroke-width="2" stroke-miterlimit="10" stroke-linecap="round" stroke-linejoin="round"/>
<path d="M64.7587 39.3793L78.0001 69.1724L70.2759 76.8965L52.6207 51.5172" stroke="#FF4C4C" stroke-width="2" stroke-miterlimit="10" stroke-linecap="round" stroke-linejoin="round"/>
<path d="M36.3944 64.6439L37.2386 75.6177C37.3953 77.6602 34.9268 78.7968 33.478 77.3479L26.5153 70.3852" stroke="#FF4C4C" stroke-width="2" stroke-miterlimit="10" stroke-linecap="round" stroke-linejoin="round"/>
<path d="M43.7931 60.3449L21.4704 73.317C20.6704 73.7738 19.664 73.6392 19.0119 72.9882C18.3608 72.3372 18.2251 71.3297 18.6831 70.5297L31.6552 48.2069L60.2996 19.5625C63.6122 16.2499 72.4376 15.1487 74.6445 17.3556C76.8514 19.5625 75.7512 28.3868 72.4376 31.7004L43.7931 60.3449Z" stroke="white" stroke-width="2" stroke-miterlimit="10" stroke-linecap="round" stroke-linejoin="round"/>
</svg>
