<svg width="96" height="96" viewBox="0 0 96 96" fill="none" xmlns="http://www.w3.org/2000/svg">
<path d="M44.3793 64.3449H20.1034V77.5862C36.6551 77.5862 35.5517 63.2414 35.5517 54.4138" stroke="#000001" stroke-opacity="0.1" stroke-width="2" stroke-miterlimit="10" stroke-linecap="round" stroke-linejoin="round"/>
<path d="M63.6897 73.1724C65.8227 73.1724 67.5518 71.4433 67.5518 69.3103C67.5518 67.1773 65.8227 65.4482 63.6897 65.4482C61.5567 65.4482 59.8276 67.1773 59.8276 69.3103C59.8276 71.4433 61.5567 73.1724 63.6897 73.1724Z" fill="#000001" fill-opacity="0.1" stroke="#FF4C4C" stroke-width="2" stroke-miterlimit="10" stroke-linecap="round" stroke-linejoin="round"/>
<path d="M63.6897 82C67.0552 82 70.2828 80.6631 72.6626 78.2833C75.0424 75.9035 76.3793 72.6758 76.3793 69.3103V66.5517C76.3793 60.7332 83 58.7647 83 53.3103V46.6897C83 29.7363 67.6908 18 51 18C34.3092 18 19 31.4378 19 47.7931H44.3793C46.1352 47.7931 47.8192 48.4906 49.0608 49.7323C50.3025 50.9739 51 52.6579 51 54.4138V69.3103C51 72.6758 52.3369 75.9035 54.7167 78.2833C57.0965 80.6631 60.3242 82 63.6897 82Z" fill="#000001" fill-opacity="0.1"/>
<path d="M39.3793 60.3449H15.1034V73.5862C31.6551 73.5862 30.5517 59.2414 30.5517 50.4138" stroke="#FF4C4C" stroke-width="2" stroke-miterlimit="10" stroke-linecap="round" stroke-linejoin="round"/>
<path d="M58.6897 69.1724C60.8227 69.1724 62.5518 67.4433 62.5518 65.3103C62.5518 63.1773 60.8227 61.4482 58.6897 61.4482C56.5567 61.4482 54.8276 63.1773 54.8276 65.3103C54.8276 67.4433 56.5567 69.1724 58.6897 69.1724Z" stroke="#FF4C4C" stroke-width="2" stroke-miterlimit="10" stroke-linecap="round" stroke-linejoin="round"/>
<path d="M58.6897 78C62.0552 78 65.2828 76.6631 67.6626 74.2833C70.0424 71.9035 71.3793 68.6759 71.3793 65.3103V62.5517C71.3793 56.7332 78 54.7647 78 49.3103V42.6897C78 25.7363 62.6908 14 46 14C29.3092 14 14 27.4378 14 43.7931H39.3793C41.1352 43.7931 42.8192 44.4906 44.0608 45.7323C45.3025 46.9739 46 48.6579 46 50.4138V65.3103C46 68.6759 47.3369 71.9035 49.7167 74.2833C52.0965 76.6631 55.3241 78 58.6897 78V78Z" stroke="white" stroke-width="2" stroke-miterlimit="10" stroke-linecap="round" stroke-linejoin="round"/>
</svg>
