<svg width="96" height="96" viewBox="0 0 96 96" fill="none" xmlns="http://www.w3.org/2000/svg">
<path d="M25.2667 54.2667H29.3617" stroke="white" stroke-width="2" stroke-miterlimit="10" stroke-linecap="round" stroke-linejoin="round"/>
<path d="M21 54.2667L36 54" stroke="white" stroke-width="2" stroke-miterlimit="10" stroke-linecap="round" stroke-linejoin="round"/>
<path d="M66.3771 54.2667H70.4667" stroke="white" stroke-width="2" stroke-miterlimit="10" stroke-linecap="round" stroke-linejoin="round"/>
<path d="M35.5739 54.2667H42.3333" stroke="white" stroke-width="2" stroke-miterlimit="10" stroke-linecap="round" stroke-linejoin="round"/>
<path d="M66.1595 54.2667H59.4" stroke="white" stroke-width="2" stroke-miterlimit="10" stroke-linecap="round" stroke-linejoin="round"/>
<path d="M42.3334 54.2667H59.4" stroke="white" stroke-width="2" stroke-miterlimit="10" stroke-linecap="round" stroke-linejoin="round"/>
<path d="M20.2667 50.2667H24.3617" stroke="white" stroke-width="2" stroke-miterlimit="10" stroke-linecap="round" stroke-linejoin="round"/>
<path d="M16 50.2667H20.2667" stroke="white" stroke-width="2" stroke-miterlimit="10" stroke-linecap="round" stroke-linejoin="round"/>
<path d="M20.2667 41.7333V58.7999" stroke="white" stroke-width="2" stroke-miterlimit="10" stroke-linecap="round" stroke-linejoin="round"/>
<path d="M71.4667 41.7333V58.7999" stroke="white" stroke-width="2" stroke-miterlimit="10" stroke-linecap="round" stroke-linejoin="round"/>
<path d="M71.4667 50.2667H75.7333" stroke="white" stroke-width="2" stroke-miterlimit="10" stroke-linecap="round" stroke-linejoin="round"/>
<path d="M67.3771 50.2667H71.4667" stroke="white" stroke-width="2" stroke-miterlimit="10" stroke-linecap="round" stroke-linejoin="round"/>
<path d="M45.8667 26.8C49.4013 26.8 52.2667 23.9346 52.2667 20.4C52.2667 16.8654 49.4013 14 45.8667 14C42.3321 14 39.4667 16.8654 39.4667 20.4C39.4667 23.9346 42.3321 26.8 45.8667 26.8Z" stroke="white" stroke-width="2" stroke-miterlimit="10" stroke-linecap="round" stroke-linejoin="round"/>
<path d="M30.5739 50.2667H37.3333" stroke="white" stroke-width="2" stroke-miterlimit="10" stroke-linecap="round" stroke-linejoin="round"/>
<path d="M61.1595 50.2667H54.4" stroke="white" stroke-width="2" stroke-miterlimit="10" stroke-linecap="round" stroke-linejoin="round"/>
<path d="M43.7131 55.953L41.5797 75.153C41.4929 75.9356 41.1205 76.6587 40.5338 77.184C39.9472 77.7092 39.1874 77.9998 38.4 77.9999C38.2806 78.0001 38.1613 77.9933 38.0427 77.9797C37.1994 77.8858 36.428 77.461 35.8979 76.7985C35.3678 76.136 35.1226 75.2901 35.216 74.4469L37.2875 55.8346" stroke="white" stroke-width="2" stroke-miterlimit="10" stroke-linecap="round" stroke-linejoin="round"/>
<path d="M48.0203 55.953L50.1536 75.153C50.2405 75.9356 50.6129 76.6587 51.1995 77.184C51.7862 77.7092 52.5459 77.9998 53.3333 77.9999C53.4527 78.0001 53.572 77.9933 53.6907 77.9797C54.5339 77.8858 55.3054 77.461 55.8354 76.7985C56.3655 76.136 56.6108 75.2901 56.5173 74.4469L54.4459 55.8346" stroke="white" stroke-width="2" stroke-miterlimit="10" stroke-linecap="round" stroke-linejoin="round"/>
<path d="M54.4 50.2666V41.7333H54.9899L62.4246 52.0117C62.835 52.5781 63.4466 52.9658 64.134 53.0953C64.8213 53.2249 65.5322 53.0864 66.1206 52.7082C66.7308 52.3154 67.1601 51.6963 67.3141 50.987C67.4681 50.2778 67.3342 49.5364 66.9419 48.9258L57.0912 33.6032C56.8016 33.1525 56.4034 32.7817 55.9332 32.5249C55.463 32.2681 54.9358 32.1334 54.4 32.1333H37.3334C36.7976 32.1334 36.2704 32.2681 35.8002 32.5249C35.33 32.7817 34.9318 33.1525 34.6422 33.6032L24.7915 48.9258C24.3992 49.5364 24.2653 50.2778 24.4193 50.987C24.5733 51.6963 25.0026 52.3154 25.6128 52.7082C26.2012 53.0864 26.9121 53.2249 27.5994 53.0953C28.2867 52.9658 28.8984 52.5781 29.3088 52.0117L36.7435 41.7333H37.3334V50.2666" stroke="white" stroke-width="2" stroke-miterlimit="10" stroke-linecap="round" stroke-linejoin="round"/>
<path d="M37.3334 50.2667H54.4" stroke="white" stroke-width="2" stroke-miterlimit="10" stroke-linecap="round" stroke-linejoin="round"/>
</svg>
