<svg width="24" height="24" viewBox="0 0 24 24" fill="none" xmlns="http://www.w3.org/2000/svg">
<path d="M20.9998 17.4232C20.5078 18.5132 20.2728 18.9992 19.6388 19.9632C18.7558 21.3082 17.5098 22.9832 15.9658 22.9972C14.5938 23.0102 14.2418 22.1052 12.3798 22.1152C10.5188 22.1252 10.1298 23.0132 8.75777 23.0002C7.21377 22.9862 6.03477 21.4742 5.14977 20.1282C2.67977 16.3662 2.42177 11.9522 3.94577 9.60616C5.02877 7.93816 6.73777 6.96316 8.34477 6.96316C9.98077 6.96316 11.0088 7.86016 12.3618 7.86016C13.6738 7.86016 14.4738 6.96216 16.3648 6.96216C17.7948 6.96216 19.3088 7.74016 20.3888 9.08516C16.8528 11.0232 17.4268 16.0722 20.9998 17.4232Z" stroke="#2B2B2F" stroke-width="2" stroke-miterlimit="10" stroke-linecap="round" stroke-linejoin="round"/>
<path d="M15.0997 3.45008C15.7497 2.61608 16.2427 1.43908 16.0637 0.236084C15.0017 0.309084 13.7617 0.984084 13.0367 1.86408C12.3787 2.66308 11.8357 3.84708 12.0467 4.99908C13.2047 5.03508 14.4037 4.34308 15.0997 3.45008Z" fill="#2B2B2F"/>
</svg>
