<svg width="96" height="96" viewBox="0 0 96 96" fill="none" xmlns="http://www.w3.org/2000/svg">
<rect x="21" y="28" width="59" height="41" fill="#000001" fill-opacity="0.1"/>
<path d="M76 53H56C55.4 53 55 52.6 55 52V24C55 23.4 55.4 23 56 23H76C76.6 23 77 23.4 77 24V52C77 52.6 76.6 53 76 53Z" fill="#000001" fill-opacity="0.1"/>
<path d="M42 75H30C29.4 75 29 74.6 29 74V52C29 51.4 29.4 51 30 51H42C42.6 51 43 51.4 43 52V74C43 74.6 42.6 75 42 75Z" fill="#000001" fill-opacity="0.1"/>
<path d="M57 77H49V81H57V77Z" fill="#000001" fill-opacity="0.1"/>
<path d="M23 65H17V25H49" stroke="white" stroke-width="2" stroke-miterlimit="10" stroke-linecap="round" stroke-linejoin="round"/>
<path d="M71 25H77V65H37" stroke="white" stroke-width="2" stroke-miterlimit="10" stroke-linecap="round" stroke-linejoin="round"/>
<path d="M37 77H57" stroke="white" stroke-width="2" stroke-miterlimit="10" stroke-linecap="round" stroke-linejoin="round"/>
<path d="M70 49H50C49.4 49 49 48.6 49 48V20C49 19.4 49.4 19 50 19H70C70.6 19 71 19.4 71 20V48C71 48.6 70.6 49 70 49Z" stroke="#FF4C4C" stroke-width="2" stroke-miterlimit="10" stroke-linecap="round" stroke-linejoin="round"/>
<path d="M59 43H61" stroke="#FF4C4C" stroke-width="2" stroke-miterlimit="10" stroke-linecap="round" stroke-linejoin="round"/>
<path d="M36 71H24C23.4 71 23 70.6 23 70V48C23 47.4 23.4 47 24 47H36C36.6 47 37 47.4 37 48V70C37 70.6 36.6 71 36 71Z" stroke="#FF4C4C" stroke-width="2" stroke-miterlimit="10" stroke-linecap="round" stroke-linejoin="round"/>
<path d="M29 65H31" stroke="#FF4C4C" stroke-width="2" stroke-miterlimit="10" stroke-linecap="round" stroke-linejoin="round"/>
<path d="M51 73H43V77H51V73Z" stroke="white" stroke-width="2" stroke-miterlimit="10" stroke-linecap="round" stroke-linejoin="round"/>
</svg>
