<svg width="96" height="96" viewBox="0 0 96 96" fill="none" xmlns="http://www.w3.org/2000/svg">
<path d="M49.1 40.205C47.6273 39.8382 46.0746 39.9673 44.6826 40.5722C43.2906 41.1771 42.1368 42.2241 41.4 43.551C39.228 46.7145 36.0598 49.0601 32.4 50.214C28.9 51.285 23.257 53.034 21.653 57.752C20.049 62.47 21.215 68.11 27.053 73.945C32.891 79.78 38.53 80.945 43.246 79.345C47.962 77.745 49.717 72.1 50.786 68.6C51.94 64.9403 54.2856 61.772 57.449 59.6C58.7769 58.864 59.825 57.7106 60.4308 56.3185C61.0366 54.9264 61.1664 53.3734 60.8 51.9" fill="#000001" fill-opacity="0.1"/>
<path d="M46 59C48.2091 59 50 57.2091 50 55C50 52.7909 48.2091 51 46 51C43.7909 51 42 52.7909 42 55C42 57.2091 43.7909 59 46 59Z" fill="#000001" fill-opacity="0.1"/>
<path d="M55 50L67 38L71 37L79 29L72 22L64 30L63 34L51 46" fill="#000001" fill-opacity="0.1"/>
<path d="M65.5 23C66.3284 23 67 22.3284 67 21.5C67 20.6716 66.3284 20 65.5 20C64.6716 20 64 20.6716 64 21.5C64 22.3284 64.6716 23 65.5 23Z" fill="#000001" fill-opacity="0.1"/>
<path d="M61.5 27C62.3284 27 63 26.3284 63 25.5C63 24.6716 62.3284 24 61.5 24C60.6716 24 60 24.6716 60 25.5C60 26.3284 60.6716 27 61.5 27Z" fill="#000001" fill-opacity="0.1"/>
<path d="M79.5 37C80.3284 37 81 36.3284 81 35.5C81 34.6716 80.3284 34 79.5 34C78.6716 34 78 34.6716 78 35.5C78 36.3284 78.6716 37 79.5 37Z" fill="#000001" fill-opacity="0.1"/>
<path d="M75.5 41C76.3284 41 77 40.3284 77 39.5C77 38.6716 76.3284 38 75.5 38C74.6716 38 74 38.6716 74 39.5C74 40.3284 74.6716 41 75.5 41Z" fill="#000001" fill-opacity="0.1"/>
<path d="M44.1 36.205C42.6273 35.8382 41.0746 35.9673 39.6826 36.5722C38.2906 37.1771 37.1368 38.2241 36.4 39.551C34.228 42.7145 31.0598 45.0601 27.4 46.214C23.9 47.285 18.257 49.034 16.653 53.752C15.049 58.47 16.215 64.11 22.053 69.945C27.891 75.78 33.53 76.945 38.246 75.345C42.962 73.745 44.717 68.1 45.786 64.6C46.94 60.9403 49.2856 57.772 52.449 55.6C53.7769 54.864 54.825 53.7106 55.4308 52.3185C56.0366 50.9264 56.1664 49.3734 55.8 47.9" stroke="#522d80" stroke-width="2" stroke-miterlimit="10" stroke-linecap="round" stroke-linejoin="round"/>
<path d="M28 57L35 64" stroke="#FF4C4C" stroke-width="2" stroke-miterlimit="10" stroke-linecap="round" stroke-linejoin="round"/>
<path d="M41 55C43.2091 55 45 53.2091 45 51C45 48.7909 43.2091 47 41 47C38.7909 47 37 48.7909 37 51C37 53.2091 38.7909 55 41 55Z" stroke="#FF4C4C" stroke-width="2" stroke-miterlimit="10" stroke-linecap="round" stroke-linejoin="round"/>
<path d="M50 46L62 34L66 33L74 25L67 18L59 26L58 30L46 42" stroke="#522d80" stroke-width="2" stroke-miterlimit="10" stroke-linecap="round" stroke-linejoin="round"/>
<path d="M60.5 19C61.3284 19 62 18.3284 62 17.5C62 16.6716 61.3284 16 60.5 16C59.6716 16 59 16.6716 59 17.5C59 18.3284 59.6716 19 60.5 19Z" fill="#522d80"/>
<path d="M56.5 23C57.3284 23 58 22.3284 58 21.5C58 20.6716 57.3284 20 56.5 20C55.6716 20 55 20.6716 55 21.5C55 22.3284 55.6716 23 56.5 23Z" fill="#522d80"/>
<path d="M74.5 33C75.3284 33 76 32.3284 76 31.5C76 30.6716 75.3284 30 74.5 30C73.6716 30 73 30.6716 73 31.5C73 32.3284 73.6716 33 74.5 33Z" fill="#522d80"/>
<path d="M70.5 37C71.3284 37 72 36.3284 72 35.5C72 34.6716 71.3284 34 70.5 34C69.6716 34 69 34.6716 69 35.5C69 36.3284 69.6716 37 70.5 37Z" fill="#522d80"/>
</svg>
