<svg width="2060" height="480" viewBox="0 0 2060 480" fill="none" xmlns="http://www.w3.org/2000/svg">
<path d="M325.482 255.711C324.974 195.138 375.057 165.697 377.257 164.343C348.831 123.058 304.839 117.306 289.442 116.798C252.556 112.906 216.686 138.963 197.905 138.963C178.785 138.963 149.683 117.306 118.55 117.813C78.4496 118.49 40.718 141.67 20.2448 177.879C-22.2244 251.481 9.41603 359.769 50.1932 419.328C70.6664 448.43 94.3544 481.086 125.656 479.901C156.112 478.717 167.618 460.443 204.334 460.443C240.882 460.443 251.541 479.901 283.351 479.224C316.176 478.717 336.649 449.953 356.445 420.512C379.964 387.18 389.439 354.186 389.778 352.494C388.932 352.155 326.158 328.129 325.482 255.711" fill="black"/>
<path d="M265.416 77.7128C281.828 57.2396 292.995 29.3216 289.95 0.895996C266.262 1.9112 236.482 17.3084 219.393 37.4432C204.334 55.2092 190.798 84.1424 194.182 111.384C220.916 113.414 248.326 97.8476 265.416 77.7128" fill="black"/>
<path d="M773.823 365.462H731.185L707.835 292.029H626.619L604.454 365.462H563L643.37 115.553H693.115L773.823 365.462ZM700.898 261.234L679.748 196.092C677.548 189.324 673.318 173.758 667.227 149.055H666.381C663.843 159.714 659.952 175.45 654.537 196.092L633.726 261.234H700.898Z" fill="black"/>
<path d="M980.416 273.248C980.416 303.873 972.126 328.068 955.375 345.834C940.485 361.739 921.873 369.522 899.877 369.522C876.02 369.522 858.931 361.062 848.44 343.973V438.556H808.34V244.484C808.34 225.195 807.832 205.568 806.817 185.264H842.011L844.21 213.858H844.887C858.254 192.37 878.558 181.541 905.63 181.541C926.949 181.541 944.546 190.001 958.759 206.752C973.31 223.672 980.416 245.668 980.416 273.248V273.248ZM939.639 274.601C939.639 257.004 935.748 242.622 927.795 231.286C919.166 219.442 907.491 213.52 892.94 213.52C883.126 213.52 874.159 216.904 866.037 223.334C858.085 229.932 852.67 238.392 850.302 249.052C849.117 253.959 848.44 258.02 848.44 261.234V291.352C848.44 304.38 852.501 315.548 860.454 324.515C868.406 333.483 878.896 338.051 891.756 338.051C906.814 338.051 918.489 332.129 926.949 320.624C935.409 308.949 939.639 293.721 939.639 274.601V274.601Z" fill="black"/>
<path d="M1187.52 273.248C1187.52 303.873 1179.23 328.068 1162.48 345.834C1147.59 361.739 1128.97 369.522 1106.98 369.522C1083.12 369.522 1066.03 361.062 1055.54 343.973V438.556H1015.44V244.484C1015.44 225.195 1014.93 205.568 1013.92 185.264H1049.11L1051.31 213.858H1051.99C1065.35 192.37 1085.66 181.541 1112.73 181.541C1134.05 181.541 1151.65 190.001 1165.86 206.752C1180.41 223.672 1187.52 245.668 1187.52 273.248ZM1146.74 274.601C1146.74 257.004 1142.85 242.622 1134.9 231.286C1126.27 219.442 1114.59 213.52 1100.04 213.52C1090.23 213.52 1081.26 216.904 1073.14 223.334C1065.19 229.932 1059.94 238.392 1057.4 249.052C1056.22 253.959 1055.54 258.02 1055.54 261.234V291.352C1055.54 304.38 1059.6 315.548 1067.55 324.515C1075.51 333.483 1086 338.051 1098.86 338.051C1113.92 338.051 1125.76 332.129 1134.05 320.624C1142.68 308.949 1146.74 293.721 1146.74 274.601V274.601Z" fill="black"/>
<path d="M1419.32 295.413C1419.32 316.732 1411.88 333.99 1397.16 347.357C1380.91 361.908 1358.24 369.184 1329.14 369.184C1302.23 369.184 1280.75 363.939 1264.5 353.618L1273.81 320.285C1291.41 330.606 1310.69 335.852 1331.68 335.852C1346.73 335.852 1358.58 332.468 1366.87 325.7C1375.33 318.932 1379.56 309.795 1379.56 298.458C1379.56 288.306 1376.01 279.846 1369.24 272.909C1362.3 265.972 1350.8 259.542 1334.72 253.62C1290.56 237.208 1268.73 213.351 1268.73 182.049C1268.73 161.576 1276.52 144.825 1291.91 131.627C1307.31 118.599 1327.78 112 1353.33 112C1376.01 112 1394.96 115.892 1410.02 123.844L1399.86 156.33C1385.65 148.716 1369.75 144.825 1351.81 144.825C1337.77 144.825 1326.6 148.378 1318.65 155.146C1312.05 161.406 1308.66 168.851 1308.66 177.819C1308.66 187.632 1312.56 195.923 1320.17 202.184C1326.77 208.106 1338.95 214.535 1356.55 221.472C1378.04 230.102 1393.77 240.254 1403.92 251.928C1414.25 263.603 1419.32 278.154 1419.32 295.413" fill="black"/>
<path d="M1551.97 215.381H1507.81V302.858C1507.81 325.023 1515.6 336.19 1531.16 336.19C1538.27 336.19 1544.19 335.513 1548.93 334.329L1550.11 364.785C1542.16 367.661 1531.84 369.184 1518.98 369.184C1503.08 369.184 1490.89 364.277 1481.93 354.633C1472.96 344.988 1468.56 328.745 1468.56 306.072V215.212H1442.33V185.264H1468.56V152.27L1507.81 140.426V185.264H1551.97V215.381" fill="black"/>
<path d="M1750.61 273.924C1750.61 301.673 1742.66 324.346 1726.93 342.112C1710.35 360.386 1688.35 369.522 1660.94 369.522C1634.54 369.522 1613.39 360.724 1597.66 343.296C1581.92 325.869 1574.14 303.704 1574.14 276.97C1574.14 249.052 1582.26 226.21 1598.33 208.444C1614.58 190.678 1636.4 181.71 1663.82 181.71C1690.21 181.71 1711.53 190.509 1727.6 208.106C1743 225.026 1750.61 247.022 1750.61 273.924V273.924ZM1709.16 274.77C1709.16 258.189 1705.61 244.145 1698.5 232.301C1690.04 217.919 1678.03 210.813 1662.46 210.813C1646.39 210.813 1634.04 217.919 1625.75 232.301C1618.47 244.145 1615.09 258.527 1615.09 275.616C1615.09 292.198 1618.64 306.411 1625.75 318.086C1634.37 332.468 1646.56 339.574 1662.12 339.574C1677.35 339.574 1689.36 332.298 1698.16 317.747C1705.44 305.565 1709.16 291.352 1709.16 274.77V274.77Z" fill="black"/>
<path d="M1880.9 220.457C1877.01 219.78 1872.78 219.442 1868.21 219.442C1854.17 219.442 1843.17 224.687 1835.55 235.347C1828.95 244.653 1825.57 256.666 1825.57 270.879V365.462H1785.47V241.946C1785.47 221.134 1785.13 202.184 1784.29 185.264H1819.14L1820.66 219.78H1821.85C1826.08 207.936 1832.68 198.292 1841.81 191.186C1850.78 184.756 1860.43 181.541 1870.75 181.541C1874.47 181.541 1877.85 181.88 1880.73 182.218L1880.9 220.457" fill="black"/>
<path d="M2059.91 266.818C2059.91 273.924 2059.4 280.016 2058.39 284.922H1938.26C1938.77 302.688 1944.52 316.394 1955.69 325.7C1965.84 333.99 1978.87 338.22 1994.94 338.22C2012.71 338.22 2028.95 335.344 2043.5 329.76L2049.76 357.509C2032.67 364.954 2012.54 368.676 1989.36 368.676C1961.44 368.676 1939.44 360.386 1923.54 343.973C1907.63 327.561 1899.68 305.396 1899.68 277.816C1899.68 250.744 1907.12 228.071 1922.01 209.967C1937.58 190.678 1958.56 181.034 1984.96 181.034C2010.84 181.034 2030.64 190.678 2043.84 209.967C2054.5 225.533 2059.91 244.314 2059.91 266.818V266.818ZM2021.67 256.497C2022.01 244.653 2019.3 234.332 2013.89 225.702C2006.95 214.535 1996.29 208.952 1982.08 208.952C1969.05 208.952 1958.39 214.366 1950.27 225.195C1943.67 233.824 1939.61 244.314 1938.43 256.328L2021.67 256.497V256.497Z" fill="black"/>
</svg>
