<svg width="24" height="24" viewBox="0 0 24 24" fill="none" xmlns="http://www.w3.org/2000/svg">
<path d="M18 23H6C5.46957 23 4.96086 22.7893 4.58579 22.4142C4.21071 22.0391 4 21.5304 4 21V3C4 2.46957 4.21071 1.96086 4.58579 1.58579C4.96086 1.21071 5.46957 1 6 1H18C18.5304 1 19.0391 1.21071 19.4142 1.58579C19.7893 1.96086 20 2.46957 20 3V21C20 21.5304 19.7893 22.0391 19.4142 22.4142C19.0391 22.7893 18.5304 23 18 23Z" stroke="#2B2B2F" stroke-width="2" stroke-miterlimit="10" stroke-linecap="round" stroke-linejoin="round"/>
<path d="M12 5V19" stroke="#2B2B2F" stroke-width="2" stroke-miterlimit="10" stroke-linecap="round" stroke-linejoin="round"/>
<path d="M15.375 7.21876C13.754 6.32776 8.648 5.66276 8.648 8.73176C8.648 12.4058 15.132 11.1088 15.132 14.3508C15.132 17.5928 10.918 17.3488 8 16.2998" stroke="#2B2B2F" stroke-width="2" stroke-miterlimit="10" stroke-linecap="round" stroke-linejoin="round"/>
</svg>
