<svg width="24" height="24" viewBox="0 0 24 24" fill="none" xmlns="http://www.w3.org/2000/svg">
<path d="M23 1H11V11L16 7H23V1Z" stroke="#522D80" stroke-width="2" stroke-miterlimit="10" stroke-linecap="round" stroke-linejoin="round"/>
<path d="M10 21.836C10 21.232 9.735 20.657 9.262 20.282C8.539 19.708 7.285 19 5.5 19C3.715 19 2.461 19.708 1.738 20.282C1.265 20.657 1 21.232 1 21.836V23H10V21.836Z" stroke="#522D80" stroke-width="2" stroke-miterlimit="10" stroke-linecap="round" stroke-linejoin="round"/>
<path d="M5.5 16C6.88071 16 8 14.8807 8 13.5C8 12.1193 6.88071 11 5.5 11C4.11929 11 3 12.1193 3 13.5C3 14.8807 4.11929 16 5.5 16Z" stroke="#522D80" stroke-width="2" stroke-miterlimit="10" stroke-linecap="round" stroke-linejoin="round"/>
<path d="M23 21.836C23 21.232 22.735 20.657 22.262 20.282C21.539 19.708 20.285 19 18.5 19C16.715 19 15.461 19.708 14.738 20.282C14.265 20.657 14 21.232 14 21.836V23H23V21.836Z" stroke="#522D80" stroke-width="2" stroke-miterlimit="10" stroke-linecap="round" stroke-linejoin="round"/>
<path d="M18.5 16C19.8807 16 21 14.8807 21 13.5C21 12.1193 19.8807 11 18.5 11C17.1193 11 16 12.1193 16 13.5C16 14.8807 17.1193 16 18.5 16Z" stroke="#522D80" stroke-width="2" stroke-miterlimit="10" stroke-linecap="round" stroke-linejoin="round"/>
</svg>
