<svg width="24" height="24" viewBox="0 0 24 24" fill="none" xmlns="http://www.w3.org/2000/svg">
<path d="M12 13C13.1046 13 14 12.1046 14 11C14 9.89543 13.1046 9 12 9C10.8954 9 10 9.89543 10 11C10 12.1046 10.8954 13 12 13Z" stroke="#522D80" stroke-width="2" stroke-miterlimit="10" stroke-linecap="round" stroke-linejoin="round"/>
<path d="M19 20.485C20.7474 19.0434 22.0071 17.0976 22.6071 14.9132C23.2071 12.7289 23.1181 10.4126 22.3523 8.2807C21.5864 6.14883 20.181 4.3054 18.3282 3.00222C16.4753 1.69905 14.2653 0.999695 12 0.999695C9.73474 0.999695 7.52472 1.69905 5.67185 3.00222C3.81898 4.3054 2.41362 6.14883 1.64775 8.2807C0.88189 10.4126 0.792875 12.7289 1.39287 14.9132C1.99286 17.0976 3.25261 19.0434 5 20.485" stroke="#522D80" stroke-width="2" stroke-miterlimit="10" stroke-linecap="round" stroke-linejoin="round"/>
<path d="M11 16H13C13.5304 16 14.0391 16.2107 14.4142 16.5858C14.7893 16.9609 15 17.4696 15 18V23H9V18C9 17.4696 9.21071 16.9609 9.58579 16.5858C9.96086 16.2107 10.4696 16 11 16Z" stroke="#522D80" stroke-width="2" stroke-miterlimit="10" stroke-linecap="round" stroke-linejoin="round"/>
<path d="M18.26 15.1179C18.794 14.0507 19.0464 12.8647 18.993 11.6725C18.9396 10.4803 18.5824 9.32155 17.9551 8.3063C17.3279 7.29105 16.4515 6.45301 15.4092 5.87179C14.367 5.29057 13.1934 4.98547 12 4.98547C10.8066 4.98547 9.63305 5.29057 8.59077 5.87179C7.54848 6.45301 6.6721 7.29105 6.04486 8.3063C5.41762 9.32155 5.06036 10.4803 5.007 11.6725C4.95364 12.8647 5.20597 14.0507 5.74 15.1179" stroke="#522D80" stroke-width="2" stroke-miterlimit="10" stroke-linecap="round" stroke-linejoin="round"/>
</svg>
