<svg width="24" height="24" viewBox="0 0 24 24" fill="none" xmlns="http://www.w3.org/2000/svg">
<path d="M23 12C23 14.1756 22.3549 16.3023 21.1462 18.1113C19.9375 19.9202 18.2195 21.3301 16.2095 22.1627C14.1995 22.9952 11.9878 23.2131 9.85401 22.7886C7.72022 22.3642 5.76021 21.3166 4.22183 19.7782C2.68345 18.2398 1.6358 16.2798 1.21137 14.146C0.786929 12.0122 1.00477 9.80047 1.83733 7.79048C2.66989 5.78049 4.07979 4.06253 5.88873 2.85383C7.69767 1.64514 9.82441 1 12 1" stroke="#2B2B2F" stroke-width="2" stroke-miterlimit="10" stroke-linecap="round" stroke-linejoin="round"/>
<path d="M6 12C6 10.8133 6.35189 9.65328 7.01118 8.66658C7.67047 7.67989 8.60754 6.91085 9.7039 6.45673C10.8003 6.0026 12.0067 5.88378 13.1705 6.11529C14.3344 6.3468 15.4035 6.91825 16.2426 7.75736C17.0818 8.59648 17.6532 9.66558 17.8847 10.8295C18.1162 11.9933 17.9974 13.1997 17.5433 14.2961C17.0892 15.3925 16.3201 16.3295 15.3334 16.9888C14.3467 17.6481 13.1867 18 12 18" stroke="#2B2B2F" stroke-width="2" stroke-miterlimit="10" stroke-linecap="round" stroke-linejoin="round"/>
<path d="M12 14C13.1046 14 14 13.1046 14 12C14 10.8954 13.1046 10 12 10C10.8954 10 10 10.8954 10 12C10 13.1046 10.8954 14 12 14Z" fill="#2B2B2F"/>
<path d="M16 1.75098C17.4162 2.30564 18.7024 3.14707 19.7779 4.22243C20.8535 5.2978 21.6951 6.58389 22.25 7.99998" stroke="#2B2B2F" stroke-width="2" stroke-miterlimit="10" stroke-linecap="round" stroke-linejoin="round"/>
</svg>
