<svg width="397" height="362" viewBox="0 0 397 362" fill="none" xmlns="http://www.w3.org/2000/svg">
<mask id="mask0" mask-type="alpha" maskUnits="userSpaceOnUse" x="103" y="104" width="216" height="258">
<path d="M188.212 104.795L185.372 110.228C184.018 112.818 183.172 115.642 182.877 118.55L181.622 130.941L110.581 201.258C103.23 208.533 101.308 219.672 105.793 228.99L155.902 333.091C143.722 336.716 135.574 340.613 131.457 344.782C127.34 348.951 126.135 354.526 127.843 361.506L178.221 361.575L183.323 345.632L185.054 337.061C185.332 335.68 186.678 334.787 188.059 335.066C188.896 335.235 189.592 335.811 189.915 336.602L200.116 361.575H209.894L201.816 324.163C199.298 317.739 197.172 312.85 195.439 309.496C193.706 306.142 191.301 302.264 188.225 297.863L146.762 218.305L206.28 141.994L261.334 337.342C249.621 339.427 242.181 342.261 239.015 345.845C235.849 349.429 235.212 354.814 237.102 362H297.046L295.735 337.368C295.698 336.665 296.238 336.065 296.941 336.027C297.479 335.999 297.977 336.311 298.185 336.808L308.737 362H318.09C312.604 342.713 309.061 330.384 307.461 325.013C304.942 316.556 295.345 303.757 297.046 309.496C297.046 309.496 290.067 283.412 277.277 249.553C273.138 238.594 265.957 225.672 261.393 214.062C253.446 193.845 243.807 169.324 232.477 140.5C230.435 135.307 231.256 125.835 227.537 116.374C226.477 113.679 223.501 109.961 218.609 105.221L188.212 104.795Z" fill="white"/>
</mask>
<g mask="url(#mask0)">
<path d="M188.212 104.795L185.372 110.228C184.018 112.818 183.172 115.642 182.877 118.55L181.622 130.941L110.581 201.258C103.23 208.533 101.308 219.672 105.793 228.99L155.902 333.091C143.722 336.716 135.574 340.613 131.457 344.782C127.34 348.951 126.135 354.526 127.843 361.506L178.221 361.575L183.323 345.632L185.054 337.061C185.332 335.68 186.678 334.787 188.059 335.066C188.896 335.235 189.592 335.811 189.915 336.602L200.116 361.575H209.894L201.816 324.163C199.298 317.739 197.172 312.85 195.439 309.496C193.706 306.142 191.301 302.264 188.225 297.863L146.762 218.305L206.28 141.994L261.334 337.342C249.621 339.427 242.181 342.261 239.015 345.845C235.849 349.429 235.212 354.814 237.102 362H297.046L295.735 337.368C295.698 336.665 296.238 336.065 296.941 336.027C297.479 335.999 297.977 336.311 298.185 336.808L308.737 362H318.09C312.604 342.713 309.061 330.384 307.461 325.013C304.942 316.556 295.345 303.757 297.046 309.496C297.046 309.496 290.067 283.412 277.277 249.553C273.138 238.594 265.957 225.672 261.393 214.062C253.446 193.845 243.807 169.324 232.477 140.5C230.435 135.307 231.256 125.835 227.537 116.374C226.477 113.679 223.501 109.961 218.609 105.221L188.212 104.795Z" fill="#FF4C4C"/>
<path fill-rule="evenodd" clip-rule="evenodd" d="M142.3 309.284L197.354 295.467L222.437 364.976H122.531L142.3 309.284Z" fill="#3D1570"/>
<path fill-rule="evenodd" clip-rule="evenodd" d="M246.883 303.757L301.3 308.859L330.421 376.88H230.516L246.883 303.757Z" fill="#3D1570"/>
</g>
<mask id="mask1" mask-type="alpha" maskUnits="userSpaceOnUse" x="58" y="29" width="266" height="160">
<path d="M176.952 50.8038L88.0997 29.3347L58.7656 117.337L98.3028 119.888L112.97 68.6594L181.629 78.2248L186.305 104.82H218.615L222.016 71.6353L287.486 178.768L318.096 188.121L323.622 178.768L299.815 110.535L233.282 48.2531C220.521 51.5348 211.31 53.0308 205.648 52.7413C191.477 52.0165 181.912 51.3707 176.952 50.8038Z" fill="white"/>
</mask>
<g mask="url(#mask1)">
<path d="M176.952 50.8038L88.0997 29.3347L58.7656 117.337L98.3028 119.888L112.97 68.6594L181.629 78.2248L186.305 104.82H218.615L222.016 71.6353L287.486 178.768L318.096 188.121L323.622 178.768L299.815 110.535L233.282 48.2531C220.521 51.5348 211.31 53.0308 205.648 52.7413C191.477 52.0165 181.912 51.3707 176.952 50.8038Z" fill="#8BD3A8"/>
<path d="M223.94 81.9414C223.707 81.9711 223.494 81.8063 223.465 81.5734C223.435 81.3405 223.6 81.1276 223.833 81.098L226.606 80.745C226.839 80.7153 227.052 80.8801 227.082 81.113C227.111 81.3459 226.947 81.5588 226.714 81.5884L223.94 81.9414ZM223.994 77.5033C223.761 77.5329 223.549 77.3681 223.519 77.1352C223.489 76.9023 223.654 76.6894 223.887 76.6598L226.66 76.3068C226.893 76.2771 227.106 76.4419 227.136 76.6748C227.166 76.9077 227.001 77.1206 226.768 77.1502L223.994 77.5033ZM235.443 80.4122C235.21 80.4418 234.997 80.277 234.967 80.0441C234.938 79.8112 235.102 79.5983 235.335 79.5687L238.109 79.2157C238.342 79.186 238.555 79.3508 238.584 79.5837C238.614 79.8167 238.449 80.0295 238.216 80.0591L235.443 80.4122ZM235.497 75.974C235.264 76.0036 235.051 75.8389 235.022 75.6059C234.992 75.373 235.157 75.1602 235.39 75.1305L238.163 74.7775C238.396 74.7479 238.609 74.9127 238.638 75.1456C238.668 75.3785 238.503 75.5913 238.27 75.621L235.497 75.974ZM229.578 81.4344C229.348 81.4817 229.123 81.3335 229.076 81.1035C229.028 80.8735 229.177 80.6488 229.407 80.6015L232.121 80.0442C232.351 79.997 232.576 80.1451 232.623 80.3751C232.671 80.6051 232.522 80.8299 232.292 80.8771L229.578 81.4344ZM229.632 76.9963C229.402 77.0435 229.177 76.8953 229.13 76.6653C229.083 76.4353 229.231 76.2106 229.461 76.1634L232.176 75.606C232.406 75.5588 232.63 75.707 232.678 75.937C232.725 76.167 232.577 76.3917 232.347 76.4389L229.632 76.9963ZM241.08 79.9052C240.85 79.9524 240.625 79.8042 240.578 79.5742C240.531 79.3442 240.679 79.1195 240.909 79.0723L243.624 78.5149C243.854 78.4677 244.079 78.6159 244.126 78.8459C244.173 79.0759 244.025 79.3006 243.795 79.3478L241.08 79.9052ZM241.134 75.467C240.904 75.5142 240.68 75.366 240.632 75.136C240.585 74.9061 240.733 74.6813 240.963 74.6341L243.678 74.0768C243.908 74.0295 244.133 74.1777 244.18 74.4077C244.227 74.6377 244.079 74.8624 243.849 74.9096L241.134 75.467ZM246.945 78.8829C246.712 78.9125 246.5 78.7478 246.47 78.5148C246.44 78.2819 246.605 78.0691 246.838 78.0394L249.612 77.6864C249.844 77.6568 250.057 77.8216 250.087 78.0545C250.117 78.2874 249.952 78.5002 249.719 78.5299L246.945 78.8829ZM247 74.4447C246.767 74.4744 246.554 74.3096 246.524 74.0767C246.494 73.8438 246.659 73.6309 246.892 73.6013L249.666 73.2482C249.899 73.2186 250.111 73.3834 250.141 73.6163C250.171 73.8492 250.006 74.0621 249.773 74.0917L247 74.4447ZM252.583 78.3759C252.353 78.4231 252.128 78.2749 252.081 78.045C252.034 77.815 252.182 77.5902 252.412 77.543L255.127 76.9857C255.357 76.9384 255.581 77.0866 255.629 77.3166C255.676 77.5466 255.528 77.7713 255.298 77.8185L252.583 78.3759ZM252.637 73.9377C252.407 73.9849 252.182 73.8368 252.135 73.6068C252.088 73.3768 252.236 73.1521 252.466 73.1048L255.181 72.5475C255.411 72.5003 255.636 72.6484 255.683 72.8784C255.73 73.1084 255.582 73.3332 255.352 73.3804L252.637 73.9377ZM224.048 73.0651C223.816 73.0947 223.603 72.93 223.573 72.697C223.543 72.4641 223.708 72.2513 223.941 72.2216L226.715 71.8686C226.948 71.839 227.16 72.0037 227.19 72.2367C227.22 72.4696 227.055 72.6824 226.822 72.7121L224.048 73.0651ZM235.551 71.5358C235.318 71.5655 235.105 71.4007 235.076 71.1678C235.046 70.9349 235.211 70.722 235.444 70.6924L238.217 70.3393C238.45 70.3097 238.663 70.4745 238.693 70.7074C238.722 70.9403 238.557 71.1532 238.325 71.1828L235.551 71.5358ZM229.686 72.5581C229.456 72.6053 229.231 72.4571 229.184 72.2271C229.137 71.9971 229.285 71.7724 229.515 71.7252L232.23 71.1678C232.46 71.1206 232.684 71.2688 232.732 71.4988C232.779 71.7288 232.631 71.9535 232.401 72.0007L229.686 72.5581ZM241.188 71.0288C240.958 71.076 240.734 70.9279 240.687 70.6979C240.639 70.4679 240.787 70.2432 241.017 70.1959L243.732 69.6386C243.962 69.5914 244.187 69.7395 244.234 69.9695C244.282 70.1995 244.133 70.4243 243.903 70.4715L241.188 71.0288ZM247.054 70.0066C246.821 70.0362 246.608 69.8714 246.578 69.6385C246.549 69.4056 246.713 69.1927 246.946 69.1631L249.72 68.8101C249.953 68.7804 250.166 68.9452 250.195 69.1781C250.225 69.411 250.06 69.6239 249.827 69.6535L247.054 70.0066ZM252.691 69.4996C252.461 69.5468 252.236 69.3986 252.189 69.1686C252.142 68.9386 252.29 68.7139 252.52 68.6667L255.235 68.1093C255.465 68.0621 255.69 68.2103 255.737 68.4403C255.784 68.6703 255.636 68.895 255.406 68.9422L252.691 69.4996ZM224.103 68.6269C223.87 68.6566 223.657 68.4918 223.627 68.2589C223.598 68.026 223.762 67.8131 223.995 67.7835L226.769 67.4304C227.002 67.4008 227.215 67.5656 227.244 67.7985C227.274 68.0314 227.109 68.2443 226.876 68.2739L224.103 68.6269ZM235.605 67.0977C235.372 67.1273 235.159 66.9625 235.13 66.7296C235.1 66.4967 235.265 66.2838 235.498 66.2542L238.271 65.9012C238.504 65.8715 238.717 66.0363 238.747 66.2692C238.776 66.5021 238.612 66.715 238.379 66.7446L235.605 67.0977ZM229.74 68.1199C229.51 68.1671 229.285 68.019 229.238 67.789C229.191 67.559 229.339 67.3342 229.569 67.287L232.284 66.7297C232.514 66.6825 232.739 66.8306 232.786 67.0606C232.833 67.2906 232.685 67.5154 232.455 67.5626L229.74 68.1199ZM241.243 66.5907C241.013 66.6379 240.788 66.4897 240.741 66.2597C240.693 66.0297 240.842 65.805 241.072 65.7578L243.787 65.2004C244.017 65.1532 244.241 65.3014 244.288 65.5314C244.336 65.7614 244.188 65.9861 243.958 66.0333L241.243 66.5907ZM247.108 65.5684C246.875 65.598 246.662 65.4333 246.632 65.2003C246.603 64.9674 246.768 64.7546 247.001 64.7249L249.774 64.3719C250.007 64.3423 250.22 64.507 250.249 64.74C250.279 64.9729 250.114 65.1857 249.881 65.2154L247.108 65.5684ZM252.745 65.0614C252.515 65.1086 252.291 64.9604 252.243 64.7304C252.196 64.5004 252.344 64.2757 252.574 64.2285L255.289 63.6712C255.519 63.6239 255.744 63.7721 255.791 64.0021C255.838 64.2321 255.69 64.4568 255.46 64.504L252.745 65.0614ZM224.157 64.1887C223.924 64.2184 223.711 64.0536 223.681 63.8207C223.652 63.5878 223.817 63.3749 224.049 63.3453L226.823 62.9923C227.056 62.9626 227.269 63.1274 227.298 63.3603C227.328 63.5932 227.163 63.8061 226.93 63.8357L224.157 64.1887ZM235.659 62.6595C235.427 62.6891 235.214 62.5244 235.184 62.2914C235.154 62.0585 235.319 61.8457 235.552 61.816L238.326 61.463C238.558 61.4334 238.771 61.5981 238.801 61.831C238.831 62.064 238.666 62.2768 238.433 62.3065L235.659 62.6595ZM229.794 63.6818C229.564 63.729 229.339 63.5808 229.292 63.3508C229.245 63.1208 229.393 62.8961 229.623 62.8489L232.338 62.2915C232.568 62.2443 232.793 62.3925 232.84 62.6225C232.887 62.8525 232.739 63.0772 232.509 63.1244L229.794 63.6818ZM241.297 62.1525C241.067 62.1997 240.842 62.0515 240.795 61.8215C240.748 61.5915 240.896 61.3668 241.126 61.3196L243.841 60.7622C244.071 60.715 244.295 60.8632 244.343 61.0932C244.39 61.3232 244.242 61.5479 244.012 61.5951L241.297 62.1525ZM247.162 61.1302C246.929 61.1599 246.716 60.9951 246.687 60.7622C246.657 60.5293 246.822 60.3164 247.055 60.2868L249.828 59.9337C250.061 59.9041 250.274 60.0689 250.304 60.3018C250.333 60.5347 250.168 60.7475 249.936 60.7772L247.162 61.1302ZM252.799 60.6232C252.569 60.6704 252.345 60.5223 252.297 60.2923C252.25 60.0623 252.398 59.8375 252.628 59.7903L255.343 59.233C255.573 59.1858 255.798 59.3339 255.845 59.5639C255.892 59.7939 255.744 60.0187 255.514 60.0659L252.799 60.6232ZM224.211 59.7506C223.978 59.7802 223.765 59.6154 223.736 59.3825C223.706 59.1496 223.871 58.9368 224.104 58.9071L226.877 58.5541C227.11 58.5245 227.323 58.6892 227.353 58.9221C227.382 59.1551 227.217 59.3679 226.984 59.3976L224.211 59.7506ZM235.714 58.2213C235.481 58.251 235.268 58.0862 235.238 57.8533C235.209 57.6204 235.373 57.4075 235.606 57.3779L238.38 57.0248C238.613 56.9952 238.825 57.16 238.855 57.3929C238.885 57.6258 238.72 57.8386 238.487 57.8683L235.714 58.2213ZM229.848 59.2436C229.618 59.2908 229.394 59.1426 229.346 58.9126C229.299 58.6826 229.447 58.4579 229.677 58.4107L232.392 57.8533C232.622 57.8061 232.847 57.9543 232.894 58.1843C232.941 58.4143 232.793 58.639 232.563 58.6862L229.848 59.2436ZM241.351 57.7143C241.121 57.7615 240.896 57.6134 240.849 57.3834C240.802 57.1534 240.95 56.9286 241.18 56.8814L243.895 56.3241C244.125 56.2769 244.35 56.425 244.397 56.655C244.444 56.885 244.296 57.1097 244.066 57.157L241.351 57.7143ZM247.216 56.692C246.983 56.7217 246.77 56.5569 246.741 56.324C246.711 56.0911 246.876 55.8782 247.109 55.8486L249.882 55.4956C250.115 55.4659 250.328 55.6307 250.358 55.8636C250.387 56.0965 250.223 56.3094 249.99 56.339L247.216 56.692ZM252.854 56.1851C252.624 56.2323 252.399 56.0841 252.352 55.8541C252.304 55.6241 252.453 55.3994 252.683 55.3522L255.398 54.7948C255.627 54.7476 255.852 54.8958 255.899 55.1258C255.947 55.3558 255.798 55.5805 255.568 55.6277L252.854 56.1851ZM235.768 53.7831C235.535 53.8128 235.322 53.648 235.292 53.4151C235.263 53.1822 235.427 52.9693 235.66 52.9397L238.434 52.5867C238.667 52.557 238.88 52.7218 238.909 52.9547C238.939 53.1876 238.774 53.4005 238.541 53.4301L235.768 53.7831ZM229.903 54.8054C229.673 54.8526 229.448 54.7045 229.401 54.4745C229.353 54.2445 229.502 54.0198 229.732 53.9725L232.446 53.4152C232.676 53.368 232.901 53.5161 232.948 53.7461C232.996 53.9761 232.847 54.2008 232.617 54.2481L229.903 54.8054ZM241.405 53.2761C241.175 53.3234 240.95 53.1752 240.903 52.9452C240.856 52.7152 241.004 52.4905 241.234 52.4433L243.949 51.8859C244.179 51.8387 244.404 51.9869 244.451 52.2169C244.498 52.4469 244.35 52.6716 244.12 52.7188L241.405 53.2761ZM225.652 55.1359L225.545 54.2924L225.652 55.1359ZM225.652 55.1359L224.265 55.3124C223.703 55.384 223.595 54.5405 224.158 54.469L225.545 54.2924L226.931 54.1159C227.494 54.0444 227.601 54.8878 227.039 54.9594L225.652 55.1359ZM248.657 52.0774L248.55 51.2339L248.657 52.0774ZM248.55 51.2339C249.112 51.1623 249.219 52.0058 248.657 52.0774L247.27 52.2539C246.708 52.3255 246.601 51.482 247.163 51.4104L248.55 51.2339L249.937 51.0574C250.499 50.9858 250.606 51.8293 250.044 51.9009L248.657 52.0774C248.095 52.1489 247.987 51.3055 248.55 51.2339ZM252.908 51.7469C252.678 51.7941 252.453 51.6459 252.406 51.4159C252.359 51.1859 252.507 50.9612 252.737 50.914L255.452 50.3566C255.682 50.3094 255.906 50.4576 255.954 50.6876C256.001 50.9176 255.853 51.1423 255.623 51.1895L252.908 51.7469ZM187.439 58.016C187.43 57.7814 187.612 57.5837 187.847 57.5745C188.081 57.5653 188.279 57.748 188.288 57.9826L188.398 60.7763C188.408 61.0109 188.225 61.2086 187.99 61.2178C187.756 61.227 187.558 61.0443 187.549 60.8097L187.439 58.016ZM191.855 58.4568C191.846 58.2222 192.029 58.0245 192.263 58.0153C192.498 58.006 192.696 58.1888 192.705 58.4234L192.815 61.2171C192.824 61.4517 192.641 61.6493 192.407 61.6586C192.172 61.6678 191.975 61.4851 191.965 61.2505L191.855 58.4568ZM187.96 69.6082C187.95 69.3735 188.133 69.1759 188.368 69.1666C188.602 69.1574 188.8 69.3401 188.809 69.5747L188.919 72.3684C188.929 72.603 188.746 72.8007 188.511 72.8099C188.277 72.8192 188.079 72.6365 188.07 72.4018L187.96 69.6082ZM192.376 70.0489C192.367 69.8143 192.55 69.6166 192.784 69.6074C193.019 69.5982 193.217 69.7809 193.226 70.0155L193.336 72.8092C193.345 73.0438 193.162 73.2415 192.928 73.2507C192.693 73.2599 192.495 73.0772 192.486 72.8426L192.376 70.0489ZM187.453 63.6761C187.426 63.4429 187.593 63.2319 187.826 63.205C188.059 63.178 188.27 63.3452 188.297 63.5784L188.616 66.3315C188.643 66.5648 188.476 66.7757 188.242 66.8027C188.009 66.8297 187.798 66.6625 187.771 66.4293L187.453 63.6761ZM191.869 64.1169C191.842 63.8837 192.009 63.6727 192.243 63.6457C192.476 63.6187 192.687 63.7859 192.714 64.0192L193.032 66.7723C193.059 67.0055 192.892 67.2165 192.659 67.2435C192.426 67.2705 192.215 67.1033 192.188 66.8701L191.869 64.1169ZM187.973 75.2683C187.946 75.035 188.114 74.8241 188.347 74.7971C188.58 74.7701 188.791 74.9373 188.818 75.1705L189.137 77.9237C189.164 78.1569 188.996 78.3679 188.763 78.3948C188.53 78.4218 188.319 78.2546 188.292 78.0214L187.973 75.2683ZM192.39 75.709C192.363 75.4758 192.53 75.2648 192.763 75.2378C192.997 75.2109 193.208 75.3781 193.235 75.6113L193.553 78.3644C193.58 78.5977 193.413 78.8086 193.18 78.8356C192.947 78.8626 192.736 78.6954 192.709 78.4622L192.39 75.709ZM188.481 81.2003C188.471 80.9657 188.654 80.768 188.889 80.7588C189.123 80.7495 189.321 80.9322 189.33 81.1668L189.44 83.9605C189.449 84.1952 189.267 84.3928 189.032 84.4021C188.798 84.4113 188.6 84.2286 188.591 83.994L188.481 81.2003ZM192.897 81.641C192.888 81.4064 193.071 81.2088 193.305 81.1995C193.54 81.1903 193.738 81.373 193.747 81.6076L193.857 84.4013C193.866 84.6359 193.683 84.8336 193.449 84.8428C193.214 84.8521 193.016 84.6694 193.007 84.4348L192.897 81.641ZM188.494 86.8604C188.467 86.6272 188.635 86.4162 188.868 86.3892C189.101 86.3622 189.312 86.5294 189.339 86.7626L189.658 89.5158C189.685 89.749 189.517 89.96 189.284 89.987C189.051 90.014 188.84 89.8468 188.813 89.6135L188.494 86.8604ZM192.911 87.3012C192.884 87.0679 193.051 86.857 193.284 86.83C193.518 86.803 193.729 86.9702 193.756 87.2034L194.074 89.9566C194.101 90.1898 193.934 90.4007 193.701 90.4277C193.468 90.4547 193.257 90.2875 193.23 90.0543L192.911 87.3012ZM196.272 58.8976C196.263 58.663 196.445 58.4653 196.68 58.456C196.915 58.4468 197.112 58.6295 197.122 58.8641L197.231 61.6578C197.241 61.8924 197.058 62.0901 196.823 62.0993C196.589 62.1086 196.391 61.9259 196.382 61.6913L196.272 58.8976ZM196.793 70.4897C196.784 70.2551 196.966 70.0574 197.201 70.0482C197.436 70.0389 197.633 70.2216 197.642 70.4563L197.752 73.25C197.762 73.4846 197.579 73.6822 197.344 73.6915C197.11 73.7007 196.912 73.518 196.903 73.2834L196.793 70.4897ZM196.286 64.5577C196.259 64.3245 196.426 64.1135 196.659 64.0865C196.892 64.0595 197.103 64.2267 197.13 64.4599L197.449 67.2131C197.476 67.4463 197.309 67.6573 197.075 67.6843C196.842 67.7113 196.631 67.5441 196.604 67.3108L196.286 64.5577ZM196.807 76.1498C196.78 75.9166 196.947 75.7056 197.18 75.6786C197.413 75.6516 197.624 75.8188 197.651 76.0521L197.97 78.8052C197.997 79.0384 197.83 79.2494 197.596 79.2764C197.363 79.3034 197.152 79.1362 197.125 78.9029L196.807 76.1498ZM197.314 82.0818C197.305 81.8472 197.487 81.6495 197.722 81.6403C197.956 81.6311 198.154 81.8138 198.163 82.0484L198.273 84.8421C198.283 85.0767 198.1 85.2744 197.865 85.2836C197.631 85.2928 197.433 85.1101 197.424 84.8755L197.314 82.0818ZM197.328 87.7419C197.301 87.5087 197.468 87.2977 197.701 87.2708C197.934 87.2438 198.145 87.411 198.172 87.6442L198.491 90.3973C198.518 90.6306 198.351 90.8415 198.117 90.8685C197.884 90.8955 197.673 90.7283 197.646 90.4951L197.328 87.7419ZM200.688 59.3383C200.679 59.1037 200.862 58.9061 201.097 58.8968C201.331 58.8876 201.529 59.0703 201.538 59.3049L201.648 62.0986C201.657 62.3332 201.475 62.5309 201.24 62.5401C201.005 62.5494 200.808 62.3667 200.798 62.132L200.688 59.3383ZM201.209 70.9305C201.2 70.6959 201.383 70.4982 201.617 70.4889C201.852 70.4797 202.05 70.6624 202.059 70.897L202.169 73.6907C202.178 73.9253 201.995 74.123 201.761 74.1322C201.526 74.1415 201.329 73.9588 201.319 73.7242L201.209 70.9305ZM200.702 64.9985C200.675 64.7652 200.842 64.5543 201.076 64.5273C201.309 64.5003 201.52 64.6675 201.547 64.9007L201.865 67.6539C201.892 67.8871 201.725 68.098 201.492 68.125C201.259 68.152 201.048 67.9848 201.021 67.7516L200.702 64.9985ZM201.223 76.5906C201.196 76.3573 201.363 76.1464 201.597 76.1194C201.83 76.0924 202.041 76.2596 202.068 76.4928L202.386 79.246C202.413 79.4792 202.246 79.6902 202.013 79.7172C201.78 79.7442 201.569 79.577 201.542 79.3437L201.223 76.5906ZM201.73 82.5226C201.721 82.288 201.904 82.0903 202.138 82.0811C202.373 82.0718 202.571 82.2545 202.58 82.4891L202.69 85.2829C202.699 85.5175 202.516 85.7151 202.282 85.7244C202.047 85.7336 201.85 85.5509 201.84 85.3163L201.73 82.5226ZM201.744 88.1827C201.717 87.9495 201.884 87.7385 202.118 87.7115C202.351 87.6845 202.562 87.8517 202.589 88.085L202.907 90.8381C202.934 91.0713 202.767 91.2823 202.534 91.3093C202.301 91.3363 202.09 91.1691 202.063 90.9358L201.744 88.1827ZM205.105 59.7791C205.096 59.5445 205.279 59.3468 205.513 59.3376C205.748 59.3284 205.945 59.5111 205.955 59.7457L206.065 62.5394C206.074 62.774 205.891 62.9717 205.657 62.9809C205.422 62.9901 205.224 62.8074 205.215 62.5728L205.105 59.7791ZM205.626 71.3712C205.617 71.1366 205.799 70.9389 206.034 70.9297C206.269 70.9205 206.466 71.1032 206.476 71.3378L206.586 74.1315C206.595 74.3661 206.412 74.5638 206.177 74.573C205.943 74.5823 205.745 74.3995 205.736 74.1649L205.626 71.3712ZM205.119 65.4392C205.092 65.206 205.259 64.995 205.492 64.968C205.725 64.9411 205.936 65.1082 205.963 65.3415L206.282 68.0946C206.309 68.3279 206.142 68.5388 205.909 68.5658C205.675 68.5928 205.464 68.4256 205.437 68.1924L205.119 65.4392ZM205.64 77.0314C205.613 76.7981 205.78 76.5872 206.013 76.5602C206.246 76.5332 206.457 76.7004 206.484 76.9336L206.803 79.6867C206.83 79.92 206.663 80.1309 206.429 80.1579C206.196 80.1849 205.985 80.0177 205.958 79.7845L205.64 77.0314ZM206.147 82.9634C206.138 82.7287 206.32 82.5311 206.555 82.5218C206.79 82.5126 206.987 82.6953 206.997 82.9299L207.106 85.7236C207.116 85.9582 206.933 86.1559 206.698 86.1652C206.464 86.1744 206.266 85.9917 206.257 85.7571L206.147 82.9634ZM206.161 88.6235C206.134 88.3902 206.301 88.1793 206.534 88.1523C206.767 88.1253 206.978 88.2925 207.005 88.5257L207.324 91.2789C207.351 91.5121 207.184 91.7231 206.95 91.7501C206.717 91.7771 206.506 91.6099 206.479 91.3766L206.161 88.6235ZM209.522 60.2199C209.512 59.9853 209.695 59.7876 209.93 59.7784C210.164 59.7691 210.362 59.9518 210.371 60.1864L210.481 62.9802C210.49 63.2148 210.308 63.4124 210.073 63.4217C209.838 63.4309 209.641 63.2482 209.632 63.0136L209.522 60.2199ZM210.043 71.812C210.033 71.5774 210.216 71.3797 210.451 71.3705C210.685 71.3613 210.883 71.544 210.892 71.7786L211.002 74.5723C211.011 74.8069 210.829 75.0046 210.594 75.0138C210.359 75.023 210.162 74.8403 210.152 74.6057L210.043 71.812ZM209.535 65.88C209.508 65.6468 209.676 65.4358 209.909 65.4088C210.142 65.3818 210.353 65.549 210.38 65.7823L210.699 68.5354C210.726 68.7686 210.558 68.9796 210.325 69.0066C210.092 69.0336 209.881 68.8664 209.854 68.6331L209.535 65.88ZM210.056 77.4721C210.029 77.2389 210.196 77.0279 210.43 77.0009C210.663 76.9739 210.874 77.1411 210.901 77.3744L211.219 80.1275C211.246 80.3608 211.079 80.5717 210.846 80.5987C210.613 80.6257 210.402 80.4585 210.375 80.2253L210.056 77.4721ZM210.563 83.4041C210.554 83.1695 210.737 82.9718 210.972 82.9626C211.206 82.9534 211.404 83.1361 211.413 83.3707L211.523 86.1644C211.532 86.399 211.35 86.5967 211.115 86.6059C210.88 86.6152 210.683 86.4325 210.673 86.1978L210.563 83.4041ZM210.577 89.0643C210.55 88.831 210.717 88.6201 210.951 88.5931C211.184 88.5661 211.395 88.7333 211.422 88.9665L211.74 91.7196C211.767 91.9529 211.6 92.1638 211.367 92.1908C211.134 92.2178 210.923 92.0506 210.896 91.8174L210.577 89.0643ZM214.459 72.2528C214.45 72.0182 214.633 71.8205 214.867 71.8113C215.102 71.802 215.299 71.9847 215.309 72.2193L215.419 75.013C215.428 75.2477 215.245 75.4453 215.011 75.4546C214.776 75.4638 214.578 75.2811 214.569 75.0465L214.459 72.2528ZM213.952 66.3208C213.925 66.0875 214.092 65.8766 214.325 65.8496C214.559 65.8226 214.77 65.9898 214.797 66.223L215.115 68.9762C215.142 69.2094 214.975 69.4204 214.742 69.4474C214.508 69.4743 214.297 69.3072 214.27 69.0739L213.952 66.3208ZM214.473 77.9129C214.446 77.6797 214.613 77.4687 214.846 77.4417C215.079 77.4147 215.29 77.5819 215.317 77.8151L215.636 80.5683C215.663 80.8015 215.496 81.0125 215.263 81.0395C215.029 81.0665 214.818 80.8993 214.791 80.666L214.473 77.9129ZM213.993 62.0575L214.843 62.0241L213.993 62.0575ZM213.993 62.0575L213.938 60.6607C213.916 60.0943 214.765 60.0608 214.788 60.6272L214.843 62.0241L214.898 63.4209C214.92 63.9873 214.07 64.0208 214.048 63.4544L213.993 62.0575ZM215.035 85.2418L215.885 85.2083L215.035 85.2418ZM215.885 85.2083C215.907 85.7747 215.057 85.8082 215.035 85.2418L214.98 83.8449C214.958 83.2785 215.807 83.2451 215.83 83.8115L215.885 85.2083L215.94 86.6052C215.962 87.1716 215.112 87.205 215.09 86.6386L215.035 85.2418C215.013 84.6754 215.862 84.6419 215.885 85.2083ZM214.994 89.505C214.967 89.2718 215.134 89.0608 215.367 89.0338C215.6 89.0068 215.811 89.174 215.838 89.4073L216.157 92.1604C216.184 92.3937 216.017 92.6046 215.784 92.6316C215.55 92.6586 215.339 92.4914 215.312 92.2582L214.994 89.505ZM246.653 99.6869C246.521 99.4928 246.571 99.2284 246.765 99.0962C246.959 98.9641 247.224 99.0143 247.356 99.2083L248.93 101.519C249.062 101.713 249.012 101.978 248.818 102.11C248.624 102.242 248.359 102.192 248.227 101.998L246.653 99.6869ZM250.632 97.7203C250.5 97.5262 250.55 97.2617 250.744 97.1296C250.938 96.9974 251.203 97.0476 251.335 97.2417L252.909 99.5526C253.041 99.7467 252.991 100.011 252.797 100.143C252.603 100.275 252.338 100.225 252.206 100.031L250.632 97.7203ZM253.238 109.242C253.106 109.047 253.156 108.783 253.35 108.651C253.544 108.519 253.809 108.569 253.941 108.763L255.514 111.074C255.647 111.268 255.596 111.532 255.402 111.665C255.208 111.797 254.944 111.747 254.812 111.552L253.238 109.242ZM257.217 107.275C257.085 107.081 257.135 106.816 257.329 106.684C257.523 106.552 257.788 106.602 257.92 106.796L259.493 109.107C259.626 109.301 259.575 109.566 259.381 109.698C259.187 109.83 258.923 109.78 258.791 109.586L257.217 107.275ZM249.664 104.48C249.518 104.296 249.548 104.029 249.731 103.882C249.915 103.736 250.182 103.766 250.329 103.949L252.058 106.115C252.204 106.299 252.174 106.566 251.991 106.713C251.807 106.859 251.54 106.829 251.393 106.646L249.664 104.48ZM253.643 102.513C253.497 102.33 253.527 102.062 253.71 101.916C253.894 101.769 254.161 101.799 254.308 101.983L256.037 104.149C256.183 104.332 256.153 104.6 255.97 104.746C255.786 104.893 255.519 104.862 255.373 104.679L253.643 102.513ZM256.249 114.034C256.103 113.851 256.133 113.583 256.316 113.437C256.499 113.29 256.767 113.32 256.913 113.504L258.643 115.67C258.789 115.853 258.759 116.121 258.576 116.267C258.392 116.414 258.125 116.384 257.978 116.2L256.249 114.034ZM260.228 112.068C260.082 111.884 260.112 111.617 260.295 111.47C260.479 111.324 260.746 111.354 260.893 111.537L262.622 113.703C262.768 113.887 262.738 114.154 262.555 114.301C262.371 114.447 262.104 114.417 261.957 114.234L260.228 112.068ZM259.823 118.796C259.69 118.602 259.741 118.338 259.935 118.205C260.129 118.073 260.393 118.124 260.525 118.318L262.099 120.629C262.231 120.823 262.181 121.087 261.987 121.219C261.793 121.351 261.528 121.301 261.396 121.107L259.823 118.796ZM263.802 116.83C263.669 116.635 263.72 116.371 263.914 116.239C264.108 116.107 264.372 116.157 264.504 116.351L266.078 118.662C266.21 118.856 266.16 119.12 265.966 119.253C265.772 119.385 265.507 119.335 265.375 119.14L263.802 116.83ZM262.834 123.589C262.687 123.405 262.717 123.138 262.901 122.991C263.084 122.845 263.352 122.875 263.498 123.058L265.227 125.224C265.374 125.408 265.344 125.675 265.16 125.822C264.977 125.968 264.709 125.938 264.563 125.755L262.834 123.589ZM266.813 121.622C266.666 121.439 266.696 121.171 266.88 121.025C267.063 120.878 267.331 120.908 267.477 121.092L269.206 123.258C269.353 123.441 269.323 123.709 269.139 123.855C268.956 124.002 268.688 123.972 268.542 123.788L266.813 121.622ZM254.611 95.7537C254.479 95.5596 254.529 95.2951 254.723 95.163C254.918 95.0308 255.182 95.081 255.314 95.2751L256.888 97.586C257.02 97.7801 256.97 98.0445 256.776 98.1767C256.582 98.3088 256.317 98.2587 256.185 98.0646L254.611 95.7537ZM261.196 105.308C261.064 105.114 261.114 104.85 261.308 104.718C261.502 104.585 261.767 104.636 261.899 104.83L263.472 107.141C263.605 107.335 263.554 107.599 263.36 107.731C263.166 107.863 262.902 107.813 262.77 107.619L261.196 105.308ZM257.622 100.546C257.476 100.363 257.506 100.095 257.689 99.949C257.873 99.8025 258.14 99.8325 258.287 100.016L260.016 102.182C260.163 102.365 260.133 102.633 259.949 102.779C259.766 102.926 259.498 102.896 259.352 102.712L257.622 100.546ZM264.207 110.101C264.061 109.918 264.091 109.65 264.274 109.504C264.458 109.357 264.725 109.387 264.872 109.571L266.601 111.737C266.747 111.92 266.717 112.188 266.534 112.334C266.35 112.481 266.083 112.451 265.936 112.267L264.207 110.101ZM267.781 114.863C267.649 114.669 267.699 114.404 267.893 114.272C268.087 114.14 268.351 114.19 268.483 114.384L270.057 116.695C270.189 116.889 270.139 117.154 269.945 117.286C269.751 117.418 269.487 117.368 269.354 117.174L267.781 114.863ZM270.792 119.656C270.645 119.472 270.675 119.205 270.859 119.058C271.042 118.912 271.31 118.942 271.456 119.125L273.185 121.291C273.332 121.475 273.302 121.742 273.118 121.889C272.935 122.035 272.667 122.005 272.521 121.822L270.792 119.656ZM258.59 93.787C258.458 93.593 258.508 93.3285 258.702 93.1963C258.897 93.0642 259.161 93.1144 259.293 93.3084L260.867 95.6194C260.999 95.8134 260.949 96.0779 260.755 96.2101C260.561 96.3422 260.296 96.292 260.164 96.098L258.59 93.787ZM265.175 103.342C265.043 103.148 265.093 102.883 265.287 102.751C265.481 102.619 265.746 102.669 265.878 102.863L267.451 105.174C267.584 105.368 267.533 105.633 267.339 105.765C267.145 105.897 266.881 105.847 266.749 105.653L265.175 103.342ZM261.601 98.5798C261.455 98.3963 261.485 98.1288 261.668 97.9823C261.852 97.8358 262.119 97.8658 262.266 98.0493L263.995 100.215C264.142 100.399 264.112 100.666 263.928 100.813C263.745 100.959 263.477 100.929 263.331 100.746L261.601 98.5798ZM268.186 108.134C268.04 107.951 268.07 107.683 268.253 107.537C268.437 107.39 268.704 107.42 268.851 107.604L270.58 109.77C270.726 109.953 270.696 110.221 270.513 110.367C270.329 110.514 270.062 110.484 269.915 110.3L268.186 108.134ZM271.76 112.896C271.628 112.702 271.678 112.438 271.872 112.306C272.066 112.173 272.33 112.224 272.462 112.418L274.036 114.729C274.168 114.923 274.118 115.187 273.924 115.319C273.73 115.451 273.466 115.401 273.333 115.207L271.76 112.896ZM274.771 117.689C274.624 117.506 274.654 117.238 274.838 117.092C275.021 116.945 275.289 116.975 275.435 117.159L277.164 119.325C277.311 119.508 277.281 119.776 277.097 119.922C276.914 120.069 276.646 120.039 276.5 119.855L274.771 117.689ZM262.569 91.8204C262.437 91.6263 262.487 91.3619 262.682 91.2297C262.876 91.0976 263.14 91.1478 263.272 91.3418L264.846 93.6528C264.978 93.8468 264.928 94.1113 264.734 94.2434C264.54 94.3756 264.275 94.3254 264.143 94.1313L262.569 91.8204ZM269.154 101.375C269.022 101.181 269.072 100.917 269.266 100.784C269.46 100.652 269.725 100.702 269.857 100.896L271.431 103.207C271.563 103.401 271.512 103.666 271.318 103.798C271.124 103.93 270.86 103.88 270.728 103.686L269.154 101.375ZM265.58 96.6132C265.434 96.4297 265.464 96.1622 265.647 96.0157C265.831 95.8692 266.098 95.8992 266.245 96.0827L267.974 98.2487C268.121 98.4322 268.091 98.6997 267.907 98.8461C267.724 98.9926 267.456 98.9626 267.31 98.7791L265.58 96.6132ZM272.165 106.168C272.019 105.984 272.049 105.717 272.232 105.57C272.416 105.424 272.683 105.454 272.83 105.637L274.559 107.803C274.705 107.987 274.675 108.254 274.492 108.401C274.308 108.547 274.041 108.517 273.894 108.334L272.165 106.168ZM275.739 110.93C275.607 110.736 275.657 110.471 275.851 110.339C276.045 110.207 276.309 110.257 276.442 110.451L278.015 112.762C278.147 112.956 278.097 113.221 277.903 113.353C277.709 113.485 277.445 113.435 277.312 113.241L275.739 110.93ZM278.75 115.722C278.603 115.539 278.633 115.271 278.817 115.125C279 114.978 279.268 115.008 279.414 115.192L281.143 117.358C281.29 117.541 281.26 117.809 281.076 117.955C280.893 118.102 280.625 118.072 280.479 117.888L278.75 115.722ZM266.548 89.8538C266.416 89.6597 266.466 89.3953 266.661 89.2631C266.855 89.1309 267.119 89.1811 267.251 89.3752L268.825 91.6861C268.957 91.8802 268.907 92.1446 268.713 92.2768C268.519 92.409 268.254 92.3588 268.122 92.1647L266.548 89.8538ZM273.133 99.4084C273.001 99.2143 273.051 98.9499 273.245 98.8177C273.439 98.6856 273.704 98.7358 273.836 98.9298L275.41 101.241C275.542 101.435 275.492 101.699 275.297 101.831C275.103 101.964 274.839 101.913 274.707 101.719L273.133 99.4084ZM269.559 94.6466C269.413 94.4631 269.443 94.1956 269.626 94.0491C269.81 93.9026 270.077 93.9326 270.224 94.1161L271.953 96.282C272.1 96.4655 272.07 96.733 271.886 96.8795C271.703 97.026 271.435 96.996 271.289 96.8125L269.559 94.6466ZM276.144 104.201C275.998 104.018 276.028 103.75 276.211 103.604C276.395 103.457 276.662 103.487 276.809 103.671L278.538 105.837C278.684 106.02 278.654 106.288 278.471 106.434C278.287 106.581 278.02 106.551 277.873 106.367L276.144 104.201ZM279.718 108.963C279.586 108.769 279.636 108.505 279.83 108.372C280.024 108.24 280.288 108.29 280.421 108.484L281.994 110.795C282.126 110.989 282.076 111.254 281.882 111.386C281.688 111.518 281.424 111.468 281.291 111.274L279.718 108.963ZM282.729 113.756C282.582 113.572 282.612 113.305 282.796 113.158C282.979 113.012 283.247 113.042 283.393 113.225L285.122 115.391C285.269 115.575 285.239 115.842 285.055 115.989C284.872 116.135 284.604 116.105 284.458 115.922L282.729 113.756ZM277.112 97.4418C276.98 97.2477 277.03 96.9833 277.224 96.8511C277.418 96.7189 277.683 96.7691 277.815 96.9632L279.389 99.2741C279.521 99.4682 279.471 99.7327 279.276 99.8648C279.082 99.997 278.818 99.9468 278.686 99.7527L277.112 97.4418ZM273.539 92.6799C273.392 92.4964 273.422 92.2289 273.606 92.0825C273.789 91.936 274.057 91.966 274.203 92.1495L275.932 94.3154C276.079 94.4989 276.049 94.7664 275.865 94.9129C275.682 95.0594 275.414 95.0294 275.268 94.8459L273.539 92.6799ZM280.123 102.235C279.977 102.051 280.007 101.784 280.19 101.637C280.374 101.491 280.641 101.521 280.788 101.704L282.517 103.87C282.663 104.054 282.633 104.321 282.45 104.468C282.266 104.614 281.999 104.584 281.852 104.401L280.123 102.235ZM271.314 89.0426L272.017 88.564L271.314 89.0426ZM271.314 89.0426L270.527 87.8872C270.208 87.4186 270.911 86.9401 271.23 87.4086L272.017 88.564L272.804 89.7195C273.123 90.188 272.42 90.6666 272.101 90.1981L271.314 89.0426ZM284.484 108.152L285.186 107.673L284.484 108.152ZM285.186 107.673C285.505 108.142 284.803 108.62 284.484 108.152L283.697 106.996C283.378 106.528 284.081 106.049 284.4 106.518L285.186 107.673L285.973 108.829C286.292 109.297 285.59 109.776 285.27 109.307L284.484 108.152C284.165 107.683 284.867 107.205 285.186 107.673ZM286.708 111.789C286.561 111.606 286.591 111.338 286.775 111.192C286.958 111.045 287.226 111.075 287.372 111.259L289.101 113.425C289.248 113.608 289.218 113.876 289.034 114.022C288.851 114.169 288.583 114.139 288.437 113.955L286.708 111.789ZM266.045 128.712C265.92 128.514 265.979 128.251 266.178 128.126C266.376 128.001 266.639 128.06 266.764 128.259L268.256 130.623C268.381 130.822 268.322 131.084 268.123 131.209C267.925 131.335 267.662 131.275 267.537 131.077L266.045 128.712ZM270.09 126.886C269.965 126.687 270.024 126.425 270.223 126.299C270.421 126.174 270.684 126.233 270.809 126.432L272.301 128.796C272.427 128.995 272.367 129.258 272.169 129.383C271.97 129.508 271.708 129.449 271.582 129.25L270.09 126.886ZM272.292 138.491C272.167 138.292 272.226 138.03 272.425 137.904C272.623 137.779 272.886 137.839 273.011 138.037L274.503 140.402C274.629 140.6 274.569 140.863 274.371 140.988C274.172 141.113 273.91 141.054 273.784 140.855L272.292 138.491ZM276.337 136.664C276.212 136.466 276.272 136.203 276.47 136.078C276.669 135.953 276.931 136.012 277.057 136.211L278.549 138.575C278.674 138.774 278.615 139.036 278.416 139.161C278.217 139.287 277.955 139.227 277.83 139.029L276.337 136.664ZM268.887 133.607C268.747 133.419 268.786 133.152 268.975 133.012C269.163 132.872 269.43 132.912 269.57 133.1L271.222 135.325C271.362 135.514 271.323 135.78 271.134 135.92C270.946 136.06 270.679 136.021 270.539 135.832L268.887 133.607ZM272.932 131.781C272.792 131.592 272.832 131.326 273.02 131.186C273.209 131.046 273.475 131.085 273.615 131.274L275.267 133.499C275.407 133.687 275.368 133.953 275.179 134.093C274.991 134.233 274.725 134.194 274.585 134.006L272.932 131.781ZM275.134 143.386C274.994 143.197 275.033 142.931 275.222 142.791C275.41 142.651 275.677 142.69 275.817 142.879L277.469 145.104C277.609 145.292 277.57 145.559 277.381 145.699C277.193 145.839 276.927 145.799 276.787 145.611L275.134 143.386ZM279.179 141.559C279.039 141.371 279.079 141.104 279.267 140.964C279.456 140.824 279.722 140.864 279.862 141.052L281.515 143.277C281.654 143.466 281.615 143.732 281.427 143.872C281.238 144.012 280.972 143.973 280.832 143.784L279.179 141.559ZM278.539 148.269C278.414 148.071 278.474 147.808 278.672 147.683C278.871 147.558 279.133 147.617 279.258 147.816L280.751 150.18C280.876 150.379 280.816 150.641 280.618 150.767C280.419 150.892 280.157 150.833 280.032 150.634L278.539 148.269ZM282.585 146.443C282.459 146.244 282.519 145.982 282.717 145.857C282.916 145.731 283.178 145.791 283.304 145.989L284.796 148.354C284.921 148.552 284.862 148.815 284.663 148.94C284.465 149.065 284.202 149.006 284.077 148.807L282.585 146.443ZM281.381 153.164C281.241 152.976 281.281 152.71 281.469 152.57C281.658 152.43 281.924 152.469 282.064 152.657L283.716 154.882C283.856 155.071 283.817 155.337 283.629 155.477C283.44 155.617 283.174 155.578 283.034 155.389L281.381 153.164ZM285.427 151.338C285.287 151.149 285.326 150.883 285.514 150.743C285.703 150.603 285.969 150.642 286.109 150.831L287.762 153.056C287.902 153.244 287.862 153.511 287.674 153.651C287.485 153.791 287.219 153.751 287.079 153.563L285.427 151.338ZM274.135 125.059C274.01 124.861 274.07 124.598 274.268 124.473C274.467 124.347 274.729 124.407 274.855 124.605L276.347 126.97C276.472 127.168 276.413 127.431 276.214 127.556C276.015 127.682 275.753 127.622 275.628 127.424L274.135 125.059ZM280.383 134.838C280.257 134.639 280.317 134.377 280.515 134.251C280.714 134.126 280.976 134.185 281.102 134.384L282.594 136.748C282.719 136.947 282.66 137.21 282.461 137.335C282.263 137.46 282 137.401 281.875 137.202L280.383 134.838ZM276.977 129.954C276.837 129.766 276.877 129.499 277.065 129.359C277.254 129.219 277.52 129.259 277.66 129.447L279.313 131.672C279.453 131.861 279.413 132.127 279.225 132.267C279.036 132.407 278.77 132.368 278.63 132.179L276.977 129.954ZM283.225 139.733C283.085 139.544 283.124 139.278 283.312 139.138C283.501 138.998 283.767 139.037 283.907 139.226L285.56 141.451C285.7 141.639 285.66 141.906 285.472 142.046C285.283 142.185 285.017 142.146 284.877 141.958L283.225 139.733ZM286.63 144.616C286.505 144.418 286.564 144.155 286.763 144.03C286.961 143.905 287.224 143.964 287.349 144.163L288.841 146.527C288.966 146.726 288.907 146.988 288.708 147.113C288.51 147.239 288.247 147.179 288.122 146.981L286.63 144.616ZM289.472 149.511C289.332 149.323 289.371 149.057 289.56 148.917C289.748 148.777 290.014 148.816 290.154 149.004L291.807 151.229C291.947 151.418 291.908 151.684 291.719 151.824C291.531 151.964 291.264 151.925 291.124 151.736L289.472 149.511ZM278.181 123.233C278.055 123.034 278.115 122.771 278.313 122.646C278.512 122.521 278.775 122.58 278.9 122.779L280.392 125.143C280.517 125.342 280.458 125.604 280.259 125.73C280.061 125.855 279.798 125.796 279.673 125.597L278.181 123.233ZM284.428 133.011C284.303 132.813 284.362 132.55 284.561 132.425C284.759 132.299 285.022 132.359 285.147 132.557L286.639 134.922C286.764 135.12 286.705 135.383 286.506 135.508C286.308 135.634 286.045 135.574 285.92 135.376L284.428 133.011ZM281.023 128.128C280.883 127.939 280.922 127.673 281.111 127.533C281.299 127.393 281.565 127.432 281.705 127.621L283.358 129.846C283.498 130.034 283.458 130.3 283.27 130.44C283.081 130.58 282.815 130.541 282.675 130.353L281.023 128.128ZM287.27 137.906C287.13 137.718 287.169 137.451 287.358 137.311C287.546 137.171 287.812 137.211 287.952 137.399L289.605 139.624C289.745 139.813 289.706 140.079 289.517 140.219C289.329 140.359 289.062 140.32 288.922 140.131L287.27 137.906ZM290.675 142.79C290.55 142.591 290.609 142.329 290.808 142.203C291.006 142.078 291.269 142.137 291.394 142.336L292.886 144.7C293.012 144.899 292.952 145.162 292.754 145.287C292.555 145.412 292.293 145.353 292.167 145.154L290.675 142.79ZM293.517 147.685C293.377 147.496 293.416 147.23 293.605 147.09C293.793 146.95 294.06 146.989 294.2 147.178L295.852 149.403C295.992 149.591 295.953 149.858 295.764 149.998C295.576 150.138 295.31 150.098 295.17 149.91L293.517 147.685ZM282.226 121.406C282.101 121.207 282.16 120.945 282.359 120.82C282.557 120.694 282.82 120.754 282.945 120.952L284.437 123.317C284.562 123.515 284.503 123.778 284.304 123.903C284.106 124.028 283.843 123.969 283.718 123.77L282.226 121.406ZM288.473 131.185C288.348 130.986 288.407 130.724 288.606 130.598C288.804 130.473 289.067 130.532 289.192 130.731L290.684 133.095C290.81 133.294 290.75 133.556 290.552 133.682C290.353 133.807 290.091 133.748 289.965 133.549L288.473 131.185ZM285.068 126.301C284.928 126.112 284.967 125.846 285.156 125.706C285.344 125.566 285.611 125.606 285.751 125.794L287.403 128.019C287.543 128.207 287.504 128.474 287.315 128.614C287.127 128.754 286.86 128.714 286.72 128.526L285.068 126.301ZM291.315 136.08C291.175 135.891 291.214 135.625 291.403 135.485C291.591 135.345 291.858 135.384 291.998 135.573L293.65 137.798C293.79 137.986 293.751 138.252 293.562 138.392C293.374 138.532 293.108 138.493 292.968 138.305L291.315 136.08ZM294.72 140.963C294.595 140.765 294.654 140.502 294.853 140.377C295.052 140.252 295.314 140.311 295.439 140.509L296.932 142.874C297.057 143.072 296.997 143.335 296.799 143.46C296.6 143.586 296.338 143.526 296.212 143.328L294.72 140.963ZM297.562 145.858C297.422 145.67 297.462 145.403 297.65 145.263C297.839 145.123 298.105 145.163 298.245 145.351L299.897 147.576C300.037 147.765 299.998 148.031 299.81 148.171C299.621 148.311 299.355 148.272 299.215 148.083L297.562 145.858ZM286.271 119.579C286.146 119.381 286.205 119.118 286.404 118.993C286.602 118.868 286.865 118.927 286.99 119.126L288.482 121.49C288.608 121.689 288.548 121.951 288.35 122.077C288.151 122.202 287.889 122.142 287.763 121.944L286.271 119.579ZM292.518 129.358C292.393 129.16 292.453 128.897 292.651 128.772C292.85 128.646 293.112 128.706 293.237 128.904L294.73 131.269C294.855 131.467 294.795 131.73 294.597 131.855C294.398 131.98 294.136 131.921 294.01 131.723L292.518 129.358ZM289.113 124.474C288.973 124.286 289.012 124.02 289.201 123.88C289.389 123.74 289.656 123.779 289.796 123.967L291.448 126.192C291.588 126.381 291.549 126.647 291.36 126.787C291.172 126.927 290.906 126.888 290.766 126.699L289.113 124.474ZM295.36 134.253C295.22 134.065 295.26 133.798 295.448 133.658C295.637 133.518 295.903 133.558 296.043 133.746L297.695 135.971C297.835 136.16 297.796 136.426 297.608 136.566C297.419 136.706 297.153 136.666 297.013 136.478L295.36 134.253ZM298.766 139.137C298.64 138.938 298.7 138.676 298.898 138.55C299.097 138.425 299.359 138.484 299.485 138.683L300.977 141.047C301.102 141.246 301.043 141.508 300.844 141.634C300.646 141.759 300.383 141.7 300.258 141.501L298.766 139.137ZM301.608 144.032C301.468 143.843 301.507 143.577 301.695 143.437C301.884 143.297 302.15 143.336 302.29 143.525L303.943 145.75C304.083 145.938 304.043 146.204 303.855 146.344C303.666 146.484 303.4 146.445 303.26 146.257L301.608 144.032ZM296.564 127.532C296.438 127.333 296.498 127.07 296.696 126.945C296.895 126.82 297.157 126.879 297.283 127.078L298.775 129.442C298.9 129.641 298.841 129.903 298.642 130.029C298.444 130.154 298.181 130.095 298.056 129.896L296.564 127.532ZM293.158 122.648C293.018 122.459 293.058 122.193 293.246 122.053C293.435 121.913 293.701 121.952 293.841 122.141L295.493 124.366C295.633 124.554 295.594 124.821 295.406 124.961C295.217 125.101 294.951 125.061 294.811 124.873L293.158 122.648ZM299.406 132.426C299.266 132.238 299.305 131.972 299.493 131.832C299.682 131.692 299.948 131.731 300.088 131.919L301.741 134.144C301.881 134.333 301.841 134.599 301.653 134.739C301.464 134.879 301.198 134.84 301.058 134.651L299.406 132.426ZM291.062 118.935L291.782 118.481L291.062 118.935ZM291.062 118.935L290.316 117.753C290.014 117.274 290.733 116.82 291.036 117.299L291.782 118.481L292.528 119.664C292.83 120.143 292.111 120.597 291.809 120.117L291.062 118.935ZM303.557 138.492L304.276 138.039L303.557 138.492ZM304.276 138.039C304.578 138.518 303.859 138.972 303.557 138.492L302.811 137.31C302.508 136.831 303.227 136.377 303.53 136.856L304.276 138.039L305.022 139.221C305.324 139.7 304.605 140.154 304.303 139.675L303.557 138.492C303.254 138.013 303.973 137.559 304.276 138.039ZM305.653 142.205C305.513 142.017 305.552 141.75 305.741 141.61C305.929 141.47 306.195 141.51 306.335 141.698L307.988 143.923C308.128 144.112 308.089 144.378 307.9 144.518C307.712 144.658 307.445 144.619 307.305 144.43L305.653 142.205ZM142.725 70.6706C142.498 70.6108 142.363 70.3783 142.422 70.1512C142.482 69.9242 142.715 69.7886 142.942 69.8483L145.645 70.56C145.873 70.6197 146.008 70.8522 145.948 71.0793C145.889 71.3064 145.656 71.442 145.429 71.3822L142.725 70.6706ZM144.438 66.5759C144.211 66.5161 144.075 66.2836 144.135 66.0565C144.195 65.8295 144.427 65.6938 144.655 65.7536L147.358 66.4652C147.585 66.525 147.721 66.7575 147.661 66.9846C147.601 67.2117 147.369 67.3473 147.142 67.2875L144.438 66.5759ZM153.963 73.5616C153.736 73.5018 153.601 73.2693 153.66 73.0423C153.72 72.8152 153.953 72.6796 154.18 72.7393L156.883 73.451C157.11 73.5108 157.246 73.7433 157.186 73.9703C157.127 74.1974 156.894 74.333 156.667 74.2733L153.963 73.5616ZM155.676 69.4669C155.449 69.4071 155.313 69.1746 155.373 68.9476C155.433 68.7205 155.665 68.5849 155.892 68.6446L158.596 69.3563C158.823 69.4161 158.959 69.6486 158.899 69.8756C158.839 70.1027 158.607 70.2383 158.38 70.1785L155.676 69.4669ZM148.142 72.3123C147.911 72.2699 147.758 72.0483 147.801 71.8174C147.843 71.5865 148.065 71.4336 148.296 71.476L151.022 71.9762C151.253 72.0186 151.405 72.2402 151.363 72.4711C151.321 72.7021 151.099 72.8549 150.868 72.8125L148.142 72.3123ZM149.855 68.2176C149.624 68.1752 149.471 67.9536 149.513 67.7227C149.556 67.4918 149.777 67.3389 150.008 67.3813L152.734 67.8815C152.965 67.9239 153.118 68.1455 153.076 68.3764C153.033 68.6074 152.812 68.7602 152.581 68.7178L149.855 68.2176ZM159.38 75.2033C159.149 75.161 158.996 74.9394 159.039 74.7085C159.081 74.4775 159.303 74.3247 159.533 74.367L162.259 74.8673C162.49 74.9097 162.643 75.1312 162.601 75.3622C162.559 75.5931 162.337 75.746 162.106 75.7036L159.38 75.2033ZM161.093 71.1086C160.862 71.0662 160.709 70.8447 160.751 70.6137C160.794 70.3828 161.015 70.2299 161.246 70.2723L163.972 70.7726C164.203 70.815 164.356 71.0365 164.314 71.2675C164.271 71.4984 164.05 71.6513 163.819 71.6089L161.093 71.1086ZM165.201 76.4526C164.974 76.3929 164.838 76.1604 164.898 75.9333C164.958 75.7062 165.19 75.5706 165.418 75.6304L168.121 76.342C168.348 76.4018 168.484 76.6343 168.424 76.8614C168.364 77.0884 168.132 77.2241 167.905 77.1643L165.201 76.4526ZM166.914 72.3579C166.687 72.2982 166.551 72.0657 166.611 71.8386C166.671 71.6115 166.903 71.4759 167.13 71.5357L169.834 72.2473C170.061 72.3071 170.197 72.5396 170.137 72.7667C170.077 72.9937 169.845 73.1294 169.618 73.0696L166.914 72.3579ZM170.618 78.0944C170.387 78.052 170.234 77.8304 170.277 77.5995C170.319 77.3685 170.54 77.2157 170.771 77.2581L173.497 77.7583C173.728 77.8007 173.881 78.0223 173.839 78.2532C173.796 78.4841 173.575 78.637 173.344 78.5946L170.618 78.0944ZM172.331 73.9997C172.1 73.9573 171.947 73.7357 171.989 73.5048C172.032 73.2738 172.253 73.121 172.484 73.1634L175.21 73.6636C175.441 73.706 175.594 73.9276 175.552 74.1585C175.509 74.3894 175.288 74.5423 175.057 74.4999L172.331 73.9997ZM146.151 62.4811C145.924 62.4214 145.788 62.1889 145.848 61.9618C145.908 61.7347 146.14 61.5991 146.367 61.6589L149.071 62.3705C149.298 62.4303 149.434 62.6628 149.374 62.8899C149.314 63.1169 149.082 63.2526 148.855 63.1928L146.151 62.4811ZM157.389 65.3722C157.162 65.3124 157.026 65.0799 157.086 64.8529C157.146 64.6258 157.378 64.4902 157.605 64.5499L160.309 65.2616C160.536 65.3213 160.672 65.5539 160.612 65.7809C160.552 66.008 160.32 66.1436 160.093 66.0838L157.389 65.3722ZM151.568 64.1229C151.337 64.0805 151.184 63.8589 151.226 63.628C151.269 63.397 151.49 63.2442 151.721 63.2866L154.447 63.7868C154.678 63.8292 154.831 64.0508 154.789 64.2817C154.746 64.5126 154.525 64.6655 154.294 64.6231L151.568 64.1229ZM162.806 67.0139C162.575 66.9715 162.422 66.75 162.464 66.519C162.507 66.2881 162.728 66.1352 162.959 66.1776L165.685 66.6779C165.916 66.7202 166.069 66.9418 166.026 67.1728C165.984 67.4037 165.763 67.5565 165.532 67.5142L162.806 67.0139ZM168.627 68.2632C168.4 68.2035 168.264 67.9709 168.324 67.7439C168.384 67.5168 168.616 67.3812 168.843 67.441L171.547 68.1526C171.774 68.2124 171.91 68.4449 171.85 68.672C171.79 68.899 171.558 69.0347 171.33 68.9749L168.627 68.2632ZM174.044 69.905C173.813 69.8626 173.66 69.641 173.702 69.4101C173.744 69.1791 173.966 69.0263 174.197 69.0687L176.923 69.5689C177.154 69.6113 177.307 69.8329 177.264 70.0638C177.222 70.2947 177 70.4476 176.77 70.4052L174.044 69.905ZM147.864 58.3864C147.637 58.3267 147.501 58.0942 147.561 57.8671C147.621 57.64 147.853 57.5044 148.08 57.5642L150.784 58.2758C151.011 58.3356 151.147 58.5681 151.087 58.7952C151.027 59.0222 150.795 59.1578 150.567 59.0981L147.864 58.3864ZM159.102 61.2775C158.875 61.2177 158.739 60.9852 158.799 60.7581C158.858 60.5311 159.091 60.3955 159.318 60.4552L162.022 61.1669C162.249 61.2267 162.384 61.4592 162.325 61.6862C162.265 61.9133 162.032 62.0489 161.805 61.9891L159.102 61.2775ZM153.28 60.0282C153.05 59.9858 152.897 59.7642 152.939 59.5333C152.981 59.3023 153.203 59.1495 153.434 59.1919L156.16 59.6921C156.391 59.7345 156.544 59.9561 156.501 60.187C156.459 60.4179 156.237 60.5708 156.006 60.5284L153.28 60.0282ZM164.518 62.9192C164.287 62.8768 164.135 62.6553 164.177 62.4243C164.219 62.1934 164.441 62.0405 164.672 62.0829L167.398 62.5832C167.629 62.6255 167.782 62.8471 167.739 63.078C167.697 63.309 167.475 63.4618 167.244 63.4195L164.518 62.9192ZM170.339 64.1685C170.112 64.1088 169.977 63.8762 170.037 63.6492C170.096 63.4221 170.329 63.2865 170.556 63.3463L173.26 64.0579C173.487 64.1177 173.622 64.3502 173.563 64.5773C173.503 64.8043 173.27 64.9399 173.043 64.8802L170.339 64.1685ZM175.756 65.8103C175.525 65.7679 175.373 65.5463 175.415 65.3154C175.457 65.0844 175.679 64.9316 175.91 64.974L178.636 65.4742C178.867 65.5166 179.02 65.7381 178.977 65.9691C178.935 66.2 178.713 66.3529 178.482 66.3105L175.756 65.8103ZM149.576 54.2917C149.349 54.232 149.214 53.9994 149.274 53.7724C149.333 53.5453 149.566 53.4097 149.793 53.4695L152.497 54.1811C152.724 54.2409 152.859 54.4734 152.8 54.7005C152.74 54.9275 152.507 55.0631 152.28 55.0034L149.576 54.2917ZM160.814 57.1828C160.587 57.123 160.452 56.8905 160.511 56.6634C160.571 56.4364 160.804 56.3007 161.031 56.3605L163.735 57.0722C163.962 57.1319 164.097 57.3645 164.037 57.5915C163.978 57.8186 163.745 57.9542 163.518 57.8944L160.814 57.1828ZM154.993 55.9335C154.762 55.8911 154.609 55.6695 154.652 55.4386C154.694 55.2076 154.916 55.0548 155.147 55.0972L157.873 55.5974C158.104 55.6398 158.257 55.8613 158.214 56.0923C158.172 56.3232 157.95 56.4761 157.719 56.4337L154.993 55.9335ZM166.231 58.8245C166 58.7821 165.847 58.5605 165.89 58.3296C165.932 58.0987 166.154 57.9458 166.385 57.9882L169.111 58.4885C169.342 58.5308 169.494 58.7524 169.452 58.9833C169.41 59.2143 169.188 59.3671 168.957 59.3247L166.231 58.8245ZM172.052 60.0738C171.825 60.0141 171.69 59.7815 171.749 59.5545C171.809 59.3274 172.042 59.1918 172.269 59.2516L174.972 59.9632C175.2 60.023 175.335 60.2555 175.275 60.4825C175.216 60.7096 174.983 60.8452 174.756 60.7855L172.052 60.0738ZM177.469 61.7155C177.238 61.6732 177.085 61.4516 177.128 61.2207C177.17 60.9897 177.392 60.8369 177.623 60.8792L180.349 61.3795C180.579 61.4219 180.732 61.6434 180.69 61.8744C180.648 62.1053 180.426 62.2582 180.195 62.2158L177.469 61.7155ZM151.289 50.197C151.062 50.1373 150.927 49.9047 150.986 49.6777C151.046 49.4506 151.279 49.315 151.506 49.3748L154.209 50.0864C154.437 50.1462 154.572 50.3787 154.512 50.6058C154.453 50.8328 154.22 50.9684 153.993 50.9087L151.289 50.197ZM162.527 53.0881C162.3 53.0283 162.164 52.7958 162.224 52.5687C162.284 52.3417 162.517 52.206 162.744 52.2658L165.447 52.9775C165.674 53.0372 165.81 53.2697 165.75 53.4968C165.691 53.7239 165.458 53.8595 165.231 53.7997L162.527 53.0881ZM156.706 51.8388C156.475 51.7964 156.322 51.5748 156.365 51.3439C156.407 51.1129 156.629 50.9601 156.86 51.0024L159.586 51.5027C159.816 51.5451 159.969 51.7666 159.927 51.9976C159.885 52.2285 159.663 52.3814 159.432 52.339L156.706 51.8388ZM167.944 54.7298C167.713 54.6874 167.56 54.4658 167.603 54.2349C167.645 54.004 167.867 53.8511 168.097 53.8935L170.823 54.3937C171.054 54.4361 171.207 54.6577 171.165 54.8886C171.122 55.1196 170.901 55.2724 170.67 55.23L167.944 54.7298ZM173.765 55.9791C173.538 55.9193 173.402 55.6868 173.462 55.4598C173.522 55.2327 173.754 55.0971 173.981 55.1569L176.685 55.8685C176.912 55.9283 177.048 56.1608 176.988 56.3878C176.928 56.6149 176.696 56.7505 176.469 56.6908L173.765 55.9791ZM179.182 57.6208C178.951 57.5785 178.798 57.3569 178.84 57.1259C178.883 56.895 179.104 56.7422 179.335 56.7845L182.061 57.2848C182.292 57.3272 182.445 57.5487 182.403 57.7797C182.36 58.0106 182.139 58.1635 181.908 58.1211L179.182 57.6208ZM164.24 48.9934C164.013 48.9336 163.877 48.7011 163.937 48.474C163.997 48.247 164.229 48.1113 164.456 48.1711L167.16 48.8828C167.387 48.9425 167.523 49.175 167.463 49.4021C167.403 49.6292 167.171 49.7648 166.944 49.705L164.24 48.9934ZM158.419 47.744C158.188 47.7017 158.035 47.4801 158.077 47.2491C158.12 47.0182 158.341 46.8654 158.572 46.9077L161.298 47.408C161.529 47.4504 161.682 47.6719 161.64 47.9029C161.597 48.1338 161.376 48.2867 161.145 48.2443L158.419 47.744ZM169.657 50.6351C169.426 50.5927 169.273 50.3711 169.315 50.1402C169.358 49.9093 169.579 49.7564 169.81 49.7988L172.536 50.299C172.767 50.3414 172.92 50.563 172.878 50.7939C172.835 51.0249 172.614 51.1777 172.383 51.1353L169.657 50.6351ZM154.354 46.4581L154.57 45.6359L154.354 46.4581ZM154.354 46.4581L153.002 46.1023C152.454 45.958 152.67 45.1358 153.218 45.2801L154.57 45.6359L155.922 45.9917C156.47 46.136 156.254 46.9583 155.706 46.814L154.354 46.4581ZM176.83 52.2402L177.046 51.418L176.83 52.2402ZM177.046 51.418C177.594 51.5622 177.378 52.3845 176.83 52.2402L175.478 51.8844C174.93 51.7401 175.146 50.9179 175.694 51.0621L177.046 51.418L178.398 51.7738C178.946 51.9181 178.73 52.7403 178.182 52.5961L176.83 52.2402C176.282 52.096 176.498 51.2737 177.046 51.418ZM180.895 53.5261C180.664 53.4838 180.511 53.2622 180.553 53.0312C180.596 52.8003 180.817 52.6474 181.048 52.6898L183.774 53.1901C184.005 53.2325 184.158 53.454 184.116 53.685C184.073 53.9159 183.852 54.0688 183.621 54.0264L180.895 53.5261ZM101.502 62.6679C101.273 62.6161 101.129 62.3884 101.181 62.1594C101.233 61.9304 101.461 61.7868 101.69 61.8386L104.417 62.4554C104.646 62.5072 104.789 62.7349 104.737 62.9639C104.686 63.1929 104.458 63.3365 104.229 63.2847L101.502 62.6679ZM103.071 58.5159C102.842 58.4641 102.698 58.2365 102.75 58.0074C102.802 57.7784 103.029 57.6348 103.258 57.6866L105.985 58.3035C106.214 58.3553 106.358 58.5829 106.306 58.8119C106.254 59.0409 106.027 59.1846 105.798 59.1328L103.071 58.5159ZM112.834 65.165C112.605 65.1132 112.461 64.8855 112.513 64.6565C112.565 64.4275 112.793 64.2839 113.022 64.3357L115.748 64.9525C115.977 65.0043 116.121 65.232 116.069 65.461C116.018 65.69 115.79 65.8336 115.561 65.7818L112.834 65.165ZM114.403 61.013C114.174 60.9612 114.03 60.7335 114.082 60.5045C114.134 60.2755 114.361 60.1319 114.59 60.1837L117.317 60.8005C117.546 60.8523 117.69 61.08 117.638 61.309C117.586 61.538 117.359 61.6816 117.13 61.6298L114.403 61.013ZM106.973 64.1196C106.74 64.0853 106.58 63.8692 106.614 63.6369C106.649 63.4046 106.865 63.2441 107.097 63.2784L109.839 63.6832C110.071 63.7175 110.232 63.9336 110.197 64.1659C110.163 64.3982 109.947 64.5587 109.715 64.5244L106.973 64.1196ZM108.542 59.9676C108.309 59.9333 108.149 59.7172 108.183 59.4849C108.217 59.2526 108.434 59.0921 108.666 59.1264L111.408 59.5312C111.64 59.5655 111.8 59.7816 111.766 60.0139C111.732 60.2462 111.516 60.4067 111.283 60.3724L108.542 59.9676ZM118.305 66.6167C118.072 66.5824 117.912 66.3663 117.946 66.134C117.981 65.9017 118.197 65.7412 118.429 65.7755L121.171 66.1803C121.403 66.2146 121.563 66.4307 121.529 66.663C121.495 66.8953 121.279 67.0558 121.047 67.0215L118.305 66.6167ZM119.874 62.4647C119.641 62.4304 119.481 62.2143 119.515 61.982C119.549 61.7497 119.765 61.5892 119.998 61.6235L122.74 62.0283C122.972 62.0626 123.132 62.2787 123.098 62.511C123.064 62.7433 122.848 62.9038 122.615 62.8695L119.874 62.4647ZM124.166 67.6621C123.937 67.6103 123.793 67.3826 123.845 67.1536C123.897 66.9246 124.124 66.781 124.353 66.8328L127.08 67.4496C127.309 67.5014 127.453 67.7291 127.401 67.9581C127.35 68.1871 127.122 68.3307 126.893 68.2789L124.166 67.6621ZM125.735 63.5101C125.506 63.4583 125.362 63.2306 125.414 63.0016C125.466 62.7726 125.693 62.629 125.922 62.6808L128.649 63.2976C128.878 63.3494 129.022 63.5771 128.97 63.8061C128.918 64.0351 128.691 64.1787 128.462 64.1269L125.735 63.5101ZM129.637 69.1137C129.404 69.0794 129.244 68.8633 129.278 68.6311C129.313 68.3988 129.529 68.2383 129.761 68.2726L132.503 68.6774C132.735 68.7117 132.895 68.9278 132.861 69.1601C132.827 69.3923 132.611 69.5528 132.378 69.5185L129.637 69.1137ZM131.206 64.9617C130.973 64.9275 130.813 64.7114 130.847 64.4791C130.881 64.2468 131.097 64.0863 131.33 64.1206L134.072 64.5254C134.304 64.5597 134.464 64.7758 134.43 65.0081C134.396 65.2404 134.18 65.4009 133.947 65.3666L131.206 64.9617ZM104.64 54.3639C104.411 54.3121 104.267 54.0845 104.319 53.8555C104.371 53.6265 104.598 53.4828 104.827 53.5346L107.554 54.1515C107.783 54.2033 107.927 54.4309 107.875 54.6599C107.823 54.8889 107.596 55.0326 107.367 54.9808L104.64 54.3639ZM115.972 56.861C115.743 56.8092 115.599 56.5816 115.651 56.3525C115.703 56.1235 115.93 55.9799 116.159 56.0317L118.886 56.6485C119.115 56.7004 119.259 56.928 119.207 57.157C119.155 57.386 118.928 57.5297 118.699 57.4779L115.972 56.861ZM110.11 55.8156C109.878 55.7813 109.718 55.5652 109.752 55.3329C109.786 55.1006 110.002 54.9401 110.235 54.9744L112.976 55.3793C113.209 55.4136 113.369 55.6296 113.335 55.8619C113.301 56.0942 113.085 56.2547 112.852 56.2204L110.11 55.8156ZM121.442 58.3127C121.21 58.2784 121.05 58.0623 121.084 57.83C121.118 57.5977 121.334 57.4372 121.567 57.4715L124.308 57.8763C124.541 57.9106 124.701 58.1267 124.667 58.359C124.633 58.5913 124.416 58.7518 124.184 58.7175L121.442 58.3127ZM127.304 59.3581C127.075 59.3063 126.931 59.0786 126.983 58.8496C127.035 58.6206 127.262 58.477 127.491 58.5288L130.218 59.1456C130.447 59.1974 130.591 59.4251 130.539 59.6541C130.487 59.8831 130.26 60.0267 130.031 59.9749L127.304 59.3581ZM132.774 60.8098C132.542 60.7755 132.382 60.5594 132.416 60.3271C132.45 60.0948 132.666 59.9343 132.899 59.9686L135.64 60.3734C135.873 60.4077 136.033 60.6238 135.999 60.8561C135.965 61.0884 135.748 61.2489 135.516 61.2146L132.774 60.8098ZM106.208 50.2119C105.979 50.1601 105.836 49.9325 105.888 49.7035C105.939 49.4745 106.167 49.3308 106.396 49.3826L109.123 49.9995C109.352 50.0513 109.496 50.2789 109.444 50.5079C109.392 50.7369 109.164 50.8806 108.935 50.8288L106.208 50.2119ZM117.54 52.709C117.311 52.6572 117.168 52.4296 117.22 52.2006C117.271 51.9715 117.499 51.8279 117.728 51.8797L120.455 52.4966C120.684 52.5483 120.828 52.776 120.776 53.005C120.724 53.234 120.496 53.3777 120.267 53.3259L117.54 52.709ZM111.679 51.6636C111.447 51.6293 111.287 51.4132 111.321 51.1809C111.355 50.9487 111.571 50.7882 111.803 50.8225L114.545 51.2273C114.778 51.2616 114.938 51.4777 114.904 51.7099C114.869 51.9422 114.653 52.1027 114.421 52.0684L111.679 51.6636ZM123.011 54.1607C122.779 54.1264 122.619 53.9103 122.653 53.678C122.687 53.4457 122.903 53.2853 123.135 53.3195L125.877 53.7243C126.11 53.7586 126.27 53.9747 126.236 54.207C126.201 54.4393 125.985 54.5998 125.753 54.5655L123.011 54.1607ZM128.872 55.2061C128.643 55.1543 128.5 54.9266 128.552 54.6976C128.603 54.4686 128.831 54.325 129.06 54.3768L131.787 54.9936C132.016 55.0454 132.16 55.2731 132.108 55.5021C132.056 55.7311 131.828 55.8748 131.599 55.823L128.872 55.2061ZM134.343 56.6578C134.111 56.6235 133.95 56.4074 133.985 56.1751C134.019 55.9428 134.235 55.7823 134.467 55.8166L137.209 56.2214C137.441 56.2557 137.602 56.4718 137.568 56.7041C137.533 56.9364 137.317 57.0969 137.085 57.0626L134.343 56.6578ZM107.777 46.0599C107.548 46.0081 107.405 45.7805 107.456 45.5515C107.508 45.3225 107.736 45.1788 107.965 45.2306L110.692 45.8475C110.921 45.8993 111.065 46.1269 111.013 46.3559C110.961 46.5849 110.733 46.7286 110.504 46.6768L107.777 46.0599ZM119.109 48.557C118.88 48.5052 118.737 48.2776 118.788 48.0486C118.84 47.8196 119.068 47.6759 119.297 47.7277L122.024 48.3446C122.253 48.3964 122.397 48.624 122.345 48.853C122.293 49.082 122.065 49.2257 121.836 49.1739L119.109 48.557ZM113.248 47.5116C113.016 47.4773 112.855 47.2612 112.89 47.0289C112.924 46.7967 113.14 46.6362 113.372 46.6705L116.114 47.0753C116.346 47.1096 116.507 47.3257 116.473 47.5579C116.438 47.7902 116.222 47.9507 115.99 47.9164L113.248 47.5116ZM124.58 50.0087C124.348 49.9744 124.187 49.7583 124.222 49.526C124.256 49.2938 124.472 49.1332 124.704 49.1676L127.446 49.5724C127.678 49.6067 127.839 49.8228 127.805 50.055C127.77 50.2873 127.554 50.4478 127.322 50.4135L124.58 50.0087ZM130.441 51.0541C130.212 51.0023 130.069 50.7747 130.12 50.5457C130.172 50.3166 130.4 50.173 130.629 50.2248L133.356 50.8416C133.585 50.8935 133.728 51.1211 133.677 51.3501C133.625 51.5791 133.397 51.7228 133.168 51.671L130.441 51.0541ZM135.912 52.5058C135.68 52.4715 135.519 52.2554 135.554 52.0231C135.588 51.7908 135.804 51.6303 136.036 51.6646L138.778 52.0694C139.01 52.1037 139.171 52.3198 139.137 52.5521C139.102 52.7844 138.886 52.9449 138.654 52.9106L135.912 52.5058ZM109.346 41.9079C109.117 41.8561 108.974 41.6285 109.025 41.3995C109.077 41.1705 109.305 41.0268 109.534 41.0786L112.261 41.6955C112.49 41.7473 112.633 41.9749 112.582 42.2039C112.53 42.4329 112.302 42.5766 112.073 42.5248L109.346 41.9079ZM120.678 44.405C120.449 44.3532 120.305 44.1256 120.357 43.8966C120.409 43.6676 120.637 43.5239 120.866 43.5757L123.593 44.1926C123.822 44.2444 123.965 44.472 123.914 44.701C123.862 44.93 123.634 45.0737 123.405 45.0219L120.678 44.405ZM114.817 43.3596C114.585 43.3253 114.424 43.1092 114.459 42.877C114.493 42.6447 114.709 42.4842 114.941 42.5185L117.683 42.9233C117.915 42.9576 118.076 43.1737 118.041 43.4059C118.007 43.6382 117.791 43.7987 117.559 43.7644L114.817 43.3596ZM126.149 45.8567C125.917 45.8224 125.756 45.6063 125.79 45.374C125.825 45.1418 126.041 44.9813 126.273 45.0156L129.015 45.4204C129.247 45.4547 129.408 45.6708 129.373 45.903C129.339 46.1353 129.123 46.2958 128.891 46.2615L126.149 45.8567ZM132.01 46.9021C131.781 46.8503 131.637 46.6227 131.689 46.3936C131.741 46.1646 131.969 46.021 132.198 46.0728L134.925 46.6897C135.154 46.7415 135.297 46.9691 135.246 47.1981C135.194 47.4271 134.966 47.5708 134.737 47.519L132.01 46.9021ZM137.481 48.3538C137.249 48.3195 137.088 48.1034 137.122 47.8711C137.157 47.6388 137.373 47.4784 137.605 47.5126L140.347 47.9175C140.579 47.9517 140.74 48.1678 140.705 48.4001C140.671 48.6324 140.455 48.7929 140.223 48.7586L137.481 48.3538ZM122.247 40.253C122.018 40.2012 121.874 39.9736 121.926 39.7446C121.978 39.5156 122.206 39.3719 122.435 39.4237L125.162 40.0406C125.391 40.0924 125.534 40.32 125.482 40.549C125.431 40.7781 125.203 40.9217 124.974 40.8699L122.247 40.253ZM116.386 39.2076C116.154 39.1733 115.993 38.9572 116.027 38.725C116.062 38.4927 116.278 38.3322 116.51 38.3665L119.252 38.7713C119.484 38.8056 119.645 39.0217 119.61 39.254C119.576 39.4862 119.36 39.6467 119.128 39.6124L116.386 39.2076ZM127.718 41.7047C127.486 41.6704 127.325 41.4543 127.359 41.222C127.394 40.9898 127.61 40.8293 127.842 40.8636L130.584 41.2684C130.816 41.3027 130.977 41.5188 130.942 41.751C130.908 41.9833 130.692 42.1438 130.46 42.1095L127.718 41.7047ZM112.279 38.0644L112.466 37.2351L112.279 38.0644ZM112.279 38.0644L110.915 37.756C110.362 37.6309 110.55 36.8016 111.103 36.9267L112.466 37.2351L113.83 37.5435C114.382 37.6686 114.195 38.4979 113.642 38.3728L112.279 38.0644ZM134.942 43.0585L135.13 42.2292L134.942 43.0585ZM135.13 42.2292C135.683 42.3543 135.495 43.1836 134.942 43.0585L133.579 42.7501C133.026 42.6251 133.214 41.7957 133.767 41.9208L135.13 42.2292L136.494 42.5377C137.046 42.6627 136.859 43.492 136.306 43.367L134.942 43.0585C134.39 42.9335 134.577 42.1042 135.13 42.2292ZM139.05 44.2018C138.817 44.1675 138.657 43.9514 138.691 43.7191C138.726 43.4869 138.942 43.3264 139.174 43.3607L141.916 43.7655C142.148 43.7998 142.309 44.0159 142.274 44.2481C142.24 44.4804 142.024 44.6409 141.792 44.6066L139.05 44.2018ZM66.6942 56.6862C66.4643 56.6384 66.3167 56.4133 66.3645 56.1835C66.4123 55.9536 66.6374 55.806 66.8672 55.8538L69.6046 56.4229C69.8344 56.4707 69.982 56.6958 69.9343 56.9257C69.8865 57.1556 69.6613 57.3032 69.4315 57.2554L66.6942 56.6862ZM68.1903 52.5075C67.9604 52.4597 67.8128 52.2346 67.8606 52.0047C67.9084 51.7748 68.1335 51.6272 68.3634 51.675L71.1007 52.2442C71.3306 52.292 71.4782 52.5171 71.4304 52.747C71.3826 52.9769 71.1575 53.1245 70.9276 53.0767L68.1903 52.5075ZM78.068 58.9851C77.8381 58.9374 77.6905 58.7123 77.7383 58.4824C77.7861 58.2525 78.0112 58.1049 78.2411 58.1527L80.9784 58.7219C81.2083 58.7697 81.3559 58.9948 81.3081 59.2246C81.2603 59.4545 81.0352 59.6021 80.8053 59.5543L78.068 58.9851ZM79.5641 54.8064C79.3342 54.7586 79.1866 54.5335 79.2344 54.3037C79.2822 54.0738 79.5073 53.9262 79.7372 53.974L82.4745 54.5431C82.7044 54.5909 82.852 54.816 82.8042 55.0459C82.7564 55.2758 82.5313 55.4234 82.3014 55.3756L79.5641 54.8064ZM72.1895 58.0422C71.9566 58.012 71.7924 57.7987 71.8226 57.5659C71.8529 57.333 72.0661 57.1688 72.299 57.199L75.0474 57.5559C75.2802 57.5862 75.4445 57.7994 75.4142 58.0323C75.384 58.2651 75.1707 58.4293 74.9379 58.3991L72.1895 58.0422ZM73.6856 53.8635C73.4528 53.8332 73.2885 53.62 73.3188 53.3871C73.349 53.1543 73.5623 52.9901 73.7951 53.0203L76.5435 53.3772C76.7764 53.4074 76.9406 53.6207 76.9104 53.8535C76.8802 54.0864 76.6669 54.2506 76.434 54.2204L73.6856 53.8635ZM83.5633 60.3411C83.3304 60.3109 83.1662 60.0977 83.1964 59.8648C83.2267 59.632 83.4399 59.4677 83.6728 59.4979L86.4212 59.8548C86.654 59.8851 86.8183 60.0984 86.7881 60.3312C86.7578 60.564 86.5446 60.7283 86.3117 60.698L83.5633 60.3411ZM85.0594 56.1624C84.8266 56.1322 84.6623 55.9189 84.6926 55.6861C84.7228 55.4532 84.9361 55.289 85.1689 55.3192L87.9174 55.6761C88.1502 55.7063 88.3144 55.9196 88.2842 56.1525C88.254 56.3853 88.0407 56.5495 87.8079 56.5193L85.0594 56.1624ZM89.4418 61.2841C89.2119 61.2363 89.0643 61.0112 89.1121 60.7813C89.1599 60.5514 89.385 60.4038 89.6149 60.4516L92.3522 61.0208C92.5821 61.0686 92.7297 61.2937 92.6819 61.5236C92.6341 61.7535 92.409 61.9011 92.1791 61.8533L89.4418 61.2841ZM90.9379 57.1054C90.708 57.0575 90.5605 56.8325 90.6082 56.6026C90.656 56.3727 90.8811 56.2251 91.111 56.2729L93.8483 56.8421C94.0782 56.8899 94.2258 57.115 94.178 57.3448C94.1302 57.5747 93.9051 57.7223 93.6752 57.6745L90.9379 57.1054ZM94.9371 62.6401C94.7043 62.6098 94.54 62.3966 94.5702 62.1637C94.6005 61.9309 94.8137 61.7667 95.0466 61.7969L97.795 62.1538C98.0279 62.184 98.1921 62.3973 98.1619 62.6301C98.1316 62.863 97.9184 63.0272 97.6855 62.997L94.9371 62.6401ZM96.4332 58.4613C96.2004 58.4311 96.0362 58.2178 96.0664 57.985C96.0966 57.7522 96.3099 57.5879 96.5427 57.6182L99.2912 57.975C99.524 58.0053 99.6882 58.2185 99.658 58.4514C99.6278 58.6842 99.4145 58.8485 99.1817 58.8182L96.4332 58.4613ZM69.6864 48.3288C69.4566 48.2809 69.309 48.0558 69.3568 47.826C69.4046 47.5961 69.6297 47.4485 69.8595 47.4963L72.5969 48.0655C72.8267 48.1133 72.9743 48.3384 72.9265 48.5682C72.8787 48.7981 72.6536 48.9457 72.4238 48.8979L69.6864 48.3288ZM81.0603 50.6277C80.8304 50.5799 80.6828 50.3548 80.7306 50.1249C80.7784 49.895 81.0035 49.7474 81.2333 49.7952L83.9707 50.3644C84.2005 50.4122 84.3481 50.6373 84.3003 50.8672C84.2525 51.0971 84.0274 51.2447 83.7976 51.1969L81.0603 50.6277ZM75.1817 49.6847C74.9489 49.6545 74.7847 49.4412 74.8149 49.2084C74.8451 48.9755 75.0584 48.8113 75.2912 48.8416L78.0397 49.1985C78.2725 49.2287 78.4368 49.4419 78.4065 49.6748C78.3763 49.9076 78.163 50.0719 77.9302 50.0416L75.1817 49.6847ZM86.5556 51.9837C86.3227 51.9534 86.1585 51.7402 86.1887 51.5073C86.219 51.2745 86.4322 51.1102 86.6651 51.1405L89.4135 51.4974C89.6463 51.5276 89.8106 51.7409 89.7803 51.9737C89.7501 52.2066 89.5368 52.3708 89.304 52.3406L86.5556 51.9837ZM92.4341 52.9266C92.2042 52.8788 92.0566 52.6537 92.1044 52.4238C92.1522 52.194 92.3773 52.0464 92.6072 52.0942L95.3445 52.6633C95.5744 52.7111 95.722 52.9362 95.6742 53.1661C95.6264 53.396 95.4013 53.5436 95.1714 53.4958L92.4341 52.9266ZM97.9294 54.2826C97.6965 54.2524 97.5323 54.0391 97.5625 53.8063C97.5928 53.5734 97.806 53.4092 98.0389 53.4394L100.787 53.7963C101.02 53.8265 101.184 54.0398 101.154 54.2727C101.124 54.5055 100.911 54.6697 100.678 54.6395L97.9294 54.2826ZM71.1826 44.15C70.9527 44.1022 70.8051 43.8771 70.8529 43.6472C70.9007 43.4174 71.1258 43.2698 71.3557 43.3176L74.093 43.8867C74.3229 43.9345 74.4705 44.1596 74.4227 44.3895C74.3749 44.6194 74.1498 44.767 73.9199 44.7192L71.1826 44.15ZM82.5564 46.449C82.3265 46.4012 82.1789 46.1761 82.2267 45.9462C82.2745 45.7163 82.4996 45.5687 82.7295 45.6165L85.4668 46.1857C85.6967 46.2335 85.8443 46.4586 85.7965 46.6884C85.7487 46.9183 85.5236 47.0659 85.2937 47.0181L82.5564 46.449ZM76.6779 45.506C76.4451 45.4758 76.2808 45.2625 76.311 45.0297C76.3413 44.7968 76.5545 44.6326 76.7874 44.6628L79.5358 45.0197C79.7687 45.0499 79.9329 45.2632 79.9027 45.496C79.8724 45.7289 79.6592 45.8931 79.4263 45.8629L76.6779 45.506ZM88.0517 47.8049C87.8189 47.7747 87.6546 47.5614 87.6849 47.3286C87.7151 47.0958 87.9284 46.9315 88.1612 46.9618L90.9096 47.3187C91.1425 47.3489 91.3067 47.5621 91.2765 47.795C91.2463 48.0278 91.033 48.1921 90.8002 48.1618L88.0517 47.8049ZM93.9302 48.7479C93.7003 48.7001 93.5527 48.475 93.6005 48.2451C93.6483 48.0152 93.8734 47.8676 94.1033 47.9154L96.8406 48.4846C97.0705 48.5324 97.2181 48.7575 97.1703 48.9874C97.1225 49.2173 96.8974 49.3649 96.6675 49.3171L93.9302 48.7479ZM99.4255 50.1039C99.1927 50.0736 99.0284 49.8604 99.0587 49.6275C99.0889 49.3947 99.3022 49.2304 99.535 49.2607L102.283 49.6176C102.516 49.6478 102.681 49.8611 102.65 50.0939C102.62 50.3268 102.407 50.491 102.174 50.4608L99.4255 50.1039ZM72.6787 39.9713C72.4488 39.9235 72.3012 39.6984 72.349 39.4685C72.3968 39.2386 72.6219 39.091 72.8518 39.1388L75.5891 39.708C75.819 39.7558 75.9666 39.9809 75.9188 40.2108C75.871 40.4406 75.6459 40.5882 75.416 40.5405L72.6787 39.9713ZM84.0525 42.2702C83.8227 42.2224 83.6751 41.9973 83.7229 41.7674C83.7707 41.5376 83.9958 41.39 84.2256 41.4377L86.963 42.0069C87.1928 42.0547 87.3404 42.2798 87.2926 42.5097C87.2448 42.7396 87.0197 42.8872 86.7899 42.8394L84.0525 42.2702ZM78.174 41.3273C77.9412 41.297 77.777 41.0837 77.8072 40.8509C77.8374 40.6181 78.0507 40.4538 78.2835 40.4841L81.032 40.841C81.2648 40.8712 81.429 41.0845 81.3988 41.3173C81.3686 41.5501 81.1553 41.7144 80.9225 41.6842L78.174 41.3273ZM89.5478 43.6262C89.315 43.5959 89.1508 43.3827 89.181 43.1499C89.2112 42.917 89.4245 42.7528 89.6573 42.783L92.4058 43.1399C92.6386 43.1701 92.8029 43.3834 92.7726 43.6162C92.7424 43.8491 92.5291 44.0133 92.2963 43.9831L89.5478 43.6262ZM95.4264 44.5692C95.1965 44.5214 95.0489 44.2963 95.0967 44.0664C95.1445 43.8365 95.3696 43.6889 95.5995 43.7367L98.3368 44.3059C98.5666 44.3537 98.7142 44.5788 98.6664 44.8086C98.6186 45.0385 98.3935 45.1861 98.1637 45.1383L95.4264 44.5692ZM100.922 45.9251C100.689 45.8949 100.525 45.6816 100.555 45.4488C100.585 45.216 100.798 45.0517 101.031 45.0819L103.78 45.4388C104.012 45.4691 104.177 45.6823 104.146 45.9152C104.116 46.148 103.903 46.3123 103.67 46.282L100.922 45.9251ZM74.1749 35.7925C73.945 35.7447 73.7974 35.5196 73.8452 35.2898C73.893 35.0599 74.1181 34.9123 74.348 34.9601L77.0853 35.5293C77.3152 35.5771 77.4628 35.8021 77.415 36.032C77.3672 36.2619 77.1421 36.4095 76.9122 36.3617L74.1749 35.7925ZM85.5487 38.0915C85.3188 38.0437 85.1712 37.8186 85.219 37.5887C85.2668 37.3588 85.4919 37.2112 85.7218 37.259L88.4591 37.8282C88.689 37.876 88.8366 38.1011 88.7888 38.331C88.741 38.5608 88.5159 38.7084 88.286 38.6606L85.5487 38.0915ZM79.6702 37.1485C79.4373 37.1183 79.2731 36.905 79.3033 36.6722C79.3336 36.4393 79.5468 36.2751 79.7797 36.3053L82.5281 36.6622C82.7609 36.6925 82.9252 36.9057 82.895 37.1386C82.8647 37.3714 82.6515 37.5356 82.4186 37.5054L79.6702 37.1485ZM91.044 39.4475C90.8112 39.4172 90.6469 39.2039 90.6771 38.9711C90.7074 38.7383 90.9206 38.574 91.1535 38.6043L93.9019 38.9612C94.1348 38.9914 94.299 39.2047 94.2688 39.4375C94.2385 39.6703 94.0253 39.8346 93.7924 39.8044L91.044 39.4475ZM96.9225 40.3904C96.6926 40.3426 96.545 40.1175 96.5928 39.8876C96.6406 39.6578 96.8657 39.5101 97.0956 39.5579L99.8329 40.1271C100.063 40.1749 100.21 40.4 100.163 40.6299C100.115 40.8598 99.8897 41.0074 99.6598 40.9596L96.9225 40.3904ZM102.418 41.7464C102.185 41.7161 102.021 41.5029 102.051 41.27C102.081 41.0372 102.294 40.873 102.527 40.9032L105.276 41.2601C105.509 41.2903 105.673 41.5036 105.643 41.7364C105.612 41.9693 105.399 42.1335 105.166 42.1033L102.418 41.7464ZM87.0448 33.9127C86.8149 33.8649 86.6673 33.6398 86.7151 33.41C86.7629 33.1801 86.988 33.0325 87.2179 33.0803L89.9552 33.6495C90.1851 33.6972 90.3327 33.9223 90.2849 34.1522C90.2371 34.3821 90.012 34.5297 89.7821 34.4819L87.0448 33.9127ZM81.1663 32.9698C80.9335 32.9395 80.7692 32.7263 80.7995 32.4934C80.8297 32.2606 81.043 32.0964 81.2758 32.1266L84.0243 32.4835C84.2571 32.5137 84.4213 32.727 84.3911 32.9598C84.3609 33.1927 84.1476 33.3569 83.9148 33.3267L81.1663 32.9698ZM92.5401 35.2687C92.3073 35.2385 92.1431 35.0252 92.1733 34.7924C92.2035 34.5595 92.4168 34.3953 92.6496 34.4255L95.3981 34.7824C95.6309 34.8127 95.7952 35.0259 95.7649 35.2588C95.7347 35.4916 95.5214 35.6558 95.2886 35.6256L92.5401 35.2687ZM77.0397 31.8984L77.2128 31.0659L77.0397 31.8984ZM77.0397 31.8984L75.671 31.6138C75.116 31.4984 75.2891 30.6659 75.8441 30.7813L77.2128 31.0659L78.5814 31.3505C79.1364 31.4659 78.9633 32.2984 78.4083 32.183L77.0397 31.8984ZM99.7873 36.4963L99.9604 35.6638L99.7873 36.4963ZM99.9604 35.6638C100.515 35.7792 100.342 36.6117 99.7873 36.4963L98.4186 36.2117C97.8637 36.0963 98.0368 35.2638 98.5917 35.3792L99.9604 35.6638L101.329 35.9484C101.884 36.0638 101.711 36.8962 101.156 36.7808L99.7873 36.4963C99.2323 36.3809 99.4054 35.5484 99.9604 35.6638ZM103.914 37.5677C103.681 37.5374 103.517 37.3242 103.547 37.0913C103.577 36.8585 103.791 36.6942 104.023 36.7245L106.772 37.0814C107.005 37.1116 107.169 37.3249 107.139 37.5577C107.108 37.7905 106.895 37.9548 106.662 37.9245L103.914 37.5677ZM96.9736 105.074C96.9178 105.302 96.6876 105.442 96.4596 105.386C96.2315 105.33 96.0919 105.1 96.1476 104.872L96.812 102.156C96.8678 101.928 97.0979 101.788 97.326 101.844C97.554 101.9 97.6937 102.13 97.6379 102.358L96.9736 105.074ZM92.8496 103.433C92.7938 103.661 92.5637 103.801 92.3356 103.745C92.1075 103.689 91.9679 103.459 92.0237 103.231L92.688 100.515C92.7438 100.287 92.9739 100.147 93.202 100.203C93.4301 100.259 93.5697 100.489 93.5139 100.717L92.8496 103.433ZM99.668 93.7873C99.6122 94.0154 99.3821 94.1551 99.1541 94.0993C98.926 94.0435 98.7863 93.8134 98.8421 93.5853L99.5065 90.8695C99.5623 90.6414 99.7924 90.5018 100.02 90.5576C100.249 90.6134 100.388 90.8435 100.332 91.0715L99.668 93.7873ZM95.5441 92.1463C95.4883 92.3743 95.2582 92.514 95.0301 92.4582C94.802 92.4024 94.6624 92.1723 94.7181 91.9442L95.3825 89.2284C95.4383 89.0004 95.6684 88.8607 95.8965 88.9165C96.1245 88.9723 96.2642 89.2024 96.2084 89.4305L95.5441 92.1463ZM98.5205 99.6293C98.4822 99.861 98.2633 100.018 98.0316 99.9793C97.8 99.941 97.6433 99.7221 97.6816 99.4905L98.1342 96.7562C98.1726 96.5245 98.3915 96.3678 98.6231 96.4062C98.8547 96.4445 99.0114 96.6634 98.9731 96.895L98.5205 99.6293ZM94.3965 97.9883C94.3582 98.2199 94.1393 98.3766 93.9077 98.3383C93.676 98.2999 93.5193 98.0811 93.5577 97.8494L94.0103 95.1151C94.0486 94.8835 94.2675 94.7268 94.4991 94.7651C94.7308 94.8035 94.8875 95.0223 94.8491 95.254L94.3965 97.9883ZM101.215 88.3427C101.177 88.5743 100.958 88.731 100.726 88.6927C100.494 88.6543 100.338 88.4355 100.376 88.2038L100.829 85.4695C100.867 85.2379 101.086 85.0812 101.318 85.1195C101.549 85.1579 101.706 85.3767 101.668 85.6084L101.215 88.3427ZM97.091 86.7016C97.0527 86.9333 96.8338 87.09 96.6021 87.0516C96.3705 87.0133 96.2138 86.7944 96.2521 86.5628L96.7047 83.8285C96.7431 83.5968 96.962 83.4401 97.1936 83.4785C97.4252 83.5168 97.5819 83.7357 97.5436 83.9673L97.091 86.7016ZM102.363 82.5007C102.307 82.7287 102.077 82.8684 101.849 82.8126C101.62 82.7568 101.481 82.5267 101.537 82.2986L102.201 79.5829C102.257 79.3548 102.487 79.2151 102.715 79.2709C102.943 79.3267 103.083 79.5568 103.027 79.7849L102.363 82.5007ZM98.2385 80.8596C98.1827 81.0877 97.9526 81.2273 97.7246 81.1715C97.4965 81.1158 97.3568 80.8856 97.4126 80.6576L98.077 77.9418C98.1328 77.7137 98.3629 77.5741 98.591 77.6299C98.819 77.6856 98.9587 77.9158 98.9029 78.1438L98.2385 80.8596ZM103.909 77.056C103.871 77.2877 103.652 77.4444 103.421 77.406C103.189 77.3677 103.032 77.1488 103.071 76.9172L103.523 74.1829C103.562 73.9512 103.78 73.7945 104.012 73.8329C104.244 73.8712 104.4 74.0901 104.362 74.3217L103.909 77.056ZM99.7855 75.415C99.7471 75.6466 99.5283 75.8033 99.2966 75.765C99.065 75.7266 98.9083 75.5078 98.9466 75.2761L99.3992 72.5418C99.4376 72.3102 99.6564 72.1535 99.8881 72.1918C100.12 72.2302 100.276 72.449 100.238 72.6807L99.7855 75.415ZM88.7256 101.792C88.6698 102.02 88.4397 102.16 88.2116 102.104C87.9836 102.048 87.8439 101.818 87.8997 101.59L88.564 98.874C88.6198 98.646 88.85 98.5063 89.078 98.5621C89.3061 98.6179 89.4457 98.848 89.39 99.0761L88.7256 101.792ZM91.4201 90.5052C91.3643 90.7333 91.1342 90.8729 90.9061 90.8171C90.678 90.7613 90.5384 90.5312 90.5942 90.3032L91.2585 87.5874C91.3143 87.3593 91.5444 87.2196 91.7725 87.2754C92.0006 87.3312 92.1402 87.5613 92.0844 87.7894L91.4201 90.5052ZM90.2725 96.3472C90.2342 96.5789 90.0153 96.7356 89.7837 96.6972C89.552 96.6589 89.3953 96.44 89.4337 96.2084L89.8863 93.4741C89.9246 93.2424 90.1435 93.0857 90.3751 93.1241C90.6068 93.1624 90.7635 93.3813 90.7251 93.6129L90.2725 96.3472ZM92.967 85.0606C92.9287 85.2922 92.7098 85.4489 92.4782 85.4106C92.2465 85.3722 92.0898 85.1533 92.1282 84.9217L92.5808 82.1874C92.6191 81.9558 92.838 81.7991 93.0696 81.8374C93.3013 81.8757 93.458 82.0946 93.4196 82.3262L92.967 85.0606ZM94.1146 79.2185C94.0588 79.4466 93.8286 79.5863 93.6006 79.5305C93.3725 79.4747 93.2329 79.2446 93.2886 79.0165L93.953 76.3007C94.0088 76.0726 94.2389 75.933 94.467 75.9888C94.695 76.0446 94.8347 76.2747 94.7789 76.5028L94.1146 79.2185ZM95.6615 73.7739C95.6231 74.0055 95.4043 74.1623 95.1726 74.1239C94.941 74.0856 94.7843 73.8667 94.8226 73.6351L95.2752 70.9007C95.3136 70.6691 95.5324 70.5124 95.7641 70.5507C95.9957 70.5891 96.1524 70.808 96.1141 71.0396L95.6615 73.7739ZM84.6016 100.151C84.5458 100.379 84.3157 100.519 84.0876 100.463C83.8596 100.407 83.7199 100.177 83.7757 99.9487L84.4401 97.233C84.4959 97.0049 84.726 96.8652 84.954 96.921C85.1821 96.9768 85.3218 97.2069 85.266 97.435L84.6016 100.151ZM87.2961 88.8641C87.2403 89.0922 87.0102 89.2319 86.7821 89.1761C86.5541 89.1203 86.4144 88.8902 86.4702 88.6621L87.1345 85.9463C87.1903 85.7182 87.4205 85.5786 87.6485 85.6344C87.8766 85.6902 88.0162 85.9203 87.9605 86.1483L87.2961 88.8641ZM86.1486 94.7061C86.1102 94.9378 85.8914 95.0945 85.6597 95.0561C85.4281 95.0178 85.2714 94.7989 85.3097 94.5673L85.7623 91.833C85.8007 91.6013 86.0195 91.4446 86.2512 91.483C86.4828 91.5213 86.6395 91.7402 86.6012 91.9718L86.1486 94.7061ZM88.843 83.4195C88.8047 83.6511 88.5858 83.8078 88.3542 83.7695C88.1225 83.7311 87.9659 83.5123 88.0042 83.2806L88.4568 80.5463C88.4951 80.3147 88.714 80.158 88.9456 80.1963C89.1773 80.2347 89.334 80.4535 89.2956 80.6852L88.843 83.4195ZM89.9906 77.5775C89.9348 77.8055 89.7047 77.9452 89.4766 77.8894C89.2485 77.8336 89.1089 77.6035 89.1647 77.3754L89.829 74.6597C89.8848 74.4316 90.1149 74.2919 90.343 74.3477C90.5711 74.4035 90.7107 74.6336 90.6549 74.8617L89.9906 77.5775ZM91.5375 72.1328C91.4992 72.3645 91.2803 72.5212 91.0487 72.4828C90.817 72.4445 90.6603 72.2256 90.6987 71.994L91.1513 69.2597C91.1896 69.028 91.4085 68.8713 91.6401 68.9097C91.8718 68.948 92.0285 69.1669 91.9901 69.3985L91.5375 72.1328ZM80.4776 98.5097C80.4219 98.7378 80.1917 98.8774 79.9637 98.8217C79.7356 98.7659 79.5959 98.5358 79.6517 98.3077L80.3161 95.5919C80.3719 95.3638 80.602 95.2242 80.8301 95.28C81.0581 95.3357 81.1978 95.5659 81.142 95.7939L80.4776 98.5097ZM83.1721 87.2231C83.1163 87.4511 82.8862 87.5908 82.6581 87.535C82.4301 87.4792 82.2904 87.2491 82.3462 87.021L83.0106 84.3052C83.0664 84.0772 83.2965 83.9375 83.5245 83.9933C83.7526 84.0491 83.8923 84.2792 83.8365 84.5073L83.1721 87.2231ZM82.0246 93.0651C81.9862 93.2967 81.7674 93.4534 81.5357 93.4151C81.3041 93.3767 81.1474 93.1579 81.1857 92.9262L81.6383 90.1919C81.6767 89.9603 81.8955 89.8036 82.1272 89.8419C82.3588 89.8803 82.5155 90.0991 82.4772 90.3308L82.0246 93.0651ZM84.7191 81.7784C84.6807 82.0101 84.4619 82.1668 84.2302 82.1284C83.9986 82.0901 83.8419 81.8712 83.8802 81.6396L84.3328 78.9053C84.3712 78.6736 84.59 78.5169 84.8217 78.5553C85.0533 78.5936 85.21 78.8125 85.1717 79.0441L84.7191 81.7784ZM85.8666 75.9364C85.8108 76.1645 85.5807 76.3041 85.3526 76.2483C85.1246 76.1925 84.9849 75.9624 85.0407 75.7344L85.705 73.0186C85.7608 72.7905 85.9909 72.6509 86.219 72.7067C86.4471 72.7625 86.5867 72.9926 86.531 73.2206L85.8666 75.9364ZM87.4135 70.4918C87.3752 70.7234 87.1563 70.8801 86.9247 70.8418C86.693 70.8034 86.5363 70.5846 86.5747 70.3529L87.0273 67.6186C87.0656 67.387 87.2845 67.2303 87.5161 67.2686C87.7478 67.307 87.9045 67.5258 87.8661 67.7575L87.4135 70.4918ZM76.3537 96.8687C76.2979 97.0967 76.0678 97.2364 75.8397 97.1806C75.6116 97.1248 75.472 96.8947 75.5278 96.6666L76.1921 93.9508C76.2479 93.7228 76.478 93.5831 76.7061 93.6389C76.9342 93.6947 77.0738 93.9248 77.018 94.1529L76.3537 96.8687ZM79.0481 85.582C78.9924 85.8101 78.7622 85.9497 78.5342 85.8939C78.3061 85.8381 78.1664 85.608 78.2222 85.38L78.8866 82.6642C78.9424 82.4361 79.1725 82.2964 79.4006 82.3522C79.6286 82.408 79.7683 82.6382 79.7125 82.8662L79.0481 85.582ZM77.9006 91.424C77.8623 91.6557 77.6434 91.8124 77.4118 91.774C77.1801 91.7357 77.0234 91.5168 77.0618 91.2852L77.5144 88.5509C77.5527 88.3192 77.7716 88.1625 78.0032 88.2009C78.2349 88.2392 78.3916 88.4581 78.3532 88.6897L77.9006 91.424ZM80.5951 80.1374C80.5567 80.369 80.3379 80.5257 80.1062 80.4874C79.8746 80.449 79.7179 80.2301 79.7562 79.9985L80.2088 77.2642C80.2472 77.0326 80.466 76.8758 80.6977 76.9142C80.9293 76.9525 81.086 77.1714 81.0477 77.403L80.5951 80.1374ZM81.7426 74.2953C81.6868 74.5234 81.4567 74.6631 81.2286 74.6073C81.0006 74.5515 80.8609 74.3214 80.9167 74.0933L81.5811 71.3775C81.6369 71.1494 81.867 71.0098 82.095 71.0656C82.3231 71.1214 82.4628 71.3515 82.407 71.5795L81.7426 74.2953ZM83.2896 68.8507C83.2512 69.0823 83.0323 69.239 82.8007 69.2007C82.5691 69.1624 82.4124 68.9435 82.4507 68.7119L82.9033 65.9775C82.9417 65.7459 83.1605 65.5892 83.3922 65.6275C83.6238 65.6659 83.7805 65.8848 83.7422 66.1164L83.2896 68.8507ZM74.9242 83.9409C74.8684 84.169 74.6383 84.3087 74.4102 84.2529C74.1821 84.1971 74.0425 83.967 74.0983 83.7389L74.7626 81.0231C74.8184 80.795 75.0485 80.6554 75.2766 80.7112C75.5047 80.767 75.6443 80.9971 75.5885 81.2252L74.9242 83.9409ZM73.7766 89.7829C73.7383 90.0146 73.5194 90.1713 73.2878 90.1329C73.0561 90.0946 72.8994 89.8757 72.9378 89.6441L73.3904 86.9098C73.4287 86.6781 73.6476 86.5214 73.8792 86.5598C74.1109 86.5981 74.2676 86.817 74.2292 87.0486L73.7766 89.7829ZM76.4711 78.4963C76.4328 78.7279 76.2139 78.8846 75.9823 78.8463C75.7506 78.808 75.5939 78.5891 75.6323 78.3574L76.0849 75.6231C76.1232 75.3915 76.3421 75.2348 76.5737 75.2731C76.8054 75.3115 76.962 75.5303 76.9237 75.762L76.4711 78.4963ZM72.5619 93.8697L71.736 93.6677L72.5619 93.8697ZM72.5619 93.8697L72.2297 95.2276C72.095 95.7782 71.2691 95.5762 71.4038 95.0255L71.736 93.6677L72.0681 92.3098C72.2028 91.7592 73.0287 91.9612 72.894 92.5118L72.5619 93.8697ZM77.9508 71.2964L77.1249 71.0944L77.9508 71.2964ZM77.1249 71.0944C77.2596 70.5437 78.0855 70.7458 77.9508 71.2964L77.6186 72.6543C77.4839 73.2049 76.658 73.0028 76.7927 72.4522L77.1249 71.0944L77.4571 69.7365C77.5918 69.1858 78.4177 69.3879 78.283 69.9385L77.9508 71.2964C77.8161 71.847 76.9902 71.645 77.1249 71.0944ZM79.1656 67.2096C79.1272 67.4413 78.9084 67.598 78.6767 67.5596C78.4451 67.5213 78.2884 67.3024 78.3267 67.0708L78.7793 64.3365C78.8177 64.1048 79.0365 63.9481 79.2682 63.9865C79.4998 64.0248 79.6565 64.2437 79.6182 64.4753L79.1656 67.2096Z" fill="#3D1570"/>
</g>
<path d="M193.694 109.193C161.909 103.567 149.4 86.1852 154.103 59.408C158.787 32.7457 176.443 20.8218 208.229 26.4481C239.9 32.0541 252.523 49.4561 247.86 76.0035C243.177 102.666 225.366 114.799 193.694 109.193ZM196.725 91.9383C214.974 95.1684 224.891 87.5241 227.546 72.4073C230.181 57.4059 223.446 46.9331 205.198 43.703C186.949 40.4729 177.073 47.8864 174.417 63.0032C171.742 78.2354 178.477 88.7082 196.725 91.9383Z" fill="#522D80"/>
<path d="M193.694 109.193C161.909 103.567 149.4 86.1852 154.103 59.408C158.787 32.7457 176.443 20.8218 208.229 26.4481C239.9 32.0541 252.523 49.4561 247.86 76.0035C243.177 102.666 225.366 114.799 193.694 109.193ZM196.725 91.9383C214.974 95.1684 224.891 87.5241 227.546 72.4073C230.181 57.4059 223.446 46.9331 205.198 43.703C186.949 40.4729 177.073 47.8864 174.417 63.0032C171.742 78.2354 178.477 88.7082 196.725 91.9383Z" fill="#522D80"/>
<path d="M163.487 37.5337C169.11 40.138 177.636 43.7405 184.429 46.3828C179.122 49.6822 175.866 55.3832 174.507 63.0938C171.827 78.2928 178.596 88.7468 196.926 91.9788C215.255 95.2108 225.212 87.5873 227.872 72.5034C229.958 60.6723 226.166 51.6616 215.435 46.8081L230.521 33.9453C245.957 42.5656 251.653 56.9507 248.276 76.1017C243.585 102.706 225.702 114.805 193.89 109.196C161.963 103.566 149.391 86.2153 154.103 59.4964C155.701 50.4295 158.814 43.0716 163.487 37.5337Z" fill="#522D80"/>
<path fill-rule="evenodd" clip-rule="evenodd" d="M206.255 10.4869C205.183 9.57601 204.427 8.28366 204.216 6.78091C203.759 3.5258 206.027 0.516141 209.282 0.0586639C212.537 -0.398813 215.547 1.86912 216.004 5.12424C216.461 8.37936 214.194 11.389 210.938 11.8465C210.585 11.8961 210.235 11.9137 209.891 11.9014C216.606 14.9589 219.23 19.1404 217.762 24.4458C215.92 31.1062 215.92 36.1369 217.762 39.5379L182.477 32.7358C184.54 29.9516 185.815 27.8259 186.303 26.3589C188.715 19.0981 188.74 14.2426 189.066 14.2426C189.491 14.2426 194.451 12.7547 203.946 9.77876C204.749 10.0055 205.519 10.2415 206.255 10.4869Z" fill="#3D1570"/>
<path d="M215.844 24.234C215.873 17.4318 211.14 11.3105 204.224 9.84045L202.145 9.3985C194.221 7.71433 186.433 12.7722 184.749 20.6956L183.821 25.0619C182.649 30.5738 186.167 35.9919 191.679 37.1634L196.92 38.2774L193.924 52.418C195.504 54.1761 197.924 55.3386 201.183 55.9055C204.442 56.4723 207.191 56.1215 209.43 54.8531L214.638 30.0117C215.017 29.1343 215.315 28.2069 215.521 27.2364C215.733 26.2385 215.838 25.2427 215.844 24.2609L215.85 24.2332L215.844 24.234Z" fill="#FF9C99"/>
<mask id="mask2" mask-type="alpha" maskUnits="userSpaceOnUse" x="178" y="6" width="41" height="52">
<path d="M215.844 24.2345C215.873 17.4323 211.14 11.311 204.224 9.84093L202.145 9.39899C194.221 7.71482 186.433 12.7727 184.749 20.6961L183.821 25.0624C182.649 30.5743 186.167 35.9923 191.679 37.1639L196.92 38.2779L193.924 52.4185C195.504 54.1766 197.924 55.3391 201.183 55.906C204.442 56.4728 207.191 56.122 209.43 54.8536L214.638 30.0122C215.017 29.1348 215.315 28.2074 215.521 27.2369C215.733 26.239 215.838 25.2432 215.844 24.2614L215.85 24.2337L215.844 24.2345Z" fill="#FF9C99"/>
</mask>
<g mask="url(#mask2)">
<path fill-rule="evenodd" clip-rule="evenodd" d="M196.506 38.2629L204.583 38.0503L195.655 40.8137L196.506 38.2629ZM185.3 18.0958C186.983 13.9887 188.914 11.1327 191.093 9.52787C193.273 7.92305 197.335 6.36685 203.279 4.85927L220.792 16.7478L214.574 33.5864L213.086 38.688L211.308 30.3335L202.747 21.8041L196.528 20.4824L197.045 18.0516L192.901 19.7113L185.3 18.0958Z" fill="#3D1570"/>
</g>
<path d="M141.206 154.031L134.311 178.079L112.1 171.71L106.928 189.746L78.3723 181.558L83.544 163.522L5.17322 141.049L12.0689 117.001L110.129 70.8101L138.685 78.9985L118.996 147.662L141.206 154.031ZM43.1296 125.899L90.5344 139.492L102.135 99.0343L43.1296 125.899Z" fill="#522D80"/>
<mask id="mask3" mask-type="alpha" maskUnits="userSpaceOnUse" x="0" y="48" width="161" height="149">
<path d="M141.206 154.031L134.311 178.079L112.1 171.71L106.928 189.746L78.3723 181.558L83.544 163.522L5.17322 141.049L12.0689 117.001L110.129 70.8101L138.685 78.9985L118.996 147.662L141.206 154.031ZM43.1296 125.899L90.5344 139.492L102.135 99.0343L43.1296 125.899Z" fill="#56AAFF"/>
</mask>
<g mask="url(#mask3)">
<path fill-rule="evenodd" clip-rule="evenodd" d="M65.1436 134.98L68.5446 168.778L60.6797 188.972L74.4965 196.837L97.0284 216.393L101.917 212.354C105.416 208.65 107.4 205.604 107.869 203.214C108.339 200.824 115.92 200.824 130.614 203.214L101.917 124.777L65.1436 134.98Z" fill="#3D1570"/>
</g>
<path d="M373.456 138.743L386.713 159.959L367.119 172.203L377.062 188.114L351.869 203.857L341.926 187.945L272.785 231.149L259.528 209.933L290.816 106.153L316.009 90.4103L353.862 150.987L373.456 138.743ZM286.924 192.804L328.746 166.671L306.443 130.978L286.924 192.804Z" fill="#522D80"/>
<mask id="mask4" mask-type="alpha" maskUnits="userSpaceOnUse" x="221" y="78" width="176" height="170">
<path d="M373.456 138.742L386.713 159.958L367.119 172.202L377.062 188.114L351.869 203.856L341.926 187.944L272.785 231.148L259.528 209.933L290.816 106.152L316.009 90.4098L353.862 150.986L373.456 138.742ZM286.924 192.804L328.746 166.671L306.443 130.978L286.924 192.804Z" fill="#56AAFF"/>
</mask>
<g mask="url(#mask4)">
<path fill-rule="evenodd" clip-rule="evenodd" d="M272.181 181.744C271.614 181.744 268.143 193.86 261.766 218.092L273.032 235.098L311.931 218.305L305.767 178.768C283.943 180.752 272.748 181.744 272.181 181.744Z" fill="#3D1570"/>
</g>
<path fill-rule="evenodd" clip-rule="evenodd" d="M192.893 19.7693L182.902 17.6437C187.862 9.7079 194.593 7.0154 203.096 9.56619C210.282 11.7219 204.624 11.51 194.806 14.8803C193.607 15.2921 192.969 16.9218 192.893 19.7693Z" fill="#3D1570"/>
<path d="M186.454 23.1147C186.495 23.3218 186.516 23.5578 186.516 23.8081C186.516 24.6293 186.293 25.2961 185.878 25.2961C185.462 25.2961 185.24 24.6293 185.24 23.8081C185.24 23.4113 185.292 23.0506 185.392 22.7838C184.373 22.5452 183.494 22.5635 182.703 22.8328C182.481 22.9085 182.239 22.7897 182.163 22.5674C182.088 22.3452 182.207 22.1036 182.429 22.028C183.629 21.6195 184.963 21.6924 186.525 22.2285C187.277 22.4867 188.144 23.1332 189.15 24.1658C189.313 24.334 189.31 24.6032 189.142 24.767C188.973 24.9307 188.704 24.9271 188.54 24.7589C187.722 23.918 187.021 23.3705 186.454 23.1147ZM198.319 25.9239C198.385 26.1668 198.419 26.4637 198.419 26.784C198.419 27.6052 198.197 28.272 197.781 28.272C197.366 28.272 197.144 27.6052 197.144 26.784C197.144 26.3459 197.207 25.9518 197.329 25.6794C196.474 25.5302 195.72 25.5746 195.032 25.8088C194.809 25.8844 194.568 25.7656 194.492 25.5433C194.417 25.3211 194.535 25.0795 194.758 25.0039C195.958 24.5954 197.292 24.6684 198.854 25.2045C199.606 25.4626 200.473 26.1091 201.479 27.1417C201.642 27.3099 201.639 27.5791 201.47 27.7429C201.302 27.9067 201.033 27.903 200.869 27.7348C199.949 26.7892 199.178 26.2146 198.578 26.0087C198.491 25.9788 198.405 25.9506 198.319 25.9239ZM192.829 24.6696L190.388 28.6129L191.913 28.9179C192.143 28.964 192.293 29.1879 192.247 29.4182C192.2 29.6484 191.977 29.7977 191.746 29.7517L189.621 29.3266C189.33 29.2684 189.186 28.938 189.343 28.6859L192.106 24.222C192.229 24.0224 192.491 23.9607 192.691 24.0843C192.891 24.2079 192.952 24.4699 192.829 24.6696ZM189.107 32.0962C188.874 32.1188 188.666 31.9477 188.643 31.714C188.621 31.4803 188.792 31.2725 189.025 31.2499L195.615 30.6122C195.849 30.5896 196.056 30.7607 196.079 30.9944C196.102 31.2281 195.93 31.4359 195.697 31.4585L189.107 32.0962Z" fill="#3D1570"/>
<path fill-rule="evenodd" clip-rule="evenodd" d="M207.223 27.3184C209.405 25.1357 211.504 24.9678 213.519 26.8147C216.541 29.5849 213.12 34.7638 209.515 34.6867C207.111 34.6353 206.347 32.1792 207.223 27.3184Z" fill="#FF9C99"/>
<path fill-rule="evenodd" clip-rule="evenodd" d="M74.0437 134.789L70.513 143.363C69.8351 145.01 68.3136 146.155 66.544 146.352C66.3114 146.378 66.076 146.363 65.8482 146.309C64.7576 146.048 64.0846 144.953 64.3451 143.863L70.4765 118.187L71.4268 117.776C76.1562 115.731 81.4214 115.275 86.4318 116.478C96.8091 118.968 102.686 121.876 104.062 125.202C105.673 129.095 108.873 138.773 113.662 154.236C114.101 155.653 113.308 157.158 111.891 157.597C111.868 157.604 111.844 157.611 111.821 157.618C110.317 158.039 108.741 157.241 108.19 155.78L100.985 136.678C100.453 135.27 98.8819 134.557 97.4723 135.086C96.0282 135.628 95.2362 137.182 95.6468 138.669L100.104 154.806C100.611 156.644 99.533 158.545 97.6953 159.052C97.6216 159.073 97.5472 159.091 97.4723 159.106C95.4403 159.524 93.4326 158.292 92.8851 156.291L88.466 140.139C88.0671 138.681 86.5619 137.822 85.104 138.221C85.0458 138.237 84.988 138.255 84.931 138.275C83.3542 138.82 82.4339 140.458 82.7877 142.089L86.3772 158.632C86.65 159.889 85.8517 161.13 84.5941 161.403C84.3558 161.454 84.1108 161.468 83.8681 161.444C81.9548 161.253 80.3666 159.883 79.8967 158.018L74.0437 134.789ZM292.464 172.494C296.045 171.704 299.789 172.673 302.538 175.102L307.408 179.406L302.731 190.672L292.515 216.339C291.84 218.035 289.952 218.9 288.227 218.306C288.189 218.292 288.151 218.279 288.114 218.264C286.499 217.637 285.698 215.819 286.325 214.204L292.779 197.584C292.816 197.489 292.846 197.392 292.868 197.293C293.121 196.179 292.423 195.07 291.309 194.817C291.299 194.815 291.288 194.812 291.278 194.81C290 194.538 288.744 195.353 288.471 196.631L284.791 213.915C284.781 213.96 284.77 214.005 284.759 214.05C284.309 215.794 282.531 216.842 280.787 216.392C278.93 215.913 277.759 214.081 278.104 212.195L281.298 194.714C281.517 193.516 280.77 192.353 279.59 192.054C279.491 192.029 279.391 192.012 279.29 192.004C278.282 191.921 277.398 192.671 277.316 193.679L275.902 210.962C275.899 210.996 275.896 211.029 275.892 211.062C275.664 213.178 273.763 214.708 271.647 214.479C269.459 214.243 267.866 212.293 268.072 210.102C269.487 194.986 270.979 185.534 272.547 181.744C274.021 178.182 280.66 175.098 292.464 172.494Z" fill="#FF9C99"/>
<path fill-rule="evenodd" clip-rule="evenodd" d="M188.219 297.805L142.305 327.99L109.145 235.098L188.219 297.805ZM304.492 317.574L236.471 313.535L223.292 201.513L259.854 210.016L304.492 317.574Z" fill="#FF4C4C"/>
<path d="M213.332 111.338C213.241 111.122 213.342 110.873 213.558 110.781C213.774 110.689 214.023 110.79 214.115 111.006C217.904 119.934 223.012 124.351 229.454 124.351C229.688 124.351 229.879 124.542 229.879 124.777C229.879 125.011 229.688 125.202 229.454 125.202C222.621 125.202 217.242 120.55 213.332 111.338ZM206.467 141.398C206.679 141.499 206.769 141.753 206.668 141.965C206.567 142.177 206.313 142.267 206.101 142.165L196.748 137.702C196.536 137.6 196.446 137.347 196.547 137.135C196.649 136.923 196.902 136.833 197.114 136.934L206.467 141.398ZM179.932 71.0713C179.892 70.8401 180.046 70.6196 180.277 70.5788C180.508 70.538 180.729 70.6924 180.77 70.9236L182.045 78.1508C182.086 78.382 181.931 78.6026 181.7 78.6434C181.469 78.6842 181.249 78.5298 181.208 78.2986L179.932 71.0713Z" fill="#3D1570"/>
<path d="M92.9873 147.096C95.4526 147.096 97.4512 145.098 97.4512 142.632C97.4512 140.167 95.4526 138.168 92.9873 138.168C90.522 138.168 88.5234 140.167 88.5234 142.632C88.5234 145.098 90.522 147.096 92.9873 147.096Z" fill="#8BD3A8"/>
<path fill-rule="evenodd" clip-rule="evenodd" d="M43.622 214.978L49.2678 218.268L54.086 214.692L52.9523 220.413L56.6368 221.987L53.5191 224.132L54.7945 229.568L49.9764 226.421L46.4336 229.997L45.7251 224.99C42.7964 223.655 41.332 222.988 41.332 222.988C41.332 222.988 42.7964 222.13 45.7251 220.413L43.622 214.978ZM319.049 236.369L327.477 233.003L327.684 224.672L332.976 230.805L337.849 228.118L337.531 233.364L344.57 236.616L337.006 239.199L337.891 246.134L331.806 242.629C327.84 244.692 325.858 245.724 325.858 245.724C325.858 245.724 326.171 243.388 326.796 238.715L319.049 236.369ZM180.809 218.943L189.278 223.832L196.505 218.518L194.804 227.021L200.331 229.359L195.655 232.547L197.568 240.625L190.341 235.948L185.026 241.263L183.964 233.823C179.571 231.839 177.374 230.847 177.374 230.847C177.374 230.847 179.571 229.571 183.964 227.021L180.809 218.943ZM147.418 115.505L153.22 118.886L158.172 115.211L157.007 121.092L160.794 122.709L157.59 124.914L158.901 130.5L153.949 127.266L150.307 130.941L149.579 125.796C146.569 124.424 145.064 123.738 145.064 123.738C145.064 123.738 146.569 122.856 149.579 121.092L147.418 115.505Z" fill="#522D80"/>
</svg>
