<svg width="48" height="49" viewBox="0 0 48 49" fill="none" xmlns="http://www.w3.org/2000/svg">
<circle cx="24" cy="24.5" r="24" fill="#FFDBDB"/>
<path d="M35.2 26.5586V26.659V26.4582C35.1 26.4582 35.1 26.5586 35.2 26.5586C35.3 25.8556 35.4 25.1527 35.4 24.4498C35.4 22.9435 35.1 21.4372 34.5 20.0314C33.9 18.7259 33.1 17.5209 32 16.4163C31 15.4121 29.7 14.5084 28.4 14.0063C27 13.4038 25.5 13.1025 24 13.1025C23.3 13.1025 22.6 13.2029 21.9 13.3033C21.9 13.3033 22 13.3033 22 13.4038H21.8H21.9C20.9 12.8013 19.8 12.5 18.7 12.5C16.9 12.5 15.2 13.2029 14 14.5084C12.7 15.8138 12 17.5209 12 19.228C12 20.4331 12.3 21.5377 12.8 22.5418V22.4414V22.6423C12.8 22.6423 12.8 22.5418 12.7 22.5418C12.6 23.1444 12.5 23.8473 12.5 24.5502C12.5 26.0565 12.8 27.5628 13.4 28.9686C14.1 30.2741 15 31.4791 16 32.5837C17 33.5879 18.3 34.4916 19.6 34.9937C21 35.5962 22.5 35.8975 24 35.8975C24.7 35.8975 25.3 35.7971 26 35.6967C26 35.6967 25.9 35.6967 25.9 35.5962H26.1H26C27 36.1987 28.1 36.5 29.3 36.5C31.1 36.5 32.8 35.7971 34 34.4916C35.3 33.1862 36 31.4791 36 29.772C36 28.6674 35.7 27.5628 35.2 26.5586ZM24.1 31.4791C20.1 31.4791 18.3 29.4707 18.3 27.9644C18.3 27.1611 18.9 26.659 19.6 26.659C21.3 26.659 20.9 29.1695 24.1 29.1695C25.7 29.1695 26.7 28.2657 26.7 27.3619C26.7 26.8598 26.4 26.1569 25.3 25.9561L21.7 25.0523C18.8 24.3494 18.3 22.7427 18.3 21.3368C18.3 18.3243 21.2 17.1192 23.9 17.1192C26.4 17.1192 29.3 18.5251 29.3 20.3326C29.3 21.136 28.6 21.5377 27.8 21.5377C26.3 21.5377 26.6 19.5293 23.6 19.5293C22.1 19.5293 21.3 20.2322 21.3 21.136C21.3 22.1402 22.5 22.4414 23.5 22.6423L26.2 23.2448C29.1 23.8473 29.8 25.5544 29.8 27.1611C29.8 29.5711 27.9 31.4791 24.1 31.4791Z" fill="#522D80"/>
</svg>
