<svg width="48" height="49" viewBox="0 0 48 49" fill="none" xmlns="http://www.w3.org/2000/svg">
<circle cx="24" cy="24.5" r="24" fill="#FFDBDB"/>
<g clip-path="url(#clip0)">
<path d="M30 35.5H18C17.4696 35.5 16.9609 35.2893 16.5858 34.9142C16.2107 34.5391 16 34.0304 16 33.5V15.5C16 14.9696 16.2107 14.4609 16.5858 14.0858C16.9609 13.7107 17.4696 13.5 18 13.5H30C30.5304 13.5 31.0391 13.7107 31.4142 14.0858C31.7893 14.4609 32 14.9696 32 15.5V33.5C32 34.0304 31.7893 34.5391 31.4142 34.9142C31.0391 35.2893 30.5304 35.5 30 35.5Z" stroke="#522D80" stroke-width="2" stroke-miterlimit="10" stroke-linecap="round" stroke-linejoin="round"/>
<path d="M20 18.5C20.5523 18.5 21 18.0523 21 17.5C21 16.9477 20.5523 16.5 20 16.5C19.4477 16.5 19 16.9477 19 17.5C19 18.0523 19.4477 18.5 20 18.5Z" stroke="#522D80" stroke-width="2" stroke-miterlimit="10" stroke-linecap="round" stroke-linejoin="round"/>
</g>
<defs>
<clipPath id="clip0">
<rect width="24" height="24" fill="white" transform="translate(12 12.5)"/>
</clipPath>
</defs>
</svg>
