<svg width="40" height="34" viewBox="0 0 40 34" fill="none" xmlns="http://www.w3.org/2000/svg">
<path d="M18.0138 7.83867H12.7748V0H4.29192V7.83867H0V13.3301H4.29192V24.8633C4.29192 31.9027 6.13801 34 13.3733 34C14.9201 34 16.467 33.8005 18.0138 33.75V27.5098C17.265 27.5098 16.5174 27.6096 15.8192 27.6096C13.9719 27.6096 12.7748 27.1601 12.7748 25.1133V13.3301H18.0138V7.83867Z" fill="#286F8D"/>
<path d="M21.8848 33.8282H30.3689V20.9849C30.3689 17.7374 32.5647 14.8385 36.7557 14.8385C37.9035 14.8385 38.901 15.038 39.9995 15.3385V7.59233C39.3505 7.4421 38.6522 7.39282 38.0032 7.39282C34.3603 7.39282 31.4662 9.14156 30.2186 12.4395H30.1189V7.8928H21.8848V33.8282Z" fill="black"/>
<path fill-rule="evenodd" clip-rule="evenodd" d="M31.7695 33.8281H39.9832V25.5352H31.7695V33.8281Z" fill="#E93A97"/>
</svg>
