<svg width="73" height="34" viewBox="0 0 73 34" fill="none" xmlns="http://www.w3.org/2000/svg">
<path d="M17.1893 0.00244771C16.912 0.0157711 16.6426 0.086245 16.3828 0.252262C17.4523 0.466138 18.7056 0.609891 19.3807 1.5846C19.719 1.94399 19.6137 2.49621 19.2753 2.81176C18.6356 3.57435 17.5372 3.81365 16.5977 3.56997C13.4122 2.8179 10.3995 1.35583 7.12649 0.975408C5.37341 0.744001 3.65977 1.58723 2.45015 2.80738C1.33343 3.9276 0.92742 5.62809 1.14848 7.16379C1.39549 8.37867 2.29588 9.64089 3.59841 9.81971C2.82706 8.98173 2.68068 7.52668 3.48008 6.65539C3.93238 6.09441 4.73616 6.01727 5.40409 6.1207C7.94079 6.59228 10.4126 7.35575 12.9423 7.8694C14.3588 8.25508 15.7587 8.71527 17.2067 8.97823C17.233 10.7085 17.233 12.4371 17.2067 14.1674C16.2723 14.8651 15.38 15.6163 14.4631 16.3368C15.3554 17.0047 16.2758 17.6306 17.1981 18.2564C17.2577 20.7037 17.1893 23.1503 17.2332 25.5974C15.7238 26.7632 13.7014 26.9526 11.8644 26.7369C9.91301 26.6284 8.18097 25.466 6.90297 24.0547C9.04541 22.9117 11.2289 21.8336 13.4202 20.7854C13.4972 16.9267 13.4341 13.0664 13.4551 9.20613C10.7168 10.3544 8.00653 11.564 5.27699 12.7298C6.06587 10.712 7.67065 9.07728 9.58518 8.10607C9.08538 8.13587 8.56121 8.09906 8.09507 8.31644C4.51177 9.73118 1.5587 12.7719 0.447427 16.4814C-0.295879 18.8376 -0.056584 21.4135 0.749833 23.7173C1.74909 26.2803 3.59771 28.5489 6.04852 29.8443C7.42486 30.556 8.90622 31.2229 10.484 31.2424C13.75 31.5141 17.1858 30.2819 19.3896 27.8239C20.3519 26.7913 20.8368 25.4451 21.3136 24.1424C21.7556 22.8593 21.9553 21.4935 21.9097 20.1366C20.8526 22.2333 19.4466 24.2027 17.527 25.5931C17.5391 23.1545 17.5226 20.7169 17.5312 18.2783C18.3658 17.642 19.2036 17.0065 20.0118 16.3368C19.1826 15.6022 18.3587 14.8686 17.5312 14.1323C17.5349 12.4178 17.5277 10.6998 17.5312 8.98699C19.3982 8.88882 21.5466 7.90359 22.0498 5.9454C22.4004 4.6674 22.5836 3.15361 21.7999 1.99658C21.0794 1.17614 20.145 0.463508 19.0476 0.26541C18.44 0.212292 17.7992 -0.0266535 17.1893 0.00244771ZM8.45445 11.7612C8.44743 15.4778 8.47636 19.1943 8.4413 22.911C7.82071 23.1547 7.21046 23.4212 6.60056 23.691C5.47509 22.0625 4.77561 20.1454 4.45304 18.1994C4.36539 16.5568 4.67042 14.8931 5.24193 13.3522C6.32183 12.8385 7.37806 12.2837 8.45445 11.7612ZM67.7236 0.00244771C67.4228 -0.00666832 67.1288 0.0524106 66.8515 0.252262C67.4826 0.397768 68.1495 0.460002 68.7403 0.756273C69.2662 1.00872 69.6142 1.53114 69.7963 2.07108C69.8947 2.65486 69.4669 3.19306 68.955 3.41219C68.0364 3.83644 66.994 3.64009 66.0581 3.3859C63.8139 2.69869 61.6287 1.80988 59.3394 1.27343C58.163 1.02274 56.9298 0.786075 55.7413 1.09812C54.4527 1.46101 53.1449 2.0781 52.3842 3.22812C51.4023 4.4956 51.2789 6.23904 51.7575 7.72916C52.1519 8.72316 52.9513 9.7005 54.0803 9.82847C53.712 9.35514 53.0784 8.87743 53.2607 8.20249C53.3624 7.53281 53.6401 6.85349 54.1767 6.41873C54.7133 6.01377 55.4477 6.01903 56.0701 6.19959C58.3527 6.62384 60.5807 7.26459 62.8371 7.79928C64.3658 8.1236 65.834 8.69423 67.3732 8.97823C67.3995 10.7015 67.3793 12.4248 67.3862 14.1498C66.5589 14.8809 65.7314 15.611 64.9143 16.3543C65.7383 16.9907 66.5473 17.6428 67.3818 18.2652C67.3939 20.7179 67.3776 23.1738 67.395 25.6281C65.9469 26.7131 64.0413 26.9806 62.2847 26.7368C60.3442 26.6211 58.6471 25.4537 57.3586 24.0723C57.8862 23.7039 58.4893 23.4675 59.059 23.1694C60.6614 22.3805 62.2435 21.5548 63.8581 20.794C63.9089 16.932 63.8642 13.0682 63.88 9.20613C61.1591 10.3649 58.4595 11.578 55.7282 12.7123C56.3523 11.2309 57.3498 9.87581 58.6907 8.96946C59.0924 8.60307 59.4989 8.21914 60.0494 8.09292C59.4989 8.13149 58.9291 8.11308 58.4278 8.36903C54.5799 9.92577 51.298 13.3215 50.574 17.4938C50.2989 19.6115 50.4961 21.8108 51.2358 23.8181C52.184 26.1742 53.854 28.2674 56.026 29.6032C57.0656 30.2361 58.1823 30.7454 59.348 31.0976C62.1389 31.5621 65.1324 31.1607 67.5745 29.6776C69.1854 28.5538 70.6818 27.097 71.3566 25.2072C72.0808 23.6031 72.3718 21.8509 72.4084 20.1014C72.0718 20.5414 71.8746 21.0647 71.5888 21.5345C70.6615 23.0912 69.4615 24.5016 67.9994 25.5797C68.0169 23.1342 67.9775 20.6886 68.0213 18.2431C68.8488 17.6453 69.6252 16.9791 70.4579 16.3848C69.6902 15.5889 68.8188 14.9017 68.0036 14.1584C67.9878 12.4439 68.0229 10.7276 67.9861 9.01311C69.5901 8.90968 71.2126 8.19004 72.0751 6.78232C72.9727 5.33602 72.9675 3.36556 72.1013 1.90875C71.4193 1.00767 70.3475 0.427395 69.2395 0.260852C68.7425 0.220531 68.2249 0.0178748 67.7236 0.00244771ZM58.9188 11.7569C58.9397 15.4664 58.9188 19.175 58.9274 22.8846C58.2947 23.1493 57.6696 23.4289 57.0384 23.6954C56.1233 22.4086 55.4107 20.9614 55.0443 19.4222C54.6394 17.4062 54.7465 15.221 55.6842 13.3609C56.7711 12.842 57.8422 12.2986 58.9188 11.7569ZM48.9877 1.23837C50.0325 3.06859 49.3787 5.5492 47.8061 6.86752C46.8402 7.49687 45.7287 7.84398 44.6401 8.19635C44.6646 15.682 44.6438 23.1694 44.6471 30.6551C44.7242 30.9969 44.4104 31.265 44.088 31.1284C43.4515 31.0986 43.2832 30.4272 43.0132 29.9749C39.0968 22.7732 35.2227 15.547 31.2746 8.36114C31.1992 13.6467 31.2728 18.9375 31.2378 24.2246C33.1031 24.5772 34.9192 25.4765 36.1394 26.9596C36.7056 26.5213 37.072 25.75 37.7978 25.5729C37.6137 25.9077 37.3455 26.1828 37.0896 26.4635C35.6783 28.0255 34.2706 29.5945 32.8611 31.16C32.2074 30.336 31.3361 29.5542 30.2455 29.442C29.5285 29.4139 28.6995 29.4507 28.1769 30.017C27.5756 30.5534 27.1726 31.458 27.6019 32.2241C28.105 33.3233 29.3707 33.6213 30.4366 33.8843C29.1043 34.1472 27.6126 33.993 26.5379 33.1006C25.6824 32.3696 24.9056 31.442 24.6832 30.3097C24.3834 28.7495 24.8497 27.0155 26.0155 25.9093C27.2902 24.6489 29.1588 24.179 30.9084 24.279C30.9557 21.9752 30.9347 19.6719 30.9189 17.3683C30.0686 17.2333 28.9099 17.3543 28.5137 18.2431C28.284 18.9636 28.8241 19.5702 29.3586 19.9646C28.696 19.8489 27.9597 19.7227 27.4811 19.209C26.9166 18.5131 26.4783 17.6909 26.3153 16.8038C26.1523 15.6626 26.452 14.3618 27.4022 13.6272C28.3962 12.8576 29.7198 12.7524 30.9329 12.7805V7.91043C30.4929 7.24951 30.0704 6.49218 29.315 6.15033C28.8206 5.94522 28.1755 5.87159 27.7495 6.25727C27.1605 6.7569 27.0183 7.55104 26.7853 8.24702C26.5592 6.54828 26.7292 4.62164 27.9195 3.2893C29.3571 1.42753 32.3987 1.35916 33.9712 3.08068C34.6514 3.78016 35.1177 4.64268 35.5807 5.49293C38.4908 10.675 41.3431 15.8905 44.283 21.055C44.3005 16.7723 44.3093 12.4861 44.2795 8.20319C43.7744 8.00685 43.2118 8.0121 42.698 7.83329C41.7408 7.58085 40.9432 6.96376 40.2349 6.29584C39.7932 6.81475 39.3477 7.33191 38.9359 7.87361C38.8395 7.82102 38.6484 7.71759 38.5522 7.66499C40.0598 5.76465 41.676 3.95021 43.2451 2.09896C44.0673 2.96498 45.1404 3.67323 46.3639 3.75212C47.6413 3.60503 48.8983 2.58298 48.9877 1.23837Z" fill="black"/>
</svg>
