<svg width="35" height="42" viewBox="0 0 35 42" fill="none" xmlns="http://www.w3.org/2000/svg">
<path fill-rule="evenodd" clip-rule="evenodd" d="M25.8069 0C26.078 2.49224 25.0839 4.93998 23.6231 6.73499C22.1018 8.50033 19.6619 9.86513 17.2823 9.68715C16.981 7.29871 18.1859 4.76197 19.5264 3.20431C21.0475 1.43897 23.6984 0.089009 25.8069 0ZM33.5657 14.3381C33.2391 14.5337 28.9254 17.1166 28.9699 22.3411C29.0295 28.6322 34.5157 30.7579 34.6897 30.8253L34.6931 30.8267C34.6629 30.975 33.8195 33.8678 31.726 36.7902C29.9639 39.3715 28.1415 41.8934 25.2197 41.9379C23.8358 41.9669 22.9017 41.5742 21.9284 41.1651C20.9103 40.7372 19.8494 40.2912 18.1861 40.2912C16.4362 40.2912 15.3297 40.7505 14.2631 41.1932C13.3376 41.5773 12.4422 41.949 11.1827 41.9972C8.39639 42.1011 6.28784 39.238 4.46544 36.6864C0.835717 31.4645 -1.98071 21.9703 1.79963 15.5171C3.62202 12.3425 6.98065 10.3101 10.5501 10.2508C12.1174 10.2257 13.6268 10.822 14.9504 11.345C15.9672 11.7467 16.8744 12.1051 17.6138 12.1051C18.2627 12.1051 19.1408 11.7609 20.1644 11.3597C21.7779 10.7272 23.7529 9.95302 25.7618 10.1618C27.1324 10.2063 31.0483 10.7107 33.5786 14.3304C33.5754 14.3323 33.5711 14.3349 33.5657 14.3381Z" fill="black"/>
</svg>
