<svg width="96" height="96" viewBox="0 0 96 96" fill="none" xmlns="http://www.w3.org/2000/svg">
<path d="M52.6207 27.2414L22.8275 14L15.1034 21.7241L40.4827 39.3793" stroke="white" stroke-width="2" stroke-miterlimit="10" stroke-linecap="round" stroke-linejoin="round"/>
<path d="M27.3561 55.6055L16.3823 54.7614C14.3398 54.6047 13.2033 57.0731 14.6521 58.5219L21.6149 65.4847" stroke="white" stroke-width="2" stroke-miterlimit="10" stroke-linecap="round" stroke-linejoin="round"/>
<path d="M64.7587 39.3793L78.0001 69.1724L70.2759 76.8965L52.6207 51.5172" stroke="white" stroke-width="2" stroke-miterlimit="10" stroke-linecap="round" stroke-linejoin="round"/>
<path d="M36.3944 64.6439L37.2386 75.6177C37.3953 77.6602 34.9268 78.7968 33.478 77.3479L26.5153 70.3852" stroke="white" stroke-width="2" stroke-miterlimit="10" stroke-linecap="round" stroke-linejoin="round"/>
<path d="M43.7931 60.3449L21.4704 73.317C20.6704 73.7738 19.664 73.6392 19.0119 72.9882C18.3608 72.3372 18.2251 71.3297 18.6831 70.5297L31.6552 48.2069L60.2996 19.5625C63.6122 16.2499 72.4376 15.1487 74.6445 17.3556C76.8514 19.5625 75.7512 28.3868 72.4376 31.7004L43.7931 60.3449Z" stroke="white" stroke-width="2" stroke-miterlimit="10" stroke-linecap="round" stroke-linejoin="round"/>
</svg>
