<svg width="96" height="96" viewBox="0 0 96 96" fill="none" xmlns="http://www.w3.org/2000/svg">
<path d="M81.0714 72.5H36.1429L22.9286 17H15M25.5714 27.5714H89L81.0714 61.9286H33.5L25.5714 27.5714Z" stroke="#E2E2E2" stroke-width="3" stroke-linecap="round" stroke-linejoin="round"/>
<path d="M87.5 28.5H27L35 61.5H80.5L87.5 28.5Z" stroke="#E2E2E2"/>
<path d="M75.7857 88.3571C78.7049 88.3571 81.0714 85.9906 81.0714 83.0714C81.0714 80.1522 78.7049 77.7857 75.7857 77.7857C72.8665 77.7857 70.5 80.1522 70.5 83.0714C70.5 85.9906 72.8665 88.3571 75.7857 88.3571Z" fill="#E2E2E2" stroke="#E2E2E2" stroke-width="3" stroke-linecap="round" stroke-linejoin="round"/>
<path d="M41.4286 88.3571C44.3478 88.3571 46.7143 85.9906 46.7143 83.0714C46.7143 80.1522 44.3478 77.7857 41.4286 77.7857C38.5094 77.7857 36.1429 80.1522 36.1429 83.0714C36.1429 85.9906 38.5094 88.3571 41.4286 88.3571Z" fill="#E2E2E2" stroke="#E2E2E2" stroke-width="3" stroke-linecap="round" stroke-linejoin="round"/>
<path d="M88 29H28L35 61.5H80.5L88 29Z" fill="#E2E2E2"/>
<path d="M77.0714 67.5H32.1429L18.9286 12H11M21.5714 22.5714H85L77.0714 56.9286H29.5L21.5714 22.5714Z" stroke="black" stroke-width="2" stroke-linecap="round" stroke-linejoin="round"/>
<path d="M71.7857 83.3571C74.7049 83.3571 77.0714 80.9906 77.0714 78.0714C77.0714 75.1522 74.7049 72.7857 71.7857 72.7857C68.8665 72.7857 66.5 75.1522 66.5 78.0714C66.5 80.9906 68.8665 83.3571 71.7857 83.3571Z" stroke="black" stroke-width="2" stroke-linecap="round" stroke-linejoin="round"/>
<path d="M37.4286 83.3571C40.3478 83.3571 42.7143 80.9906 42.7143 78.0714C42.7143 75.1522 40.3478 72.7857 37.4286 72.7857C34.5094 72.7857 32.1429 75.1522 32.1429 78.0714C32.1429 80.9906 34.5094 83.3571 37.4286 83.3571Z" stroke="black" stroke-width="2" stroke-linecap="round" stroke-linejoin="round"/>
</svg>
