<svg width="96" height="96" viewBox="0 0 96 96" fill="none" xmlns="http://www.w3.org/2000/svg">
<path d="M77.0714 67.5H32.1429L18.9286 12H11M21.5714 22.5714H85L77.0714 56.9286H29.5L21.5714 22.5714Z" stroke="white" stroke-width="2" stroke-linecap="round" stroke-linejoin="round"/>
<path d="M71.7857 83.3571C74.7049 83.3571 77.0714 80.9906 77.0714 78.0714C77.0714 75.1522 74.7049 72.7857 71.7857 72.7857C68.8665 72.7857 66.5 75.1522 66.5 78.0714C66.5 80.9906 68.8665 83.3571 71.7857 83.3571Z" stroke="white" stroke-width="2" stroke-linecap="round" stroke-linejoin="round"/>
<path d="M37.4285 83.3571C40.3478 83.3571 42.7143 80.9906 42.7143 78.0714C42.7143 75.1522 40.3478 72.7857 37.4285 72.7857C34.5093 72.7857 32.1428 75.1522 32.1428 78.0714C32.1428 80.9906 34.5093 83.3571 37.4285 83.3571Z" stroke="white" stroke-width="2" stroke-linecap="round" stroke-linejoin="round"/>
</svg>
