<svg width="115" height="40" viewBox="0 0 115 40" fill="none" xmlns="http://www.w3.org/2000/svg">
<path d="M9.0673 0.187654C7.53047 0.536934 6.76206 0.858273 5.60245 1.65463C3.95385 2.7863 2.87807 4.37901 2.51481 6.20924C2.41702 6.7122 2.29128 8.22109 2.24936 9.56232L2.16553 12.0073L1.08975 12.0492L0 12.0911V14.592V17.0928L1.08975 17.1347L2.16553 17.1766L2.20745 23.771L2.23539 30.3794H5.37891H8.52243L8.55037 23.771L8.59228 17.1766L10.8696 17.1347L13.1329 17.1068V14.592V12.0771H11.0093C9.83572 12.0771 8.78788 12.0213 8.67611 11.9514C8.52243 11.8536 8.49448 11.3786 8.55037 9.4785C8.60625 7.35488 8.64817 7.06148 8.92759 6.60043C9.41658 5.7901 10.0872 5.46877 11.177 5.53862C11.6799 5.56656 12.2946 5.6923 12.5601 5.83202C12.8256 5.95776 13.0631 6.06952 13.091 6.06952C13.105 6.06952 13.1329 4.868 13.1329 3.40103V0.746502L12.616 0.536934C12.3366 0.411194 11.8196 0.257511 11.4703 0.201626C11.1211 0.131771 10.674 0.0479431 10.4784 0.00602913C10.2828 -0.0219135 9.65409 0.0479431 9.0673 0.187654Z" fill="#0089D0"/>
<path d="M40.0273 0.760431C39.8736 0.830287 39.5802 0.886172 39.3706 0.886172C39.161 0.900143 38.9375 0.983971 38.8816 1.0678C38.8257 1.1656 38.5323 1.37516 38.2529 1.51488C37.9595 1.66856 37.722 1.86416 37.722 1.97593C37.722 2.07372 37.6382 2.15755 37.5544 2.15755C37.4566 2.15755 37.2191 2.39506 37.0374 2.68846C36.772 3.09362 36.6742 3.45687 36.6183 4.39294C36.5484 5.44078 36.5764 5.65035 36.8558 6.2092C37.4146 7.31292 38.6581 8.30487 39.4824 8.30487C39.664 8.30487 39.8177 8.34679 39.8177 8.40267C39.8177 8.54238 40.9074 8.52841 41.0332 8.3887C41.0751 8.34679 41.2986 8.30487 41.5222 8.30487C41.7317 8.30487 41.9134 8.23502 41.9134 8.16516C41.9134 8.08134 41.9972 8.02545 42.095 8.02545C42.4024 8.02545 43.562 6.82393 43.7855 6.29302C43.9113 5.99963 44.009 5.27313 44.023 4.54662C44.051 3.3451 44.037 3.28922 43.5899 2.66051C42.9892 1.82224 41.8295 0.956028 41.2148 0.872201C40.9494 0.830287 40.628 0.760431 40.5163 0.718518C40.4045 0.676604 40.1809 0.690576 40.0273 0.760431Z" fill="#797D80"/>
<path d="M72.1611 0.858191C71.9376 0.886133 71.6861 0.997902 71.6022 1.08173C71.5324 1.17953 71.225 1.37512 70.9177 1.52881C70.3868 1.79426 69.7161 2.52076 69.7161 2.82813C69.7161 2.92593 69.6603 2.99578 69.5764 2.99578C69.5066 2.99578 69.4367 3.10755 69.4367 3.23329C69.4367 3.373 69.3389 3.6664 69.2271 3.88994C69.1154 4.09951 69.0176 4.46276 69.0176 4.67233C69.0176 4.88189 69.1154 5.24514 69.2271 5.45471C69.3389 5.67825 69.4367 5.97165 69.4367 6.09739C69.4367 6.2371 69.5066 6.34887 69.5764 6.34887C69.6603 6.34887 69.7161 6.44667 69.7161 6.55844C69.7161 6.82389 70.6382 7.74599 70.9037 7.74599C71.0155 7.74599 71.1133 7.7879 71.1133 7.85776C71.1133 8.13718 73.5582 8.68206 73.7119 8.4166C73.7538 8.36072 73.9354 8.30483 74.131 8.30483C74.3127 8.30483 74.4663 8.23498 74.4663 8.16512C74.4663 8.0813 74.5362 8.02541 74.62 8.02541C74.9414 8.02541 76.0032 7.1592 76.087 6.83786C76.1289 6.64226 76.2267 6.48858 76.2966 6.48858C76.3664 6.48858 76.4223 6.40475 76.4223 6.29298C76.4223 6.19519 76.5201 6.02753 76.6319 5.92973C76.7856 5.80399 76.8414 5.45471 76.8414 4.57453C76.8414 3.6664 76.7995 3.38698 76.6319 3.33109C76.5201 3.27521 76.4223 3.16344 76.4223 3.06564C76.4223 2.80019 75.6539 1.90603 75.0392 1.44498C74.7178 1.22144 74.4663 1.08173 74.4663 1.13761C74.4663 1.20747 74.4105 1.17953 74.3546 1.08173C74.2428 0.900104 72.8177 0.746421 72.1611 0.858191Z" fill="#797D80"/>
<path d="M16.9471 1.4869C15.6757 2.10163 14.9492 3.24727 14.9492 4.65836C14.9492 5.7062 15.2147 6.3349 15.9691 7.08935C17.6457 8.76589 20.2164 8.41661 21.4179 6.34887C22.3959 4.65836 21.8789 2.75828 20.1325 1.66853C19.4479 1.23542 19.2523 1.17953 18.442 1.17953C17.8273 1.1935 17.3523 1.27733 16.9471 1.4869Z" fill="#0089D0"/>
<path d="M79.8732 6.1534C79.8173 6.20928 79.7754 7.46669 79.7754 8.96161V11.658H78.8114C78.0569 11.658 77.8334 11.7139 77.7635 11.8816C77.6517 12.175 77.6517 16.6737 77.7635 17.2326L77.8613 17.6657H78.8114H79.7754L79.8033 24.1203L79.8452 30.589H83.338H86.8308L86.8727 24.1343L86.9007 17.6796L88.7588 17.6377L90.603 17.5958L90.5891 15.9472C90.5891 15.0251 90.631 14.3265 90.7008 14.3405C90.7707 14.3685 90.8405 14.4523 90.8405 14.5221C90.8405 14.606 90.9663 14.8155 91.106 14.9972C91.2597 15.1788 91.3715 15.4303 91.3715 15.542C91.3715 15.6538 91.5251 15.9612 91.7207 16.2127C91.9163 16.4641 92.07 16.7575 92.07 16.8693C92.07 16.995 92.1119 17.1068 92.1818 17.1348C92.2936 17.1767 92.6428 17.7774 93.0061 18.5319C93.1458 18.8253 93.2995 19.0628 93.3554 19.0628C93.4252 19.0628 93.4671 19.1606 93.4671 19.2584C93.4671 19.3701 93.6627 19.7474 93.8863 20.0827C94.1238 20.432 94.3054 20.7812 94.3054 20.8651C94.3054 20.9349 94.5569 21.4099 94.8643 21.885C95.1716 22.3739 95.4231 22.849 95.4231 22.9328C95.4231 23.0306 95.493 23.1144 95.5768 23.1144C95.6466 23.1144 95.6886 23.1703 95.6466 23.2402C95.6047 23.31 95.6606 23.4358 95.7724 23.5336C95.8841 23.6314 95.9819 23.7711 95.9819 23.8549C95.9819 23.9247 96.1356 24.2042 96.3312 24.4557C96.5268 24.7071 96.8062 25.1961 96.946 25.5314C97.0996 25.8807 97.2813 26.2021 97.3651 26.244C97.4489 26.2999 97.5188 26.4675 97.5188 26.6212C97.5188 26.7609 97.5886 26.8866 97.6585 26.8866C97.7423 26.8866 97.7982 26.9565 97.7982 27.0403C97.7982 27.1242 97.9239 27.3756 98.0916 27.5992L98.371 28.0043L98.0916 28.4095C97.9239 28.633 97.7982 28.9125 97.7982 29.0382C97.7982 29.1639 97.7423 29.2617 97.6585 29.2617C97.5886 29.2617 97.5188 29.3176 97.5188 29.4015C97.5188 29.4713 97.3372 29.8485 97.0996 30.2397C96.8761 30.6309 96.6805 31.0361 96.6805 31.1479C96.6805 31.2596 96.5827 31.3574 96.4709 31.3574C96.3592 31.3574 96.2614 31.4412 96.2614 31.539C96.2614 31.7905 95.8562 32.6148 95.5908 32.9222C95.479 33.0619 95.4231 33.1737 95.479 33.1737C95.5768 33.1737 94.7804 34.6546 94.487 35.0039C94.3892 35.1157 94.3054 35.3252 94.3054 35.451C94.3054 35.5767 94.2495 35.6885 94.1657 35.6885C94.0958 35.6885 94.026 35.8142 94.026 35.9679C94.026 36.1216 93.9282 36.2893 93.8164 36.3312C93.7046 36.3871 93.6348 36.4569 93.6627 36.5128C93.6907 36.5547 93.537 36.904 93.3134 37.2952C92.6568 38.4827 92.07 39.6843 92.07 39.8659C92.07 39.9776 93.034 40.0196 95.8562 39.9916L99.6284 39.9497L100.076 39.1114C100.327 38.6504 100.564 38.2452 100.62 38.2312C100.69 38.2033 100.732 38.0776 100.746 37.9518C100.746 37.8121 100.872 37.5187 101.026 37.2952C101.165 37.0577 101.459 36.5547 101.654 36.1775C101.85 35.7863 102.157 35.1995 102.339 34.8502C102.534 34.5009 102.688 34.1377 102.688 34.0399C102.688 33.9561 102.786 33.8722 102.898 33.8722C103.023 33.8722 103.107 33.7465 103.107 33.523C103.107 33.3274 103.149 33.1737 103.219 33.1737C103.331 33.1737 103.666 32.4891 103.666 32.2376C103.666 32.1398 103.722 32.056 103.792 32.056C103.918 32.056 104.504 30.9662 104.504 30.7567C104.504 30.7008 104.63 30.5331 104.784 30.3794C104.937 30.2258 105.063 29.9743 105.063 29.8346C105.063 29.6809 105.133 29.5132 105.203 29.4713C105.287 29.4294 105.343 29.2617 105.343 29.1081C105.343 28.9683 105.44 28.8426 105.552 28.8426C105.664 28.8426 105.72 28.7588 105.678 28.647C105.636 28.5492 105.706 28.4235 105.818 28.3816C105.943 28.3257 106.041 28.186 106.041 28.0602C106.041 27.7808 106.474 26.9984 106.712 26.8447C106.796 26.7888 106.879 26.6212 106.879 26.4954C106.879 26.3697 106.977 26.1322 107.089 25.9925C107.201 25.8388 107.299 25.6153 107.299 25.4756C107.299 25.3498 107.396 25.2101 107.508 25.1542C107.62 25.1123 107.718 24.9446 107.718 24.791C107.718 24.6373 107.76 24.5115 107.83 24.5115C107.885 24.5115 108.011 24.302 108.123 24.0505C108.235 23.813 108.43 23.4358 108.584 23.2262C108.724 23.0306 108.835 22.7651 108.835 22.6394C108.835 22.5137 108.891 22.4159 108.961 22.4159C109.031 22.4159 109.129 22.3041 109.171 22.1644C109.269 21.9129 109.534 21.382 109.967 20.5996C110.107 20.3342 110.456 19.6496 110.722 19.0907C111.001 18.5458 111.266 18.0848 111.322 18.0848C111.378 18.0848 111.504 17.8752 111.602 17.6237C111.7 17.3862 111.867 17.023 111.979 16.8274C112.091 16.6318 112.37 16.1009 112.594 15.6398C112.831 15.1788 113.18 14.5361 113.376 14.2008C113.572 13.8795 113.725 13.5162 113.725 13.4044C113.725 13.2927 113.823 13.1949 113.935 13.1949C114.047 13.1949 114.144 13.0691 114.144 12.9294C114.144 12.7757 114.214 12.6081 114.284 12.5662C114.368 12.5243 114.424 12.3007 114.424 12.0632V11.658H110.596C107.075 11.658 106.768 11.672 106.684 11.8956C106.642 12.0353 106.544 12.2448 106.474 12.3566C106.404 12.4684 106.237 12.8177 106.097 13.125C105.957 13.4324 105.748 13.7956 105.636 13.9214C105.524 14.0611 105.482 14.1729 105.538 14.1729C105.594 14.1729 105.51 14.3964 105.343 14.6619C104.882 15.4023 102.269 20.6834 102.269 20.8651C102.269 20.9489 102.185 21.0187 102.087 21.0187C101.99 21.0187 101.794 20.6974 101.654 20.3062C101.515 19.915 101.305 19.5657 101.207 19.5238C101.095 19.4819 101.012 19.3841 101.012 19.3003C101.012 19.0488 100.411 17.8054 100.285 17.8054C100.229 17.8054 100.173 17.7215 100.173 17.6237C100.173 17.3723 99.838 16.6877 99.7262 16.6877C99.6564 16.6877 99.6145 16.534 99.6145 16.3384C99.6145 16.1149 99.5306 15.9891 99.4049 15.9891C99.2931 15.9891 99.1953 15.9053 99.1953 15.7935C99.1953 15.4862 98.6365 14.3126 98.4828 14.3126C98.399 14.3126 98.385 14.2427 98.4269 14.1729C98.4688 14.089 98.4548 14.0331 98.385 14.0331C98.3151 14.0331 98.1754 13.7677 98.0776 13.4324C97.9659 13.111 97.7982 12.7478 97.7004 12.6221C97.6026 12.4963 97.5607 12.3566 97.6166 12.3147C97.6585 12.2588 97.6026 12.2169 97.4769 12.2169C97.3372 12.2169 97.2394 12.1051 97.2394 11.9375C97.2394 11.658 97.1416 11.658 92.07 11.658H86.9007L86.8727 8.89175L86.8308 6.13942L83.3939 6.09751C81.5078 6.08354 79.929 6.11148 79.8732 6.1534Z" fill="#797D80"/>
<path d="M25.6921 6.44675C25.6921 6.5166 25.6921 7.70415 25.7061 9.0873C25.7201 12.1051 25.734 12.0771 24.3649 12.0771H23.4707V14.592V17.1068H24.4487C25.273 17.1068 25.4406 17.1487 25.5664 17.3862C25.6642 17.5678 25.7061 19.7194 25.6782 24.0225L25.6362 30.3794H28.7378H31.8534L31.8814 23.771L31.9233 17.1766L33.7814 17.1347L35.6256 17.0928V14.592V12.0911L33.7814 12.0492L31.9233 12.0073L31.8814 9.17113L31.8534 6.34895H28.7798C27.0892 6.34895 25.7061 6.39086 25.6921 6.44675Z" fill="#0089D0"/>
<path d="M36.9127 21.1166L36.9546 30.5891L40.4195 30.631L43.8704 30.6589V21.1585V11.6581H40.3776H36.8848L36.9127 21.1166Z" fill="#797D80"/>
<path d="M44.8477 11.7559C44.8477 11.8258 44.9455 12.1192 45.0712 12.4265C45.183 12.7339 45.3087 13.0971 45.3646 13.2229C45.4065 13.3626 45.5322 13.4744 45.63 13.4744C45.7418 13.4744 45.8256 13.5722 45.8256 13.6839C45.8256 13.9075 45.8955 14.0612 46.2867 14.8016C46.3985 15.0252 46.6779 15.57 46.9014 15.9892C47.111 16.4083 47.3206 16.7855 47.3625 16.8274C47.4184 16.8833 47.6978 17.4422 48.1868 18.504C48.2706 18.6996 48.4662 19.0349 48.6059 19.2724C48.7596 19.4959 48.8853 19.8033 48.8853 19.943C48.8993 20.0827 48.9971 20.2224 49.1089 20.2644C49.2206 20.3202 49.3184 20.432 49.3184 20.5298C49.3184 20.6276 49.5001 21.0467 49.7236 21.4659C49.9611 21.899 50.1008 22.2762 50.0589 22.3321C50.003 22.374 50.0729 22.4159 50.1986 22.4159C50.3523 22.4159 50.4361 22.5277 50.4361 22.7652C50.4361 22.9608 50.492 23.1145 50.5758 23.1145C50.6457 23.1145 50.7435 23.338 50.7994 23.6035C50.8413 23.8689 50.9531 24.1484 51.0509 24.2042C51.2604 24.33 52.0009 25.769 51.8752 25.769C51.8053 25.769 51.8333 25.8249 51.9031 25.8808C51.9869 25.9367 52.1686 26.2301 52.3362 26.5374C52.5039 26.8448 52.7274 27.2779 52.8531 27.5154C53.2443 28.2419 53.5098 28.8846 53.5098 29.0802C53.5098 29.178 53.6076 29.2618 53.7194 29.2618C53.8311 29.2618 53.9289 29.3736 53.9429 29.4993C53.9429 29.639 54.0547 29.9324 54.1944 30.1699L54.4459 30.5891L56.6813 30.631C59.224 30.6729 59.1262 30.7148 59.8108 29.2618C60.5652 27.6691 60.691 27.4456 60.8028 27.4456C60.8726 27.4456 60.9145 27.3338 60.9145 27.1941C60.9145 27.0544 61.1101 26.6492 61.3337 26.2859C61.5712 25.9227 61.7528 25.5315 61.7528 25.4197C61.7528 25.308 61.8227 25.2102 61.8925 25.2102C61.9763 25.2102 62.0322 25.1124 62.0322 24.9866C62.0322 24.8609 62.144 24.5954 62.2837 24.3998C62.4234 24.1903 62.619 23.827 62.7308 23.6035C62.8425 23.366 63.0102 23.1424 63.108 23.0726C63.1918 23.0167 63.3036 22.7233 63.3595 22.4159C63.4154 22.1086 63.5132 21.885 63.583 21.9409C63.6529 21.9828 63.7088 21.8571 63.7088 21.6615C63.7088 21.4379 63.7926 21.2982 63.9183 21.2982C64.0301 21.2982 64.1279 21.1725 64.1279 21.0328C64.1279 20.8791 64.1838 20.7254 64.2536 20.6695C64.3235 20.6276 64.4213 20.4041 64.4772 20.1805C64.5331 19.943 64.6309 19.7614 64.7007 19.7614C64.7706 19.7614 64.8265 19.6496 64.8265 19.5099C64.8265 19.3702 64.8963 19.1886 64.9662 19.1187C65.05 19.0349 65.3154 18.5738 65.5809 18.0709C66.517 16.2686 66.7126 15.9193 66.8243 15.8774C66.8802 15.8495 66.9221 15.7098 66.9221 15.57C66.9221 15.4303 66.992 15.2627 67.0618 15.2208C67.1457 15.1788 67.2016 15.0112 67.2016 14.8575C67.2016 14.7178 67.2714 14.5921 67.3413 14.5921C67.4251 14.5921 67.481 14.5082 67.481 14.3965C67.481 14.2847 67.5788 14.1729 67.6905 14.117C67.8023 14.0751 67.9001 13.9214 67.9001 13.7817C67.9001 13.642 67.9979 13.4045 68.1097 13.2508C68.2215 13.1111 68.3193 12.8876 68.3193 12.7618C68.3193 12.6361 68.4171 12.4964 68.5288 12.4405C68.6406 12.3986 68.7384 12.203 68.7384 12.0074V11.6581H64.9662C61.8506 11.6581 61.1939 11.6861 61.1939 11.8537C61.1939 11.9515 61.0961 12.1192 60.9844 12.217C60.8726 12.3148 60.7748 12.5103 60.7748 12.6501C60.7748 12.8037 60.7189 12.9155 60.6351 12.9155C60.5652 12.9155 60.4954 12.9993 60.4954 13.0832C60.4954 13.2369 59.9226 14.5362 59.5034 15.3186C59.4336 15.4583 59.3777 15.6539 59.3777 15.7656C59.3777 15.8774 59.2799 15.9892 59.1681 16.0451C59.0564 16.087 58.9586 16.2267 58.9586 16.3664C58.9586 16.5061 58.8608 16.7995 58.749 17.023C58.6372 17.2326 58.5394 17.4981 58.5394 17.5959C58.5394 17.6937 58.4416 17.8054 58.3299 17.8613C58.2181 17.9032 58.1203 18.029 58.1203 18.1547C58.1203 18.2665 58.0644 18.476 57.9806 18.6158C57.7431 19.0349 57.3798 19.971 57.4078 20.0827C57.4078 20.1386 57.3239 20.2224 57.2122 20.2644C57.1004 20.3202 57.0026 20.5019 57.0026 20.6835C57.0026 20.8651 56.9467 21.0188 56.8769 21.0188C56.6673 21.0188 56.4857 20.6975 56.2342 19.8592C56.0945 19.3981 55.8989 19.007 55.7871 18.965C55.6893 18.9231 55.6055 18.7555 55.6055 18.5878C55.6055 18.4341 55.5077 18.1687 55.3959 18.029C55.2841 17.8753 55.1863 17.6098 55.1863 17.4282C55.1863 17.2326 55.1025 17.1069 54.9768 17.1069C54.865 17.1069 54.7672 17.0091 54.7672 16.8973C54.7672 16.7716 54.6415 16.4083 54.4878 16.1009C54.3341 15.7796 54.2084 15.4303 54.2084 15.3325C54.2084 15.2347 54.1525 15.1509 54.0686 15.1509C53.9988 15.1509 53.9289 15.0671 53.9289 14.9553C53.9289 14.8435 53.8172 14.5222 53.6635 14.2148C53.5238 13.9214 53.1885 13.2369 52.937 12.678L52.462 11.6721H48.6618C46.5661 11.6581 44.8477 11.7 44.8477 11.7559Z" fill="#797D80"/>
<path d="M69.6041 21.1166L69.646 30.5891L73.041 30.631L76.4221 30.6589V21.1585V11.6581H72.9991H69.5762L69.6041 21.1166Z" fill="#797D80"/>
<path d="M15.3691 21.2283V30.3794H18.4428H21.5165V21.2283V12.0771H18.4428H15.3691V21.2283Z" fill="#0089D0"/>
</svg>
