<svg width="96" height="96" viewBox="0 0 96 96" fill="none" xmlns="http://www.w3.org/2000/svg">
<path d="M75.6 62.9323H62L60.7 38.4323C60.6 36.7323 59.4 35.4323 58.1 35.5323C56.9 35.6323 55.9 36.8323 55.9 38.4323L54.6 62.9323H22.8C22.4 62.9323 22 63.4323 22 63.9323V81.4323C22 82.0323 22.4 82.4323 22.8 82.4323H28.5V85.0323C28.5 85.6323 28.9 86.0323 29.3 86.0323H34.8C35.2 86.0323 35.6 85.5323 35.6 85.0323V82.5323H62.7V85.0323C62.7 85.6323 63.1 86.0323 63.5 86.0323H69C69.4 86.0323 69.8 85.5323 69.8 85.0323V82.5323H75.5C75.9 82.5323 76.3 82.0323 76.3 81.5323V63.9323C76.4 63.4323 76.1 62.9323 75.6 62.9323Z" fill="#E2E2E2"/>
<path d="M43.3 29.2323C43.7 29.5323 44.2 29.3323 44.4 28.8323C48.5 18.9323 58 15.2323 65.7 20.5323C68.5 22.4323 70.7 25.3323 72.2 28.8323C72.4 29.3323 72.9 29.5323 73.3 29.2323C73.7 28.9323 73.9 28.3323 73.6 27.8323C69.1 16.9323 58.6 12.8323 50.1 18.6323C47.1 20.7323 44.6 23.9323 43 27.8323C42.8 28.2323 42.9 28.9323 43.3 29.2323Z" fill="#E2E2E2"/>
<path d="M66.7 28.9323C67.2 29.7323 67.7 30.6323 68.1 31.5323C68.3 32.0323 68.8 32.2323 69.2 31.9323C69.6 31.6323 69.7 31.0323 69.5 30.5323C69.1 29.4323 68.5 28.4323 67.9 27.5323C63.3 20.6323 55.3 19.9323 49.9 25.8323C49.4 26.3323 49 26.9323 48.5 27.5323C47.9 28.4323 47.4 29.4323 46.9 30.5323C46.7 31.0323 46.8 31.6323 47.2 31.9323C47.6 32.2323 48.1 32.0323 48.3 31.5323C48.7 30.6323 49.2 29.7323 49.7 28.9323C53.7 22.9323 60.7 22.2323 65.4 27.4323C66 27.9323 66.4 28.4323 66.7 28.9323Z" fill="#E2E2E2"/>
<path d="M63.5 30.2323C60 26.5323 54.9 27.1323 52 31.5323C51.6 32.1323 51.3 32.6323 51.1 33.3323C50.9 33.8323 51 34.4323 51.4 34.7323C51.8 35.0323 52.3 34.8323 52.5 34.3323C54.2 30.2323 58.2 28.7323 61.4 30.9323C62.5 31.7323 63.5 32.9323 64.1 34.3323C64.3 34.8323 64.8 35.0323 65.2 34.7323C65.6 34.4323 65.7 33.8323 65.5 33.4323C65 32.1323 64.3 31.1323 63.5 30.2323Z" fill="#E2E2E2"/>
<path d="M71.4 58.9H57.8L56.5 34.4C56.4 32.7 55.2 31.4 53.9 31.5C52.7 31.6 51.7 32.8 51.7 34.4L50.4 58.9H18.6C18.2 58.9 17.8 59.4 17.8 59.9V77.4C17.8 78 18.2 78.4 18.6 78.4H24.3V81C24.3 81.6 24.7 82 25.1 82H30.6C31 82 31.4 81.5 31.4 81V78.5H58.5V81C58.5 81.6 58.9 82 59.3 82H64.8C65.2 82 65.6 81.5 65.6 81V78.5H71.3C71.7 78.5 72.1 78 72.1 77.5V59.9C72.2 59.4 71.9 58.9 71.4 58.9ZM29.8 80H25.9V78.5H29.8V80ZM64.1 80H60.2V78.5H64.1V80ZM53.3 34.5C53.3 33.9 53.7 33.5 54.2 33.5C54.6 33.5 54.9 34 55 34.5L56.3 58.9H52L53.3 34.5ZM70.6 76.4H19.4V61H70.7L70.6 76.4Z" fill="black"/>
<path d="M34.1 64.6C33.7 64.6 33.3 65.1 33.3 65.6V71.8C33.3 72.4 33.7 72.8 34.1 72.8C34.5 72.8 34.9 72.3 34.9 71.8V65.6C34.9 65 34.6 64.6 34.1 64.6Z" fill="black"/>
<path d="M30.4 64.6C30 64.6 29.6 65.1 29.6 65.6V71.8C29.6 72.4 30 72.8 30.4 72.8C30.8 72.8 31.2 72.3 31.2 71.8V65.6C31.2 65 30.9 64.6 30.4 64.6Z" fill="black"/>
<path d="M26.8 64.6C26.4 64.6 26 65.1 26 65.6V71.8C26 72.4 26.4 72.8 26.8 72.8C27.2 72.8 27.6 72.3 27.6 71.8V65.6C27.6 65 27.2 64.6 26.8 64.6Z" fill="black"/>
<path d="M39.1 25.2C39.5 25.5 40 25.3 40.2 24.8C44.3 14.9 53.8 11.2 61.5 16.5C64.3 18.4 66.5 21.3 68 24.8C68.2 25.3 68.7 25.5 69.1 25.2C69.5 24.9 69.7 24.3 69.4 23.8C64.9 12.9 54.4 8.8 45.9 14.6C42.9 16.7 40.4 19.9 38.8 23.8C38.6 24.2 38.7 24.9 39.1 25.2Z" fill="black"/>
<path d="M62.5 24.9C63 25.7 63.5 26.6 63.9 27.5C64.1 28 64.6 28.2 65 27.9C65.4 27.6 65.5 27 65.3 26.5C64.9 25.4 64.3 24.4 63.7 23.5C59.1 16.6 51.1 15.9 45.7 21.8C45.2 22.3 44.8 22.9 44.3 23.5C43.7 24.4 43.2 25.4 42.7 26.5C42.5 27 42.6 27.6 43 27.9C43.4 28.2 43.9 28 44.1 27.5C44.5 26.6 45 25.7 45.5 24.9C49.5 18.9 56.5 18.2 61.2 23.4C61.8 23.9 62.2 24.4 62.5 24.9Z" fill="black"/>
<path d="M59.3 26.2C55.8 22.5 50.7 23.1 47.8 27.5C47.4 28.1 47.1 28.6 46.9 29.3C46.7 29.8 46.8 30.4 47.2 30.7C47.6 31 48.1 30.8 48.3 30.3C50 26.2 54 24.7 57.2 26.9C58.3 27.7 59.3 28.9 59.9 30.3C60.1 30.8 60.6 31 61 30.7C61.4 30.4 61.5 29.8 61.3 29.4C60.8 28.1 60.1 27.1 59.3 26.2Z" fill="black"/>
<path d="M65.8 71.5C67 71.5 68 70.2 68 68.7C68 67.1 67 65.9 65.8 65.9C64.6 65.9 63.6 67.2 63.6 68.7C63.6 70.3 64.6 71.5 65.8 71.5ZM65.8 68C66.1 68 66.4 68.3 66.4 68.7C66.4 69.1 66.1 69.4 65.8 69.4C65.5 69.4 65.2 69.1 65.2 68.7C65.2 68.3 65.5 68 65.8 68Z" fill="black"/>
<path d="M56.4 68.7C56.4 70.3 57.4 71.5 58.6 71.5C59.8 71.5 60.8 70.2 60.8 68.7C60.8 67.1 59.8 65.9 58.6 65.9C57.4 65.9 56.4 67.2 56.4 68.7ZM58.6 68C58.9 68 59.2 68.3 59.2 68.7C59.2 69.1 58.9 69.4 58.6 69.4C58.3 69.4 58 69.1 58 68.7C58.1 68.3 58.3 68 58.6 68Z" fill="black"/>
</svg>
