<svg width="96" height="96" viewBox="0 0 96 96" fill="none" xmlns="http://www.w3.org/2000/svg">
<path d="M71.4001 58.9H57.8L56.5 34.4C56.4 32.7 55.2001 31.4 53.9001 31.5C52.7001 31.6 51.7001 32.8 51.7001 34.4L50.4001 58.9H18.6C18.2 58.9 17.8 59.4 17.8 59.9V77.4C17.8 78 18.2 78.4 18.6 78.4H24.3V81C24.3 81.6 24.7 82 25.1 82H30.6C31 82 31.4 81.5 31.4 81V78.5H58.5V81C58.5 81.6 58.9 82 59.3 82H64.8001C65.2001 82 65.6 81.5 65.6 81V78.5H71.3001C71.7001 78.5 72.1 78 72.1 77.5V59.9C72.2 59.4 71.9001 58.9 71.4001 58.9ZM29.8 80H25.9V78.5H29.8V80ZM64.1 80H60.2001V78.5H64.1V80ZM53.3 34.5C53.3 33.9 53.7001 33.5 54.2001 33.5C54.6001 33.5 54.9 34 55 34.5L56.3 58.9H52L53.3 34.5ZM70.6 76.4H19.4V61H70.7L70.6 76.4Z" fill="white"/>
<path d="M34.1 64.6C33.7 64.6 33.3 65.1 33.3 65.6V71.8C33.3 72.4 33.7 72.8 34.1 72.8C34.5 72.8 34.9001 72.3 34.9001 71.8V65.6C34.9001 65 34.6 64.6 34.1 64.6Z" fill="white"/>
<path d="M30.4001 64.6C30.0001 64.6 29.6001 65.1 29.6001 65.6V71.8C29.6001 72.4 30.0001 72.8 30.4001 72.8C30.8001 72.8 31.2001 72.3 31.2001 71.8V65.6C31.2001 65 30.9001 64.6 30.4001 64.6Z" fill="white"/>
<path d="M26.8 64.6C26.4 64.6 26 65.1 26 65.6V71.8C26 72.4 26.4 72.8 26.8 72.8C27.2 72.8 27.6 72.3 27.6 71.8V65.6C27.6 65 27.2 64.6 26.8 64.6Z" fill="white"/>
<path d="M39.1001 25.2C39.5001 25.5 40.0001 25.3 40.2001 24.8C44.3001 14.9 53.8001 11.2 61.5001 16.5C64.3001 18.4 66.5001 21.3 68.0001 24.8C68.2001 25.3 68.7001 25.5 69.1001 25.2C69.5001 24.9 69.7001 24.3 69.4001 23.8C64.9001 12.9 54.4001 8.8 45.9001 14.6C42.9001 16.7 40.4001 19.9 38.8001 23.8C38.6001 24.2 38.7001 24.9 39.1001 25.2Z" fill="white"/>
<path d="M62.5001 24.9C63.0001 25.7 63.5001 26.6 63.9001 27.5C64.1001 28 64.6001 28.2 65.0001 27.9C65.4001 27.6 65.5001 27 65.3001 26.5C64.9001 25.4 64.3001 24.4 63.7001 23.5C59.1001 16.6 51.1001 15.9 45.7001 21.8C45.2001 22.3 44.8001 22.9 44.3001 23.5C43.7001 24.4 43.2001 25.4 42.7001 26.5C42.5001 27 42.6001 27.6 43.0001 27.9C43.4001 28.2 43.9001 28 44.1001 27.5C44.5001 26.6 45.0001 25.7 45.5001 24.9C49.5001 18.9 56.5001 18.2 61.2001 23.4C61.8001 23.9 62.2001 24.4 62.5001 24.9Z" fill="white"/>
<path d="M59.3 26.2C55.8 22.5 50.7 23.1 47.8 27.5C47.4 28.1 47.1 28.6 46.9 29.3C46.7 29.8 46.8 30.4 47.2 30.7C47.6 31 48.1 30.8 48.3 30.3C50 26.2 54 24.7 57.2 26.9C58.3 27.7 59.3 28.9 59.9 30.3C60.1 30.8 60.6 31 61 30.7C61.4 30.4 61.5 29.8 61.3 29.4C60.8 28.1 60.1 27.1 59.3 26.2Z" fill="white"/>
<path d="M65.8001 71.5C67.0001 71.5 68.0001 70.2 68.0001 68.7C68.0001 67.1 67.0001 65.9 65.8001 65.9C64.6001 65.9 63.6001 67.2 63.6001 68.7C63.6001 70.3 64.6001 71.5 65.8001 71.5ZM65.8001 68C66.1001 68 66.4001 68.3 66.4001 68.7C66.4001 69.1 66.1001 69.4 65.8001 69.4C65.5001 69.4 65.2001 69.1 65.2001 68.7C65.2001 68.3 65.5001 68 65.8001 68Z" fill="white"/>
<path d="M56.4 68.7C56.4 70.3 57.4 71.5 58.6 71.5C59.8 71.5 60.8 70.2 60.8 68.7C60.8 67.1 59.8 65.9 58.6 65.9C57.4 65.9 56.4 67.2 56.4 68.7ZM58.6 68C58.9 68 59.2 68.3 59.2 68.7C59.2 69.1 58.9 69.4 58.6 69.4C58.3 69.4 58 69.1 58 68.7C58.1 68.3 58.3 68 58.6 68Z" fill="white"/>
</svg>
