<svg width="96" height="105" viewBox="0 0 96 105" fill="none" xmlns="http://www.w3.org/2000/svg">
<path fill-rule="evenodd" clip-rule="evenodd" d="M21.888 24.152C21.3128 24.3333 20.3318 25.3491 20.1555 25.9461C19.9482 26.6477 19.9482 77.6001 20.1555 78.3017C20.3457 78.9454 21.3165 79.9162 21.9602 80.1064C22.6618 80.3137 73.6142 80.3137 74.3158 80.1064C74.9595 79.9162 75.9303 78.9454 76.1205 78.3017C76.3278 77.6001 76.3278 26.6477 76.1205 25.9461C75.9303 25.3024 74.9595 24.3316 74.3158 24.1414C73.6547 23.946 22.5085 23.9565 21.888 24.152ZM74.1003 26.1616C74.388 26.4491 74.388 26.4495 74.388 28.9741V31.4989H48.138H21.888V28.9741C21.888 26.4495 21.888 26.4491 22.1757 26.1616L22.4633 25.8739H48.138H73.8127L74.1003 26.1616ZM24.0507 28.0366C23.8693 28.2179 23.763 28.4581 23.763 28.6864C23.763 28.9147 23.8693 29.1549 24.0507 29.3362C24.3019 29.5875 24.4433 29.6239 25.1692 29.6239C25.8952 29.6239 26.0365 29.5875 26.2878 29.3362C26.6684 28.9557 26.6684 28.4171 26.2878 28.0366C26.0365 27.7852 25.8952 27.7489 25.1692 27.7489C24.4433 27.7489 24.3019 27.7852 24.0507 28.0366ZM28.7382 28.0366C28.5568 28.2179 28.4505 28.4581 28.4505 28.6864C28.4505 28.9147 28.5568 29.1549 28.7382 29.3362C28.9894 29.5875 29.1308 29.6239 29.8567 29.6239C30.5827 29.6239 30.724 29.5875 30.9753 29.3362C31.3559 28.9557 31.3559 28.4171 30.9753 28.0366C30.724 27.7852 30.5827 27.7489 29.8567 27.7489C29.1308 27.7489 28.9894 27.7852 28.7382 28.0366ZM33.4257 28.0366C33.2443 28.2179 33.138 28.4581 33.138 28.6864C33.138 28.9147 33.2443 29.1549 33.4257 29.3362C33.6769 29.5875 33.8183 29.6239 34.5442 29.6239C35.2702 29.6239 35.4115 29.5875 35.6628 29.3362C35.8442 29.1549 35.9505 28.9147 35.9505 28.6864C35.9505 28.4581 35.8442 28.2179 35.6628 28.0366C35.4115 27.7852 35.2702 27.7489 34.5442 27.7489C33.8183 27.7489 33.6769 27.7852 33.4257 28.0366ZM43.7382 28.0366C43.5568 28.2179 43.4505 28.4581 43.4505 28.6864C43.4505 28.9147 43.5568 29.1549 43.7382 29.3362L44.0258 29.6239H55.638H67.2502L67.5378 29.3362C67.7192 29.1549 67.8255 28.9147 67.8255 28.6864C67.8255 28.4581 67.7192 28.2179 67.5378 28.0366L67.2502 27.7489H55.638H44.0258L43.7382 28.0366ZM69.9882 28.0366C69.8068 28.2179 69.7005 28.4581 69.7005 28.6864C69.7005 28.9147 69.8068 29.1549 69.9882 29.3362C70.2394 29.5875 70.3808 29.6239 71.1067 29.6239C71.8327 29.6239 71.974 29.5875 72.2253 29.3362C72.4067 29.1549 72.513 28.9147 72.513 28.6864C72.513 28.4581 72.4067 28.2179 72.2253 28.0366C71.974 27.7852 71.8327 27.7489 71.1067 27.7489C70.3808 27.7489 70.2394 27.7852 69.9882 28.0366ZM74.388 55.5862V77.7986L74.1003 78.0862L73.8127 78.3739H48.138H22.4633L22.1757 78.0862L21.888 77.7986V55.5862V33.3739H48.138H74.388V55.5862ZM25.9257 37.4116L25.638 37.6992V47.4364V57.1736L25.9257 57.4612L26.2133 57.7489H40.1692H54.1252L54.4128 57.4612L54.7005 57.1736V47.4364V37.6992L54.4128 37.4116L54.1252 37.1239H40.1692H26.2133L25.9257 37.4116ZM57.8007 37.4116C57.6193 37.5929 57.513 37.8331 57.513 38.0614C57.513 38.2897 57.6193 38.5299 57.8007 38.7112C58.0519 38.9625 58.1933 38.9989 58.9192 38.9989C59.6452 38.9989 59.7865 38.9625 60.0378 38.7112C60.2192 38.5299 60.3255 38.2897 60.3255 38.0614C60.3255 37.8331 60.2192 37.5929 60.0378 37.4116C59.7865 37.1602 59.6452 37.1239 58.9192 37.1239C58.1933 37.1239 58.0519 37.1602 57.8007 37.4116ZM62.4882 37.4116C62.3068 37.5929 62.2005 37.8331 62.2005 38.0614C62.2005 38.2897 62.3068 38.5299 62.4882 38.7112L62.7758 38.9989H66.4192H70.0627L70.3503 38.7112C70.5317 38.5299 70.638 38.2897 70.638 38.0614C70.638 37.8331 70.5317 37.5929 70.3503 37.4116L70.0627 37.1239H66.4192H62.7758L62.4882 37.4116ZM52.8255 46.2059C52.8255 50.1698 52.8053 53.4129 52.7806 53.4129C52.7559 53.4129 51.0084 50.6478 48.8971 47.2681C44.7667 40.6559 44.7858 40.6806 44.0424 40.9886C43.7643 41.1038 43.1634 41.9875 40.9662 45.5125C39.4643 47.9219 38.204 49.8942 38.1654 49.8952C38.1268 49.8964 37.3438 48.7679 36.4256 47.3873C34.6015 44.6453 34.3844 44.4342 33.7154 44.7529C33.4602 44.8743 32.6119 46.0557 30.4421 49.3114L27.5131 53.7059V46.3524L27.513 38.9989H40.1692H52.8255V46.2059ZM57.8007 41.1616C57.6193 41.3429 57.513 41.5831 57.513 41.8114C57.513 42.0397 57.6193 42.2799 57.8007 42.4612L58.0883 42.7489H64.0755H70.0627L70.3503 42.4612C70.5317 42.2799 70.638 42.0397 70.638 41.8114C70.638 41.5831 70.5317 41.3429 70.3503 41.1616L70.0627 40.8739H64.0755H58.0883L57.8007 41.1616ZM48.2317 49.7202C50.3071 53.039 52.0052 55.7812 52.0052 55.814C52.0052 55.8469 48.5774 55.8739 44.388 55.8739C40.1985 55.8739 36.7708 55.8477 36.7708 55.8158C36.7708 55.7022 44.3145 43.6864 44.3858 43.6864C44.4256 43.6864 46.1563 46.4016 48.2317 49.7202ZM57.8007 44.9116C57.6193 45.0929 57.513 45.3331 57.513 45.5614C57.513 45.7897 57.6193 46.0299 57.8007 46.2112L58.0883 46.4989H64.0755H70.0627L70.3503 46.2112C70.5317 46.0299 70.638 45.7897 70.638 45.5614C70.638 45.3331 70.5317 45.0929 70.3503 44.9116L70.0627 44.6239H64.0755H58.0883L57.8007 44.9116ZM35.5403 49.4493C36.3138 50.6179 36.9466 51.6586 36.9466 51.762C36.9466 51.8654 36.3977 52.8329 35.7266 53.9119L34.5068 55.8739H31.4199H28.3329L31.175 51.5998C32.738 49.249 34.0433 47.3255 34.0755 47.3252C34.1077 47.3248 34.7669 48.2806 35.5403 49.4493ZM57.8007 48.6616C57.6193 48.8429 57.513 49.0831 57.513 49.3114C57.513 49.5397 57.6193 49.7799 57.8007 49.9612L58.0883 50.2489H64.0755H70.0627L70.3503 49.9612C70.5317 49.7799 70.638 49.5397 70.638 49.3114C70.638 49.0831 70.5317 48.8429 70.3503 48.6616L70.0627 48.3739H64.0755H58.0883L57.8007 48.6616ZM57.8007 52.4116C57.6193 52.5929 57.513 52.8331 57.513 53.0614C57.513 53.2897 57.6193 53.5299 57.8007 53.7112L58.0883 53.9989H64.0755H70.0627L70.3503 53.7112C70.5317 53.5299 70.638 53.2897 70.638 53.0614C70.638 52.8331 70.5317 52.5929 70.3503 52.4116L70.0627 52.1239H64.0755H58.0883L57.8007 52.4116ZM57.8007 56.1616C57.6193 56.3429 57.513 56.5831 57.513 56.8114C57.513 57.0397 57.6193 57.2799 57.8007 57.4612L58.0883 57.7489H61.7317H65.3752L65.6628 57.4612C65.8442 57.2799 65.9505 57.0397 65.9505 56.8114C65.9505 56.5831 65.8442 56.3429 65.6628 56.1616L65.3752 55.8739H61.7317H58.0883L57.8007 56.1616ZM68.1132 56.1616C67.9318 56.3429 67.8255 56.5831 67.8255 56.8114C67.8255 57.0397 67.9318 57.2799 68.1132 57.4612C68.3644 57.7126 68.5058 57.7489 69.2317 57.7489C69.9577 57.7489 70.099 57.7126 70.3503 57.4612C70.5317 57.2799 70.638 57.0397 70.638 56.8114C70.638 56.5831 70.5317 56.3429 70.3503 56.1616C70.099 55.9102 69.9577 55.8739 69.2317 55.8739C68.5058 55.8739 68.3644 55.9102 68.1132 56.1616ZM25.9257 61.7866L25.638 62.0742V68.0614V74.0486L25.9257 74.3362L26.2133 74.6239H32.2005H38.1877L38.4753 74.3362L38.763 74.0486V68.0614V62.0742L38.4753 61.7866L38.1877 61.4989H32.2005H26.2133L25.9257 61.7866ZM41.8632 61.7866L41.5755 62.0742V68.0614V74.0486L41.8632 74.3362L42.1508 74.6239H48.138H54.1252L54.4128 74.3362L54.7005 74.0486V68.0614V62.0742L54.4128 61.7866L54.1252 61.4989H48.138H42.1508L41.8632 61.7866ZM57.8007 61.7866L57.513 62.0742V68.0614V74.0486L57.8007 74.3362L58.0883 74.6239H64.0755H70.0627L70.3503 74.3362L70.638 74.0486V68.0614V62.0742L70.3503 61.7866L70.0627 61.4989H64.0755H58.0883L57.8007 61.7866ZM36.888 68.0614V72.7489H32.2005H27.513V68.0614V63.3739H32.2005H36.888V68.0614ZM52.8255 68.0614V72.7489H48.138H43.4505V68.0614V63.3739H48.138H52.8255V68.0614ZM68.763 68.0614V72.7489H64.0755H59.388V68.0614V63.3739H64.0755H68.763V68.0614Z" fill="white"/>
</svg>
