<svg xmlns="http://www.w3.org/2000/svg" viewBox="0 0 454.58 138.21"><defs><style>.a{fill:#fe3d2f;}.b{fill:#fff;}</style></defs><path class="a" d="M184.9,2,190.3,13a3.6,3.6,0,0,0,2.71,2l12.08,1.76a3.61,3.61,0,0,1,2,6.15l-8.73,8.51a3.61,3.61,0,0,0-1,3.19l2.06,12a3.6,3.6,0,0,1-5.23,3.8l-10.8-5.68a3.61,3.61,0,0,0-3.35,0l-10.8,5.68a3.61,3.61,0,0,1-5.23-3.8l2.06-12a3.61,3.61,0,0,0-1-3.19l-8.73-8.51a3.6,3.6,0,0,1,2-6.15l12.07-1.76A3.6,3.6,0,0,0,173,13L178.43,2A3.61,3.61,0,0,1,184.9,2Z"></path><path class="a" d="M245.83,2,251.23,13a3.6,3.6,0,0,0,2.71,2L266,16.68a3.6,3.6,0,0,1,2,6.15l-8.73,8.51a3.61,3.61,0,0,0-1,3.19l2.06,12a3.6,3.6,0,0,1-5.23,3.8l-10.8-5.68a3.61,3.61,0,0,0-3.35,0l-10.8,5.68a3.61,3.61,0,0,1-5.23-3.8l2.06-12a3.61,3.61,0,0,0-1-3.19l-8.73-8.51a3.6,3.6,0,0,1,2-6.15l12.07-1.76A3.6,3.6,0,0,0,234,13L239.36,2A3.61,3.61,0,0,1,245.83,2Z"></path><path class="a" d="M246.17,2,251.56,13a3.64,3.64,0,0,0,2.72,2l12.07,1.76a3.6,3.6,0,0,1,2,6.15l-8.74,8.51a3.6,3.6,0,0,0-1,3.19l2.06,12a3.61,3.61,0,0,1-5.23,3.8l-10.8-5.68a3.63,3.63,0,0,0-3.36,0l-10.79,5.68a3.61,3.61,0,0,1-5.24-3.8l2.07-12a3.61,3.61,0,0,0-1-3.19l-8.74-8.51a3.61,3.61,0,0,1,2-6.15l12.07-1.76a3.62,3.62,0,0,0,2.72-2L239.7,2A3.61,3.61,0,0,1,246.17,2Z"></path><path class="a" d="M307.43,2,312.83,13a3.62,3.62,0,0,0,2.72,2l12.07,1.76a3.61,3.61,0,0,1,2,6.15l-8.74,8.51a3.61,3.61,0,0,0-1,3.19l2.07,12a3.61,3.61,0,0,1-5.24,3.8l-10.79-5.68a3.63,3.63,0,0,0-3.36,0l-10.8,5.68a3.61,3.61,0,0,1-5.23-3.8l2.06-12a3.6,3.6,0,0,0-1-3.19l-8.74-8.51a3.6,3.6,0,0,1,2-6.15l12.07-1.76a3.64,3.64,0,0,0,2.72-2L301,2A3.61,3.61,0,0,1,307.43,2Z"></path><path class="a" d="M369,2,374.43,13a3.62,3.62,0,0,0,2.72,2l12.07,1.76a3.6,3.6,0,0,1,2,6.15l-8.74,8.51a3.57,3.57,0,0,0-1,3.19l2.06,12a3.61,3.61,0,0,1-5.24,3.8l-10.79-5.68a3.63,3.63,0,0,0-3.36,0l-10.8,5.68a3.61,3.61,0,0,1-5.23-3.8l2.06-12a3.6,3.6,0,0,0-1-3.19l-8.74-8.51a3.6,3.6,0,0,1,2-6.15l12.07-1.76a3.62,3.62,0,0,0,2.72-2L362.57,2A3.6,3.6,0,0,1,369,2Z"></path><path class="a" d="M431.31,2,436.71,13a3.6,3.6,0,0,0,2.71,2l12.07,1.76a3.6,3.6,0,0,1,2,6.15l-8.73,8.51a3.61,3.61,0,0,0-1,3.19l2.06,12a3.61,3.61,0,0,1-5.23,3.8l-10.8-5.68a3.61,3.61,0,0,0-3.35,0l-10.8,5.68a3.6,3.6,0,0,1-5.23-3.8l2.06-12a3.61,3.61,0,0,0-1-3.19l-8.73-8.51a3.61,3.61,0,0,1,2-6.15l12.08-1.76a3.6,3.6,0,0,0,2.71-2L424.84,2A3.61,3.61,0,0,1,431.31,2Z"></path><path class="b" d="M69.17,0C88.32.21,105,6.56,119.09,19.78c3.17,3,3.17,3,.11,6.13-5.71,5.71-11.43,11.32-16.93,17-1.37,1.48-2.22,1.27-3.48,0-5.61-5.5-12-9.63-19.68-11.11-16-3.17-30.24-.1-40.71,13.22-15.13,19.36-8.57,56.69,24.43,62,13.22,2.11,25-1.48,34.69-10.9,2.85-2.75,2.85-2.64,5.71.11,5.92,5.82,12,11.74,18,17.45,1.16,1.06,1.05,1.59,0,2.75-9.73,9.83-21,16.92-34.69,19.78-24.54,5.18-46.75.52-65.47-16.82C10.05,109.14,3.6,96.24,1.17,81.54c-2.54-15-1.06-29.61,5.5-43.47,9.52-20.2,25.7-32,47.27-36.59A81.89,81.89,0,0,1,69.17,0Z"></path><path class="a" d="M68,92.22A23.11,23.11,0,1,1,68.12,46h.21A23.11,23.11,0,0,1,68,92.22Z"></path><path class="b" d="M237.12,102.33v16H230.7V79.82h14.21q6.45,0,10,2.91T258.38,91a8.59,8.59,0,0,1-1.54,5.14,10.68,10.68,0,0,1-4.51,3.45A8,8,0,0,1,257,103a10.87,10.87,0,0,1,1.42,5.75v3.19a12.56,12.56,0,0,0,.43,3.3,4.59,4.59,0,0,0,1.42,2.46v.61h-6.6a4.27,4.27,0,0,1-1.36-2.75,23.18,23.18,0,0,1-.3-3.67v-3.09a6.49,6.49,0,0,0-1.69-4.7,6.19,6.19,0,0,0-4.65-1.74Zm0-5.15h7.45c2.57,0,4.44-.5,5.62-1.48A5.56,5.56,0,0,0,252,91.18a5.94,5.94,0,0,0-1.74-4.55Q248.48,85,244.91,85h-7.79Z"></path><path class="b" d="M289.76,101H272.93v12.15h19.52v5.15H266.51V79.82h25.75V85H272.93V95.83h16.83Z"></path><path class="b" d="M310.07,108.22l.68,2.66h.16l.66-2.61,9.19-28.45h6.84l-13.73,38.46h-6.1L294.06,79.82h6.84Z"></path><path class="b" d="M339,118.28h-6.41V79.82H339Z"></path><path class="b" d="M371,101H354.17v12.15h19.52v5.15H347.75V79.82H373.5V85H354.17V95.83H371Z"></path><path class="b" d="M388.43,108v0l0-.13,7.69-28.13h5.12L409,108l0,.19,0-.27,6.07-28.13h6.32l-9.14,38.46h-5.84l-7.68-27.6h-.16l-7.72,27.6h-5.86L376,79.82h6.31Z"></path><path class="b" d="M447.8,108.37a4.94,4.94,0,0,0-1.79-3.92,16.82,16.82,0,0,0-6.3-2.73,26.62,26.62,0,0,1-9.91-4.48,8.91,8.91,0,0,1-3.48-7.3,9.34,9.34,0,0,1,3.85-7.66,15.56,15.56,0,0,1,9.91-3q6.35,0,10.19,3.42a10.23,10.23,0,0,1,3.71,8.2l-.06.16h-6.15a6.18,6.18,0,0,0-2-4.79A8.17,8.17,0,0,0,440,84.42a8.39,8.39,0,0,0-5.4,1.53,4.84,4.84,0,0,0-1.89,4,4.32,4.32,0,0,0,2.05,3.64,22.77,22.77,0,0,0,6.77,2.74q6.21,1.66,9.43,4.59a9.67,9.67,0,0,1,3.22,7.48,9,9,0,0,1-3.84,7.64q-3.84,2.85-10.1,2.84a17.82,17.82,0,0,1-10.56-3.21,9.86,9.86,0,0,1-4.42-8.75l.06-.16h6.18A6,6,0,0,0,434,112a10.58,10.58,0,0,0,6.31,1.73,9.39,9.39,0,0,0,5.55-1.43A4.55,4.55,0,0,0,447.8,108.37Z"></path></svg>