<svg width="144" height="32" viewBox="0 0 144 32" fill="none" xmlns="http://www.w3.org/2000/svg">
<g clip-path="url(#clip0)">
<path d="M39.8735 1.30566H46.5097V14.4919L58.7478 1.30566H66.7629L54.4818 14.104L67.3231 31.4703H59.351L50.0002 18.629L46.5097 22.2485V31.4701H39.8735V1.30566Z" fill="#000400"/>
<path d="M63.7964 20.0506V19.9649C63.7964 13.3285 69.1399 7.94189 76.3363 7.94189C83.4896 7.94189 88.79 13.2424 88.79 19.8786V19.9649C88.79 26.6011 83.4465 31.9873 76.2501 31.9873C69.0969 31.9873 63.7964 26.687 63.7964 20.0506ZM82.3261 20.0506V19.9649C82.3261 16.5603 79.8698 13.5871 76.2501 13.5871C72.5011 13.5871 70.2603 16.4739 70.2603 19.8786V19.9649C70.2603 23.3691 72.7166 26.3423 76.3363 26.3423C80.0854 26.3423 82.3261 23.4552 82.3261 20.0506Z" fill="#000400"/>
<path d="M90.5982 24.9204V13.9749H87.8403V8.37319H90.5982V2.46921H97.1483V8.37297H102.578V13.9749H97.1483V23.8433C97.1483 25.3512 97.7946 26.084 99.2599 26.084C100.389 26.0895 101.501 25.8076 102.492 25.2648V30.5223C101.113 31.3411 99.5185 31.8582 97.3207 31.8582C93.3133 31.8582 90.5982 30.2637 90.5982 24.9204ZM104.458 0.0129395H111.008V31.4702H104.458V0.0129395ZM113.376 0.0129395H120.27V5.83037H113.376V0.0129395ZM113.548 8.37297H120.098V31.4702H113.548L113.548 8.37297ZM122.59 8.37297H129.14V11.6478C130.648 9.70865 132.587 7.94196 135.905 7.94196C140.861 7.94196 143.748 11.217 143.748 16.5175V31.4702H137.198V18.5858C137.198 15.4832 135.733 13.8888 133.234 13.8888C130.734 13.8888 129.14 15.4832 129.14 18.5858V31.4702H122.59L122.59 8.37297Z" fill="#000400"/>
<path d="M15.142 1.29053L0 17.2142V31.4494L15.1201 16.3027L30.1589 1.29053H15.142Z" fill="url(#paint0_linear)"/>
<path d="M0 31.4494L15.1201 16.3027L30.1589 31.4494H0Z" fill="url(#paint1_linear)"/>
<path d="M0 1.29053H15.142L0 17.2142V1.29053Z" fill="url(#paint2_linear)"/>
</g>
<defs>
<linearGradient id="paint0_linear" x1="-5.07754" y1="29.0185" x2="22.9868" y2="0.953944" gradientUnits="userSpaceOnUse">
<stop offset="0.108" stop-color="#C757BC"/>
<stop offset="0.173" stop-color="#CD5CA9"/>
<stop offset="0.492" stop-color="#E8744F"/>
<stop offset="0.716" stop-color="#F88316"/>
<stop offset="0.823" stop-color="#FF8900"/>
</linearGradient>
<linearGradient id="paint1_linear" x1="9.62515" y1="36.8906" x2="23.3042" y2="23.2113" gradientUnits="userSpaceOnUse">
<stop offset="0.296" stop-color="#00AFFF"/>
<stop offset="0.694" stop-color="#5282FF"/>
<stop offset="1" stop-color="#945DFF"/>
</linearGradient>
<linearGradient id="paint2_linear" x1="-25.7263" y1="718.557" x2="690.219" y2="37.7562" gradientUnits="userSpaceOnUse">
<stop offset="0.296" stop-color="#00AFFF"/>
<stop offset="0.694" stop-color="#5282FF"/>
<stop offset="1" stop-color="#945DFF"/>
</linearGradient>
<clipPath id="clip0">
<rect width="143.885" height="32" fill="white"/>
</clipPath>
</defs>
</svg>
