<svg width="202" height="202" viewBox="0 0 202 202" fill="none" xmlns="http://www.w3.org/2000/svg">
<g filter="url(#filter0_d_2029_4709)">
<rect x="6" y="5" width="184" height="184" rx="31" fill="white"/>
<mask id="mask0_2029_4709" style="mask-type:alpha" maskUnits="userSpaceOnUse" x="6" y="5" width="184" height="184">
<rect x="6" y="5" width="184" height="184" rx="31" fill="white"/>
</mask>
<g mask="url(#mask0_2029_4709)">
<circle cx="171.5" cy="32.5" r="45.5" fill="#EDEDED"/>
</g>
<path d="M121.07 68.9395H120.37C120.37 68.9236 120.361 69.209 120.366 69.5371C120.372 69.8933 120.395 70.3848 120.46 70.9804C120.591 72.1708 120.892 73.782 121.578 75.563C122.912 79.0271 125.688 83.1045 131.399 85.9684C130.236 89.2725 127.913 94.2397 124.871 98.4788C123.258 100.725 121.462 102.741 119.551 104.198C117.64 105.654 115.657 106.52 113.653 106.55C111.318 106.549 109.452 105.83 107.395 105.038C107.342 105.017 107.288 104.996 107.234 104.976C105.122 104.163 102.826 103.308 99.8008 103.308C96.6957 103.308 94.303 104.13 92.1633 104.933C91.9943 104.997 91.8273 105.06 91.6621 105.122C89.7148 105.859 88.0078 106.504 86.0343 106.55L86.0297 106.55C84.0698 106.609 82.0643 105.739 80.0823 104.196C78.1045 102.656 76.2103 100.492 74.4931 98.0827C71.0587 93.2644 68.4121 87.5814 67.2689 84.3062C65.5531 79.3124 64.7 74.4777 64.7 69.8086C64.7 54.101 75.1403 46.5016 84.8745 46.3484C87.1871 46.3497 89.8604 47.1985 92.3798 48.095C92.7371 48.2222 93.0923 48.3506 93.4422 48.4771C94.3045 48.7889 95.1351 49.0892 95.8873 49.3307C96.9324 49.6662 97.9253 49.9227 98.7266 49.9227C99.5085 49.9227 100.542 49.6114 101.648 49.2264C102.171 49.0443 102.735 48.8358 103.326 48.6175C103.379 48.598 103.432 48.5785 103.485 48.5589C104.136 48.3184 104.822 48.0663 105.537 47.8186C108.411 46.8221 111.662 45.9287 114.726 46.1705L114.728 46.1706C121.067 46.6533 125.87 49.0563 129.135 53.3635C126.328 55.1749 124.175 57.3004 122.704 59.7825C121.121 62.4544 120.35 65.5019 120.37 68.9436L121.07 68.9395ZM121.07 68.9395C121.07 68.9488 121.07 68.9659 121.069 68.9905C121.045 69.8654 120.759 80.1857 132.262 85.6094L129.548 53.9301C123.853 57.5935 121.033 62.4995 121.07 68.9395ZM120.604 95.4222L120.604 95.4221C122.077 93.3716 123.473 90.9432 124.61 88.6005L124.858 88.0896L124.409 87.7417C122.337 86.1354 120.611 84.2941 119.217 82.2558C117.387 79.5719 116.23 76.7089 115.623 73.8158C115.224 71.906 115.111 70.2987 115.139 68.9147L115.139 68.907L115.139 68.8993C115.13 63.0131 116.97 57.9934 120.525 53.89L121.139 53.182L120.286 52.7944C118.582 52.0201 116.604 51.5666 114.329 51.3862L114.325 51.3859C113.888 51.3539 113.433 51.3541 112.93 51.3959C111.245 51.5204 109.331 52.0235 106.814 52.9178C106.605 52.9907 106.081 53.1832 105.484 53.4023C104.612 53.7225 103.586 54.0994 103.161 54.2431L103.157 54.2443C101.338 54.8699 100.125 55.1633 98.7266 55.1633C97.3381 55.1633 96.041 54.8752 94.2907 54.3174L94.2889 54.3169C93.7458 54.1453 93.1902 53.9539 92.4454 53.6831C92.3666 53.6537 92.0395 53.5357 91.6788 53.4055C91.272 53.2587 90.8225 53.0965 90.6385 53.0287L90.6385 53.0287L90.6303 53.0257C89.3867 52.5851 88.4484 52.2751 87.5818 52.0432C86.4911 51.7431 85.5885 51.5906 84.9298 51.5794L84.9161 51.5792L84.9025 51.5795C81.1965 51.6616 77.5662 53.1905 74.8694 55.918L74.8682 55.9192C71.7233 59.1155 69.9406 63.7801 69.9406 69.7988C69.9406 73.8805 70.6992 78.1469 72.2247 82.585L72.2256 82.5876C73.469 86.1584 76.0393 91.2174 78.7619 95.039L78.7631 95.0407C80.3165 97.2075 81.8654 98.9364 83.3063 100.058L83.3091 100.06C83.9263 100.536 84.5079 100.899 85.0286 101.109C85.2248 101.194 85.4075 101.248 85.5673 101.277C85.6351 101.291 85.7431 101.309 85.875 101.309L85.8869 101.309C86.5757 101.298 87.3044 101.122 88.3403 100.763L88.3484 100.76C88.5964 100.671 88.8633 100.572 89.2047 100.445L89.2101 100.443C89.2471 100.429 89.3062 100.407 89.3779 100.379C89.6464 100.278 90.0913 100.109 90.2106 100.061C91.8626 99.4426 92.9766 99.0722 94.2959 98.7399C96.0894 98.2939 97.8881 98.0574 99.8008 98.0574C101.67 98.0574 103.418 98.3025 105.182 98.7577C106.444 99.0899 107.432 99.4313 109.119 100.081C109.119 100.081 109.119 100.081 109.12 100.081L109.549 100.247L109.558 100.25L109.568 100.254C109.724 100.309 109.838 100.353 109.942 100.396L109.951 100.4L109.961 100.404C111.636 101.044 112.583 101.298 113.592 101.309L113.609 101.31L113.626 101.309C114.375 101.281 115.31 100.839 116.368 100.033L116.369 100.032C117.732 98.9897 119.184 97.3977 120.604 95.4222ZM114.513 26.7596C114.64 29.0153 114.534 33.6405 110.273 38.7011C106.965 42.5633 103.065 44.8038 98.8694 44.7072C98.6786 40.1685 100.432 36.1209 103.372 32.7915L103.372 32.7915L103.378 32.7846C105.998 29.7385 110.509 27.2292 114.513 26.7596Z" fill="black" stroke="white" stroke-width="1.4"/>
<path d="M81.472 138.164C80.9867 138.164 80.576 137.996 80.24 137.66C79.904 137.324 79.736 136.913 79.736 136.428C79.736 135.943 79.904 135.532 80.24 135.196C80.576 134.86 80.9867 134.692 81.472 134.692C81.9387 134.692 82.3307 134.86 82.648 135.196C82.984 135.532 83.152 135.943 83.152 136.428C83.152 136.913 82.984 137.324 82.648 137.66C82.3307 137.996 81.9387 138.164 81.472 138.164ZM82.704 140.656V156H80.156V140.656H82.704ZM93.7386 156.252C92.3013 156.252 90.9946 155.925 89.8186 155.272C88.6613 154.619 87.7466 153.695 87.0746 152.5C86.4213 151.287 86.0946 149.887 86.0946 148.3C86.0946 146.732 86.4306 145.351 87.1026 144.156C87.7933 142.943 88.7266 142.019 89.9026 141.384C91.0786 140.731 92.3946 140.404 93.8506 140.404C95.3066 140.404 96.6226 140.731 97.7986 141.384C98.9746 142.019 99.8986 142.933 100.571 144.128C101.261 145.323 101.607 146.713 101.607 148.3C101.607 149.887 101.252 151.287 100.543 152.5C99.852 153.695 98.9093 154.619 97.7146 155.272C96.52 155.925 95.1946 156.252 93.7386 156.252ZM93.7386 154.012C94.6533 154.012 95.512 153.797 96.3146 153.368C97.1173 152.939 97.7613 152.295 98.2466 151.436C98.7506 150.577 99.0026 149.532 99.0026 148.3C99.0026 147.068 98.76 146.023 98.2746 145.164C97.7893 144.305 97.1546 143.671 96.3706 143.26C95.5866 142.831 94.7373 142.616 93.8226 142.616C92.8893 142.616 92.0306 142.831 91.2466 143.26C90.4813 143.671 89.8653 144.305 89.3986 145.164C88.932 146.023 88.6986 147.068 88.6986 148.3C88.6986 149.551 88.9226 150.605 89.3706 151.464C89.8373 152.323 90.4533 152.967 91.2186 153.396C91.984 153.807 92.824 154.012 93.7386 154.012ZM110.389 156.252C109.213 156.252 108.158 156.056 107.225 155.664C106.291 155.253 105.554 154.693 105.013 153.984C104.471 153.256 104.173 152.425 104.117 151.492H106.749C106.823 152.257 107.178 152.883 107.813 153.368C108.466 153.853 109.315 154.096 110.361 154.096C111.331 154.096 112.097 153.881 112.657 153.452C113.217 153.023 113.497 152.481 113.497 151.828C113.497 151.156 113.198 150.661 112.601 150.344C112.003 150.008 111.079 149.681 109.829 149.364C108.69 149.065 107.757 148.767 107.029 148.468C106.319 148.151 105.703 147.693 105.181 147.096C104.677 146.48 104.425 145.677 104.425 144.688C104.425 143.904 104.658 143.185 105.125 142.532C105.591 141.879 106.254 141.365 107.113 140.992C107.971 140.6 108.951 140.404 110.053 140.404C111.751 140.404 113.123 140.833 114.169 141.692C115.214 142.551 115.774 143.727 115.849 145.22H113.301C113.245 144.417 112.918 143.773 112.321 143.288C111.742 142.803 110.958 142.56 109.969 142.56C109.054 142.56 108.326 142.756 107.785 143.148C107.243 143.54 106.973 144.053 106.973 144.688C106.973 145.192 107.131 145.612 107.449 145.948C107.785 146.265 108.195 146.527 108.681 146.732C109.185 146.919 109.875 147.133 110.753 147.376C111.854 147.675 112.75 147.973 113.441 148.272C114.131 148.552 114.719 148.981 115.205 149.56C115.709 150.139 115.97 150.895 115.989 151.828C115.989 152.668 115.755 153.424 115.289 154.096C114.822 154.768 114.159 155.3 113.301 155.692C112.461 156.065 111.49 156.252 110.389 156.252Z" fill="black"/>
</g>
<defs>
<filter id="filter0_d_2029_4709" x="0" y="0" width="202" height="202" filterUnits="userSpaceOnUse" color-interpolation-filters="sRGB">
<feFlood flood-opacity="0" result="BackgroundImageFix"/>
<feColorMatrix in="SourceAlpha" type="matrix" values="0 0 0 0 0 0 0 0 0 0 0 0 0 0 0 0 0 0 127 0" result="hardAlpha"/>
<feOffset dx="3" dy="4"/>
<feGaussianBlur stdDeviation="4.5"/>
<feComposite in2="hardAlpha" operator="out"/>
<feColorMatrix type="matrix" values="0 0 0 0 0 0 0 0 0 0 0 0 0 0 0 0 0 0 0.14 0"/>
<feBlend mode="normal" in2="BackgroundImageFix" result="effect1_dropShadow_2029_4709"/>
<feBlend mode="normal" in="SourceGraphic" in2="effect1_dropShadow_2029_4709" result="shape"/>
</filter>
</defs>
</svg>
