<svg width="35" height="50" viewBox="0 0 35 50" fill="none" xmlns="http://www.w3.org/2000/svg">
<path d="M15.7704 15.026C16.3691 13.1834 18.9759 13.1834 19.5746 15.026L21.0443 19.5492C21.3121 20.3733 22.08 20.9312 22.9464 20.9312H27.7024C29.6399 20.9312 30.4454 23.4104 28.878 24.5492L25.0303 27.3447C24.3293 27.854 24.036 28.7567 24.3038 29.5808L25.7735 34.104C26.3722 35.9466 24.2632 37.4789 22.6958 36.3401L18.8481 33.5446C18.1471 33.0353 17.1979 33.0353 16.4969 33.5446L12.6492 36.3401C11.0818 37.4789 8.97287 35.9466 9.57157 34.104L11.0413 29.5808C11.309 28.7567 11.0157 27.854 10.3147 27.3447L6.46702 24.5492C4.89959 23.4104 5.70515 20.9312 7.64259 20.9312H12.3986C13.2651 20.9312 14.033 20.3733 14.3007 19.5492L15.7704 15.026Z" fill="#808080"/>
<mask id="mask0_2489_5857" style="mask-type:alpha" maskUnits="userSpaceOnUse" x="0" y="0" width="18" height="50">
<rect width="17.6727" height="49.7455" fill="#C4C4C4"/>
</mask>
<g mask="url(#mask0_2489_5857)">
<path d="M15.7704 15.026C16.3691 13.1834 18.9759 13.1834 19.5746 15.026L21.0443 19.5492C21.3121 20.3733 22.08 20.9312 22.9464 20.9312H27.7024C29.6399 20.9312 30.4454 23.4104 28.878 24.5492L25.0303 27.3447C24.3293 27.854 24.036 28.7567 24.3038 29.5808L25.7735 34.104C26.3722 35.9466 24.2632 37.4789 22.6958 36.3401L18.8481 33.5446C18.1471 33.0353 17.1979 33.0353 16.4969 33.5446L12.6492 36.3401C11.0818 37.4789 8.97287 35.9466 9.57157 34.104L11.0413 29.5808C11.309 28.7567 11.0157 27.854 10.3147 27.3447L6.46702 24.5492C4.89959 23.4104 5.70515 20.9312 7.64259 20.9312H12.3986C13.2651 20.9312 14.033 20.3733 14.3007 19.5492L15.7704 15.026Z" fill="white"/>
</g>
</svg>
