<svg width="255" height="65" viewBox="0 0 255 65" fill="none" xmlns="http://www.w3.org/2000/svg">
<path d="M211.744 47.88V49.368H207.024V52.648H210.704V54.136H207.024V59H205.2V47.88H211.744ZM215.258 47.16V59H213.434V47.16H215.258ZM225.637 50.184V59H223.813V57.96C223.525 58.3227 223.146 58.6107 222.677 58.824C222.218 59.0267 221.728 59.128 221.205 59.128C220.512 59.128 219.888 58.984 219.333 58.696C218.789 58.408 218.357 57.9813 218.037 57.416C217.728 56.8507 217.573 56.168 217.573 55.368V50.184H219.381V55.096C219.381 55.8853 219.578 56.4933 219.973 56.92C220.368 57.336 220.906 57.544 221.589 57.544C222.272 57.544 222.81 57.336 223.205 56.92C223.61 56.4933 223.813 55.8853 223.813 55.096V50.184H225.637ZM230.172 51.672V56.552C230.172 56.8827 230.246 57.1227 230.396 57.272C230.556 57.4107 230.822 57.48 231.196 57.48H232.316V59H230.876C230.054 59 229.425 58.808 228.988 58.424C228.55 58.04 228.332 57.416 228.332 56.552V51.672H227.292V50.184H228.332V47.992H230.172V50.184H232.316V51.672H230.172ZM236.125 51.672V56.552C236.125 56.8827 236.2 57.1227 236.349 57.272C236.509 57.4107 236.776 57.48 237.149 57.48H238.269V59H236.829C236.008 59 235.378 58.808 234.941 58.424C234.504 58.04 234.285 57.416 234.285 56.552V51.672H233.245V50.184H234.285V47.992H236.125V50.184H238.269V51.672H236.125ZM248.03 54.376C248.03 54.7067 248.009 55.0053 247.966 55.272H241.23C241.283 55.976 241.545 56.5413 242.014 56.968C242.483 57.3947 243.059 57.608 243.742 57.608C244.723 57.608 245.417 57.1973 245.822 56.376H247.79C247.523 57.1867 247.038 57.8533 246.334 58.376C245.641 58.888 244.777 59.144 243.742 59.144C242.899 59.144 242.142 58.9573 241.47 58.584C240.809 58.2 240.286 57.6667 239.902 56.984C239.529 56.2907 239.342 55.4907 239.342 54.584C239.342 53.6773 239.523 52.8827 239.886 52.2C240.259 51.5067 240.777 50.9733 241.438 50.6C242.11 50.2267 242.878 50.04 243.742 50.04C244.574 50.04 245.315 50.2213 245.966 50.584C246.617 50.9467 247.123 51.4587 247.486 52.12C247.849 52.7707 248.03 53.5227 248.03 54.376ZM246.126 53.8C246.115 53.128 245.875 52.5893 245.406 52.184C244.937 51.7787 244.355 51.576 243.662 51.576C243.033 51.576 242.494 51.7787 242.046 52.184C241.598 52.5787 241.331 53.1173 241.246 53.8H246.126ZM251.649 51.464C251.916 51.016 252.268 50.6693 252.705 50.424C253.153 50.168 253.681 50.04 254.289 50.04V51.928H253.825C253.11 51.928 252.566 52.1093 252.193 52.472C251.83 52.8347 251.649 53.464 251.649 54.36V59H249.825V50.184H251.649V51.464Z" fill="white"/>
<path d="M218.97 20.9127L214.003 15.9882L230.131 0H240.064L218.97 20.9127ZM240.064 14.7539H230.131L226.41 18.4427L231.377 23.3671" fill="white"/>
<path d="M226.396 28.3025L230.12 32.0003H240.064L231.368 23.3672" fill="white"/>
<path d="M221.415 23.426L226.396 18.5332L231.377 23.4247L226.396 28.3174L221.415 23.426Z" fill="white"/>
<path d="M226.396 28.3166L231.376 23.3672L232.071 24.0581L227.091 29.0075L226.396 28.3166Z" fill="white"/>
<path d="M226.396 28.3169L233.809 25.7797L231.392 23.3672" fill="white"/>
<path d="M71.976 59L69.416 54.552H68.024V59H66.2V47.88H70.04C70.8933 47.88 71.6133 48.0293 72.2 48.328C72.7973 48.6267 73.24 49.0267 73.528 49.528C73.8267 50.0293 73.976 50.5893 73.976 51.208C73.976 51.9333 73.7627 52.5947 73.336 53.192C72.92 53.7787 72.2747 54.1787 71.4 54.392L74.152 59H71.976ZM68.024 53.096H70.04C70.7227 53.096 71.2347 52.9253 71.576 52.584C71.928 52.2427 72.104 51.784 72.104 51.208C72.104 50.632 71.9333 50.184 71.592 49.864C71.2507 49.5333 70.7333 49.368 70.04 49.368H68.024V53.096ZM84.3894 54.376C84.3894 54.7067 84.368 55.0053 84.3254 55.272H77.5894C77.6427 55.976 77.904 56.5413 78.3734 56.968C78.8427 57.3947 79.4187 57.608 80.1014 57.608C81.0827 57.608 81.776 57.1973 82.1814 56.376H84.1494C83.8827 57.1867 83.3974 57.8533 82.6934 58.376C82 58.888 81.136 59.144 80.1014 59.144C79.2587 59.144 78.5014 58.9573 77.8294 58.584C77.168 58.2 76.6454 57.6667 76.2614 56.984C75.888 56.2907 75.7014 55.4907 75.7014 54.584C75.7014 53.6773 75.8827 52.8827 76.2454 52.2C76.6187 51.5067 77.136 50.9733 77.7974 50.6C78.4694 50.2267 79.2374 50.04 80.1014 50.04C80.9334 50.04 81.6747 50.2213 82.3254 50.584C82.976 50.9467 83.4827 51.4587 83.8454 52.12C84.208 52.7707 84.3894 53.5227 84.3894 54.376ZM82.4854 53.8C82.4747 53.128 82.2347 52.5893 81.7654 52.184C81.296 51.7787 80.7147 51.576 80.0214 51.576C79.392 51.576 78.8534 51.7787 78.4054 52.184C77.9574 52.5787 77.6907 53.1173 77.6054 53.8H82.4854ZM85.5764 54.552C85.5764 53.6667 85.7577 52.8827 86.1204 52.2C86.4937 51.5173 86.995 50.9893 87.6244 50.616C88.2644 50.232 88.9684 50.04 89.7364 50.04C90.4297 50.04 91.0324 50.1787 91.5444 50.456C92.067 50.7227 92.483 51.0587 92.7924 51.464V50.184H94.6324V59H92.7924V57.688C92.483 58.104 92.0617 58.4507 91.5284 58.728C90.995 59.0053 90.387 59.144 89.7044 59.144C88.947 59.144 88.2537 58.952 87.6244 58.568C86.995 58.1733 86.4937 57.6293 86.1204 56.936C85.7577 56.232 85.5764 55.4373 85.5764 54.552ZM92.7924 54.584C92.7924 53.976 92.6644 53.448 92.4084 53C92.163 52.552 91.8377 52.2107 91.4324 51.976C91.027 51.7413 90.5897 51.624 90.1204 51.624C89.651 51.624 89.2137 51.7413 88.8084 51.976C88.403 52.2 88.0724 52.536 87.8164 52.984C87.571 53.4213 87.4484 53.944 87.4484 54.552C87.4484 55.16 87.571 55.6933 87.8164 56.152C88.0724 56.6107 88.403 56.9627 88.8084 57.208C89.2244 57.4427 89.6617 57.56 90.1204 57.56C90.5897 57.56 91.027 57.4427 91.4324 57.208C91.8377 56.9733 92.163 56.632 92.4084 56.184C92.6644 55.7253 92.7924 55.192 92.7924 54.584ZM96.4201 54.584C96.4201 53.6773 96.6015 52.8827 96.9641 52.2C97.3375 51.5067 97.8495 50.9733 98.5001 50.6C99.1508 50.2267 99.8975 50.04 100.74 50.04C101.807 50.04 102.687 50.296 103.38 50.808C104.084 51.3093 104.559 52.0293 104.804 52.968H102.836C102.676 52.5307 102.42 52.1893 102.068 51.944C101.716 51.6987 101.273 51.576 100.74 51.576C99.9935 51.576 99.3961 51.8427 98.9481 52.376C98.5108 52.8987 98.2921 53.6347 98.2921 54.584C98.2921 55.5333 98.5108 56.2747 98.9481 56.808C99.3961 57.3413 99.9935 57.608 100.74 57.608C101.796 57.608 102.495 57.144 102.836 56.216H104.804C104.548 57.112 104.068 57.8267 103.364 58.36C102.66 58.8827 101.785 59.144 100.74 59.144C99.8975 59.144 99.1508 58.9573 98.5001 58.584C97.8495 58.2 97.3375 57.6667 96.9641 56.984C96.6015 56.2907 96.4201 55.4907 96.4201 54.584ZM108.75 51.672V56.552C108.75 56.8827 108.825 57.1227 108.974 57.272C109.134 57.4107 109.401 57.48 109.774 57.48H110.894V59H109.454C108.633 59 108.003 58.808 107.566 58.424C107.129 58.04 106.91 57.416 106.91 56.552V51.672H105.87V50.184H106.91V47.992H108.75V50.184H110.894V51.672H108.75ZM125.867 59H124.043L118.555 50.696V59H116.731V47.864H118.555L124.043 56.152V47.864H125.867V59ZM127.655 54.552C127.655 53.6667 127.836 52.8827 128.199 52.2C128.572 51.5173 129.073 50.9893 129.703 50.616C130.343 50.232 131.047 50.04 131.815 50.04C132.508 50.04 133.111 50.1787 133.623 50.456C134.145 50.7227 134.561 51.0587 134.871 51.464V50.184H136.711V59H134.871V57.688C134.561 58.104 134.14 58.4507 133.607 58.728C133.073 59.0053 132.465 59.144 131.783 59.144C131.025 59.144 130.332 58.952 129.703 58.568C129.073 58.1733 128.572 57.6293 128.199 56.936C127.836 56.232 127.655 55.4373 127.655 54.552ZM134.871 54.584C134.871 53.976 134.743 53.448 134.487 53C134.241 52.552 133.916 52.2107 133.511 51.976C133.105 51.7413 132.668 51.624 132.199 51.624C131.729 51.624 131.292 51.7413 130.887 51.976C130.481 52.2 130.151 52.536 129.895 52.984C129.649 53.4213 129.527 53.944 129.527 54.552C129.527 55.16 129.649 55.6933 129.895 56.152C130.151 56.6107 130.481 56.9627 130.887 57.208C131.303 57.4427 131.74 57.56 132.199 57.56C132.668 57.56 133.105 57.4427 133.511 57.208C133.916 56.9733 134.241 56.632 134.487 56.184C134.743 55.7253 134.871 55.192 134.871 54.584ZM141.234 51.672V56.552C141.234 56.8827 141.309 57.1227 141.458 57.272C141.618 57.4107 141.885 57.48 142.258 57.48H143.378V59H141.938C141.117 59 140.488 58.808 140.05 58.424C139.613 58.04 139.394 57.416 139.394 56.552V51.672H138.354V50.184H139.394V47.992H141.234V50.184H143.378V51.672H141.234ZM145.987 49.016C145.657 49.016 145.379 48.904 145.155 48.68C144.931 48.456 144.819 48.1787 144.819 47.848C144.819 47.5173 144.931 47.24 145.155 47.016C145.379 46.792 145.657 46.68 145.987 46.68C146.307 46.68 146.579 46.792 146.803 47.016C147.027 47.24 147.139 47.5173 147.139 47.848C147.139 48.1787 147.027 48.456 146.803 48.68C146.579 48.904 146.307 49.016 145.987 49.016ZM146.883 50.184V59H145.059V50.184H146.883ZM152.686 57.368L155.182 50.184H157.118L153.758 59H151.582L148.238 50.184H150.19L152.686 57.368ZM166.577 54.376C166.577 54.7067 166.556 55.0053 166.513 55.272H159.777C159.83 55.976 160.092 56.5413 160.561 56.968C161.03 57.3947 161.606 57.608 162.289 57.608C163.27 57.608 163.964 57.1973 164.369 56.376H166.337C166.07 57.1867 165.585 57.8533 164.881 58.376C164.188 58.888 163.324 59.144 162.289 59.144C161.446 59.144 160.689 58.9573 160.017 58.584C159.356 58.2 158.833 57.6667 158.449 56.984C158.076 56.2907 157.889 55.4907 157.889 54.584C157.889 53.6773 158.07 52.8827 158.433 52.2C158.806 51.5067 159.324 50.9733 159.985 50.6C160.657 50.2267 161.425 50.04 162.289 50.04C163.121 50.04 163.862 50.2213 164.513 50.584C165.164 50.9467 165.67 51.4587 166.033 52.12C166.396 52.7707 166.577 53.5227 166.577 54.376ZM164.673 53.8C164.662 53.128 164.422 52.5893 163.953 52.184C163.484 51.7787 162.902 51.576 162.209 51.576C161.58 51.576 161.041 51.7787 160.593 52.184C160.145 52.5787 159.878 53.1173 159.793 53.8H164.673Z" fill="white"/>
<path d="M96.3296 16.0037C96.3296 13.6232 99.33 11.3674 103.93 9.96845C102.868 5.31014 103.34 1.60403 105.419 0.417472C105.898 0.139136 106.459 0.00729614 107.07 0.00729614V1.64064C106.731 1.64064 106.459 1.70656 106.23 1.8311C105.227 2.40237 104.792 4.57773 105.132 7.37562C105.213 8.06413 105.345 8.78918 105.508 9.52896C106.952 9.17741 108.53 8.90637 110.189 8.73063C111.184 7.37562 112.216 6.14509 113.255 5.06842C110.852 2.84915 108.596 1.63334 107.063 1.63334V0C109.09 0 111.744 1.43558 114.427 3.92589C117.111 1.45024 119.765 0.029248 121.792 0.029248V1.66259C120.266 1.66259 118.003 2.87117 115.6 5.07578C116.632 6.15245 117.664 7.37562 118.644 8.73063C120.31 8.90637 121.888 9.17741 123.333 9.53625C123.502 8.80384 123.627 8.09338 123.716 7.41222C124.062 4.61434 123.635 2.43898 122.64 1.86035C122.419 1.72851 122.131 1.66995 121.792 1.66995V0.0366724C122.411 0.0366724 122.971 0.168447 123.458 0.446783C125.529 1.63334 125.994 5.3321 124.925 9.97574C129.51 11.382 132.496 13.6305 132.496 16.0037C132.496 18.3841 129.496 20.6399 124.896 22.0389C125.957 26.6972 125.485 30.4033 123.406 31.5898C122.927 31.8682 122.367 32 121.748 32C119.72 32 117.067 30.5644 114.383 28.0741C111.7 30.5498 109.046 31.9707 107.019 31.9707C106.4 31.9707 105.839 31.8389 105.353 31.5605C103.281 30.374 102.817 26.6752 103.886 22.0316C99.3152 20.6326 96.3296 18.3768 96.3296 16.0037ZM105.928 11.1183C106.201 12.0632 106.54 13.0372 106.923 14.0115C107.225 13.4255 107.542 12.8396 107.889 12.2536C108.228 11.6676 108.589 11.0964 108.95 10.5397C107.903 10.6936 106.893 10.884 105.928 11.1183ZM109.304 18.9187C109.879 19.9075 110.469 20.8451 111.081 21.7166C112.179 21.8118 113.292 21.8632 114.413 21.8632C115.526 21.8632 116.639 21.8118 117.73 21.724C118.342 20.8524 118.939 19.9222 119.514 18.9407C120.074 17.9812 120.583 17.0071 121.047 16.0257C120.59 15.0442 120.074 14.0627 119.521 13.1032C118.946 12.1144 118.357 11.1769 117.745 10.3053C116.646 10.2101 115.533 10.1588 114.413 10.1588C113.3 10.1588 112.186 10.2101 111.095 10.298C110.484 11.1696 109.886 12.0998 109.311 13.0813C108.751 14.0408 108.243 15.0148 107.778 15.9963C108.243 16.9778 108.751 17.9592 109.304 18.9187ZM106.923 17.9666C106.525 18.948 106.186 19.9295 105.906 20.8817C106.871 21.116 107.889 21.3138 108.943 21.4676C108.582 20.9036 108.22 20.325 107.881 19.7317C107.542 19.1458 107.225 18.5525 106.923 17.9666ZM114.398 25.7816C115.084 25.0785 115.769 24.2948 116.447 23.4379C115.784 23.4671 115.106 23.4891 114.42 23.4891C113.727 23.4891 113.042 23.4744 112.371 23.4379C113.034 24.2948 113.72 25.0785 114.398 25.7816ZM119.883 21.4676C120.929 21.3138 121.939 21.1233 122.905 20.889C122.632 19.9441 122.293 18.97 121.91 17.9959C121.608 18.5818 121.291 19.1678 120.944 19.7537C120.598 20.3396 120.244 20.911 119.883 21.4676ZM114.435 6.22573C113.749 6.92883 113.064 7.71251 112.385 8.56941C113.049 8.54016 113.727 8.51821 114.413 8.51821C115.106 8.51821 115.791 8.53286 116.462 8.56941C115.799 7.71251 115.113 6.92883 114.435 6.22573ZM119.89 10.5397C120.251 11.1037 120.612 11.6823 120.952 12.2756C121.291 12.8616 121.608 13.4475 121.91 14.0334C122.308 13.052 122.647 12.0705 122.927 11.1183C121.961 10.8913 120.944 10.6936 119.89 10.5397ZM126.561 19.7098C129.171 18.6038 130.859 17.1536 130.859 16.0037C130.859 14.8538 129.171 13.3962 126.561 12.2975C125.928 12.0266 125.235 11.7848 124.52 11.5578C124.099 12.9934 123.546 14.4876 122.861 16.0183C123.539 17.5418 124.085 19.0286 124.497 20.4568C125.227 20.2298 125.92 19.9807 126.561 19.7098ZM122.595 30.1762C123.598 29.6049 124.033 27.4296 123.694 24.6317C123.613 23.9432 123.48 23.2181 123.318 22.4783C121.873 22.8299 120.295 23.1009 118.637 23.2767C117.642 24.6317 116.61 25.8622 115.57 26.9389C117.973 29.1581 120.229 30.3739 121.762 30.3739C122.094 30.3667 122.374 30.3007 122.595 30.1762ZM105.109 24.5951C104.763 27.393 105.191 29.5683 106.186 30.1469C106.407 30.2788 106.694 30.3374 107.034 30.3374C108.559 30.3374 110.823 29.1288 113.226 26.9242C112.194 25.8476 111.162 24.6244 110.181 23.2694C108.515 23.0936 106.938 22.8226 105.493 22.4637C105.323 23.2035 105.191 23.9139 105.109 24.5951ZM102.271 19.7098C102.905 19.9807 103.598 20.2225 104.313 20.4495C104.733 19.014 105.286 17.5198 105.972 15.989C105.294 14.4655 104.748 12.9788 104.335 11.5505C103.606 11.7775 102.913 12.0266 102.264 12.2975C99.6543 13.4035 97.9662 14.8538 97.9662 16.0037C97.9736 17.1536 99.6617 18.6111 102.271 19.7098Z" fill="white"/>
<path d="M114.422 19.3507C112.561 19.3507 111.053 17.8521 111.053 16.0035C111.053 14.1548 112.561 12.6562 114.422 12.6562C116.282 12.6562 117.791 14.1548 117.791 16.0035C117.791 17.8521 116.282 19.3507 114.422 19.3507Z" fill="white"/>
<path d="M3.128 49.016C2.79733 49.016 2.52 48.904 2.296 48.68C2.072 48.456 1.96 48.1787 1.96 47.848C1.96 47.5173 2.072 47.24 2.296 47.016C2.52 46.792 2.79733 46.68 3.128 46.68C3.448 46.68 3.72 46.792 3.944 47.016C4.168 47.24 4.28 47.5173 4.28 47.848C4.28 48.1787 4.168 48.456 3.944 48.68C3.72 48.904 3.448 49.016 3.128 49.016ZM4.024 50.184V59H2.2V50.184H4.024ZM11.4908 59.112C10.4561 59.112 9.50142 58.872 8.62675 58.392C7.76275 57.9013 7.07475 57.224 6.56275 56.36C6.06142 55.4853 5.81075 54.504 5.81075 53.416C5.81075 52.328 6.06142 51.352 6.56275 50.488C7.07475 49.624 7.76275 48.952 8.62675 48.472C9.50142 47.9813 10.4561 47.736 11.4908 47.736C12.5361 47.736 13.4908 47.9813 14.3548 48.472C15.2294 48.952 15.9174 49.624 16.4188 50.488C16.9201 51.352 17.1708 52.328 17.1708 53.416C17.1708 54.504 16.9201 55.4853 16.4188 56.36C15.9174 57.224 15.2294 57.9013 14.3548 58.392C13.4908 58.872 12.5361 59.112 11.4908 59.112ZM11.4908 57.528C12.2268 57.528 12.8828 57.3627 13.4588 57.032C14.0348 56.6907 14.4828 56.2107 14.8028 55.592C15.1334 54.9627 15.2988 54.2373 15.2988 53.416C15.2988 52.5947 15.1334 51.8747 14.8028 51.256C14.4828 50.6373 14.0348 50.1627 13.4588 49.832C12.8828 49.5013 12.2268 49.336 11.4908 49.336C10.7548 49.336 10.0988 49.5013 9.52275 49.832C8.94675 50.1627 8.49342 50.6373 8.16275 51.256C7.84275 51.8747 7.68275 52.5947 7.68275 53.416C7.68275 54.2373 7.84275 54.9627 8.16275 55.592C8.49342 56.2107 8.94675 56.6907 9.52275 57.032C10.0988 57.3627 10.7548 57.528 11.4908 57.528ZM22.6296 59.112C21.883 59.112 21.211 58.984 20.6136 58.728C20.0163 58.4613 19.547 58.088 19.2056 57.608C18.8643 57.128 18.6936 56.568 18.6936 55.928H20.6456C20.6883 56.408 20.875 56.8027 21.2056 57.112C21.547 57.4213 22.0216 57.576 22.6296 57.576C23.259 57.576 23.7496 57.4267 24.1016 57.128C24.4536 56.8187 24.6296 56.424 24.6296 55.944C24.6296 55.5707 24.5176 55.2667 24.2936 55.032C24.0803 54.7973 23.8083 54.616 23.4776 54.488C23.1576 54.36 22.7096 54.2213 22.1336 54.072C21.4083 53.88 20.8163 53.688 20.3576 53.496C19.9096 53.2933 19.5256 52.984 19.2056 52.568C18.8856 52.152 18.7256 51.5973 18.7256 50.904C18.7256 50.264 18.8856 49.704 19.2056 49.224C19.5256 48.744 19.9736 48.376 20.5496 48.12C21.1256 47.864 21.7923 47.736 22.5496 47.736C23.627 47.736 24.507 48.008 25.1896 48.552C25.883 49.0853 26.267 49.8213 26.3416 50.76H24.3256C24.2936 50.3547 24.1016 50.008 23.7496 49.72C23.3976 49.432 22.9336 49.288 22.3576 49.288C21.835 49.288 21.4083 49.4213 21.0776 49.688C20.747 49.9547 20.5816 50.3387 20.5816 50.84C20.5816 51.1813 20.683 51.464 20.8856 51.688C21.099 51.9013 21.3656 52.072 21.6856 52.2C22.0056 52.328 22.443 52.4667 22.9976 52.616C23.7336 52.8187 24.331 53.0213 24.7896 53.224C25.259 53.4267 25.6536 53.7413 25.9736 54.168C26.3043 54.584 26.4696 55.144 26.4696 55.848C26.4696 56.4133 26.315 56.9467 26.0056 57.448C25.707 57.9493 25.2643 58.3547 24.6776 58.664C24.1016 58.9627 23.419 59.112 22.6296 59.112Z" fill="white"/>
<path d="M20.1685 0C20.2444 0 20.3204 0 20.4005 0C20.5867 2.27439 19.7087 3.97388 18.6417 5.20451C17.5946 6.4267 16.1609 7.61208 13.842 7.43225C13.6873 5.19037 14.5667 3.61696 15.6324 2.38914C16.6206 1.24484 18.4325 0.22662 20.1685 0Z" fill="white"/>
<path d="M27.188 23.4225C27.188 23.4452 27.188 23.465 27.188 23.4862C26.5363 25.4378 25.6067 27.1103 24.4723 28.6624C23.4368 30.0716 22.1677 31.9679 19.9018 31.9679C17.9438 31.9679 16.6432 30.723 14.6366 30.689C12.5139 30.6551 11.3466 31.73 9.40577 32.0004C9.18375 32.0004 8.96174 32.0004 8.744 32.0004C7.31884 31.7965 6.16872 30.6805 5.33081 29.675C2.86006 26.7038 0.950781 22.8659 0.595566 17.9545C0.595566 17.4731 0.595566 16.993 0.595566 16.5114C0.745959 12.9964 2.47333 10.1386 4.76934 8.75349C5.98108 8.01706 7.64684 7.38974 9.50169 7.67012C10.2967 7.79191 11.1088 8.06096 11.8206 8.32726C12.4953 8.58358 13.3389 9.03816 14.1381 9.0141C14.6796 8.99855 15.2181 8.71951 15.7638 8.52265C17.3623 7.95197 18.9292 7.29765 20.9946 7.60497C23.4769 7.97603 25.2386 9.06651 26.3272 10.7489C24.2274 12.0702 22.5673 14.0614 22.851 17.4618C23.103 20.5505 24.9192 22.3575 27.188 23.4225Z" fill="white"/>
</svg>
