<svg width="234" height="241" viewBox="0 0 234 241" fill="none" xmlns="http://www.w3.org/2000/svg">
<path d="M49.5955 0C53.8049 2.3739 57.9604 4.69386 62.1698 7.06776C73.2869 13.4341 84.3501 19.8545 95.5212 26.2209C97.3021 27.2459 98.1116 28.6487 98.0576 30.6989C98.0576 62.2071 98.0576 93.7153 98.0576 125.223C98.0576 125.655 98.0576 126.141 98.0576 126.788C98.4894 126.572 98.8132 126.41 99.137 126.249C111.118 119.343 123.044 112.491 135.025 105.639C135.726 105.207 135.942 104.776 135.942 104.02C135.942 88.1042 135.942 72.1343 135.888 56.2184C135.888 54.2761 136.644 52.9812 138.317 52.0101C153.05 43.5396 167.783 35.069 182.516 26.5985C184.135 25.6274 185.646 25.6274 187.319 26.5985C202.052 35.123 216.785 43.5935 231.518 52.0101C233.191 52.9812 234 54.2761 234 56.2184C234 72.9976 234 89.7767 234 106.556C234 108.498 233.244 109.847 231.518 110.872C217.54 118.857 203.617 126.896 189.693 134.935C188.938 135.366 188.668 135.798 188.668 136.661C188.722 152.523 188.668 168.385 188.722 184.247C188.722 186.244 187.966 187.646 186.239 188.617C156.45 205.72 126.714 222.823 96.9783 239.98C95.1435 241.005 93.5784 241.005 91.7435 239.98C61.9539 222.823 32.1642 205.666 2.32057 188.51C1.1333 187.808 0.431734 186.837 0 185.596C0 133.478 0 81.4141 0 29.2961C0.431734 27.6776 1.61901 26.7604 3.02215 26.005C6.09825 24.2786 9.1204 22.4981 12.1965 20.7177C24.2311 13.8118 36.2657 6.9059 48.3003 0C48.678 0 49.1098 0 49.5955 0ZM7.39344 36.3099C7.39344 37.0113 7.39344 37.4429 7.39344 37.8746C7.39344 85.7303 7.39344 133.586 7.39344 181.496C7.39344 182.467 7.66329 183.006 8.52676 183.492C35.5102 198.976 62.4936 214.515 89.4769 230.053C89.8007 230.215 90.0706 230.377 90.5563 230.646C90.5563 230.107 90.5563 229.729 90.5563 229.352C90.5563 215.702 90.5563 202.052 90.5563 188.402C90.5563 187.431 90.2325 186.945 89.423 186.513C75.6614 178.744 61.9539 170.975 48.1923 163.26C46.1416 162.073 45.2781 160.616 45.2781 158.242C45.3321 125.277 45.3321 92.2586 45.3321 59.2937C45.3321 58.4844 45.1162 57.9988 44.3607 57.6211C32.6499 50.931 20.9931 44.187 9.33625 37.4969C8.74262 37.0653 8.14898 36.7416 7.39344 36.3099ZM181.167 139.683C180.681 139.952 180.357 140.114 180.087 140.276C153.05 155.707 125.958 171.137 98.9211 186.567C98.2735 186.945 98.0037 187.323 98.0576 188.078C98.0576 201.836 98.0576 215.648 98.0576 229.405C98.0576 229.729 98.1116 230.107 98.1116 230.538C98.5973 230.269 98.9751 230.053 99.3529 229.891C126.336 214.353 153.266 198.868 180.249 183.33C181.005 182.899 181.22 182.467 181.167 181.604C181.167 168.062 181.167 154.52 181.167 140.978C181.167 140.654 181.167 140.276 181.167 139.683ZM56.5032 159.267C56.935 159.537 57.2588 159.699 57.5286 159.861C69.5092 166.659 81.4898 173.403 93.4705 180.201C94.0641 180.525 94.4959 180.471 95.0895 180.147C122.181 164.663 149.272 149.232 176.309 133.748C176.633 133.586 176.903 133.37 177.281 133.154C176.903 132.939 176.633 132.723 176.363 132.561C164.491 125.709 152.564 118.857 140.691 112.005C139.882 111.52 139.288 111.52 138.479 112.005C113.006 126.68 87.5341 141.355 62.0618 156.03C60.2809 157.109 58.446 158.188 56.5032 159.267ZM52.6716 152.793C53.0494 152.631 53.2113 152.523 53.4271 152.415C65.5697 145.456 77.6582 138.442 89.8007 131.482C90.3944 131.158 90.5023 130.727 90.5023 130.133C90.5023 99.2724 90.5023 68.3577 90.5023 37.4969C90.5023 37.1732 90.4484 36.8495 90.4484 36.3639C89.9626 36.6337 89.6388 36.7955 89.369 36.9574C77.4963 43.8093 65.6236 50.6073 53.7509 57.4593C52.9954 57.8909 52.6716 58.3765 52.6716 59.2937C52.6716 89.9926 52.6716 120.745 52.6716 151.444C52.6716 151.822 52.6716 152.254 52.6716 152.793ZM147.113 55.463C147.437 55.6788 147.653 55.8407 147.869 55.9486C159.958 62.9085 172.046 69.8683 184.135 76.8282C184.728 77.1519 185.106 77.0979 185.646 76.7742C197.68 69.8144 209.715 62.9085 221.75 55.9486C222.019 55.7867 222.235 55.6249 222.559 55.4091C222.181 55.1393 221.857 54.9775 221.588 54.8156C209.553 47.9097 197.572 41.0038 185.538 34.0439C184.89 33.6663 184.512 33.7742 183.973 34.0979C175.338 39.0615 166.703 44.0251 158.069 49.0427C154.453 51.2008 150.837 53.251 147.113 55.463ZM11.2251 29.7817C11.6029 30.0515 11.8187 30.2133 12.0886 30.3752C24.1232 37.2811 36.1578 44.2409 48.1923 51.2008C48.8399 51.5785 49.2717 51.4706 49.8653 51.1468C61.792 44.2409 73.7726 37.389 85.6992 30.4831C86.023 30.3212 86.2929 30.1054 86.7246 29.8357C86.2929 29.5659 85.9691 29.404 85.6992 29.2422C73.7186 22.3363 61.738 15.4304 49.7574 8.52447C49.1638 8.20076 48.732 8.20076 48.1384 8.52447C38.6942 13.9737 29.304 19.3689 19.8598 24.8181C17.0535 26.4367 14.1933 28.1092 11.2251 29.7817ZM181.059 126.68C181.113 126.249 181.113 125.979 181.113 125.709C181.113 112.005 181.113 98.3012 181.113 84.5973C181.113 83.9499 180.951 83.5722 180.357 83.2485C168.268 76.3426 156.234 69.3827 144.145 62.4229C143.875 62.261 143.606 62.1531 143.228 61.9913C143.228 62.4229 143.174 62.6387 143.174 62.9085C143.174 76.6663 143.174 90.3702 143.174 104.128C143.174 104.829 143.498 105.153 144.037 105.477C156.018 112.383 167.999 119.289 179.979 126.141C180.357 126.356 180.681 126.518 181.059 126.68ZM226.391 61.9913C225.959 62.2071 225.743 62.315 225.473 62.4229C213.439 69.3288 201.458 76.2347 189.423 83.1406C188.776 83.5183 188.56 83.9499 188.56 84.6513C188.56 98.2473 188.56 111.843 188.56 125.493C188.56 125.817 188.56 126.195 188.56 126.68C188.938 126.464 189.208 126.356 189.477 126.249C201.512 119.343 213.547 112.383 225.581 105.477C226.229 105.099 226.391 104.668 226.391 103.966C226.391 90.3702 226.391 76.7742 226.391 63.1243C226.391 62.8545 226.391 62.4768 226.391 61.9913Z" fill="white"/>
</svg>
