<svg width="229" height="255" viewBox="0 0 229 255" fill="none" xmlns="http://www.w3.org/2000/svg">
<g clip-path="url(#clip0_2537_5236)">
<path d="M0 127.517C0 109.889 0 92.2434 0 74.6152C0 70.4255 0.845994 66.4965 3.20773 62.9326C4.97022 60.2728 7.20857 58.1692 9.99331 56.5698C26.2082 47.3211 42.4231 38.0898 58.6203 28.8411C73.8659 20.1661 89.0585 11.4389 104.339 2.83344C111.037 -0.939061 117.999 -0.956446 124.696 2.79867C141.352 12.1691 157.901 21.6959 174.504 31.1532C188.903 39.3589 203.285 47.634 217.738 55.7527C223.677 59.0906 227.572 63.7671 228.771 70.4602C228.982 71.6076 228.982 72.7898 228.982 73.9546C229 109.576 228.982 145.18 229 180.801C229 188.833 225.405 194.796 218.443 198.777C198.386 210.234 178.276 221.638 158.201 233.078C147.044 239.423 135.905 245.821 124.714 252.131C117.875 255.991 110.931 255.921 104.163 252.044C93.6762 246.029 83.2599 239.875 72.826 233.773C72.262 233.443 71.6451 233.13 71.2045 232.678C70.7815 232.243 70.3056 231.617 70.3409 231.113C70.3761 230.713 71.0988 230.226 71.6275 230.018C73.2314 229.375 74.9586 228.957 76.5272 228.245C79.6116 226.836 82.6783 225.359 85.6745 223.777C86.9611 223.099 88.0186 223.116 89.2171 223.811C96.7958 228.279 104.41 232.678 111.953 237.18C113.68 238.206 115.143 238.31 116.941 237.285C134.936 226.975 152.984 216.701 171.014 206.444C183.916 199.108 196.799 191.754 209.718 184.452C211.375 183.513 212.115 182.349 212.115 180.402C212.063 145.093 212.08 109.785 212.115 74.4587C212.115 72.5812 211.428 71.4338 209.789 70.5124C182.171 54.8487 154.588 39.1329 127.005 23.4344C123.498 21.4352 119.955 19.4707 116.465 17.4367C115.108 16.6543 113.927 16.7065 112.552 17.4888C87.8776 31.5705 63.1852 45.6348 38.4927 59.6817C31.9892 63.3846 25.5032 67.1224 18.982 70.7732C17.5896 71.5555 17.0433 72.5812 17.0433 74.111C17.0609 109.68 17.0609 145.25 17.0256 180.819C17.0256 182.436 17.6778 183.409 18.9996 184.157C27.1776 188.798 35.3026 193.51 43.4982 198.099C47.5167 200.359 51.7819 201.628 56.523 201.107C61.3874 200.568 66.0933 196.396 66.8512 191.632C67.0274 190.537 67.1155 189.407 67.1155 188.294C67.1332 153.42 67.1332 118.529 67.0979 83.6553C67.0979 81.6039 67.9086 80.0393 70.6229 80.1436C74.1302 80.2826 77.6552 80.1783 81.1626 80.1783C83.7534 80.1783 84.5289 80.9433 84.5289 83.4988C84.5289 100.188 84.5289 116.86 84.5289 133.55C84.5289 152.968 84.6347 172.37 84.4408 191.789C84.3703 199.125 82.1319 205.905 76.6858 211.26C72.5616 215.31 67.3975 217.223 61.7223 218.022C51.5528 219.465 42.3526 216.718 33.6459 211.816C25.8381 207.418 18.0655 202.967 10.2753 198.534C4.65297 195.335 1.35712 190.554 0.246748 184.296C0 182.94 0.0352498 181.532 0.0352498 180.158C0 162.617 0 145.058 0 127.517Z" fill="white"/>
<path d="M101.008 147.753C103.282 147.753 105.555 147.718 107.829 147.77C109.627 147.805 110.455 148.483 110.878 150.204C111.46 152.499 111.847 154.846 112.605 157.071C114.791 163.556 119.743 167.05 126.141 168.875C131.129 170.283 136.24 170.875 141.422 170.961C145.634 171.031 149.847 171.135 154.041 170.944C160.245 170.649 166.414 169.971 172.054 167.085C178.699 163.677 180.443 157.123 179.122 151.073C178.681 149.057 177.306 147.666 175.649 146.553C172.265 144.293 168.388 143.181 164.458 142.433C158.5 141.32 152.508 140.416 146.516 139.582C141.105 138.834 135.641 138.487 130.248 137.67C122.528 136.487 114.914 134.801 107.988 130.942C100.479 126.752 96.0908 120.528 95.0157 112.027C94.0463 104.343 94.9628 97.0414 99.2456 90.4178C103.035 84.5417 108.499 80.6301 114.897 77.9355C120.889 75.4147 127.163 74.1108 133.632 73.4676C139.73 72.8591 145.811 72.8244 151.891 73.259C160.774 73.8848 169.481 75.3452 177.518 79.4132C187.335 84.3679 193.045 92.3649 195.425 102.831C195.9 104.934 196.182 107.072 196.482 109.211C196.799 111.61 195.53 113.053 193.08 113.07C188.639 113.105 184.215 113.105 179.774 113.07C177.817 113.053 176.936 112.288 176.478 110.41C175.473 106.273 174.063 102.309 171.12 99.0754C167.806 95.4072 163.4 93.6687 158.659 92.7647C152.138 91.5304 145.546 91.3218 138.902 91.6521C134.125 91.8955 129.402 92.3649 124.907 94.0686C120.818 95.5984 117.329 97.928 116.359 102.413C115.866 104.673 115.989 107.125 116.201 109.454C116.342 111.123 117.628 112.357 119.074 113.279C122.334 115.348 126.053 116.182 129.754 116.895C135.236 117.955 140.735 118.859 146.251 119.711C150.816 120.424 155.434 120.893 159.999 121.623C169.164 123.066 178.311 124.683 186.7 128.942C195.266 133.306 199.725 140.277 200.501 149.752C201.082 156.862 200.113 163.59 196.553 169.866C193.398 175.429 188.709 179.41 183.087 182.401C177.112 185.582 170.679 187.355 164.017 188.416C155.927 189.702 147.785 189.928 139.642 189.424C129.349 188.781 119.25 187.216 109.962 182.435C101.061 177.863 94.9452 171.031 92.3543 161.33C91.4202 157.801 90.9619 154.22 91.0853 150.569C91.1382 149.039 92.2485 147.857 93.8172 147.822C96.2141 147.718 98.6111 147.77 101.008 147.753C101.008 147.77 101.008 147.77 101.008 147.753Z" fill="white"/>
</g>
<defs>
<clipPath id="clip0_2537_5236">
<rect width="229" height="255" fill="white"/>
</clipPath>
</defs>
</svg>
