<svg width="252" height="222" viewBox="0 0 252 222" fill="none" xmlns="http://www.w3.org/2000/svg">
<path d="M0.370544 111.026C0.370544 94.5112 21.2432 78.8611 53.2443 69.1561C45.8594 36.8391 49.1419 11.128 63.6039 2.89621C66.9376 0.965256 70.8352 0.050617 75.0917 0.050617V11.3819C72.7325 11.3819 70.8352 11.8393 69.2451 12.7033C62.2704 16.6664 59.2445 31.758 61.6041 51.1683C62.168 55.9449 63.0908 60.975 64.2194 66.1072C74.2713 63.6683 85.2456 61.7879 96.785 60.5687C103.708 51.1683 110.888 42.6315 118.119 35.1621C101.401 19.766 85.7074 11.3313 75.04 11.3313V0C89.1431 0 107.606 9.95936 126.273 27.2358C144.941 10.061 163.403 0.202908 177.506 0.202908V11.5342C166.89 11.5342 151.146 19.9187 134.427 35.2132C141.607 42.6826 148.787 51.1683 155.608 60.5687C167.198 61.7879 178.173 63.6683 188.225 66.1578C189.404 61.0766 190.276 56.1478 190.891 51.4223C193.301 32.012 190.327 16.9204 183.404 12.9062C181.865 11.9915 179.865 11.5853 177.506 11.5853V0.254415C181.814 0.254415 185.712 1.1686 189.096 3.09956C203.507 11.3313 206.738 36.9914 199.302 69.2067C231.201 78.9627 251.971 94.5618 251.971 111.026C251.971 127.539 231.098 143.19 199.097 152.895C206.482 185.211 203.199 210.923 188.737 219.154C185.403 221.085 181.506 222 177.199 222C163.095 222 144.633 212.041 125.966 194.764C107.298 211.939 88.8358 221.797 74.7327 221.797C70.4245 221.797 66.527 220.882 63.1425 218.951C48.7317 210.719 45.5004 185.059 52.937 152.844C21.1407 143.139 0.370544 127.489 0.370544 111.026ZM67.1425 77.1334C69.0403 83.6882 71.399 90.4459 74.0655 97.2045C76.1686 93.1392 78.3737 89.0744 80.7842 85.0091C83.1434 80.9443 85.6562 76.9812 88.1686 73.1193C80.8866 74.1866 73.8607 75.5075 67.1425 77.1334ZM90.6307 131.249C94.6307 138.108 98.7336 144.613 102.99 150.659C110.632 151.32 118.375 151.676 126.171 151.676C133.914 151.676 141.658 151.32 149.248 150.71C153.505 144.663 157.659 138.21 161.659 131.401C165.557 124.745 169.095 117.987 172.327 111.178C169.147 104.369 165.557 97.5601 161.71 90.9032C157.71 84.0439 153.608 77.5397 149.351 71.4933C141.71 70.8327 133.966 70.477 126.171 70.477C118.427 70.477 110.683 70.8326 103.093 71.4427C98.8365 77.4891 94.6824 83.9422 90.6819 90.7514C86.7844 97.4078 83.2458 104.166 80.0145 110.974C83.2458 117.783 86.7844 124.592 90.6307 131.249ZM74.0655 124.643C71.2966 131.452 68.9374 138.261 66.9884 144.867C73.7066 146.492 80.7842 147.864 88.1178 148.932C85.6045 145.019 83.0917 141.005 80.7329 136.889C78.3737 132.824 76.1686 128.708 74.0655 124.643ZM126.068 178.86C130.838 173.982 135.607 168.546 140.325 162.6C135.71 162.803 130.991 162.956 126.222 162.956C121.401 162.956 116.631 162.854 111.965 162.6C116.581 168.546 121.35 173.982 126.068 178.86ZM164.223 148.932C171.506 147.864 178.532 146.543 185.25 144.918C183.353 138.362 180.993 131.605 178.326 124.847C176.224 128.911 174.019 132.977 171.608 137.041C169.198 141.106 166.737 145.07 164.223 148.932ZM126.325 43.191C121.555 48.0688 116.785 53.5056 112.067 59.4503C116.683 59.2474 121.401 59.0951 126.171 59.0951C130.991 59.0951 135.761 59.1968 140.428 59.4503C135.812 53.5056 131.043 48.0688 126.325 43.191ZM164.275 73.1193C166.787 77.0318 169.301 81.046 171.659 85.1619C174.019 89.2271 176.224 93.292 178.326 97.3568C181.096 90.548 183.455 83.7393 185.403 77.1334C178.685 75.5581 171.608 74.1866 164.275 73.1193ZM210.687 136.736C228.841 129.064 240.586 119.003 240.586 111.026C240.586 103.048 228.841 92.9363 210.687 85.3142C206.276 83.4343 201.456 81.7573 196.481 80.1824C193.558 90.1418 189.712 100.507 184.942 111.127C189.66 121.696 193.455 132.011 196.327 141.919C201.404 140.344 206.225 138.616 210.687 136.736ZM183.096 209.347C190.071 205.384 193.097 190.293 190.737 170.883C190.173 166.106 189.25 161.076 188.122 155.943C178.07 158.382 167.096 160.263 155.556 161.482C148.633 170.883 141.453 179.419 134.222 186.888C150.941 202.285 166.634 210.719 177.301 210.719C179.609 210.669 181.558 210.211 183.096 209.347ZM61.45 170.628C59.0396 190.039 62.0139 205.13 68.9374 209.144C70.4762 210.059 72.476 210.466 74.8352 210.466C85.4509 210.466 101.195 202.081 117.914 186.787C110.734 179.317 103.554 170.832 96.7334 161.431C85.1431 160.212 74.1684 158.332 64.1166 155.842C62.9372 160.974 62.0139 165.903 61.45 170.628ZM41.7054 136.736C46.1159 138.616 50.9368 140.293 55.9113 141.869C58.8343 131.909 62.6806 121.544 67.4503 110.924C62.7319 100.355 58.9372 90.0401 56.0649 80.1313C50.988 81.7067 46.1676 83.4343 41.6543 85.3142C23.4997 92.9869 11.7556 103.048 11.7556 111.026C11.8071 119.003 23.5508 129.115 41.7054 136.736Z" fill="white"/>
<path d="M126.231 134.245C113.287 134.245 102.794 123.849 102.794 111.024C102.794 98.199 113.287 87.8027 126.231 87.8027C139.175 87.8027 149.668 98.199 149.668 111.024C149.668 123.849 139.175 134.245 126.231 134.245Z" fill="white"/>
</svg>
