<svg width="25" height="24" viewBox="0 0 25 24" fill="none" xmlns="http://www.w3.org/2000/svg">
<path d="M10.7704 1.85605C11.3691 0.0134301 13.9759 0.0134344 14.5746 1.85606L16.0443 6.37929C16.3121 7.20333 17.08 7.76125 17.9464 7.76125H22.7024C24.6399 7.76125 25.4454 10.2405 23.878 11.3793L20.0303 14.1748C19.3293 14.6841 19.036 15.5868 19.3038 16.4109L20.7735 20.9341C21.3722 22.7767 19.2632 24.309 17.6958 23.1702L13.8481 20.3747C13.1471 19.8654 12.1979 19.8654 11.4969 20.3747L7.64925 23.1702C6.08182 24.309 3.97287 22.7767 4.57157 20.9341L6.04126 16.4109C6.309 15.5868 6.01569 14.6841 5.31471 14.1748L1.46702 11.3793C-0.100407 10.2405 0.705148 7.76125 2.64259 7.76125H7.3986C8.26506 7.76125 9.03297 7.20333 9.30071 6.37929L10.7704 1.85605Z" fill="white"/>
</svg>
