<svg width="274" height="240" viewBox="0 0 274 240" fill="none" xmlns="http://www.w3.org/2000/svg">
<path d="M0 157.381C48.7958 185.657 98.9471 198.666 153.888 172.92C103.465 134.978 66.1454 85.9237 27.1992 38.3153C43.9162 51.4144 60.2719 64.7845 77.2601 77.4319C94.429 90.1696 112.05 102.275 130.664 115.464C106.718 84.8396 83.8565 55.7507 60.9948 26.5713C61.537 26.1196 61.8984 25.7583 62.3502 25.3066C102.923 62.3454 146.659 95.1382 191.478 126.937C204.491 100.107 204.31 49.6076 170.876 0.553844C171.147 0.373167 171.599 -0.0785251 171.689 0.0118134C201.328 20.2476 226.991 44.2777 242.985 77.0705C256.63 104.895 260.064 133.893 251.479 164.067C250.937 166.054 251.841 169.216 253.196 171.023C263.317 184.935 271.992 199.479 273.528 216.915C274.16 223.78 272.805 230.827 272.443 236.879C268.196 233.446 264.22 230.556 260.606 227.394C246.78 215.379 231.78 212.578 214.611 220.257C200.876 226.4 187.051 233.537 172.593 236.518C136.628 243.926 102.291 236.428 69.8503 219.986C41.0246 205.351 17.8918 184.393 0 157.381Z" fill="white"/>
</svg>
